ply
format ascii 1.0
comment VCGLIB generated
element vertex 88
property float x
property float y
property float z
property float nx
property float ny
property float nz
property float texture_u
property float texture_v
element face 56
property list uchar int vertex_indices
end_header
-4.273823 9.100433 -0.770745 0 0 -1 0.508092 0.928066
-5.490273 7.696575 -0.770745 0 0 -1 0.565311 0.862032
-6.261932 6.006863 -0.770745 0 0 -1 0.601609 0.782552
-6.526295 4.168194 -0.770745 0 0 -1 0.614044 0.696064
-6.526295 -10.62807 -0.770745 0 0 -1 0.614046 0.000080
6.526295 -10.62807 -0.770745 0 0 -1 0.000081 0.000078
6.526295 4.168194 -0.770745 0 0 -1 0.000078 0.696062
6.261936 6.006863 -0.770745 0 0 -1 0.012513 0.782549
5.490276 7.696575 -0.770745 0 0 -1 0.048810 0.862030
4.273815 9.100433 -0.770745 0 0 -1 0.106029 0.928065
2.711124 10.10472 -0.770745 0 0 -1 0.179535 0.975304
0.9287949 10.62806 -0.770745 0 0 -1 0.263372 0.999922
-3.814697e-06 10.62806 -0.770745 0 0 -1 0.307061 0.999922
-0.9287949 10.62806 -0.770745 0 0 -1 0.350749 0.999922
-2.711136 10.10472 -0.770745 0 0 -1 0.434586 0.975305
-6.261932 6.006863 0.770745 0 0 1 0.601609 0.782552
-5.490273 7.696575 0.770745 0 0 1 0.565311 0.862032
-4.273823 9.100433 0.770745 0 0 1 0.508092 0.928066
-2.711136 10.10472 0.770745 0 0 1 0.434586 0.975305
-0.9287949 10.62806 0.770745 0 0 1 0.350749 0.999922
-3.814697e-06 10.62806 0.770745 0 0 1 0.307061 0.999922
0.9287949 10.62806 0.770745 0 0 1 0.263372 0.999922
2.711124 10.10472 0.770745 0 0 1 0.179535 0.975304
-6.526295 4.168194 0.770745 0 0 1 0.614044 0.696064
6.526295 -10.62807 0.770745 0 0 1 0.000081 0.000078
-6.526295 -10.62807 0.770745 0 0 1 0.614046 0.000080
6.261936 6.006863 0.770745 0 0 1 0.012513 0.782549
6.526295 4.168194 0.770745 0 0 1 0.000078 0.696062
4.273815 9.100433 0.770745 0 0 1 0.106029 0.928065
5.490276 7.696575 0.770745 0 0 1 0.048810 0.862030
-4.273823 9.100433 -0.770745 -0.5406448 0.841251 0 0.840058 0.684139
-2.711136 10.10472 -0.770745 -0.5406448 0.841251 0 0.786391 0.723137
-2.711136 10.10472 0.770745 -0.5406448 0.841251 0 0.762872 0.679576
-4.273823 9.100433 0.770745 -0.5406448 0.841251 0 0.804797 0.649318
0.9287949 10.62806 -0.770745 0.2817325 0.959493 0 0.657932 0.746375
2.711124 10.10472 -0.770745 0.2817326 0.9594929 0 0.594659 0.730617
2.711124 10.10472 0.770745 0.2817325 0.959493 0 0.612638 0.685218
0.9287949 10.62806 0.770745 0.2817326 0.9594929 0 0.661700 0.697929
-2.711136 10.10472 -0.770745 -0.2817305 0.9594936 0 0.786391 0.723137
-0.9287949 10.62806 -0.770745 -0.2817305 0.9594936 0 0.723561 0.744324
-0.9287949 10.62806 0.770745 -0.2817305 0.9594936 0 0.714463 0.696301
-2.711136 10.10472 0.770745 -0.2817305 0.9594936 0 0.762872 0.679576
6.526295 -10.62807 -0.770745 0 -1 0 0.519829 0.142764
-6.526295 -10.62807 -0.770745 0 -1 0 0.806047 0.157877
-6.526295 -10.62807 0.770745 0 -1 0 0.779494 0.194880
6.526295 -10.62807 0.770745 0 -1 0 0.551835 0.175822
5.490276 7.696575 -0.770745 0.9096329 0.4154131 0 0.494706 0.648550
6.261936 6.006863 -0.770745 0.9096329 0.4154132 0 0.464900 0.590112
6.261936 6.006863 0.770745 0.9096329 0.4154131 0 0.509560 0.572797
5.490276 7.696575 0.770745 0.9096329 0.4154132 0 0.535127 0.619812
-6.261932 6.006863 -0.770745 -0.9096329 0.4154131 0 0.902925 0.570073
-5.490273 7.696575 -0.770745 -0.9096329 0.4154132 0 0.879924 0.631398
-5.490273 7.696575 0.770745 -0.9096329 0.4154131 0 0.836431 0.608176
-6.261932 6.006863 0.770745 -0.9096329 0.4154132 0 0.855357 0.559711
4.273815 9.100433 -0.770745 0.7557479 0.6548628 0 0.538738 0.696916
5.490276 7.696575 -0.770745 0.7557479 0.6548628 0 0.494706 0.648550
5.490276 7.696575 0.770745 0.7557479 0.6548628 0 0.535127 0.619812
4.273815 9.100433 0.770745 0.7557479 0.6548628 0 0.569272 0.658518
-5.490273 7.696575 -0.770745 -0.7557508 0.6548594 0 0.879924 0.631398
-4.273823 9.100433 -0.770745 -0.7557508 0.6548594 0 0.840058 0.684139
-4.273823 9.100433 0.770745 -0.7557508 0.6548594 0 0.804797 0.649318
-5.490273 7.696575 0.770745 -0.7557508 0.6548594 0 0.836431 0.608176
-3.814697e-06 10.62806 -0.770745 0 1 0 0.690370 0.747359
0.9287949 10.62806 -0.770745 0 1 0 0.657932 0.746375
0.9287949 10.62806 0.770745 0 1 0 0.661700 0.697929
-3.814697e-06 10.62806 0.770745 0 1 0 0.688604 0.697512
-0.9287949 10.62806 -0.770745 0 1 0 0.723561 0.744324
-0.9287949 10.62806 0.770745 0 1 0 0.714463 0.696301
6.526295 4.168194 -0.770745 1 0 0 0.452998 0.528445
6.526295 -10.62807 -0.770745 1 0 0 0.519829 0.142764
6.526295 -10.62807 0.770745 1 0 0 0.551835 0.175822
6.526295 4.168194 0.770745 1 0 0 0.498019 0.523113
-6.526295 -10.62807 -0.770745 -1 0 0 0.806047 0.157877
-6.526295 4.168194 -0.770745 -1 0 0 0.908407 0.505969
-6.526295 4.168194 0.770745 -1 0 0 0.860584 0.507633
-6.526295 -10.62807 0.770745 -1 0 0 0.779494 0.194880
6.261936 6.006863 -0.770745 0.9898213 0.1423161 0 0.464900 0.590112
6.526295 4.168194 -0.770745 0.9898213 0.1423161 0 0.452998 0.528445
6.526295 4.168194 0.770745 0.9898213 0.1423161 0 0.498019 0.523113
6.261936 6.006863 0.770745 0.9898213 0.1423161 0 0.509560 0.572797
-6.526295 4.168194 -0.770745 -0.9898214 0.1423149 0 0.908407 0.505969
-6.261932 6.006863 -0.770745 -0.9898214 0.1423149 0 0.902925 0.570073
-6.261932 6.006863 0.770745 -0.9898214 0.1423149 0 0.855357 0.559711
-6.526295 4.168194 0.770745 -0.9898214 0.1423149 0 0.860584 0.507633
2.711124 10.10472 -0.770745 0.5406448 0.841251 0 0.594659 0.730617
4.273815 9.100433 -0.770745 0.5406448 0.841251 0 0.538738 0.696916
4.273815 9.100433 0.770745 0.5406448 0.841251 0 0.569272 0.658518
2.711124 10.10472 0.770745 0.5406448 0.841251 0 0.612638 0.685218
3 1 0 2 
3 3 2 4 
3 5 4 6 
3 7 6 8 
3 9 8 10 
3 11 10 12 
3 13 12 14 
3 0 14 2 
3 4 2 6 
3 8 6 10 
3 12 10 14 
3 2 14 6 
3 10 6 14 
3 16 15 17 
3 18 17 19 
3 21 20 22 
3 19 17 20 
3 15 23 17 
3 25 24 23 
3 27 26 24 
3 29 28 26 
3 22 20 28 
3 17 23 20 
3 24 26 23 
3 28 20 26 
3 26 20 23 
3 31 30 32 
3 32 30 33 
3 35 34 36 
3 36 34 37 
3 39 38 40 
3 40 38 41 
3 43 42 44 
3 44 42 45 
3 47 46 48 
3 48 46 49 
3 51 50 52 
3 52 50 53 
3 55 54 56 
3 56 54 57 
3 59 58 60 
3 60 58 61 
3 63 62 64 
3 64 62 65 
3 62 66 65 
3 65 66 67 
3 69 68 70 
3 70 68 71 
3 73 72 74 
3 74 72 75 
3 77 76 78 
3 78 76 79 
3 81 80 82 
3 82 80 83 
3 85 84 86 
3 86 84 87 
