ply
format ascii 1.0
comment VCGLIB generated
element vertex 82
property float x
property float y
property float z
property float nx
property float ny
property float nz
property float texture_u
property float texture_v
element face 80
property list uchar int vertex_indices
end_header
0.001313973 0.003864 -0.305609 -0.3090577 0.9510432 2.701868e-08 0.026948 0.012882
-0.003228026 0.002388 -0.305609 -0.9246422 0.380837 8.083479e-08 0.040416 0.011886
-0.003227964 0.002388 0.411594 -0.6479601 0.7616742 5.664647e-08 0.040416 0.989054
0.001314036 0.003864 0.411594 -0.3090577 0.9510432 2.701868e-08 0.026948 0.988058
-0.003228026 -0.002388 -0.305609 -0.6479601 -0.7616742 5.664647e-08 0.054808 0.010380
-0.003227964 -0.002388 0.411594 -0.9246422 -0.380837 8.083479e-08 0.054808 0.990560
0.001313973 -0.003864 -0.305609 0.5242205 -0.8515825 -4.582881e-08 0.069170 0.010380
0.001314036 -0.003864 0.411594 0.07646271 -0.9970723 -6.684582e-09 0.069170 0.990560
0.004120973 0 -0.305609 0.9719112 0.2353479 -8.496718e-08 0.083562 0.011886
0.004121036 0 0.411594 0.9719112 -0.2353479 -8.496718e-08 0.083562 0.989054
0.001313973 0.003864 -0.305609 0.8090529 0.5877357 -7.072966e-08 0.097030 0.012882
0.001314036 0.003864 0.411594 0.8090529 0.5877358 -7.072965e-08 0.097030 0.988058
-0.003228026 0.002388 -0.305609 -8.742278e-08 0 -1 0.343725 0.036439
0.001313973 0.003864 -0.305609 -8.742278e-08 0 -1 0.377242 0.025549
5.897328e-05 0 -0.305609 -8.742278e-08 0 -1 0.367978 0.052861
-0.003228026 -0.002388 -0.305609 -8.742278e-08 0 -1 0.343725 0.071681
0.001313973 -0.003864 -0.305609 -8.742278e-08 0 -1 0.377242 0.082571
0.004120973 0 -0.305609 -8.742278e-08 0 -1 0.397957 0.054060
0.001314036 0.003864 0.411594 8.742278e-08 0 1 0.555344 0.973571
-0.003227964 0.002388 0.411594 8.742278e-08 0 1 0.526722 0.964271
5.903598e-05 0 0.411594 8.742278e-08 0 1 0.547433 0.948199
-0.003227964 -0.002388 0.411594 8.742278e-08 0 1 0.526722 0.934176
0.001314036 -0.003864 0.411594 8.742278e-08 0 1 0.555344 0.924876
0.004121036 0 0.411594 8.742278e-08 0 1 0.573033 0.949223
3.848875e-08 -0.001381 0.44026 0.8693991 -0.4824463 0.1067277 0.545078 0.824271
0.0005220382 -0.0009779998 0.436734 0.8768607 -0.469474 0.1034863 0.551650 0.765130
0.0007800385 0 0.44026 0.9931049 0 0.1172287 0.573686 0.819675
3.888504e-08 0 0.444793 0.9919581 0 0.1265667 0.579775 0.892935
0.0005220382 0.0009779998 0.436734 0.8768423 0.4695078 0.1034887 0.592074 0.763162
3.848875e-08 0.001381 0.44026 0.8693709 0.4824963 0.1067312 0.602511 0.821103
3.848875e-08 0.001381 0.44026 -0.8693709 0.4824963 0.1067313 0.359894 0.186869
-0.0005219618 0.0009779998 0.436734 -0.8768423 0.4695078 0.1034889 0.353175 0.245422
-0.0007799615 0 0.44026 -0.9931049 0 0.1172289 0.330900 0.190284
3.888504e-08 0 0.444793 -0.9919581 0 0.1265669 0.332328 0.116702
-0.0005219618 -0.0009779998 0.436734 -0.8768607 -0.469474 0.1034865 0.312724 0.246174
3.848875e-08 -0.001381 0.44026 -0.8693991 -0.4824463 0.1067279 0.302263 0.187623
0.001349037 0.003667 0.418262 0.8988513 0.4254612 0.1051144 0.626988 0.458500
3.640774e-08 0.005897999 0.416456 0.8345244 0.5358511 0.1281897 0.675437 0.434348
0.002006035 0.006868999 0.402234 0.933228 0.3577732 -0.03292197 0.663618 0.194208
3.472511e-08 0.010891 0.397209 0.8882595 0.452052 -0.08151124 0.736960 0.107482
3.472511e-08 0.010891 0.397209 -0.8882595 0.452052 -0.0815111 0.541785 0.889896
-0.002005965 0.006868999 0.402234 -0.933228 0.3577732 -0.0329218 0.462764 0.808338
-0.001348963 0.003667 0.418262 -0.8988513 0.4254613 0.1051146 0.408454 0.547078
3.640774e-08 0.005897999 0.416456 -0.8345244 0.5358511 0.1281898 0.458415 0.567908
0.003272035 0 0.397209 0.9915906 -3.897628e-09 -0.1294146 0.548183 0.122354
3.419498e-08 0 0.391145 0.9470643 0 -0.321044 0.543374 0.011132
0.002006035 -0.006868999 0.402234 0.9332449 -0.3577276 -0.0329371 0.438894 0.203285
3.472511e-08 -0.010891 0.397209 0.8882922 -0.4519838 -0.08153331 0.359865 0.122679
3.472511e-08 -0.010891 0.397209 -0.8882922 -0.4519838 -0.08153316 0.164494 0.900269
-0.002005965 -0.006868999 0.402234 -0.9332449 -0.3577276 -0.03293693 0.237930 0.814493
-0.003271965 0 0.397209 -0.9915906 3.897628e-09 -0.1294144 0.352430 0.887873
3.419498e-08 0 0.391145 -0.9470643 0 -0.3210439 0.355158 0.999179
0.001349037 -0.003667 0.418262 0.8988807 -0.4254026 0.1051002 0.495859 0.463229
3.640774e-08 -0.005898999 0.416456 0.8345982 -0.5357423 0.1281633 0.444494 0.442796
-0.001348963 -0.003667 0.418262 -0.8988807 -0.4254026 0.1051003 0.277294 0.551211
3.640774e-08 -0.005898999 0.416456 -0.8345982 -0.5357423 0.1281634 0.227424 0.575059
0.002179036 0 0.416456 0.9964563 0 0.0841122 0.560598 0.433302
-0.002178964 0 0.416456 -0.9964563 3.957979e-09 0.08411238 0.343910 0.576698
-2.103051e-08 0.016899 -0.240561 -1 0 8.742278e-08 0.774838 0.008475
-2.670233e-08 0.026635 -0.305439 -1 0 8.742278e-08 0.627315 0.991526
-2.670233e-08 0.002569 -0.305439 -1 0 8.742278e-08 0.991967 0.991526
-2.103051e-08 0.002569 -0.240561 -1 0 8.742278e-08 0.991967 0.008475
-2.103051e-08 0.016899 -0.240561 1 0 -8.742278e-08 0.774838 0.008475
-2.103051e-08 0.002569 -0.240561 1 0 -8.742278e-08 0.991967 0.008475
-2.670233e-08 0.002569 -0.305439 1 0 -8.742278e-08 0.991967 0.991526
-2.670233e-08 0.026635 -0.305439 1 0 -8.742278e-08 0.627315 0.991526
-0.01463502 -0.008448998 -0.240561 0.499974 -0.8660404 5.543621e-06 0.774838 0.008475
-0.02306703 -0.013318 -0.305439 0.499974 -0.8660403 5.54362e-06 0.627315 0.991526
-0.002225026 -0.001285 -0.305439 0.499974 -0.8660404 5.543621e-06 0.991967 0.991526
-0.002225021 -0.001285 -0.240561 0.499974 -0.8660403 5.54362e-06 0.991967 0.008475
-0.01463502 -0.008448998 -0.240561 -0.499974 0.8660404 -5.543621e-06 0.774838 0.008475
-0.002225021 -0.001285 -0.240561 -0.499974 0.8660403 -5.54362e-06 0.991967 0.008475
-0.002225026 -0.001285 -0.305439 -0.499974 0.8660404 -5.543621e-06 0.991967 0.991526
-0.02306703 -0.013318 -0.305439 -0.499974 0.8660403 -5.54362e-06 0.627315 0.991526
0.01463498 -0.008448998 -0.240561 0.499974 0.8660404 -5.63104e-06 0.774838 0.008475
0.02306697 -0.013318 -0.305439 0.499974 0.8660403 -5.631039e-06 0.627315 0.991526
0.002224973 -0.001285 -0.305439 0.499974 0.8660404 -5.63104e-06 0.991967 0.991526
0.002224979 -0.001285 -0.240561 0.499974 0.8660403 -5.631039e-06 0.991967 0.008475
0.01463498 -0.008448998 -0.240561 -0.499974 -0.8660404 5.63104e-06 0.774838 0.008475
0.002224979 -0.001285 -0.240561 -0.499974 -0.8660403 5.631039e-06 0.991967 0.008475
0.002224973 -0.001285 -0.305439 -0.499974 -0.8660404 5.63104e-06 0.991967 0.991526
0.02306697 -0.013318 -0.305439 -0.499974 -0.8660403 5.631039e-06 0.627315 0.991526
3 0 1 2 
3 0 2 3 
3 1 4 5 
3 1 5 2 
3 4 6 7 
3 4 7 5 
3 6 8 9 
3 6 9 7 
3 8 10 11 
3 8 11 9 
3 12 13 14 
3 15 12 14 
3 16 15 14 
3 17 16 14 
3 13 17 14 
3 18 19 20 
3 19 21 20 
3 21 22 20 
3 22 23 20 
3 23 18 20 
3 24 25 26 
3 24 26 27 
3 26 28 29 
3 26 29 27 
3 30 31 32 
3 30 32 33 
3 32 34 35 
3 32 35 33 
3 29 28 36 
3 29 36 37 
3 36 38 39 
3 36 39 37 
3 40 41 42 
3 40 42 43 
3 42 31 30 
3 42 30 43 
3 39 38 44 
3 39 44 45 
3 44 46 47 
3 44 47 45 
3 48 49 50 
3 48 50 51 
3 50 41 40 
3 50 40 51 
3 47 46 52 
3 47 52 53 
3 52 25 24 
3 52 24 53 
3 35 34 54 
3 35 54 55 
3 54 49 48 
3 54 48 55 
3 52 46 44 
3 52 44 56 
3 44 38 36 
3 44 36 56 
3 36 28 26 
3 36 26 56 
3 26 25 52 
3 26 52 56 
3 54 34 32 
3 54 32 57 
3 32 31 42 
3 32 42 57 
3 42 41 50 
3 42 50 57 
3 50 49 54 
3 50 54 57 
3 58 59 60 
3 58 60 61 
3 62 63 64 
3 62 64 65 
3 66 67 68 
3 66 68 69 
3 70 71 72 
3 70 72 73 
3 74 75 76 
3 74 76 77 
3 78 79 80 
3 78 80 81 
