ply
format ascii 1.0
comment VCGLIB generated
element vertex 82
property float x
property float y
property float z
property float nx
property float ny
property float nz
property float texture_u
property float texture_v
element face 80
property list uchar int vertex_indices
end_header
-0.001314 0.003864 0.305609 0.6181154 1.902087 0 0.026948 0.012882
0.003228 0.002388 0.305609 2.309058 0.9510433 0 0.040416 0.011886
0.003228 0.002388 -0.411594 1.618115 1.902087 0 0.040416 0.989054
-0.001314 0.003864 -0.411594 0.3090577 0.9510433 0 0.026948 0.988058
0.003228 -0.002388 0.305609 1.618115 -1.902087 0 0.054808 0.010380
0.003228 -0.002388 -0.411594 2.309058 -0.9510433 0 0.054808 0.990560
-0.001314 -0.003864 0.305609 -1.309048 -2.126515 0 0.069170 0.010380
-0.001314 -0.003864 -0.411594 -0.1909375 -2.489822 0 0.069170 0.990560
-0.004121 0 0.305609 -2.427159 0.5877358 0 0.083562 0.011886
-0.004121 -0 -0.411594 -2.427159 -0.5877358 0 0.083562 0.989054
-0.001314 0.003864 0.305609 -0.8090529 0.5877358 0 0.097030 0.012882
-0.001314 0.003864 -0.411594 -1.618106 1.175472 0 0.097030 0.988058
0.003228 0.002388 0.305609 0 0 2 0.343725 0.036439
-0.001314 0.003864 0.305609 0 0 2 0.377242 0.025549
-5.9e-05 0 0.305609 0 0 5 0.367978 0.052861
0.003228 -0.002388 0.305609 0 0 2 0.343725 0.071681
-0.001314 -0.003864 0.305609 0 0 2 0.377242 0.082571
-0.004121 0 0.305609 0 0 2 0.397957 0.054060
-0.001314 0.003864 -0.411594 0 0 -2 0.555344 0.973571
0.003228 0.002388 -0.411594 0 0 -2 0.526722 0.964271
-5.9e-05 -0 -0.411594 0 0 -5 0.547433 0.948199
0.003228 -0.002388 -0.411594 0 0 -2 0.526722 0.934176
-0.001314 -0.003864 -0.411594 0 0 -2 0.555344 0.924876
-0.004121 -0 -0.411594 0 0 -2 0.573033 0.949223
0 -0.001381 -0.44026 -3.477475 -1.929718 -0.4268963 0.545078 0.824271
-0.000522 -0.000978 -0.436734 -2.629904 -1.408059 -0.3103792 0.551650 0.765130
-0.00078 -0 -0.44026 -7.026232 0 -0.8293955 0.573686 0.819675
0 -0 -0.444793 -1.730783 0 -0.2208356 0.579775 0.892935
-0.000522 0.000978 -0.436734 -2.629848 1.40816 -0.3103863 0.592074 0.763162
0 0.001381 -0.44026 -3.477364 1.929919 -0.4269104 0.602511 0.821103
0 0.001381 -0.44026 3.477364 1.929919 -0.4269104 0.359894 0.186869
0.000522 0.000978 -0.436734 2.629848 1.40816 -0.3103863 0.353175 0.245422
0.00078 -0 -0.44026 7.026232 0 -0.8293955 0.330900 0.190284
0 -0 -0.444793 1.730783 0 -0.2208356 0.332328 0.116702
0.000522 -0.000978 -0.436734 2.629904 -1.408059 -0.3103792 0.312724 0.246174
0 -0.001381 -0.44026 3.477475 -1.929718 -0.4268963 0.302263 0.187623
-0.001349 0.003667 -0.418262 -7.080089 3.351281 -0.8279678 0.626988 0.458500
0 0.005898 -0.416456 -1.664295 1.06865 -0.2556492 0.675437 0.434348
-0.002006 0.006869 -0.402234 -2.686497 1.029927 0.0947727 0.663618 0.194208
0 0.010891 -0.397209 -3.403829 1.732273 0.3123525 0.736960 0.107482
0 0.010891 -0.397209 3.403829 1.732273 0.3123525 0.541785 0.889896
0.002006 0.006869 -0.402234 2.686497 1.029927 0.09477268 0.462764 0.808338
0.001349 0.003667 -0.418262 7.080089 3.351282 -0.8279679 0.408454 0.547078
0 0.005898 -0.416456 1.664295 1.06865 -0.2556493 0.458415 0.567908
-0.003272 -0 -0.397209 -7.581969 -2.980232e-08 0.989538 0.548183 0.122354
0 -0 -0.391145 -1.82182 0 0.6175762 0.543374 0.011132
-0.002006 -0.006869 -0.402234 -2.686591 -1.029813 0.09481786 0.438894 0.203285
0 -0.010891 -0.397209 -3.404018 -1.732044 0.3124429 0.359865 0.122679
0 -0.010891 -0.397209 3.404018 -1.732044 0.3124429 0.164494 0.900269
0.002006 -0.006869 -0.402234 2.686591 -1.029813 0.09481786 0.237930 0.814493
0.003272 -0 -0.397209 7.581969 2.980232e-08 0.989538 0.352430 0.887873
0 -0 -0.391145 1.82182 0 0.6175762 0.355158 0.999179
-0.001349 -0.003667 -0.418262 -7.080389 -3.350852 -0.8278635 0.495859 0.463229
0 -0.005899 -0.416456 -1.664445 -1.068435 -0.2555971 0.444494 0.442796
0.001349 -0.003667 -0.418262 7.080389 -3.350852 -0.8278634 0.277294 0.551211
0 -0.005899 -0.416456 1.664445 -1.068435 -0.255597 0.227424 0.575059
-0.002179 -0 -0.416456 -3.751498 0 -0.3166693 0.560598 0.433302
0.002179 -0 -0.416456 3.751498 1.490116e-08 -0.3166693 0.343910 0.576698
0 0.016899 0.240561 2 0 0 0.774838 0.008475
0 0.026635 0.305439 1 0 0 0.627315 0.991526
-0 0.002569 0.305439 2 0 0 0.991967 0.991526
0 0.002569 0.240561 1 0 0 0.991967 0.008475
-0 0.016899 0.240561 -2 0 0 0.774838 0.008475
-0 0.002569 0.240561 -1 0 0 0.991967 0.008475
0 0.002569 0.305439 -2 0 0 0.991967 0.991526
-0 0.026635 0.305439 -1 0 0 0.627315 0.991526
0.014635 -0.008449 0.240561 -0.9999479 -1.732081 -1.117466e-05 0.774838 0.008475
0.023067 -0.013318 0.305439 -0.499974 -0.8660405 -5.58733e-06 0.627315 0.991526
0.002225 -0.001285 0.305439 -0.9999479 -1.732081 -1.117466e-05 0.991967 0.991526
0.002225 -0.001285 0.240561 -0.499974 -0.8660405 -5.58733e-06 0.991967 0.008475
0.014635 -0.008449 0.240561 0.9999479 1.732081 1.117466e-05 0.774838 0.008475
0.002225 -0.001285 0.240561 0.499974 0.8660405 5.58733e-06 0.991967 0.008475
0.002225 -0.001285 0.305439 0.9999479 1.732081 1.117466e-05 0.991967 0.991526
0.023067 -0.013318 0.305439 0.499974 0.8660405 5.58733e-06 0.627315 0.991526
-0.014635 -0.008449 0.240561 -0.9999479 1.732081 1.117466e-05 0.774838 0.008475
-0.023067 -0.013318 0.305439 -0.499974 0.8660405 5.58733e-06 0.627315 0.991526
-0.002225 -0.001285 0.305439 -0.9999479 1.732081 1.117466e-05 0.991967 0.991526
-0.002225 -0.001285 0.240561 -0.499974 0.8660405 5.58733e-06 0.991967 0.008475
-0.014635 -0.008449 0.240561 0.9999479 -1.732081 -1.117466e-05 0.774838 0.008475
-0.002225 -0.001285 0.240561 0.499974 -0.8660405 -5.58733e-06 0.991967 0.008475
-0.002225 -0.001285 0.305439 0.9999479 -1.732081 -1.117466e-05 0.991967 0.991526
-0.023067 -0.013318 0.305439 0.499974 -0.8660405 -5.58733e-06 0.627315 0.991526
3 0 1 2 
3 0 2 3 
3 1 4 5 
3 1 5 2 
3 4 6 7 
3 4 7 5 
3 6 8 9 
3 6 9 7 
3 8 10 11 
3 8 11 9 
3 12 13 14 
3 15 12 14 
3 16 15 14 
3 17 16 14 
3 13 17 14 
3 18 19 20 
3 19 21 20 
3 21 22 20 
3 22 23 20 
3 23 18 20 
3 24 25 26 
3 24 26 27 
3 26 28 29 
3 26 29 27 
3 30 31 32 
3 30 32 33 
3 32 34 35 
3 32 35 33 
3 29 28 36 
3 29 36 37 
3 36 38 39 
3 36 39 37 
3 40 41 42 
3 40 42 43 
3 42 31 30 
3 42 30 43 
3 39 38 44 
3 39 44 45 
3 44 46 47 
3 44 47 45 
3 48 49 50 
3 48 50 51 
3 50 41 40 
3 50 40 51 
3 47 46 52 
3 47 52 53 
3 52 25 24 
3 52 24 53 
3 35 34 54 
3 35 54 55 
3 54 49 48 
3 54 48 55 
3 52 46 44 
3 52 44 56 
3 44 38 36 
3 44 36 56 
3 36 28 26 
3 36 26 56 
3 26 25 52 
3 26 52 56 
3 54 34 32 
3 54 32 57 
3 32 31 42 
3 32 42 57 
3 42 41 50 
3 42 50 57 
3 50 49 54 
3 50 54 57 
3 58 59 60 
3 58 60 61 
3 62 63 64 
3 62 64 65 
3 66 67 68 
3 66 68 69 
3 70 71 72 
3 70 72 73 
3 74 75 76 
3 74 76 77 
3 78 79 80 
3 78 80 81 
