ply
format ascii 1.0
comment VCGLIB generated
element vertex 343
property float x
property float y
property float z
property float nx
property float ny
property float nz
property float texture_u
property float texture_v
element face 400
property list uchar int vertex_indices
end_header
0.04629153 -0.032431 0.0002414882 0.8015397 -0.5965212 -0.04119087 0.565890 0.789320
0.04876053 -0.01720702 0.001805492 0.9487818 0.3116056 0.05210714 0.566160 0.734220
0.05151153 -0.02130794 0.05748949 0.9479178 0.3179003 -0.01978157 0.768030 0.719750
0.04839754 -0.04051697 0.05551549 0.8011028 -0.5880334 -0.1115839 0.770580 0.789280
0.1123346 -0.07527601 0.1597505 0.4867664 -0.8414461 0.2345782 0.066310 0.154190
0.1197285 -0.02967297 0.1644355 0.7455461 0.6058403 0.2777022 0.115810 0.150540
0.1020335 -0.03339099 0.1779485 0.6918279 0.4459885 0.567863 0.120370 0.183930
0.09626556 -0.06896495 0.1742935 0.2199644 -0.9100974 0.3511959 0.062230 0.183170
0.02469653 -0.02937496 6.148964e-05 -0.987155 -0.1553092 -0.03747229 0.565420 0.884190
0.01819051 -0.03606498 0.05528149 -0.8635634 -0.4796269 -0.1556161 0.761120 0.917620
0.02145255 -0.01594996 0.05734749 -0.9810365 0.168872 -0.09512921 0.746290 0.988960
0.02731055 -0.01325702 0.001717485 -0.9869853 0.1606929 -0.006151655 0.565130 0.941400
0.0381915 -0.009104963 0.05840049 -0.04139904 0.9989901 0.01746534 0.761080 0.655780
0.03938353 -0.007642981 0.002543487 0.3875533 0.9164615 0.09950313 0.566390 0.686790
0.02731055 -0.01325702 0.001717485 -0.4033496 0.9114257 0.0813155 0.566620 0.640220
0.02145255 -0.01594996 0.05734749 -0.4007163 0.9161496 0.00981359 0.749240 0.592440
0.03437555 -0.03852999 -0.0006295107 -0.3551257 -0.9294485 -0.1000565 0.565650 0.837020
0.03190655 -0.04786801 0.05441849 0.07967708 -0.9820157 -0.1711633 0.768310 0.853590
0.05970651 -0.04575896 0.06205249 0.5917785 -0.5173582 -0.6181738 0.377230 0.168610
0.04839754 -0.04051697 0.05551549 0.3586331 -0.5404722 -0.7610993 0.351650 0.166660
0.05151153 -0.02130794 0.05748949 0.5238943 0.2513852 -0.8138429 0.354210 0.126710
0.06367654 -0.02127098 0.06456749 0.7784762 0.3690321 -0.5077304 0.381200 0.128550
0.04170555 -0.004948016 0.07340649 0.16649 0.9734209 -0.1572671 0.367640 0.077520
0.0381915 -0.009104963 0.05840049 0.2124649 0.8521114 -0.4782937 0.336170 0.092530
0.02145255 -0.01594996 0.05734749 -0.3547481 0.9172701 -0.1810227 0.307740 0.061590
0.01490855 -0.01331603 0.08153149 -0.2498488 0.9513133 0.1804959 0.348220 0.017660
0.01819051 -0.03606498 0.05528149 -0.8868186 -0.2974568 -0.3536557 0.301700 0.227870
0.01037854 -0.04125798 0.07866149 -0.9287121 -0.3195169 0.1881566 0.338460 0.259560
0.01490855 -0.01331603 0.08153149 -0.987241 0.1583693 0.01656824 0.308220 0.304110
0.02145255 -0.01594996 0.05734749 -0.9441254 0.1813528 -0.275206 0.272480 0.261990
0.03190655 -0.04786801 0.05441849 -0.2101066 -0.8146726 -0.5405217 0.330890 0.199470
0.0334605 -0.05580198 0.06818248 -0.2182713 -0.9248086 -0.3115875 0.357940 0.214570
0.06678552 -0.04892897 0.09035549 0.6878623 -0.5733417 -0.4451121 0.438400 0.182010
0.0704785 -0.02614903 0.09269549 0.7864028 0.4850243 -0.3825206 0.441460 0.123640
0.05910754 -0.01225793 0.1019125 0.1314575 0.9812349 0.1410569 0.437880 0.075360
0.0379135 -0.02101302 0.1133365 -0.1925424 0.9306887 0.31104 0.434200 0.022170
0.03360153 -0.04760599 0.1106045 -0.7624103 -0.4743015 0.4401918 0.409240 0.288590
0.0379135 -0.02101302 0.1133365 -0.8018601 0.06904177 0.5935096 0.390090 0.348310
0.05135054 -0.06010294 0.09699748 -0.0786166 -0.9909291 -0.1089906 0.427080 0.228770
0.0783425 -0.06742894 0.1390335 -0.1982791 -0.9796614 -0.03080446 0.011610 0.142600
0.06865955 -0.06238496 0.1556245 -0.2030885 -0.9784896 -0.03623606 0.006020 0.174940
-0.08885746 -0.08133102 0.6261945 0.02828165 -0.1067027 0.9938887 0.066390 0.992620
-0.08518749 -0.08191098 0.6260275 0.5646324 -0.8018396 0.1955598 0.066390 0.986630
-0.08068346 -0.05413593 0.6288815 0.4973741 0.2584197 0.8281536 0.111890 0.986630
-0.08435547 -0.05356003 0.6290475 0.02828165 -0.1067027 0.9938887 0.111890 0.992620
0.08567154 -0.02222501 0.1436775 0.2101452 0.9770592 0.03455945 0.170920 0.137120
0.07436955 -0.02716994 0.1592425 0.06663359 0.9698793 0.2342951 0.178660 0.173320
0.1242696 -0.06122195 0.08509149 0.7118593 -0.4279453 -0.5568835 0.068020 0.028630
0.1126705 -0.05842196 0.07697949 0.5717061 -0.00840273 -0.8204154 0.068690 0.005180
0.1174355 -0.02903091 0.07999949 0.5717061 -0.00840273 -0.8204154 0.117410 0.006270
0.1290615 -0.03166591 0.08812749 0.8702598 0.4886313 -0.06234854 0.117010 0.029790
0.1126705 -0.05842196 0.07697949 -0.766431 0.1873884 -0.6143852 0.599310 0.605260
0.08674753 -0.05928492 0.1090545 -0.766431 0.1873884 -0.6143852 0.594920 0.504720
0.09206653 -0.02647793 0.1124255 -0.766431 0.1873884 -0.6143852 0.676370 0.504720
0.1174355 -0.02903091 0.07999949 -0.766431 0.1873884 -0.6143852 0.672280 0.605150
0.09206653 -0.02647793 0.1124255 0.2210071 0.9752124 0.01079972 0.168780 0.083160
0.1166995 -0.03276597 0.1359815 0.7288476 0.684656 0.005228219 0.117940 0.113660
0.1174355 -0.02903091 0.07999949 0.181116 0.9812276 0.06625193 0.139440 0.020930
0.1113405 -0.06581699 0.1325865 0.7091937 -0.7031024 -0.05187814 0.062800 0.112460
0.08674753 -0.05928492 0.1090545 -0.0420752 -0.9677307 -0.2484493 0.013260 0.079050
0.1126705 -0.05842196 0.07697949 -0.1379801 -0.9813547 -0.133808 0.046900 0.018810
0.06449456 -0.06390201 0.1200045 -0.073843 -0.965315 -0.250428 0.481593 0.245927
0.0508675 -0.05519294 0.1350775 -0.6612656 -0.676478 0.3241997 0.474918 0.300579
0.0558905 -0.02421498 0.1382605 -0.7761554 0.0613749 0.6275476 0.455289 0.370823
0.07203454 -0.01740002 0.1247825 0.1761111 0.9843702 0.0002454454 0.496726 0.069241
0.0558905 -0.02421498 0.1382605 -0.1419641 0.9485198 0.2831191 0.501836 0.022150
0.07632054 -0.05427193 0.1015845 0.5519007 -0.4569147 -0.697592 0.473258 0.189258
0.08084053 -0.02639293 0.1044485 0.648823 0.4003196 -0.6471267 0.477264 0.122740
0.06865955 -0.06238496 0.1556245 -0.9486903 0.18051 -0.2596206 0.914310 0.035580
0.05067051 -0.06651592 0.2184855 -0.9356347 0.1827422 -0.3019816 0.921990 0.170900
0.05656553 -0.030164 0.2222205 -0.9423962 0.1816705 -0.280865 0.845800 0.168030
0.07436955 -0.02716994 0.1592425 -0.9486903 0.18051 -0.2596206 0.840500 0.032810
0.03059453 -0.06929302 0.2746235 -0.9129534 0.1853722 -0.3635288 0.917900 0.293770
0.03657151 -0.03242993 0.2784105 -0.920904 0.1845911 -0.3433102 0.840640 0.290860
0.009209519 -0.06825292 0.3255615 -0.8933801 0.1868131 -0.4086231 0.907950 0.407140
0.01430852 -0.03680193 0.3287925 -0.899063 0.1864568 -0.3961307 0.842030 0.404660
-0.01320546 -0.06685495 0.3734335 -0.8829936 0.187371 -0.4303654 0.898430 0.515640
-0.008945461 -0.04057693 0.3761325 -0.8852737 0.1872551 -0.4257064 0.843360 0.513560
-0.03528344 -0.06539702 0.4187575 -0.8806975 0.1875041 -0.4349874 0.889390 0.619120
-0.03181547 -0.04400993 0.4209555 -0.8806937 0.187493 -0.4350001 0.844570 0.617430
-0.05576246 -0.064358 0.4606695 -0.8865333 0.1872216 -0.4230919 0.881680 0.714910
-0.05292749 -0.046875 0.4624665 -0.8836367 0.1873725 -0.4290428 0.845050 0.713530
-0.07351445 -0.06462801 0.4984005 -0.9160646 0.1850744 -0.3557713 0.876970 0.800660
-0.07090747 -0.04854894 0.5000515 -0.9032262 0.1861733 -0.3866807 0.843280 0.799390
-0.08644145 -0.06650794 0.5342985 -0.9482077 0.1805776 -0.2613312 0.874590 0.879290
-0.08374446 -0.04987396 0.5360075 -0.9385477 0.182275 -0.2930939 0.839730 0.877980
-0.09682649 -0.07002593 0.5748895 -0.9568108 0.1786828 -0.2293152 0.873400 0.965880
-0.09380745 -0.05140198 0.5768035 -0.9568108 0.1786828 -0.2293152 0.834380 0.964400
-0.1313835 -0.06907596 0.6216765 -0.9603024 -0.1456733 -0.2379047 0.502420 0.490680
-0.1296155 -0.07952298 0.6729275 -0.9860446 0.1531615 0.06524974 0.498530 0.411490
-0.1251125 -0.05175294 0.6757805 -0.9860446 0.1531615 0.06524974 0.541330 0.413320
-0.1284125 -0.050748 0.6235595 -0.6377711 0.6881972 -0.3458796 0.530670 0.491890
0.07387555 -0.07093596 0.2261675 0.5315066 -0.8254058 0.1902791 0.062160 0.277690
0.05067051 -0.06651592 0.2184855 -0.1552153 -0.9822242 -0.1055646 0.022020 0.280980
0.05039955 -0.07349395 0.2844095 0.5245751 -0.8259532 0.2064513 0.062920 0.375230
0.03059453 -0.06929302 0.2746235 -0.1724409 -0.9823506 -0.07246722 0.028190 0.374740
0.02640653 -0.07202399 0.3356775 0.4946343 -0.8271047 0.2668985 0.066530 0.461240
0.009209519 -0.06825292 0.3255615 -0.1823331 -0.9815803 -0.05705026 0.035130 0.460510
0.001699513 -0.07021201 0.3829845 0.4820868 -0.8272657 0.288485 0.070080 0.543640
-0.01320546 -0.06685495 0.3734335 -0.1837871 -0.9812501 -0.05805617 0.042030 0.542760
-0.02240949 -0.06832898 0.4272505 0.4776216 -0.827756 0.2944445 0.073320 0.622480
-0.03528344 -0.06539702 0.4187575 -0.1835741 -0.9809497 -0.0635469 0.048720 0.621490
-0.04478746 -0.06693304 0.4678755 0.4821488 -0.8287653 0.2840433 0.075520 0.696220
-0.05576246 -0.064358 0.4606695 -0.1765281 -0.980936 -0.08125519 0.054360 0.694810
-0.06427448 -0.06679202 0.5041485 0.5028275 -0.8300097 0.2413472 0.075520 0.763860
-0.07351445 -0.06462801 0.4984005 -0.1696532 -0.9798509 -0.1054043 0.057600 0.761430
-0.07878046 -0.06833196 0.5380795 0.5430071 -0.82998 0.1275795 0.073490 0.828340
-0.08644145 -0.06650794 0.5342985 -0.1743244 -0.9764966 -0.1267495 0.058840 0.824860
-0.08488344 -0.07252599 0.5762535 0.575641 -0.8162798 -0.04821499 0.072080 0.899080
-0.09682649 -0.07002593 0.5748895 -0.1735628 -0.9703251 -0.1683602 0.050750 0.896780
-0.08885746 -0.08133102 0.6261945 -0.1714962 -0.9675009 -0.1858257 0.054460 0.985930
0.07972854 -0.03483795 0.2298765 0.75894 0.5624677 0.3280856 0.120680 0.278010
0.05637151 -0.03666103 0.2881935 0.7375166 0.5617466 0.3748466 0.119330 0.375730
0.03148753 -0.04068303 0.3388975 0.7145553 0.5605893 0.4185099 0.115650 0.461410
0.005947534 -0.04401302 0.3856765 0.7048787 0.5606321 0.4345545 0.111640 0.543840
-0.01895046 -0.04699492 0.4294425 0.7030602 0.5616801 0.4361443 0.107500 0.622680
-0.0419355 -0.04934299 0.4696825 0.7122676 0.5634165 0.4186128 0.104130 0.696370
-0.06164449 -0.05056703 0.5058145 0.7411402 0.5675604 0.3585895 0.102930 0.763860
-0.07602244 -0.05132497 0.5398265 0.7861593 0.5811625 0.2102466 0.104310 0.827750
-0.08173149 -0.05308498 0.5782515 0.8056661 0.5905938 0.04583756 0.107380 0.898390
0.05656553 -0.030164 0.2222205 0.1628438 0.981995 0.09574828 0.159660 0.281640
0.03657151 -0.03242993 0.2784105 0.1549993 0.9814099 0.1131807 0.153820 0.374900
0.01430852 -0.03680193 0.3287925 0.1363251 0.9800211 0.1448242 0.147250 0.460680
-0.008945461 -0.04057693 0.3761325 0.1347905 0.9803862 0.1437862 0.139850 0.543200
-0.03181547 -0.04400993 0.4209555 0.1342067 0.9809367 0.1405409 0.132240 0.622020
-0.05292749 -0.046875 0.4624665 0.1384262 0.9820855 0.1278524 0.125490 0.695340
-0.07090747 -0.04854894 0.5000515 0.1470299 0.9836016 0.104452 0.121060 0.761810
-0.08374446 -0.04987396 0.5360075 0.1468826 0.9857944 0.08145526 0.118910 0.824520
-0.09380745 -0.05140198 0.5768035 0.1416827 0.9885603 0.05171714 0.128120 0.895750
-0.08435547 -0.05356003 0.6290475 0.1458965 0.9891574 0.01678728 0.122850 0.985980
-0.09682649 -0.07002593 0.5748895 -0.749622 -0.4974692 -0.4365674 0.500790 0.587470
-0.1099955 -0.07017697 0.5986415 -0.6878835 -0.4992127 -0.5268804 0.498210 0.543470
-0.1070245 -0.05184997 0.6005245 -0.5053624 0.7880227 -0.3516094 0.530900 0.543060
-0.09380745 -0.05140198 0.5768035 -0.5335623 0.7884697 -0.305985 0.529230 0.587470
-0.08885746 -0.08133102 0.6261945 -0.2772248 -0.9424984 -0.1866633 0.440600 0.524940
-0.1080085 -0.07965697 0.6401255 -0.277351 -0.9421236 -0.1883603 0.454240 0.488640
-0.1080085 -0.07965697 0.6401255 0.6624933 -0.1820624 0.7266057 0.689490 0.461700
-0.08885746 -0.08133102 0.6261945 0.5691665 -0.1748171 0.803423 0.689490 0.403810
-0.08435547 -0.05356003 0.6290475 0.5691665 -0.1748171 0.803423 0.758430 0.403810
-0.1035055 -0.05188597 0.6429785 0.7472851 -0.1866862 0.6377407 0.758430 0.461700
-0.08435547 -0.05356003 0.6290475 0.05657443 0.9982874 0.01488762 0.588000 0.526380
-0.1035055 -0.05188597 0.6429785 0.04564084 0.9989113 0.009648033 0.577620 0.492700
-0.1296155 -0.07952298 0.6729275 -0.2776008 -0.9413653 -0.1917527 0.452140 0.428830
-0.1251125 -0.05175294 0.6757805 0.04017153 0.9991681 0.007027709 0.583260 0.434600
-0.1296155 -0.07952298 0.6729275 0.8197838 -0.1884836 0.5407666 0.689490 0.557470
-0.1251125 -0.05175294 0.6757805 0.8197838 -0.1884836 0.5407666 0.758430 0.557470
0.05087853 -0.02952492 -0.05539651 0.7979468 -0.6020101 0.02940944 0.361210 0.787260
0.05399251 -0.01031494 -0.05342251 0.9447041 0.303688 0.1237248 0.364440 0.717750
0.1195195 -0.04343795 -0.1614895 0.500369 -0.781193 -0.3733208 0.204510 0.843440
0.1040835 -0.03432595 -0.1752085 0.2427005 -0.8268892 -0.5072976 0.200420 0.814460
0.1098515 0.001247058 -0.1715535 0.7200508 0.545001 -0.4295358 0.258570 0.813680
0.1269135 0.00216509 -0.1568045 0.7544376 0.6452748 -0.1201852 0.254030 0.847080
0.02393353 -0.004956959 -0.05356351 -0.9850191 0.1512251 0.08287523 0.383520 0.987170
0.02067155 -0.02507293 -0.05563051 -0.8674993 -0.497032 0.02010515 0.369390 0.915690
0.04067153 0.00188804 -0.05251151 -0.04497722 0.9831709 0.1770653 0.372020 0.653850
0.02393353 -0.004956959 -0.05356351 -0.4039091 0.9020154 0.1523993 0.384490 0.590630
0.03438652 -0.03687596 -0.05649351 0.07631668 -0.9968526 -0.02146631 0.362840 0.851580
0.0624885 -0.033432 -0.06232651 0.5660731 -0.6311839 0.5302529 0.740870 0.190360
0.06645954 -0.008944029 -0.05981051 0.7536029 0.258831 0.6042262 0.743900 0.150220
0.05399251 -0.01031494 -0.05342251 0.4862135 0.08453254 0.8697417 0.770800 0.153080
0.05087853 -0.02952492 -0.05539651 0.3269244 -0.6808549 0.6554061 0.766400 0.192870
0.04482955 0.008892063 -0.06623951 0.1550803 0.9229211 0.3523732 0.766100 0.102310
0.01845551 0.002398016 -0.07702651 -0.2457961 0.9693208 -0.001249856 0.795600 0.046710
0.02393353 -0.004956959 -0.05356351 -0.3664412 0.8654966 0.3415209 0.827850 0.097000
0.04067153 0.00188804 -0.05251151 0.1873241 0.7408115 0.6450643 0.794490 0.122540
0.02067155 -0.02507293 -0.05563051 -0.9003066 -0.3571598 0.248767 0.804980 0.261820
0.02393353 -0.004956959 -0.05356351 -0.956175 0.1279766 0.2633466 0.827850 0.300480
0.01845551 0.002398016 -0.07702651 -0.9862244 0.1628724 -0.02888142 0.785350 0.335770
0.01392555 -0.02554297 -0.07989751 -0.9180572 -0.2723043 -0.2881344 0.763280 0.286650
0.0365845 -0.04196202 -0.07146451 -0.2278145 -0.9669955 0.1141066 0.751890 0.238970
0.03438652 -0.03687596 -0.05649351 -0.2302807 -0.9039553 0.3603272 0.781160 0.228790
0.07082754 -0.03101897 -0.09036051 0.675654 -0.648982 0.3497343 0.678300 0.192960
0.07452154 -0.008239024 -0.08801951 0.808277 0.3055919 0.5032911 0.685400 0.134940
0.06350851 0.007241016 -0.09482651 0.223685 0.9638709 0.1446298 0.697300 0.088010
0.04287952 0.0009900369 -0.1086725 -0.1860195 0.9740942 -0.1285973 0.710130 0.036260
0.04287952 0.0009900369 -0.1086725 -0.7780775 0.1877459 -0.5994555 0.697060 0.365110
0.03856755 -0.02560293 -0.1114045 -0.7444421 -0.3748143 -0.5525578 0.688550 0.302970
0.05575151 -0.04060495 -0.09974251 -0.07838663 -0.9928451 -0.09007893 0.681350 0.240960
0.08461052 -0.03965902 -0.1411615 -0.1951439 -0.9657865 -0.1708078 0.149800 0.855040
0.0756495 -0.03141593 -0.1568525 -0.1933359 -0.9695457 -0.1503412 0.144190 0.822700
-0.0607915 0.04302096 -0.6284985 0.07279329 0.09025152 -0.9932552 0.204470 0.005180
-0.0562895 0.070791 -0.6256455 0.07279329 0.09025152 -0.9932552 0.249920 0.005180
-0.0526265 0.07017802 -0.6254325 0.5324332 0.4137016 -0.738489 0.249920 0.011160
-0.05712951 0.04240298 -0.6282865 0.5762428 -0.7503555 -0.3238996 0.204470 0.011160
0.08135951 0.003799088 -0.1532345 0.07622371 0.9966831 -0.02850759 0.316890 0.824280
0.09193951 0.005545028 -0.1365175 0.2071747 0.9639223 0.1671298 0.309160 0.860490
0.1280766 -0.04435693 -0.08506951 0.6883658 -0.5320086 0.4930714 0.206250 0.969040
0.1328685 -0.01480101 -0.08203351 0.8644888 0.4630881 0.1954699 0.255250 0.967860
0.1208825 -0.01376091 -0.07406851 0.5348294 -0.1717166 0.8273276 0.255650 0.991390
0.1161165 -0.04315196 -0.07708851 0.5348294 -0.1717166 0.8273276 0.206920 0.992500
0.1161165 -0.04315196 -0.07708851 -0.7936994 0.06656341 0.6046574 0.603320 0.394150
0.1208825 -0.01376091 -0.07406851 -0.7936994 0.06656341 0.6046574 0.676290 0.394260
0.09696251 -0.004784933 -0.1064545 -0.7936994 0.06656341 0.6046574 0.680380 0.494690
0.09164351 -0.03759193 -0.1098255 -0.7936994 0.06656341 0.6046574 0.598930 0.494690
0.09696251 -0.004784933 -0.1064545 0.216982 0.9574012 0.1905305 0.307020 0.914470
0.1208825 -0.01376091 -0.07406851 0.1795568 0.9743541 0.1356226 0.277690 0.976720
0.1226415 -0.006436933 -0.1296725 0.7253497 0.6691766 0.1614639 0.256160 0.883970
0.1172835 -0.03948795 -0.1330685 0.7092878 -0.7027121 -0.05573582 0.201010 0.885180
0.1161165 -0.04315196 -0.07708851 -0.1394471 -0.9879215 -0.0675687 0.185130 0.978860
0.09164351 -0.03759193 -0.1098255 -0.04878405 -0.9974733 0.05164506 0.151450 0.918610
0.06869954 -0.03986203 -0.1211455 -0.1478118 -0.9882944 -0.037761 0.629013 0.247843
0.0553785 -0.02803492 -0.1347005 -0.720239 -0.3978075 -0.5683352 0.626887 0.303365
0.0756495 -0.03141593 -0.1568525 -0.6023122 -0.6236592 -0.4982662 0.557300 0.303810
0.08461052 -0.03965902 -0.1411615 -0.140987 -0.9900091 0.002149425 0.569950 0.255610
0.0603475 0.00260902 -0.1315525 -0.7628149 0.1872719 -0.6189044 0.634148 0.375150
0.08135951 0.003799088 -0.1532345 -0.7107785 0.1849742 -0.6786593 0.563150 0.386480
0.09193951 0.005545028 -0.1365175 0.03144892 0.9972374 0.06729466 0.585440 0.056110
0.08135951 0.003799088 -0.1532345 -0.1068346 0.9897771 -0.09448653 0.579180 0.013180
0.0603475 0.00260902 -0.1315525 -0.1355614 0.9858527 -0.09857838 0.648608 0.025417
0.0762555 0.00674308 -0.1163575 0.1188009 0.9789828 0.1657681 0.644747 0.073023
0.09164351 -0.03759193 -0.1098255 0.4339735 -0.5378434 0.7227665 0.608340 0.195110
0.09696251 -0.004784933 -0.1064545 0.4567325 0.6265075 0.6315725 0.616380 0.120990
0.08446753 -0.006323926 -0.09858251 0.6235466 0.3427273 0.7026575 0.652974 0.128386
0.08000952 -0.03381395 -0.1014065 0.4537555 -0.7048297 0.5452716 0.645432 0.193970
0.0756495 -0.03141593 -0.1568525 -0.9600414 0.1302145 0.2477189 0.961850 0.966170
0.08135951 0.003799088 -0.1532345 -0.9600414 0.1302145 0.2477189 0.888020 0.964080
0.06662053 0.01481402 -0.2161455 -0.9546988 0.1271575 0.2690376 0.902220 0.829490
0.06023455 -0.02457201 -0.2201915 -0.9488831 0.1240363 0.2902343 0.978440 0.831650
0.04889851 0.022187 -0.2726735 -0.936003 0.1176815 0.331737 0.905170 0.706590
0.04292154 -0.01467597 -0.2764605 -0.9289576 0.1144502 0.3520495 0.982450 0.708780
0.02890754 0.02788198 -0.3238685 -0.91653 0.1090687 0.3848076 0.914060 0.593130
0.02380854 -0.003569005 -0.3270995 -0.9114097 0.10695 0.397359 0.980000 0.594990
0.007790503 0.03357005 -0.3720125 -0.9040695 0.1039933 0.4145403 0.922570 0.484550
0.003529548 0.007292986 -0.3747125 -0.9019958 0.1031721 0.4192364 0.977660 0.486110
-0.01305849 0.03909898 -0.4176045 -0.8999077 0.1023454 0.4239005 0.930640 0.380980
-0.01652545 0.017712 -0.4198015 -0.8999177 0.1023426 0.42388 0.975470 0.382250
-0.03229845 0.04452598 -0.4597645 -0.9025921 0.1033925 0.4178966 0.937460 0.285130
-0.03513247 0.02704298 -0.4615605 -0.9052171 0.1044408 0.4119151 0.974110 0.286170
-0.04858846 0.05033803 -0.4977075 -0.9202722 0.1106553 0.375306 0.941380 0.199350
-0.05119551 0.03425908 -0.4993585 -0.9317241 0.115708 0.344241 0.975080 0.200310
-0.05981446 0.056149 -0.5337565 -0.9513936 0.1253675 0.2813062 0.943040 0.120700
-0.0625115 0.03951501 -0.5354655 -0.9596275 0.1299764 0.2494419 0.977900 0.121690
-0.0680545 0.06269907 -0.5744635 -0.9667943 0.1344369 0.2173376 0.943420 0.034120
-0.07107449 0.044075 -0.5763765 -0.9667943 0.1344369 0.2173376 0.982450 0.035230
-0.1035295 0.05433702 -0.6235515 -0.9692455 -0.185308 0.161939 0.383200 0.453610
-0.1005585 0.07266497 -0.6216685 -0.6554783 0.6097507 0.4455922 0.354960 0.454820
-0.09494448 0.08191096 -0.6728735 -0.9828505 0.1673104 -0.07753816 0.344290 0.376250
-0.0994475 0.05413996 -0.6757265 -0.9828505 0.1673104 -0.07753816 0.387100 0.374420
0.06023455 -0.02457201 -0.2201915 -0.1577119 -0.9819741 -0.1041813 0.160170 0.716620
0.08377552 -0.02750003 -0.2275565 0.5457321 -0.7747103 -0.3193753 0.200330 0.719900
0.04292154 -0.01467597 -0.2764605 -0.1739979 -0.9751467 -0.1371635 0.166330 0.622840
0.06315851 -0.01696193 -0.2859935 0.5326373 -0.7696614 -0.3520212 0.201060 0.622350
0.02380854 -0.003569005 -0.3270995 -0.1803457 -0.9728902 -0.144776 0.173250 0.537060
0.04145354 -0.00535595 -0.3369885 0.5096084 -0.7608186 -0.401814 0.204660 0.536320
0.003529548 0.007292986 -0.3747125 -0.1818752 -0.9727519 -0.1437885 0.180140 0.454790
0.01885754 0.005809071 -0.3840675 0.4980206 -0.7566904 -0.4235508 0.208190 0.453910
-0.01652545 0.017712 -0.4198015 -0.1818915 -0.9735386 -0.1383402 0.186820 0.376060
-0.003275455 0.01644707 -0.4281265 0.4938198 -0.7559854 -0.4296837 0.211420 0.375060
-0.03513247 0.02704298 -0.4615605 -0.1756413 -0.9770302 -0.120674 0.192450 0.302750
-0.02383846 0.02588403 -0.4686375 0.4978848 -0.759042 -0.419483 0.213600 0.301340
-0.05119551 0.03425908 -0.4993585 -0.1698587 -0.9807325 -0.09649762 0.195690 0.236150
-0.0417015 0.03322398 -0.5050045 0.5166363 -0.7687458 -0.3769839 0.213590 0.233720
-0.0625115 0.03951501 -0.5354655 -0.175487 -0.9816106 -0.07513299 0.196920 0.172770
-0.05468345 0.03843498 -0.5391876 0.5517451 -0.7912075 -0.2637578 0.211570 0.169290
-0.07107449 0.044075 -0.5763765 -0.176638 -0.9837175 -0.03314937 0.188840 0.100910
-0.05907148 0.04183805 -0.5776745 0.5765095 -0.8123996 -0.08742892 0.210150 0.098620
-0.0607915 0.04302096 -0.6284985 -0.1753803 -0.9843802 -0.01540671 0.192560 0.011860
0.09012055 0.01163197 -0.2235365 0.7685007 0.613142 -0.1829302 0.258860 0.719570
0.06913054 0.019871 -0.2822095 0.7486837 0.621833 -0.2297748 0.257490 0.621830
0.04653453 0.02598405 -0.3337685 0.7299079 0.6286781 -0.2683252 0.253780 0.536130
0.0231055 0.03200901 -0.3813755 0.7209528 0.6319076 -0.2844642 0.249750 0.453690
0.0001835194 0.03778005 -0.4259345 0.7192129 0.6332369 -0.2859088 0.245590 0.374860
-0.0209865 0.04347301 -0.4668305 0.7276454 0.6314384 -0.2679884 0.242210 0.301180
-0.03907049 0.04944896 -0.5033385 0.7538105 0.6236018 -0.2071004 0.240990 0.233720
-0.05192548 0.05544197 -0.5374405 0.7921421 0.6076586 -0.05711396 0.242360 0.169870
-0.05591947 0.06128001 -0.5756775 0.8042879 0.5845919 0.106646 0.245420 0.099300
0.06662053 0.01481402 -0.2161455 0.1665889 0.9794285 0.1138769 0.297850 0.715930
0.04889851 0.022187 -0.2726735 0.1497243 0.9860349 0.07292312 0.291990 0.622650
0.02890754 0.02788198 -0.3238685 0.1382752 0.9887834 0.05645613 0.285390 0.536850
0.007790503 0.03357005 -0.3720125 0.1366929 0.9889444 0.05748071 0.277960 0.454330
-0.01305849 0.03909898 -0.4176045 0.1359921 0.9888473 0.0607222 0.270330 0.375510
-0.03229845 0.04452598 -0.4597645 0.1396662 0.9874629 0.07355577 0.263560 0.302210
-0.04858846 0.05033803 -0.4977075 0.1472106 0.9843205 0.09717111 0.259110 0.235760
-0.05981446 0.056149 -0.5337565 0.1460105 0.9819631 0.1201226 0.256950 0.173090
-0.0680545 0.06269907 -0.5744635 0.1394651 0.9788666 0.1495652 0.266140 0.101940
-0.0562895 0.070791 -0.6256455 0.1420915 0.9725881 0.1840718 0.260870 0.011810
-0.07107449 0.044075 -0.5763765 -0.7660222 -0.5701674 0.2968487 0.384830 0.550400
-0.0680545 0.06269907 -0.5744635 -0.5500342 0.7154608 0.4307879 0.356400 0.550400
-0.08020646 0.06697201 -0.5983735 -0.5238845 0.7059415 0.4766462 0.354720 0.505990
-0.08317745 0.04864406 -0.6002565 -0.708332 -0.5898663 0.3877157 0.387410 0.506400
-0.07931448 0.04747903 -0.6426645 -0.2812547 -0.9595503 -0.01260974 0.431390 0.451570
-0.0607915 0.04302096 -0.6284985 -0.281043 -0.959588 -0.01434148 0.445020 0.487870
-0.07931448 0.04747903 -0.6426645 0.6948093 -0.03887803 -0.7181425 0.764130 0.505600
-0.07481147 0.07525002 -0.6398115 0.7756066 -0.0612184 -0.6282409 0.833080 0.505600
-0.0562895 0.070791 -0.6256455 0.6049395 -0.0162933 -0.7961048 0.833080 0.563480
-0.0607915 0.04302096 -0.6284985 0.6049395 -0.0162933 -0.7961048 0.764130 0.563480
-0.0562895 0.070791 -0.6256455 0.05281975 0.9815488 0.1837715 0.297620 0.489310
-0.07481147 0.07525002 -0.6398115 0.04163947 0.9811813 0.1885454 0.308000 0.455630
-0.0994475 0.05413996 -0.6757265 -0.2816756 -0.9594661 -0.009146141 0.433490 0.391770
-0.09494448 0.08191096 -0.6728735 0.03604701 0.9809431 0.1909219 0.302370 0.397530
-0.0994475 0.05413996 -0.6757265 0.8437502 -0.08232415 -0.530385 0.764130 0.409830
-0.09494448 0.08191096 -0.6728735 0.8437502 -0.08232415 -0.530385 0.833080 0.409830
0.08674753 -0.05928492 0.1090545 0.3628816 -0.5781732 -0.7307754 0.506930 0.196260
0.09206653 -0.02647793 0.1124255 0.4802685 0.7410538 -0.4692351 0.511850 0.121870
0.0783425 -0.06742894 0.1390335 -0.2866797 -0.9556102 -0.06800009 0.534250 0.262500
0.06865955 -0.06238496 0.1556245 -0.7608444 -0.319065 0.5650783 0.538360 0.312160
0.07436955 -0.02716994 0.1592425 -0.7457191 0.0526754 0.664175 0.518270 0.392570
0.08567154 -0.02222501 0.1436775 0.02890304 0.9908327 0.1319662 0.553570 0.063330
0.07436955 -0.02716994 0.1592425 -0.1144719 0.9534179 0.2790888 0.567170 0.022130
-0.0816275 0.06119906 -0.6396645 -0.4055195 -0.8055422 0.4320368 0.340215 0.554270
-0.0721835 0.06031799 -0.6364705 0.8497218 0.4852869 0.206081 0.319735 0.595230
-0.08057351 0.06467699 -0.6395405 -0.5852925 0.4707764 0.6601533 0.360695 0.595230
-0.09776951 0.06828498 -0.6776895 -0.1354029 0.5857613 -0.7990931 0.319735 0.595230
-0.1049925 0.06385004 -0.6231255 -0.5395677 0.8406094 0.04735458 0.319735 0.596805
-0.1016445 0.06596207 -0.6228415 -0.5422545 0.8399209 0.02219901 0.360695 0.596805
-0.09553946 0.06981301 -0.6699645 -0.07381935 0.9972469 0.007030932 0.360695 0.595230
-0.1290185 -0.06618096 0.6804815 0.9490748 -0.1545018 0.2745654 0.319735 0.636190
-0.1267845 -0.06669796 0.6724685 0.9490748 -0.1545018 0.2745654 0.340215 0.677151
-0.1264555 -0.063177 0.6733125 0.9490748 -0.1545018 0.2745654 0.360695 0.636190
-0.1016845 0.06234407 -0.6232015 0.5201852 -0.8538368 -0.0192359 0.800411 0.946663
-0.09588946 0.06619596 -0.6698435 0.07321975 -0.9946457 -0.07293005 0.799322 0.961232
-0.09553946 0.06981301 -0.6699645 0.9909722 -0.05773567 0.1209995 0.819208 0.961124
-0.1016445 0.06596207 -0.6228415 0.9981882 -0.02784974 0.05333557 0.819201 0.946297
-0.1049925 0.06385004 -0.6231255 -0.423089 -0.8983279 -0.1183335 0.783857 0.947477
-0.09776951 0.06828498 -0.6776895 -0.4274853 -0.8948816 -0.1282315 0.783679 0.961099
-0.1178705 0.001950969 -0.0002945103 -0.4141326 -0.9048722 -0.09849173 0.784018 0.775216
-0.1145615 0.0004449983 -0.0003695115 0.8619487 -0.5059552 -0.03246207 0.800809 0.775029
-0.1145225 0.004063 -9.510666e-06 0.9997294 -0.01284911 0.01939318 0.819163 0.774980
-0.1178705 0.001950969 -0.0002945103 -0.5365373 0.8407596 0.07246374 0.319735 0.615689
-0.1145225 0.004063 -9.510666e-06 -0.5365373 0.8407596 0.07246374 0.360695 0.615689
-0.09588946 0.06619596 -0.6698435 -0.8710521 -0.3345564 0.3596392 0.340215 0.554270
-0.1102475 -0.06560493 0.6397765 -0.3825325 -0.7033264 -0.5991669 0.340215 0.554270
-0.1092045 -0.06217505 0.6403835 -0.5575932 0.5936328 -0.5802499 0.360695 0.595230
-0.1006675 -0.065884 0.6368925 0.8558639 0.5125595 -0.0691352 0.319735 0.595230
-0.1280885 -0.06604601 0.6777005 -0.1733499 0.4183173 0.8916056 0.319735 0.595230
-0.1255255 -0.06304193 0.6705315 -0.07779579 0.9795658 0.1854688 0.360695 0.595230
-0.1295205 -0.05754698 0.6233455 -0.544304 0.830401 0.1190269 0.360695 0.596805
-0.1328685 -0.05965794 0.6230615 -0.5404679 0.8360239 0.0946492 0.319735 0.596805
-0.09857548 0.06870198 -0.6804815 0.9610214 -0.1013276 -0.2572366 0.319735 0.636190
-0.0963465 0.07023107 -0.6727565 0.9610214 -0.1013276 -0.2572366 0.360695 0.636190
-0.09669549 0.06661402 -0.6726355 0.9610214 -0.1013276 -0.2572366 0.340215 0.677151
-0.1295595 -0.06116499 0.6229855 0.5226232 -0.8432567 -0.1256307 0.800411 0.946663
-0.1295205 -0.05754698 0.6233455 0.9996873 -0.02105747 -0.01348622 0.819201 0.946297
-0.1255255 -0.06304193 0.6705315 0.9956131 -0.03701656 -0.08593282 0.819208 0.961124
-0.1258535 -0.06656302 0.6696875 0.07427672 -0.9899375 -0.1204436 0.799322 0.961232
-0.1328685 -0.05965794 0.6230615 -0.4240025 -0.9022038 -0.07905819 0.783857 0.947477
-0.1280885 -0.06604601 0.6777005 -0.4288327 -0.9007543 -0.06887829 0.783679 0.961099
-0.1178825 0.00189804 0.0002424903 -0.414178 -0.9047534 -0.09938742 0.784018 0.775216
-0.1145735 0.0003920693 0.0001674891 0.8619468 -0.5061523 -0.02928601 0.800809 0.775029
-0.1145345 0.004008998 0.0005264878 0.9996559 -0.01303436 0.02276499 0.819163 0.774980
-0.1145345 0.004008998 0.0005264878 -0.5362883 0.8411083 0.07022657 0.360695 0.615689
-0.1178825 0.00189804 0.0002424903 -0.5362883 0.8411083 0.07022657 0.319735 0.615689
-0.1258535 -0.06656302 0.6696875 -0.852787 -0.2537205 -0.4564869 0.340215 0.554270
3 0 1 2 
3 0 2 3 
3 4 5 6 
3 4 6 7 
3 8 9 10 
3 8 10 11 
3 12 13 14 
3 12 14 15 
3 16 17 9 
3 16 9 8 
3 18 19 20 
3 18 20 21 
3 22 23 24 
3 22 24 25 
3 26 27 28 
3 26 28 29 
3 26 30 31 
3 26 31 27 
3 32 18 21 
3 32 21 33 
3 34 22 25 
3 34 25 35 
3 27 36 37 
3 27 37 28 
3 31 38 36 
3 31 36 27 
3 39 4 7 
3 39 7 40 
3 41 42 43 
3 41 43 44 
3 5 45 46 
3 5 46 6 
3 47 48 49 
3 47 49 50 
3 51 52 53 
3 51 53 54 
3 55 56 50 
3 55 50 57 
3 58 47 50 
3 58 50 56 
3 58 59 60 
3 58 60 47 
3 38 61 62 
3 38 62 36 
3 36 62 63 
3 36 63 37 
3 64 34 35 
3 64 35 65 
3 66 32 33 
3 66 33 67 
3 68 69 70 
3 68 70 71 
3 69 72 73 
3 69 73 70 
3 72 74 75 
3 72 75 73 
3 74 76 77 
3 74 77 75 
3 76 78 79 
3 76 79 77 
3 78 80 81 
3 78 81 79 
3 80 82 83 
3 80 83 81 
3 82 84 85 
3 82 85 83 
3 84 86 87 
3 84 87 85 
3 88 89 90 
3 88 90 91 
3 40 7 92 
3 40 92 93 
3 93 92 94 
3 93 94 95 
3 95 94 96 
3 95 96 97 
3 97 96 98 
3 97 98 99 
3 99 98 100 
3 99 100 101 
3 101 100 102 
3 101 102 103 
3 103 102 104 
3 103 104 105 
3 105 104 106 
3 105 106 107 
3 107 106 108 
3 107 108 109 
3 109 108 42 
3 109 42 110 
3 92 7 6 
3 92 6 111 
3 94 92 111 
3 94 111 112 
3 96 94 112 
3 96 112 113 
3 98 96 113 
3 98 113 114 
3 100 98 114 
3 100 114 115 
3 102 100 115 
3 102 115 116 
3 104 102 116 
3 104 116 117 
3 106 104 117 
3 106 117 118 
3 108 106 118 
3 108 118 119 
3 42 108 119 
3 42 119 43 
3 6 46 120 
3 6 120 111 
3 111 120 121 
3 111 121 112 
3 112 121 122 
3 112 122 113 
3 113 122 123 
3 113 123 114 
3 114 123 124 
3 114 124 115 
3 115 124 125 
3 115 125 116 
3 116 125 126 
3 116 126 117 
3 117 126 127 
3 117 127 118 
3 118 127 128 
3 118 128 119 
3 119 128 129 
3 119 129 43 
3 130 131 132 
3 130 132 133 
3 130 134 135 
3 130 135 131 
3 136 137 138 
3 136 138 139 
3 140 133 132 
3 140 132 141 
3 131 135 142 
3 131 142 88 
3 131 88 91 
3 131 91 132 
3 141 132 91 
3 141 91 143 
3 144 136 139 
3 144 139 145 
3 33 21 22 
3 33 22 34 
3 21 20 23 
3 21 23 22 
3 2 1 13 
3 2 13 12 
3 0 3 17 
3 0 17 16 
3 31 30 19 
3 31 19 18 
3 18 32 38 
3 18 38 31 
3 32 66 61 
3 32 61 38 
3 59 58 4 
3 59 4 39 
3 58 56 5 
3 58 5 4 
3 56 55 45 
3 56 45 5 
3 64 67 33 
3 64 33 34 
3 0 146 147 
3 0 147 1 
3 148 149 150 
3 148 150 151 
3 8 11 152 
3 8 152 153 
3 154 155 14 
3 154 14 13 
3 16 8 153 
3 16 153 156 
3 157 158 159 
3 157 159 160 
3 161 162 163 
3 161 163 164 
3 165 166 167 
3 165 167 168 
3 165 168 169 
3 165 169 170 
3 171 172 158 
3 171 158 157 
3 173 174 162 
3 173 162 161 
3 168 167 175 
3 168 175 176 
3 169 168 176 
3 169 176 177 
3 178 179 149 
3 178 149 148 
3 180 181 182 
3 180 182 183 
3 151 150 184 
3 151 184 185 
3 186 187 188 
3 186 188 189 
3 190 191 192 
3 190 192 193 
3 194 195 187 
3 194 187 196 
3 197 196 187 
3 197 187 186 
3 197 186 198 
3 197 198 199 
3 200 201 202 
3 200 202 203 
3 201 204 205 
3 201 205 202 
3 206 207 208 
3 206 208 209 
3 210 211 212 
3 210 212 213 
3 214 215 216 
3 214 216 217 
3 217 216 218 
3 217 218 219 
3 219 218 220 
3 219 220 221 
3 221 220 222 
3 221 222 223 
3 223 222 224 
3 223 224 225 
3 225 224 226 
3 225 226 227 
3 227 226 228 
3 227 228 229 
3 229 228 230 
3 229 230 231 
3 231 230 232 
3 231 232 233 
3 234 235 236 
3 234 236 237 
3 179 238 239 
3 179 239 149 
3 238 240 241 
3 238 241 239 
3 240 242 243 
3 240 243 241 
3 242 244 245 
3 242 245 243 
3 244 246 247 
3 244 247 245 
3 246 248 249 
3 246 249 247 
3 248 250 251 
3 248 251 249 
3 250 252 253 
3 250 253 251 
3 252 254 255 
3 252 255 253 
3 254 256 183 
3 254 183 255 
3 239 257 150 
3 239 150 149 
3 241 258 257 
3 241 257 239 
3 243 259 258 
3 243 258 241 
3 245 260 259 
3 245 259 243 
3 247 261 260 
3 247 260 245 
3 249 262 261 
3 249 261 247 
3 251 263 262 
3 251 262 249 
3 253 264 263 
3 253 263 251 
3 255 265 264 
3 255 264 253 
3 183 182 265 
3 183 265 255 
3 150 257 266 
3 150 266 184 
3 257 258 267 
3 257 267 266 
3 258 259 268 
3 258 268 267 
3 259 260 269 
3 259 269 268 
3 260 261 270 
3 260 270 269 
3 261 262 271 
3 261 271 270 
3 262 263 272 
3 262 272 271 
3 263 264 273 
3 263 273 272 
3 264 265 274 
3 264 274 273 
3 265 182 275 
3 265 275 274 
3 276 277 278 
3 276 278 279 
3 276 279 280 
3 276 280 281 
3 282 283 284 
3 282 284 285 
3 286 287 278 
3 286 278 277 
3 279 234 288 
3 279 288 280 
3 279 278 235 
3 279 235 234 
3 287 289 235 
3 287 235 278 
3 290 291 283 
3 290 283 282 
3 172 173 161 
3 172 161 158 
3 158 161 164 
3 158 164 159 
3 147 154 13 
3 147 13 1 
3 0 16 156 
3 0 156 146 
3 169 157 160 
3 169 160 170 
3 157 169 177 
3 157 177 171 
3 213 200 203 
3 213 203 210 
3 199 178 148 
3 199 148 197 
3 197 148 151 
3 197 151 196 
3 196 151 185 
3 196 185 194 
3 211 206 209 
3 211 209 212 
3 292 66 67 
3 292 67 293 
3 61 66 292 
3 61 292 294 
3 62 61 294 
3 62 294 295 
3 63 62 295 
3 63 295 296 
3 297 64 65 
3 297 65 298 
3 293 67 64 
3 293 64 297 
3 213 212 172 
3 213 172 171 
3 171 177 200 
3 171 200 213 
3 177 176 201 
3 177 201 200 
3 176 175 204 
3 176 204 201 
3 209 208 174 
3 209 174 173 
3 212 209 173 
3 212 173 172 
3 299 300 301 
3 302 303 304 
3 302 304 305 
3 306 307 308 
3 309 310 311 
3 309 311 312 
3 313 314 310 
3 313 310 309 
3 315 313 309 
3 315 309 316 
3 316 309 312 
3 316 312 317 
3 303 318 319 
3 303 319 304 
3 320 299 301 
3 320 301 305 
3 305 301 300 
3 305 300 302 
3 302 300 299 
3 302 299 320 
3 321 322 323 
3 324 325 326 
3 324 326 327 
3 328 329 330 
3 331 332 333 
3 331 333 334 
3 335 331 334 
3 335 334 336 
3 337 338 331 
3 337 331 335 
3 338 339 332 
3 338 332 331 
3 327 326 340 
3 327 340 341 
3 342 325 322 
3 342 322 321 
3 325 324 323 
3 325 323 322 
3 324 342 321 
3 324 321 323 
