ply
format ascii 1.0
comment VCGLIB generated
element vertex 422
property float x
property float y
property float z
property float nx
property float ny
property float nz
property float texture_u
property float texture_v
element face 246
property list uchar int vertex_indices
end_header
6.678795 3.193613 1.100119 1.311342e-05 100 -5.732058e-13 2.339237 -0.529842
6.678795 3.193613 -1.10012 1.311342e-05 100 -5.732058e-13 2.835304 -0.529842
-6.678785 3.193615 -1.10012 1.311342e-05 100 -5.732058e-13 2.835304 1.500056
-6.678785 3.193615 1.10012 1.311342e-05 100 -5.732058e-13 2.339237 1.500056
-6.678785 3.193615 1.7183 -100 1.311341e-05 4.371139e-06 -1.360013 1.861174
-6.678785 3.193615 -1.7183 -100 1.311341e-05 4.371139e-06 -2.091366 1.861174
-6.678785 2.124636 -1.535869 -100 0.0005236593 4.371139e-06 -2.052543 1.668794
-6.678785 2.124636 1.53587 -100 0.001034205 4.371139e-06 -1.398835 1.668794
6.678795 -3.941776 -1.24941 -1.311342e-05 -100 5.732058e-13 3.869612 1.500056
6.678795 -3.941776 1.249409 -1.311342e-05 -100 5.732058e-13 3.306224 1.500056
-6.678795 -3.941774 1.24941 -1.311342e-05 -100 5.732058e-13 3.306224 -0.529842
-6.678795 -3.941774 -1.24941 -1.311342e-05 -100 5.732058e-13 3.869612 -0.529842
6.678795 2.124634 -1.53587 -7.55142e-06 -25.34005 -96.73616 -0.466783 0.885454
-6.678785 2.124636 -1.535869 -8.537935e-06 -33.72828 -94.14034 1.466783 0.885454
-6.678785 3.193615 -1.7183 -5.818747e-06 -11.25076 -99.3651 1.466783 1.079389
6.678795 3.193613 -1.7183 -5.101897e-06 -5.62538 -99.84166 -0.466783 1.079389
-6.678785 2.124636 1.53587 9.055257e-07 -25.34005 96.73616 1.466783 0.885454
6.678795 2.124634 1.535869 -3.079248e-07 -33.72828 94.14034 -0.466783 0.885454
6.678795 3.193613 1.718299 2.868027e-06 -11.25076 99.3651 -0.466783 1.079389
-6.678785 3.193615 1.7183 3.626538e-06 -5.62538 99.84166 1.466783 1.079389
-6.678795 -3.941774 1.24941 4.371139e-06 0 100 1.466783 -0.215121
6.678795 -3.941776 1.249409 4.371139e-06 0 100 -0.466783 -0.215121
6.678795 1.501984 1.249409 2.46142e-06 -14.22416 98.98321 -0.466783 0.772492
-6.678795 1.501986 1.24941 4.599806e-07 -28.44832 95.86811 1.466783 0.772492
6.678795 -3.941776 1.249409 100 -1.311341e-05 -4.371139e-06 -1.459802 0.558802
6.678795 -3.941776 -1.24941 100 -1.311341e-05 -4.371139e-06 -1.991588 0.558802
6.678795 1.501984 -1.24941 100 -1.311341e-05 -4.371139e-06 -1.991588 -0.421000
6.678795 1.501984 1.249409 100 -1.311341e-05 -4.371139e-06 -1.459802 -0.421000
6.678795 -3.941776 -1.24941 -4.371139e-06 0 -100 -0.466783 -0.215121
-6.678795 -3.941774 -1.24941 -4.371139e-06 0 -100 1.466783 -0.215121
-6.678795 1.501986 -1.24941 -6.191968e-06 -14.22416 -98.98321 1.466783 0.772492
6.678795 1.501984 -1.24941 -7.921076e-06 -28.44832 -95.86811 -0.466783 0.772492
-6.678795 1.501986 1.24941 -100 0.0005236593 4.371139e-06 -1.459792 1.556728
-6.678795 1.501986 -1.24941 -100 0.001034205 4.371139e-06 -1.991587 1.556728
-6.678795 -3.941774 -1.24941 -100 1.311341e-05 4.371139e-06 -1.991586 0.576921
-6.678795 -3.941774 1.24941 -100 1.311341e-05 4.371139e-06 -1.459792 0.576921
6.678795 3.193613 1.718299 0 0 0 0.375000 0.250000
6.678795 3.193613 -1.7183 0 0 0 0.625000 0.250000
6.678795 3.193613 -1.7183 0 0 0 0.625000 0.250000
6.678795 3.193613 1.718299 0 0 0 0.375000 0.250000
6.678795 3.193613 -1.10012 0 0 0 0.625000 0.250000
6.678795 3.193613 1.100119 0 0 0 0.375000 0.250000
0.5285453 3.941775 -1.7183 1.311342e-05 100 -5.732058e-13 -2.900537 2.157323
-0.5285348 3.941775 -1.7183 1.311342e-05 100 -5.732058e-13 -2.688423 2.157323
-0.5285347 3.941775 -1.10012 1.311342e-05 100 -5.732058e-13 -2.688424 2.265580
0.5285453 3.941775 -1.10012 1.311342e-05 100 -5.732058e-13 -2.900537 2.265580
-6.678785 3.193615 -1.7183 0 0 0 0.625000 0.500000
-6.678785 3.193615 1.7183 0 0 0 0.375000 0.500000
-6.678785 3.193615 1.10012 0 0 0 0.375000 0.500000
-6.678785 3.193615 -1.10012 0 0 0 0.625000 0.500000
-0.5285346 3.941775 1.7183 1.311342e-05 100 -5.732058e-13 -2.688424 1.801979
0.5285454 3.941775 1.7183 1.311342e-05 100 -5.732058e-13 -2.900537 1.801979
0.5285454 3.941775 1.10012 1.311342e-05 100 -5.732058e-13 -2.900537 1.693728
-0.5285347 3.941775 1.10012 1.311342e-05 100 -5.732058e-13 -2.688423 1.693727
-5.799165 3.193615 -1.7183 0 0 0 0.625000 0.500000
5.799175 3.193613 -1.7183 0 0 0 0.625000 0.250000
-6.678785 3.941776 -1.7183 1.311342e-05 100 -5.732058e-13 -2.724031 -6.187503
-6.678785 3.941776 -1.10012 1.311342e-05 100 -5.732058e-13 -2.724031 -6.079246
-5.799165 3.941776 -1.10012 1.311342e-05 100 -5.732058e-13 -2.900537 -6.079246
-5.799165 3.941776 -1.7183 1.311342e-05 100 -5.732058e-13 -2.900537 -6.187504
5.799175 3.193613 -1.10012 0 0 0 0.625000 0.250000
-5.799165 3.193615 -1.10012 0 0 0 0.625000 0.500000
6.678795 3.941774 -1.10012 1.311342e-05 100 -5.732058e-13 -2.900537 -6.542848
6.678795 3.941774 -1.7183 1.311342e-05 100 -5.732058e-13 -2.900537 -6.651102
5.799175 3.941774 -1.7183 1.311342e-05 100 -5.732058e-13 -2.724032 -6.651102
5.799175 3.941774 -1.10012 1.311342e-05 100 -5.732058e-13 -2.724032 -6.542848
5.799175 3.193613 1.718299 0 0 0 0.375000 0.250000
-5.799165 3.193615 1.7183 0 0 0 0.375000 0.500000
6.678795 3.941774 1.718299 1.311342e-05 100 -5.732058e-13 -2.900537 -7.006449
6.678795 3.941774 1.100119 1.311342e-05 100 -5.732058e-13 -2.900537 -7.114695
5.799175 3.941774 1.10012 1.311342e-05 100 -5.732058e-13 -2.724032 -7.114695
5.799175 3.941774 1.718299 1.311342e-05 100 -5.732058e-13 -2.724032 -7.006449
-5.799165 3.193615 1.10012 0 0 0 0.375000 0.500000
5.799175 3.193613 1.10012 0 0 0 0.375000 0.250000
-6.678785 3.941776 1.10012 1.311342e-05 100 -5.732058e-13 -2.724031 -7.578305
-6.678785 3.941776 1.7183 1.311342e-05 100 -5.732058e-13 -2.724031 -7.470049
-5.799165 3.941776 1.7183 1.311342e-05 100 -5.732058e-13 -2.900537 -7.470050
-5.799165 3.941776 1.10012 1.311342e-05 100 -5.732058e-13 -2.900538 -7.578304
-4.747936 3.193615 -1.7183 0 0 0 0.625000 0.500000
4.747945 3.193613 -1.7183 0 0 0 0.625000 0.250000
-5.799165 3.193615 -1.7183 1.311342e-05 100 -5.732058e-13 -2.689599 1.230121
-5.799165 3.193615 -1.10012 1.311342e-05 100 -5.732058e-13 -2.689599 1.338372
-4.747936 3.193615 -1.10012 1.311342e-05 100 -5.732058e-13 -2.900537 1.338372
-4.747936 3.193615 -1.7183 1.311342e-05 100 -5.732058e-13 -2.900537 1.230121
4.747945 3.193613 -1.10012 0 0 0 0.625000 0.250000
-4.747936 3.193615 -1.10012 0 0 0 0.625000 0.500000
5.799175 3.193613 -1.10012 1.311342e-05 100 -5.732058e-13 -2.900537 0.874771
5.799175 3.193613 -1.7183 1.311342e-05 100 -5.732058e-13 -2.900537 0.766520
4.747945 3.193613 -1.7183 1.311342e-05 100 -5.732058e-13 -2.689599 0.766520
4.747945 3.193613 -1.10012 1.311342e-05 100 -5.732058e-13 -2.689599 0.874771
4.747945 3.193613 1.718299 0 0 0 0.375000 0.250000
-4.747936 3.193615 1.7183 0 0 0 0.375000 0.500000
5.799175 3.193613 1.718299 1.311342e-05 100 -5.732058e-13 -2.900537 0.411174
5.799175 3.193613 1.10012 1.311342e-05 100 -5.732058e-13 -2.900537 0.302924
4.747945 3.193613 1.10012 1.311342e-05 100 -5.732058e-13 -2.689599 0.302924
4.747945 3.193613 1.718299 1.311342e-05 100 -5.732058e-13 -2.689599 0.411174
-4.747936 3.193615 1.10012 0 0 0 0.375000 0.500000
4.747945 3.193613 1.10012 0 0 0 0.375000 0.250000
-5.799165 3.193615 1.10012 1.311342e-05 100 -5.732058e-13 -2.689599 -0.160677
-5.799165 3.193615 1.7183 1.311342e-05 100 -5.732058e-13 -2.689598 -0.052428
-4.747936 3.193615 1.7183 1.311342e-05 100 -5.732058e-13 -2.900537 -0.052428
-4.747936 3.193615 1.10012 1.311342e-05 100 -5.732058e-13 -2.900537 -0.160677
-3.729016 3.193615 -1.7183 0 0 0 0.625000 0.500000
3.729015 3.193613 -1.7183 0 0 0 0.625000 0.250000
-4.747935 3.941776 -1.7183 1.311342e-05 100 -5.732058e-13 -2.696079 -4.333096
-4.747935 3.941776 -1.10012 1.311342e-05 100 -5.732058e-13 -2.696079 -4.224840
-3.729015 3.941776 -1.10012 1.311342e-05 100 -5.732058e-13 -2.900537 -4.224839
-3.729015 3.941776 -1.7183 1.311342e-05 100 -5.732058e-13 -2.900537 -4.333095
3.729015 3.193613 -1.10012 0 0 0 0.625000 0.250000
-3.729016 3.193615 -1.10012 0 0 0 0.625000 0.500000
4.747946 3.941774 -1.10012 1.311342e-05 100 -5.732058e-13 -2.900537 -4.688440
4.747946 3.941774 -1.7183 1.311342e-05 100 -5.732058e-13 -2.900537 -4.796698
3.729016 3.941774 -1.7183 1.311342e-05 100 -5.732058e-13 -2.696078 -4.796698
3.729016 3.941774 -1.10012 1.311342e-05 100 -5.732058e-13 -2.696078 -4.688440
3.729015 3.193613 1.718299 0 0 0 0.375000 0.250000
-3.729016 3.193615 1.7183 0 0 0 0.375000 0.500000
4.747946 3.941774 1.718299 1.311342e-05 100 -5.732058e-13 -2.900537 -5.152043
4.747946 3.941774 1.10012 1.311342e-05 100 -5.732058e-13 -2.900537 -5.260299
3.729016 3.941774 1.10012 1.311342e-05 100 -5.732058e-13 -2.696078 -5.260299
3.729016 3.941774 1.718299 1.311342e-05 100 -5.732058e-13 -2.696079 -5.152043
-3.729016 3.193615 1.10012 0 0 0 0.375000 0.500000
3.729015 3.193613 1.10012 0 0 0 0.375000 0.250000
-4.747935 3.941776 1.10012 1.311342e-05 100 -5.732058e-13 -2.696079 -5.723888
-4.747935 3.941776 1.7183 1.311342e-05 100 -5.732058e-13 -2.696079 -5.615644
-3.729015 3.941776 1.7183 1.311342e-05 100 -5.732058e-13 -2.900537 -5.615644
-3.729015 3.941776 1.10012 1.311342e-05 100 -5.732058e-13 -2.900537 -5.723889
-2.680146 3.193614 -1.7183 0 0 0 0.625000 0.500000
2.680155 3.193614 -1.7183 0 0 0 0.625000 0.250000
-3.729016 3.193615 -1.7183 1.311342e-05 100 -5.732058e-13 -2.690072 -0.624285
-3.729016 3.193615 -1.10012 1.311342e-05 100 -5.732058e-13 -2.690073 -0.516034
-2.680146 3.193614 -1.10012 1.311342e-05 100 -5.732058e-13 -2.900537 -0.516034
-2.680146 3.193614 -1.7183 1.311342e-05 100 -5.732058e-13 -2.900537 -0.624285
2.680155 3.193614 -1.10012 0 0 0 0.625000 0.250000
-2.680146 3.193614 -1.10012 0 0 0 0.625000 0.500000
3.729015 3.193613 -1.10012 1.311342e-05 100 -5.732058e-13 -2.900537 -0.979629
3.729015 3.193613 -1.7183 1.311342e-05 100 -5.732058e-13 -2.900537 -1.087880
2.680155 3.193614 -1.7183 1.311342e-05 100 -5.732058e-13 -2.690072 -1.087880
2.680155 3.193614 -1.10012 1.311342e-05 100 -5.732058e-13 -2.690072 -0.979629
2.680155 3.193614 1.718299 0 0 0 0.375000 0.250000
-2.680146 3.193614 1.7183 0 0 0 0.375000 0.500000
3.729015 3.193613 1.718299 1.311342e-05 100 -5.732058e-13 -2.900537 -1.443231
3.729015 3.193613 1.10012 1.311342e-05 100 -5.732058e-13 -2.900537 -1.551482
2.680155 3.193614 1.10012 1.311342e-05 100 -5.732058e-13 -2.690072 -1.551482
2.680155 3.193614 1.718299 1.311342e-05 100 -5.732058e-13 -2.690072 -1.443231
-2.680146 3.193614 1.10012 0 0 0 0.375000 0.500000
2.680155 3.193614 1.10012 0 0 0 0.375000 0.250000
-3.729016 3.193615 1.10012 1.311342e-05 100 -5.732058e-13 -2.690072 -2.015084
-3.729016 3.193615 1.7183 1.311342e-05 100 -5.732058e-13 -2.690072 -1.906833
-2.680146 3.193614 1.7183 1.311342e-05 100 -5.732058e-13 -2.900537 -1.906833
-2.680146 3.193614 1.10012 1.311342e-05 100 -5.732058e-13 -2.900537 -2.015083
-1.658285 3.193614 -1.7183 0 0 0 0.625000 0.500000
1.658285 3.193614 -1.7183 0 0 0 0.625000 0.250000
-2.680145 3.941775 -1.7183 1.311342e-05 100 -5.732058e-13 -2.695489 -2.478691
-2.680145 3.941775 -1.10012 1.311342e-05 100 -5.732058e-13 -2.695489 -2.370435
-1.658285 3.941775 -1.10012 1.311342e-05 100 -5.732058e-13 -2.900537 -2.370435
-1.658285 3.941775 -1.7183 1.311342e-05 100 -5.732058e-13 -2.900537 -2.478691
1.658285 3.193614 -1.10012 0 0 0 0.625000 0.250000
-1.658285 3.193614 -1.10012 0 0 0 0.625000 0.500000
2.680156 3.941775 -1.10012 1.311342e-05 100 -5.732058e-13 -2.900538 -2.834036
2.680156 3.941775 -1.7183 1.311342e-05 100 -5.732058e-13 -2.900537 -2.942291
1.658285 3.941775 -1.7183 1.311342e-05 100 -5.732058e-13 -2.695489 -2.942291
1.658285 3.941775 -1.10012 1.311342e-05 100 -5.732058e-13 -2.695490 -2.834036
1.658285 3.193614 1.7183 0 0 0 0.375000 0.250000
-1.658285 3.193614 1.7183 0 0 0 0.375000 0.500000
2.680156 3.941775 1.718299 1.311342e-05 100 -5.732058e-13 -2.900537 -3.297636
2.680156 3.941775 1.10012 1.311342e-05 100 -5.732058e-13 -2.900537 -3.405880
1.658285 3.941775 1.10012 1.311342e-05 100 -5.732058e-13 -2.695489 -3.405880
1.658285 3.941775 1.7183 1.311342e-05 100 -5.732058e-13 -2.695489 -3.297636
-1.658285 3.193614 1.10012 0 0 0 0.375000 0.500000
1.658285 3.193614 1.10012 0 0 0 0.375000 0.250000
-2.680145 3.941775 1.10012 1.311342e-05 100 -5.732058e-13 -2.695489 -3.869481
-2.680145 3.941775 1.7183 1.311342e-05 100 -5.732058e-13 -2.695489 -3.761238
-1.658285 3.941775 1.7183 1.311342e-05 100 -5.732058e-13 -2.900537 -3.761238
-1.658285 3.941775 1.10012 1.311342e-05 100 -5.732058e-13 -2.900537 -3.869482
-0.5285349 3.193614 -1.7183 0 0 0 0.625000 0.500000
0.5285452 3.193614 -1.7183 0 0 0 0.625000 0.250000
-1.658285 3.193614 -1.7183 1.311342e-05 100 -5.732058e-13 -2.673843 4.011730
-1.658285 3.193614 -1.10012 1.311342e-05 100 -5.732058e-13 -2.673844 4.119979
-0.5285348 3.193614 -1.10012 1.311342e-05 100 -5.732058e-13 -2.900537 4.119981
-0.5285349 3.193614 -1.7183 1.311342e-05 100 -5.732058e-13 -2.900537 4.011730
0.5285452 3.193614 -1.10012 0 0 0 0.625000 0.250000
-0.5285348 3.193614 -1.10012 0 0 0 0.625000 0.500000
1.658285 3.193614 -1.10012 1.311342e-05 100 -5.732058e-13 -2.900537 3.656377
1.658285 3.193614 -1.7183 1.311342e-05 100 -5.732058e-13 -2.900537 3.548129
0.5285452 3.193614 -1.7183 1.311342e-05 100 -5.732058e-13 -2.673843 3.548129
0.5285452 3.193614 -1.10012 1.311342e-05 100 -5.732058e-13 -2.673843 3.656378
0.5285453 3.193614 1.7183 0 0 0 0.375000 0.250000
-0.5285347 3.193614 1.7183 0 0 0 0.375000 0.500000
1.658285 3.193614 1.7183 1.311342e-05 100 -5.732058e-13 -2.900537 3.192783
1.658285 3.193614 1.10012 1.311342e-05 100 -5.732058e-13 -2.900537 3.084532
0.5285453 3.193614 1.10012 1.311342e-05 100 -5.732058e-13 -2.673843 3.084532
0.5285453 3.193614 1.7183 1.311342e-05 100 -5.732058e-13 -2.673843 3.192783
-0.5285348 3.193614 1.10012 0 0 0 0.375000 0.500000
0.5285453 3.193614 1.10012 0 0 0 0.375000 0.250000
-1.658285 3.193614 1.10012 1.311342e-05 100 -5.732058e-13 -2.673843 2.620932
-1.658285 3.193614 1.7183 1.311342e-05 100 -5.732058e-13 -2.673843 2.729182
-0.5285347 3.193614 1.7183 1.311342e-05 100 -5.732058e-13 -2.900537 2.729182
-0.5285348 3.193614 1.10012 1.311342e-05 100 -5.732058e-13 -2.900537 2.620931
0.5285452 3.193614 -1.7183 -4.371139e-06 0 -100 0.423492 1.079389
-0.5285349 3.193614 -1.7183 -4.371139e-06 0 -100 0.576509 1.079389
-0.5285348 3.941775 -1.7183 -4.371139e-06 0 -100 0.576509 1.215121
0.5285453 3.941775 -1.7183 -4.371139e-06 0 -100 0.423492 1.215121
-0.5285349 3.193614 -1.7183 -100 1.311341e-05 4.371139e-06 -1.355695 -0.778973
-0.5285348 3.193614 -1.10012 -100 1.311341e-05 4.371139e-06 -1.224143 -0.778973
-0.5285347 3.941775 -1.10012 -100 1.311341e-05 4.371139e-06 -1.224143 -0.644322
-0.5285348 3.941775 -1.7183 -100 1.311341e-05 4.371139e-06 -1.355695 -0.644322
-0.5285348 3.193614 -1.10012 4.371139e-06 0 100 0.576509 1.079389
0.5285452 3.193614 -1.10012 4.371139e-06 0 100 0.423492 1.079389
0.5285453 3.941775 -1.10012 4.371139e-06 0 100 0.423492 1.215121
-0.5285347 3.941775 -1.10012 4.371139e-06 0 100 0.576509 1.215121
0.5285452 3.193614 -1.10012 100 -1.311341e-05 -4.371139e-06 -1.224153 -0.493410
0.5285452 3.193614 -1.7183 100 -1.311341e-05 -4.371139e-06 -1.355712 -0.493410
0.5285453 3.941775 -1.7183 100 -1.311341e-05 -4.371139e-06 -1.355712 -0.628071
0.5285453 3.941775 -1.10012 100 -1.311341e-05 -4.371139e-06 -1.224153 -0.628071
-0.5285347 3.193614 1.7183 4.371139e-06 0 100 0.576508 1.079389
0.5285453 3.193614 1.7183 4.371139e-06 0 100 0.423492 1.079389
0.5285454 3.941775 1.7183 4.371139e-06 0 100 0.423492 1.215121
-0.5285346 3.941775 1.7183 4.371139e-06 0 100 0.576508 1.215121
0.5285453 3.193614 1.7183 100 -1.311341e-05 -4.371139e-06 -1.224157 -0.342489
0.5285453 3.193614 1.10012 100 -1.311341e-05 -4.371139e-06 -1.355712 -0.342489
0.5285454 3.941775 1.10012 100 -1.311341e-05 -4.371139e-06 -1.355712 -0.477150
0.5285454 3.941775 1.7183 100 -1.311341e-05 -4.371139e-06 -1.224157 -0.477149
0.5285453 3.193614 1.10012 -4.371139e-06 0 -100 0.423492 1.079389
-0.5285348 3.193614 1.10012 -4.371139e-06 0 -100 0.576508 1.079389
-0.5285347 3.941775 1.10012 -4.371139e-06 0 -100 0.576508 1.215121
0.5285454 3.941775 1.10012 -4.371139e-06 0 -100 0.423492 1.215121
-0.5285348 3.193614 1.10012 -100 1.311341e-05 4.371139e-06 -1.355694 -0.326228
-0.5285347 3.193614 1.7183 -100 1.311341e-05 4.371139e-06 -1.224143 -0.326228
-0.5285346 3.941775 1.7183 -100 1.311341e-05 4.371139e-06 -1.224143 -0.191577
-0.5285347 3.941775 1.10012 -100 1.311341e-05 4.371139e-06 -1.355694 -0.191577
-6.678785 3.193615 -1.7183 -100 1.311341e-05 4.371139e-06 -1.355694 -0.175317
-6.678785 3.193615 -1.10012 -100 1.311341e-05 4.371139e-06 -1.224143 -0.175316
-6.678785 3.941776 -1.10012 -100 1.311341e-05 4.371139e-06 -1.224143 -0.040666
-6.678785 3.941776 -1.7183 -100 1.311341e-05 4.371139e-06 -1.355695 -0.040666
-6.678785 3.193615 -1.10012 4.371139e-06 0 100 1.466783 1.079389
-5.799165 3.193615 -1.10012 4.371139e-06 0 100 1.339453 1.079389
-5.799165 3.941776 -1.10012 4.371139e-06 0 100 1.339453 1.215121
-6.678785 3.941776 -1.10012 4.371139e-06 0 100 1.466783 1.215121
-5.799165 3.193615 -1.10012 100 -1.311341e-05 -4.371139e-06 -1.224153 0.110246
-5.799165 3.193615 -1.7183 100 -1.311341e-05 -4.371139e-06 -1.355712 0.110246
-5.799165 3.941776 -1.7183 100 -1.311341e-05 -4.371139e-06 -1.355712 -0.024415
-5.799165 3.941776 -1.10012 100 -1.311341e-05 -4.371139e-06 -1.224153 -0.024414
-5.799165 3.193615 -1.7183 -4.371139e-06 0 -100 1.339453 1.079389
-6.678785 3.941776 -1.7183 -4.371139e-06 0 -100 1.466783 1.215121
-5.799165 3.941776 -1.7183 -4.371139e-06 0 -100 1.339453 1.215121
6.678795 3.193613 -1.10012 100 -1.311341e-05 -4.371139e-06 -1.224153 0.261163
6.678795 3.193613 -1.7183 100 -1.311341e-05 -4.371139e-06 -1.355712 0.261163
6.678795 3.941774 -1.7183 100 -1.311341e-05 -4.371139e-06 -1.355712 0.126502
6.678795 3.941774 -1.10012 100 -1.311341e-05 -4.371139e-06 -1.224153 0.126502
5.799175 3.193613 -1.7183 -4.371139e-06 0 -100 -0.339454 1.079389
5.799175 3.941774 -1.7183 -4.371139e-06 0 -100 -0.339454 1.215121
6.678795 3.941774 -1.7183 -4.371139e-06 0 -100 -0.466783 1.215121
5.799175 3.193613 -1.7183 -100 1.311341e-05 4.371139e-06 -1.355695 0.277414
5.799175 3.193613 -1.10012 -100 1.311341e-05 4.371139e-06 -1.224143 0.277414
5.799175 3.941774 -1.10012 -100 1.311341e-05 4.371139e-06 -1.224143 0.412064
5.799175 3.941774 -1.7183 -100 1.311341e-05 4.371139e-06 -1.355695 0.412064
5.799175 3.193613 -1.10012 4.371139e-06 0 100 -0.339454 1.079389
6.678795 3.193613 -1.10012 4.371139e-06 0 100 -0.466783 1.079389
6.678795 3.941774 -1.10012 4.371139e-06 0 100 -0.466783 1.215121
5.799175 3.941774 -1.10012 4.371139e-06 0 100 -0.339454 1.215121
6.678795 3.193613 1.718299 100 -1.311341e-05 -4.371139e-06 -1.224157 0.562986
6.678795 3.193613 1.100119 100 -1.311341e-05 -4.371139e-06 -1.355712 0.562986
6.678795 3.941774 1.100119 100 -1.311341e-05 -4.371139e-06 -1.355712 0.428325
6.678795 3.941774 1.718299 100 -1.311341e-05 -4.371139e-06 -1.224157 0.428325
6.678795 3.193613 1.100119 -4.371139e-06 0 -100 -0.466783 1.079389
5.799175 3.193613 1.10012 -4.371139e-06 0 -100 -0.339454 1.079389
5.799175 3.941774 1.10012 -4.371139e-06 0 -100 -0.339454 1.215121
6.678795 3.941774 1.100119 -4.371139e-06 0 -100 -0.466783 1.215121
5.799175 3.193613 1.10012 -100 1.311341e-05 4.371139e-06 -1.355695 0.579247
5.799175 3.193613 1.718299 -100 1.311341e-05 4.371139e-06 -1.224143 0.579247
5.799175 3.941774 1.718299 -100 1.311341e-05 4.371139e-06 -1.224143 0.713898
5.799175 3.941774 1.10012 -100 1.311341e-05 4.371139e-06 -1.355694 0.713898
5.799175 3.193613 1.718299 4.371139e-06 0 100 -0.339454 1.079389
6.678795 3.941774 1.718299 4.371139e-06 0 100 -0.466783 1.215121
5.799175 3.941774 1.718299 4.371139e-06 0 100 -0.339454 1.215121
-6.678785 3.193615 1.10012 -100 1.311341e-05 4.371139e-06 -1.355695 0.730163
-6.678785 3.193615 1.7183 -100 1.311341e-05 4.371139e-06 -1.224143 0.730163
-6.678785 3.941776 1.7183 -100 1.311341e-05 4.371139e-06 -1.224143 0.864814
-6.678785 3.941776 1.10012 -100 1.311341e-05 4.371139e-06 -1.355694 0.864814
-5.799165 3.193615 1.7183 4.371139e-06 0 100 1.339453 1.079389
-5.799165 3.941776 1.7183 4.371139e-06 0 100 1.339453 1.215121
-6.678785 3.941776 1.7183 4.371139e-06 0 100 1.466783 1.215121
-5.799165 3.193615 1.7183 100 -1.311341e-05 -4.371139e-06 -1.224151 1.015735
-5.799165 3.193615 1.10012 100 -1.311341e-05 -4.371139e-06 -1.355706 1.015735
-5.799165 3.941776 1.10012 100 -1.311341e-05 -4.371139e-06 -1.355706 0.881075
-5.799165 3.941776 1.7183 100 -1.311341e-05 -4.371139e-06 -1.224151 0.881075
-5.799165 3.193615 1.10012 -4.371139e-06 0 -100 1.339453 1.079389
-6.678785 3.193615 1.10012 -4.371139e-06 0 -100 1.466783 1.079389
-6.678785 3.941776 1.10012 -4.371139e-06 0 -100 1.466783 1.215121
-5.799165 3.941776 1.10012 -4.371139e-06 0 -100 1.339453 1.215121
-4.747936 3.193615 -1.7183 -100 1.311341e-05 4.371139e-06 -1.355694 1.031996
-4.747936 3.193615 -1.10012 -100 1.311341e-05 4.371139e-06 -1.224143 1.031996
-4.747935 3.941776 -1.10012 -100 1.311341e-05 4.371139e-06 -1.224143 1.166647
-4.747935 3.941776 -1.7183 -100 1.311341e-05 4.371139e-06 -1.355694 1.166648
-4.747936 3.193615 -1.10012 4.371139e-06 0 100 1.187284 1.079389
-3.729016 3.193615 -1.10012 4.371139e-06 0 100 1.039790 1.079389
-3.729015 3.941776 -1.10012 4.371139e-06 0 100 1.039790 1.215121
-4.747935 3.941776 -1.10012 4.371139e-06 0 100 1.187284 1.215121
-3.729016 3.193615 -1.10012 100 -1.311341e-05 -4.371139e-06 -1.224147 1.317564
-3.729016 3.193615 -1.7183 100 -1.311341e-05 -4.371139e-06 -1.355706 1.317564
-3.729015 3.941776 -1.7183 100 -1.311341e-05 -4.371139e-06 -1.355706 1.182903
-3.729015 3.941776 -1.10012 100 -1.311341e-05 -4.371139e-06 -1.224147 1.182903
-3.729016 3.193615 -1.7183 -4.371139e-06 0 -100 1.039790 1.079389
-4.747936 3.193615 -1.7183 -4.371139e-06 0 -100 1.187284 1.079389
-4.747935 3.941776 -1.7183 -4.371139e-06 0 -100 1.187284 1.215121
-3.729015 3.941776 -1.7183 -4.371139e-06 0 -100 1.039790 1.215121
4.747945 3.193613 -1.10012 100 -1.311341e-05 -4.371139e-06 -1.224147 1.468471
4.747945 3.193613 -1.7183 100 -1.311341e-05 -4.371139e-06 -1.355706 1.468470
4.747946 3.941774 -1.7183 100 -1.311341e-05 -4.371139e-06 -1.355706 1.333810
4.747946 3.941774 -1.10012 100 -1.311341e-05 -4.371139e-06 -1.224147 1.333810
4.747945 3.193613 -1.7183 -4.371139e-06 0 -100 -0.187285 1.079389
3.729015 3.193613 -1.7183 -4.371139e-06 0 -100 -0.039790 1.079389
3.729016 3.941774 -1.7183 -4.371139e-06 0 -100 -0.039790 1.215121
4.747946 3.941774 -1.7183 -4.371139e-06 0 -100 -0.187285 1.215121
3.729015 3.193613 -1.7183 -100 1.311341e-05 4.371139e-06 -1.355695 1.484727
3.729015 3.193613 -1.10012 -100 1.311341e-05 4.371139e-06 -1.224143 1.484727
3.729016 3.941774 -1.10012 -100 1.311341e-05 4.371139e-06 -1.224143 1.619377
3.729016 3.941774 -1.7183 -100 1.311341e-05 4.371139e-06 -1.355694 1.619377
3.729015 3.193613 -1.10012 4.371139e-06 0 100 -0.039790 1.079389
4.747945 3.193613 -1.10012 4.371139e-06 0 100 -0.187285 1.079389
4.747946 3.941774 -1.10012 4.371139e-06 0 100 -0.187285 1.215121
3.729016 3.941774 -1.10012 4.371139e-06 0 100 -0.039790 1.215121
4.747945 3.193613 1.718299 100 -1.311341e-05 -4.371139e-06 -1.224151 1.770298
4.747945 3.193613 1.10012 100 -1.311341e-05 -4.371139e-06 -1.355706 1.770299
4.747946 3.941774 1.10012 100 -1.311341e-05 -4.371139e-06 -1.355706 1.635638
4.747946 3.941774 1.718299 100 -1.311341e-05 -4.371139e-06 -1.224151 1.635638
4.747945 3.193613 1.10012 -4.371139e-06 0 -100 -0.187285 1.079389
3.729015 3.193613 1.10012 -4.371139e-06 0 -100 -0.039790 1.079389
3.729016 3.941774 1.10012 -4.371139e-06 0 -100 -0.039790 1.215121
4.747946 3.941774 1.10012 -4.371139e-06 0 -100 -0.187285 1.215121
3.729015 3.193613 1.10012 -100 1.311341e-05 4.371139e-06 -1.219840 1.726523
3.729015 3.193613 1.718299 -100 1.311341e-05 4.371139e-06 -1.088289 1.726524
3.729016 3.941774 1.718299 -100 1.311341e-05 4.371139e-06 -1.088289 1.861174
3.729016 3.941774 1.10012 -100 1.311341e-05 4.371139e-06 -1.219840 1.861174
3.729015 3.193613 1.718299 4.371139e-06 0 100 -0.039790 1.079389
4.747945 3.193613 1.718299 4.371139e-06 0 100 -0.187285 1.079389
4.747946 3.941774 1.718299 4.371139e-06 0 100 -0.187285 1.215121
3.729016 3.941774 1.718299 4.371139e-06 0 100 -0.039790 1.215121
-4.747936 3.193615 1.10012 -100 1.311341e-05 4.371139e-06 -1.219824 1.571024
-4.747936 3.193615 1.7183 -100 1.311341e-05 4.371139e-06 -1.088273 1.571024
-4.747935 3.941776 1.7183 -100 1.311341e-05 4.371139e-06 -1.088273 1.705675
-4.747935 3.941776 1.10012 -100 1.311341e-05 4.371139e-06 -1.219824 1.705675
-4.747936 3.193615 1.7183 4.371139e-06 0 100 1.187284 1.079389
-3.729016 3.193615 1.7183 4.371139e-06 0 100 1.039790 1.079389
-3.729015 3.941776 1.7183 4.371139e-06 0 100 1.039790 1.215121
-4.747935 3.941776 1.7183 4.371139e-06 0 100 1.187284 1.215121
-3.729016 3.193615 1.7183 100 -1.311341e-05 -4.371139e-06 -1.088281 1.550691
-3.729016 3.193615 1.10012 100 -1.311341e-05 -4.371139e-06 -1.219836 1.550692
-3.729015 3.941776 1.10012 100 -1.311341e-05 -4.371139e-06 -1.219836 1.416031
-3.729015 3.941776 1.7183 100 -1.311341e-05 -4.371139e-06 -1.088281 1.416031
-3.729016 3.193615 1.10012 -4.371139e-06 0 -100 1.039790 1.079389
-4.747936 3.193615 1.10012 -4.371139e-06 0 -100 1.187284 1.079389
-4.747935 3.941776 1.10012 -4.371139e-06 0 -100 1.187284 1.215121
-3.729015 3.941776 1.10012 -4.371139e-06 0 -100 1.039790 1.215121
-2.680146 3.193614 -1.7183 -100 1.311341e-05 4.371139e-06 -1.219840 1.261062
-2.680146 3.193614 -1.10012 -100 1.311341e-05 4.371139e-06 -1.088289 1.261062
-2.680145 3.941775 -1.10012 -100 1.311341e-05 4.371139e-06 -1.088289 1.395714
-2.680145 3.941775 -1.7183 -100 1.311341e-05 4.371139e-06 -1.219840 1.395714
-2.680146 3.193614 -1.10012 4.371139e-06 0 100 0.887963 1.079389
-1.658285 3.193614 -1.10012 4.371139e-06 0 100 0.740043 1.079389
-1.658285 3.941775 -1.10012 4.371139e-06 0 100 0.740043 1.215121
-2.680145 3.941775 -1.10012 4.371139e-06 0 100 0.887963 1.215121
-1.658285 3.193614 -1.10012 100 -1.311341e-05 -4.371139e-06 -1.088277 1.240731
-1.658285 3.193614 -1.7183 100 -1.311341e-05 -4.371139e-06 -1.219836 1.240731
-1.658285 3.941775 -1.7183 100 -1.311341e-05 -4.371139e-06 -1.219836 1.106070
-1.658285 3.941775 -1.10012 100 -1.311341e-05 -4.371139e-06 -1.088277 1.106070
-1.658285 3.193614 -1.7183 -4.371139e-06 0 -100 0.740043 1.079389
-2.680146 3.193614 -1.7183 -4.371139e-06 0 -100 0.887963 1.079389
-2.680145 3.941775 -1.7183 -4.371139e-06 0 -100 0.887963 1.215121
-1.658285 3.941775 -1.7183 -4.371139e-06 0 -100 0.740043 1.215121
2.680155 3.193614 -1.10012 100 -1.311341e-05 -4.371139e-06 -1.088277 1.085747
2.680155 3.193614 -1.7183 100 -1.311341e-05 -4.371139e-06 -1.219836 1.085747
2.680156 3.941775 -1.7183 100 -1.311341e-05 -4.371139e-06 -1.219836 0.951087
2.680156 3.941775 -1.10012 100 -1.311341e-05 -4.371139e-06 -1.088277 0.951087
2.680155 3.193614 -1.7183 -4.371139e-06 0 -100 0.112037 1.079389
1.658285 3.193614 -1.7183 -4.371139e-06 0 -100 0.259957 1.079389
1.658285 3.941775 -1.7183 -4.371139e-06 0 -100 0.259957 1.215121
2.680156 3.941775 -1.7183 -4.371139e-06 0 -100 0.112037 1.215121
1.658285 3.193614 -1.7183 -100 1.311341e-05 4.371139e-06 -1.219824 0.796114
1.658285 3.193614 -1.10012 -100 1.311341e-05 4.371139e-06 -1.088273 0.796114
1.658285 3.941775 -1.10012 -100 1.311341e-05 4.371139e-06 -1.088273 0.930764
1.658285 3.941775 -1.7183 -100 1.311341e-05 4.371139e-06 -1.219824 0.930764
1.658285 3.193614 -1.10012 4.371139e-06 0 100 0.259957 1.079389
2.680155 3.193614 -1.10012 4.371139e-06 0 100 0.112037 1.079389
2.680156 3.941775 -1.10012 4.371139e-06 0 100 0.112037 1.215121
1.658285 3.941775 -1.10012 4.371139e-06 0 100 0.259957 1.215121
2.680155 3.193614 1.718299 100 -1.311341e-05 -4.371139e-06 -1.088281 0.775777
2.680155 3.193614 1.10012 100 -1.311341e-05 -4.371139e-06 -1.219836 0.775777
2.680156 3.941775 1.10012 100 -1.311341e-05 -4.371139e-06 -1.219836 0.641116
2.680156 3.941775 1.718299 100 -1.311341e-05 -4.371139e-06 -1.088281 0.641116
2.680155 3.193614 1.10012 -4.371139e-06 0 -100 0.112037 1.079389
1.658285 3.193614 1.10012 -4.371139e-06 0 -100 0.259957 1.079389
1.658285 3.941775 1.10012 -4.371139e-06 0 -100 0.259957 1.215121
2.680156 3.941775 1.10012 -4.371139e-06 0 -100 0.112037 1.215121
1.658285 3.193614 1.10012 -100 1.311341e-05 4.371139e-06 -1.219824 0.486143
1.658285 3.193614 1.7183 -100 1.311341e-05 4.371139e-06 -1.088273 0.486143
1.658285 3.941775 1.7183 -100 1.311341e-05 4.371139e-06 -1.088273 0.620794
1.658285 3.941775 1.10012 -100 1.311341e-05 4.371139e-06 -1.219824 0.620794
1.658285 3.193614 1.7183 4.371139e-06 0 100 0.259957 1.079389
2.680155 3.193614 1.718299 4.371139e-06 0 100 0.112037 1.079389
2.680156 3.941775 1.718299 4.371139e-06 0 100 0.112037 1.215121
1.658285 3.941775 1.7183 4.371139e-06 0 100 0.259957 1.215121
-2.680146 3.193614 1.10012 -100 1.311341e-05 4.371139e-06 -1.219824 0.331160
-2.680146 3.193614 1.7183 -100 1.311341e-05 4.371139e-06 -1.088273 0.331160
-2.680145 3.941775 1.7183 -100 1.311341e-05 4.371139e-06 -1.088273 0.465811
-2.680145 3.941775 1.10012 -100 1.311341e-05 4.371139e-06 -1.219824 0.465811
-2.680146 3.193614 1.7183 4.371139e-06 0 100 0.887963 1.079389
-1.658285 3.193614 1.7183 4.371139e-06 0 100 0.740043 1.079389
-1.658285 3.941775 1.7183 4.371139e-06 0 100 0.740043 1.215121
-2.680145 3.941775 1.7183 4.371139e-06 0 100 0.887963 1.215121
-1.658285 3.193614 1.7183 100 -1.311341e-05 -4.371139e-06 -1.088287 0.310828
-1.658285 3.193614 1.10012 100 -1.311341e-05 -4.371139e-06 -1.219842 0.310828
-1.658285 3.941775 1.10012 100 -1.311341e-05 -4.371139e-06 -1.219842 0.176167
-1.658285 3.941775 1.7183 100 -1.311341e-05 -4.371139e-06 -1.088287 0.176167
-1.658285 3.193614 1.10012 -4.371139e-06 0 -100 0.740043 1.079389
-2.680146 3.193614 1.10012 -4.371139e-06 0 -100 0.887963 1.079389
-2.680145 3.941775 1.10012 -4.371139e-06 0 -100 0.887963 1.215121
-1.658285 3.941775 1.10012 -4.371139e-06 0 -100 0.740043 1.215121
6.678795 2.124634 -1.53587 100 -1.311341e-05 -4.371139e-06 -2.052549 -0.533066
6.678795 2.124634 1.535869 100 -1.311341e-05 -4.371139e-06 -1.398838 -0.533065
6.678795 3.193613 1.718299 100 -1.311341e-05 -4.371139e-06 -1.360015 -0.725466
6.678795 3.193613 -1.7183 100 -1.311341e-05 -4.371139e-06 -2.091376 -0.725466
3 0 1 2 
3 0 2 3 
3 4 5 6 
3 4 6 7 
3 8 9 10 
3 8 10 11 
3 12 13 14 
3 12 14 15 
3 16 17 18 
3 16 18 19 
3 20 21 22 
3 20 22 23 
3 24 25 26 
3 24 26 27 
3 28 29 30 
3 28 30 31 
3 32 33 34 
3 32 34 35 
3 36 37 38 
3 36 38 39 
3 33 32 7 
3 33 7 6 
3 31 30 13 
3 31 13 12 
3 23 22 17 
3 23 17 16 
3 39 38 40 
3 39 40 41 
3 42 43 44 
3 42 44 45 
3 46 47 48 
3 46 48 49 
3 50 51 52 
3 50 52 53 
3 38 46 54 
3 38 54 55 
3 56 57 58 
3 56 58 59 
3 49 40 60 
3 49 60 61 
3 62 63 64 
3 62 64 65 
3 47 39 66 
3 47 66 67 
3 68 69 70 
3 68 70 71 
3 41 48 72 
3 41 72 73 
3 74 75 76 
3 74 76 77 
3 55 54 78 
3 55 78 79 
3 80 81 82 
3 80 82 83 
3 61 60 84 
3 61 84 85 
3 86 87 88 
3 86 88 89 
3 67 66 90 
3 67 90 91 
3 92 93 94 
3 92 94 95 
3 73 72 96 
3 73 96 97 
3 98 99 100 
3 98 100 101 
3 79 78 102 
3 79 102 103 
3 104 105 106 
3 104 106 107 
3 85 84 108 
3 85 108 109 
3 110 111 112 
3 110 112 113 
3 91 90 114 
3 91 114 115 
3 116 117 118 
3 116 118 119 
3 97 96 120 
3 97 120 121 
3 122 123 124 
3 122 124 125 
3 103 102 126 
3 103 126 127 
3 128 129 130 
3 128 130 131 
3 109 108 132 
3 109 132 133 
3 134 135 136 
3 134 136 137 
3 115 114 138 
3 115 138 139 
3 140 141 142 
3 140 142 143 
3 121 120 144 
3 121 144 145 
3 146 147 148 
3 146 148 149 
3 127 126 150 
3 127 150 151 
3 152 153 154 
3 152 154 155 
3 133 132 156 
3 133 156 157 
3 158 159 160 
3 158 160 161 
3 139 138 162 
3 139 162 163 
3 164 165 166 
3 164 166 167 
3 145 144 168 
3 145 168 169 
3 170 171 172 
3 170 172 173 
3 151 150 174 
3 151 174 175 
3 176 177 178 
3 176 178 179 
3 157 156 180 
3 157 180 181 
3 182 183 184 
3 182 184 185 
3 163 162 186 
3 163 186 187 
3 188 189 190 
3 188 190 191 
3 169 168 192 
3 169 192 193 
3 194 195 196 
3 194 196 197 
3 198 199 200 
3 198 200 201 
3 202 203 204 
3 202 204 205 
3 206 207 208 
3 206 208 209 
3 210 211 212 
3 210 212 213 
3 214 215 216 
3 214 216 217 
3 218 219 220 
3 218 220 221 
3 222 223 224 
3 222 224 225 
3 226 227 228 
3 226 228 229 
3 230 231 232 
3 230 232 233 
3 234 235 236 
3 234 236 237 
3 238 239 240 
3 238 240 241 
3 242 14 243 
3 242 243 244 
3 245 246 247 
3 245 247 248 
3 15 249 250 
3 15 250 251 
3 252 253 254 
3 252 254 255 
3 256 257 258 
3 256 258 259 
3 260 261 262 
3 260 262 263 
3 264 265 266 
3 264 266 267 
3 268 269 270 
3 268 270 271 
3 272 18 273 
3 272 273 274 
3 275 276 277 
3 275 277 278 
3 19 279 280 
3 19 280 281 
3 282 283 284 
3 282 284 285 
3 286 287 288 
3 286 288 289 
3 290 291 292 
3 290 292 293 
3 294 295 296 
3 294 296 297 
3 298 299 300 
3 298 300 301 
3 302 303 304 
3 302 304 305 
3 306 307 308 
3 306 308 309 
3 310 311 312 
3 310 312 313 
3 314 315 316 
3 314 316 317 
3 318 319 320 
3 318 320 321 
3 322 323 324 
3 322 324 325 
3 326 327 328 
3 326 328 329 
3 330 331 332 
3 330 332 333 
3 334 335 336 
3 334 336 337 
3 338 339 340 
3 338 340 341 
3 342 343 344 
3 342 344 345 
3 346 347 348 
3 346 348 349 
3 350 351 352 
3 350 352 353 
3 354 355 356 
3 354 356 357 
3 358 359 360 
3 358 360 361 
3 362 363 364 
3 362 364 365 
3 366 367 368 
3 366 368 369 
3 370 371 372 
3 370 372 373 
3 374 375 376 
3 374 376 377 
3 378 379 380 
3 378 380 381 
3 382 383 384 
3 382 384 385 
3 386 387 388 
3 386 388 389 
3 390 391 392 
3 390 392 393 
3 394 395 396 
3 394 396 397 
3 398 399 400 
3 398 400 401 
3 402 403 404 
3 402 404 405 
3 406 407 408 
3 406 408 409 
3 410 411 412 
3 410 412 413 
3 414 415 416 
3 414 416 417 
3 26 418 419 
3 26 419 27 
3 420 419 418 
3 420 418 421 
