ply
format ascii 1.0
comment VCGLIB generated
element vertex 311
property float x
property float y
property float z
property float nx
property float ny
property float nz
property float texture_u
property float texture_v
element face 240
property list uchar int vertex_indices
end_header
2.472399 -5.207135 -1.024096 89.65388 2.831871e-05 -44.2965 3.829733 -0.310560
1.892299 -5.207135 -1.892296 65.87769 8.774277e-05 -75.23383 4.023656 -0.310560
1.892299 3.258275 -1.892285 75.23416 6.445977e-05 -65.8773 4.023656 1.007194
2.472399 3.258275 -1.024095 94.71729 1.546074e-05 -32.07235 3.829733 1.007194
1.024099 -5.207135 -2.472406 32.07209 8.437213e-05 -94.71738 4.217580 -0.310560
1.024099 3.258275 -2.472395 44.29662 9.76989e-05 -89.65383 4.217580 1.007194
0 -5.207135 -2.676106 19.50893 6.983322e-05 -98.07856 4.411504 -0.310560
0 3.258275 -2.676105 19.50893 6.983322e-05 -98.07856 4.411504 1.007194
0 -5.207135 -2.676106 -19.50892 6.988865e-05 -98.07856 1.308728 -0.310560
-1.0241 -5.207135 -2.472406 -44.2967 6.38536e-05 -89.65379 1.502651 -0.310560
-1.0241 3.258275 -2.472395 -32.07212 6.747768e-05 -94.71737 1.502651 1.007194
0 3.258275 -2.676105 -19.50892 6.988865e-05 -98.07856 1.308728 1.007194
-1.89229 -5.207135 -1.892296 -75.23386 4.770643e-05 -65.87767 1.696574 -0.310560
-1.89229 3.258275 -1.892295 -65.87756 5.396797e-05 -75.23394 1.696574 1.007194
-2.4724 -5.207135 -1.024106 -94.71722 2.346933e-05 -32.07254 1.890498 -0.310560
-2.4724 3.258275 -1.024095 -89.65366 3.24571e-05 -44.29696 1.890498 1.007194
-2.676109 -5.207135 -6.047252e-06 -99.78091 3.092039e-06 6.615857 2.084421 -0.310560
-2.676109 3.258275 -4.937147e-06 -99.78088 8.786811e-06 -6.616145 2.084421 1.007194
-2.4724 -5.207135 1.024104 -89.65362 -5.808854e-06 44.29704 2.278345 -0.310560
-2.4724 3.258275 1.024105 -94.71725 -4.205793e-06 32.07244 2.278345 1.007194
-1.89229 -5.207135 1.892294 -65.87769 -9.865726e-06 75.23383 2.472269 -0.310560
-1.89229 3.258275 1.892295 -75.23382 -8.638819e-06 65.87771 2.472269 1.007194
-1.0241 -5.207135 2.472404 -32.07195 -1.242069e-05 94.71743 2.666192 -0.310560
-1.0241 3.258275 2.472405 -44.2968 -1.175667e-05 89.65375 2.666192 1.007194
0 -5.207135 2.676104 6.615694 -1.308469e-05 99.78093 2.860116 -0.310560
0 3.258275 2.676105 -6.615682 -1.308469e-05 99.78093 2.860116 1.007194
1.024099 -5.207135 2.472404 44.29648 -1.175669e-05 89.65391 3.054039 -0.310560
1.024099 3.258275 2.472405 32.07178 -1.24207e-05 94.71748 3.054039 1.007194
1.892299 -5.207135 1.892294 75.23405 -8.638784e-06 65.87744 3.247962 -0.310560
1.892299 3.258275 1.892295 65.87762 -9.865735e-06 75.2339 3.247962 1.007194
2.472399 -5.207135 1.024104 94.71734 -4.205759e-06 32.07218 3.441886 -0.310560
2.472399 3.258275 1.024105 89.65386 -5.808791e-06 44.29655 3.441886 1.007194
2.676109 -5.207135 -6.047252e-06 99.78088 8.676096e-07 -6.616198 3.635810 -0.310560
2.676109 3.258275 -4.937147e-06 99.78091 -8.675595e-07 6.615816 3.635810 1.007194
2.152019 2.885365 -0.8913947 0.0004018959 100 -0.000153356 0.644356 0.903544
1.647089 2.885365 -1.647085 0.0003075967 100 -0.0002944833 0.610485 0.954235
0 2.885375 5.146742e-06 1.534772e-10 100 1.311354e-05 0.500000 0.837500
0.8913994 2.885365 -2.152015 0.0001664715 100 -0.0003887817 0.559794 0.988106
0 2.885365 -2.329335 1.952571e-09 100 -0.0004218935 0.500000 1.000000
-0.8913902 2.885365 -2.152025 -0.0001664713 100 -0.0003887807 0.440206 0.988106
-1.64708 2.885365 -1.647085 -0.0003075976 100 -0.0002944842 0.389515 0.954235
-2.15202 2.885365 -0.8913947 -0.0004018949 100 -0.0001533583 0.355644 0.903544
-2.32933 2.885365 -4.986049e-06 -0.0004350086 100 1.311251e-05 0.343750 0.843750
-2.15202 2.885365 0.8914052 -0.0004018955 100 0.0001795835 0.355644 0.783956
-1.64709 2.885365 1.647085 -0.0003075979 100 0.0003207107 0.389515 0.733265
-0.8913997 2.885365 2.152025 -0.0001664711 100 0.0004150087 0.440206 0.699394
0 2.885365 2.329335 1.136868e-11 100 0.0004481222 0.500000 0.687500
0.8913994 2.885365 2.152025 0.0001664712 100 0.0004150087 0.559794 0.699394
1.647089 2.885365 1.647085 0.000307598 100 0.0003207107 0.610485 0.733265
2.152019 2.885365 0.8914052 0.0004018954 100 0.000179584 0.644356 0.783956
2.329329 2.885365 5.14674e-06 0.0004350087 100 1.311342e-05 0.656250 0.843750
2.472399 3.258275 -1.024095 0 -100 -1.311342e-05 0.886067 1.745540
1.892299 3.258275 -1.892285 0 -100 -1.311342e-05 0.795482 1.609972
2.255169 3.258275 -2.255165 0 -100 -1.311342e-05 0.852144 1.553309
2.946519 3.258275 -1.220485 0 -100 -1.311342e-05 0.960099 1.714875
1.024099 3.258275 -2.472395 0 -100 -1.311342e-05 0.659914 1.519388
1.22049 3.258275 -2.946515 0 -100 -1.311342e-05 0.690580 1.445354
0 3.258275 -2.676105 0 -100 -1.311342e-05 0.500000 1.487579
0 3.258275 -3.189285 0 -100 -1.311342e-05 0.500000 1.407446
-1.0241 3.258275 -2.472395 0 -100 -1.311342e-05 0.340086 1.519388
-1.22048 3.258275 -2.946515 0 -100 -1.311342e-05 0.309421 1.445354
-1.89229 3.258275 -1.892295 0 -100 -1.311342e-05 0.204517 1.609971
-2.25516 3.258275 -2.255165 0 -100 -1.311342e-05 0.147855 1.553309
-2.4724 3.258275 -1.024095 0 -100 -1.311342e-05 0.113934 1.745540
-2.946509 3.258275 -1.220485 0 -100 -1.311342e-05 0.039901 1.714875
-2.676109 3.258275 -4.937147e-06 0 -100 -1.311342e-05 0.082124 1.905453
-3.189279 3.258275 -4.937147e-06 0 -100 -1.311342e-05 0.001992 1.905453
-2.4724 3.258275 1.024105 0 -100 -1.311342e-05 0.113934 2.065368
-2.946509 3.258275 1.220485 0 -100 -1.311342e-05 0.039901 2.096033
-1.89229 3.258275 1.892295 0 -100 -1.311342e-05 0.204517 2.200936
-2.25516 3.258275 2.255165 0 -100 -1.311342e-05 0.147855 2.257599
-1.0241 3.258275 2.472405 0 -100 -1.311342e-05 0.340086 2.291520
-1.22048 3.258275 2.946515 0 -100 -1.311342e-05 0.309421 2.365553
0 3.258275 2.676105 0 -100 -1.311342e-05 0.500000 2.323329
0 3.258275 3.189285 0 -100 -1.311342e-05 0.500000 2.403462
1.024099 3.258275 2.472405 0 -100 -1.311342e-05 0.659914 2.291521
1.22049 3.258275 2.946515 0 -100 -1.311342e-05 0.690580 2.365553
1.892299 3.258275 1.892295 0 -100 -1.311342e-05 0.795482 2.200936
2.255159 3.258275 2.255165 0 -100 -1.311342e-05 0.852144 2.257599
2.472399 3.258275 1.024105 0 -100 -1.311342e-05 0.886067 2.065368
2.946519 3.258275 1.220485 0 -100 -1.311342e-05 0.960099 2.096033
2.676109 3.258275 -4.937147e-06 0 -100 -1.311342e-05 0.917875 1.905453
3.189279 3.258275 -4.937147e-06 0 -100 -1.311342e-05 0.998007 1.905453
2.946519 3.258275 -1.220485 89.65388 3.054974e-05 -44.29652 3.829733 1.007194
2.255169 3.258275 -2.255165 65.87759 9.865737e-06 -75.23392 4.023657 1.007194
2.255169 4.613005 -2.255165 67.84394 9.633854e-06 -73.46563 4.023657 1.218076
2.946519 4.613005 -1.220485 95.72189 -1.390753e-06 -28.93647 3.829733 1.218076
1.22049 3.258275 -2.946515 32.07217 1.242068e-05 -94.71735 4.217580 1.007194
1.22049 4.613005 -2.946514 47.22385 1.155909e-05 -88.14709 4.217580 1.218076
0 3.258275 -3.189285 19.50899 1.286145e-05 -98.07854 4.411504 1.007194
0 4.613005 -3.189285 19.50899 1.286145e-05 -98.07854 4.411504 1.218076
0 3.258275 -3.189285 -19.50914 1.286144e-05 -98.07851 1.308727 1.007194
-1.22048 3.258275 -2.946515 -44.29677 1.175667e-05 -89.65376 1.502651 1.007194
-1.22048 4.613005 -2.946514 -28.93708 1.255239e-05 -95.72171 1.502651 1.218076
0 4.613005 -3.189285 -19.50914 1.286144e-05 -98.07851 1.308727 1.218076
-2.25516 3.258275 -2.255165 -75.2339 8.638805e-06 -65.87761 1.696574 1.007194
-2.25516 4.613005 -2.255165 -73.46561 8.896661e-06 -67.84396 1.696574 1.218076
-2.946509 3.258275 -1.220485 -94.71731 4.205769e-06 -32.07226 1.890498 1.007194
-2.946509 4.613005 -1.220485 -88.14705 6.192667e-06 -47.2239 1.890498 1.218076
-3.189279 3.258275 -4.937147e-06 -99.78091 -8.675585e-07 6.615808 2.084421 1.007194
-3.189279 4.613005 -4.759496e-06 -99.92095 -6.831628e-05 3.975057 2.084421 1.218076
-2.946509 3.258275 1.220485 -89.65377 -5.808814e-06 44.29673 2.278345 1.007194
-2.946509 4.613005 1.220486 -95.72173 -4.599184e-05 28.93698 2.278345 1.218076
-2.25516 3.258275 2.255165 -65.87759 -9.865737e-06 75.23392 2.472269 1.007194
-2.25516 4.613005 2.255165 -67.84394 -9.633854e-06 73.46563 2.472269 1.218076
-1.22048 3.258275 2.946515 -32.07225 -1.242068e-05 94.71732 2.666192 1.007194
-1.22048 4.613005 2.946516 -47.22388 -1.155909e-05 88.14707 2.666192 1.218076
0 3.258275 3.189285 6.615815 -1.308469e-05 99.78092 2.860116 1.007194
0 4.613005 3.189286 3.975031 -1.310305e-05 99.92097 2.860116 1.218076
1.22049 3.258275 2.946515 44.29699 -1.175666e-05 89.65366 3.054039 1.007194
1.22049 4.613005 2.946516 28.93707 -1.255239e-05 95.72172 3.054039 1.218076
2.255159 3.258275 2.255165 75.2337 -8.638835e-06 65.87784 3.247963 1.007194
2.255159 4.613005 2.255165 73.46545 -8.896683e-06 67.84413 3.247963 1.218076
2.946519 3.258275 1.220485 94.71742 -5.385195e-05 32.07193 3.441887 1.007194
2.946519 4.613005 1.220486 88.14691 -2.475932e-05 47.22416 3.441887 1.218076
3.189279 3.258275 -4.937147e-06 99.78092 2.552629e-05 -6.61563 3.635810 1.007194
3.189279 4.613005 5.373294e-06 99.92096 -8.223516e-05 -3.97495 3.635810 1.218076
2.946519 4.613005 -1.220485 0 100 1.311342e-05 0.215588 0.056096
2.255169 4.613005 -2.255165 0 100 1.311342e-05 0.101925 0.226204
1.647089 4.613005 -1.647085 0 100 1.311342e-05 0.001954 0.126233
2.152019 4.613005 -0.8913946 0 100 1.311342e-05 0.084969 0.001992
2.255169 5.207135 -2.255164 0 100 1.311342e-05 0.322021 0.001992
1.22049 5.207135 -2.946514 0 100 1.311342e-05 0.435685 0.172098
0.8913994 5.207135 -2.152024 0 100 1.311342e-05 0.305064 0.226204
1.647089 5.207135 -1.647084 0 100 1.311342e-05 0.222050 0.101963
1.22049 4.613005 -2.946514 0 100 1.311342e-05 0.132575 0.458248
0 4.613005 -3.189285 0 100 1.311342e-05 0.172487 0.658905
0 4.613005 -2.329335 0 100 1.311342e-05 0.031106 0.658905
0.8913994 4.613005 -2.152025 0 100 1.311342e-05 0.001954 0.512354
0 5.207135 -3.189285 0 100 1.311342e-05 0.350514 0.458248
-1.22048 5.207135 -2.946514 0 100 1.311342e-05 0.310602 0.658903
-0.8913902 5.207135 -2.152024 0 100 1.311342e-05 0.179982 0.604799
0 5.207135 -2.329334 0 100 1.311342e-05 0.209134 0.458248
-1.22048 4.613005 -2.946514 0 100 1.311342e-05 0.655590 0.056096
-2.25516 4.613005 -2.255165 0 100 1.311342e-05 0.541926 0.226204
-1.64708 4.613005 -1.647085 0 100 1.311342e-05 0.441955 0.126233
-0.8913902 4.613005 -2.152025 0 100 1.311342e-05 0.524969 0.001992
-2.25516 5.207135 -2.255164 0 100 1.311342e-05 0.775522 0.226204
-2.946509 5.207135 -1.220485 0 100 1.311342e-05 0.661859 0.056096
-2.15202 5.207135 -0.8913946 0 100 1.311342e-05 0.792479 0.001992
-1.64708 5.207135 -1.647084 0 100 1.311342e-05 0.875494 0.126233
-2.946509 4.613005 -1.220485 0 100 1.311342e-05 0.397730 0.658903
-3.189279 4.613005 -4.759496e-06 0 100 1.311342e-05 0.357817 0.458248
-2.32933 4.613005 5.373294e-06 0 100 1.311342e-05 0.499199 0.458248
-2.15202 4.613005 -0.8913946 0 100 1.311342e-05 0.528350 0.604799
-3.189279 5.207135 5.451206e-06 0 100 1.311342e-05 0.535653 0.658903
-2.946509 5.207135 1.220486 0 100 1.311342e-05 0.575566 0.458248
-2.15202 5.207135 0.8914054 0 100 1.311342e-05 0.706186 0.512352
-2.32933 5.207135 5.451206e-06 0 100 1.311342e-05 0.677035 0.658903
-2.946509 4.613005 1.220486 0 100 1.311342e-05 0.765560 0.400228
-2.25516 4.613005 2.255165 0 100 1.311342e-05 0.879222 0.230120
-1.64709 4.613005 1.647085 0 100 1.311342e-05 0.979194 0.330091
-2.15202 4.613005 0.8913953 0 100 1.311342e-05 0.896179 0.454332
-2.25516 5.207135 2.255166 0 100 1.311342e-05 0.659569 0.454332
-1.22048 5.207135 2.946516 0 100 1.311342e-05 0.545907 0.284224
-0.8913997 5.207135 2.152025 0 100 1.311342e-05 0.676525 0.230120
-1.64709 5.207135 1.647086 0 100 1.311342e-05 0.759540 0.354361
-1.22048 4.613005 2.946516 0 100 1.311342e-05 0.753403 0.658903
0 4.613005 3.189286 0 100 1.311342e-05 0.713489 0.458248
0 4.613005 2.329335 0 100 1.311342e-05 0.854872 0.458248
-0.8913997 4.613005 2.152025 0 100 1.311342e-05 0.884021 0.604799
0 5.207135 3.189286 0 100 1.311342e-05 0.808663 0.863476
1.22049 5.207135 2.946516 0 100 1.311342e-05 0.848574 0.662819
0.8913994 5.207135 2.152025 0 100 1.311342e-05 0.979195 0.716925
0 5.207135 2.329335 0 100 1.311342e-05 0.950045 0.863476
1.22049 4.613005 2.946516 0 100 1.311342e-05 0.326252 0.400226
2.255159 4.613005 2.255165 0 100 1.311342e-05 0.439916 0.230120
1.647089 4.613005 1.647085 0 100 1.311342e-05 0.539887 0.330093
0.8913994 4.613005 2.152025 0 100 1.311342e-05 0.456873 0.454332
2.255159 5.207135 2.255166 0 100 1.311342e-05 0.206571 0.230120
2.946519 5.207135 1.220486 0 100 1.311342e-05 0.320234 0.400228
2.152019 5.207135 0.8913953 0 100 1.311342e-05 0.189614 0.454332
1.647089 5.207135 1.647086 0 100 1.311342e-05 0.106599 0.330091
2.946519 4.613005 1.220486 0 100 1.311342e-05 0.762730 0.662819
3.189279 4.613005 5.373294e-06 0 100 1.311342e-05 0.802643 0.863474
2.329329 4.613005 5.373294e-06 0 100 1.311342e-05 0.661262 0.863474
2.152019 4.613005 0.8913953 0 100 1.311342e-05 0.632111 0.716923
3.189279 5.207135 -4.681584e-06 0 100 1.311342e-05 0.626092 0.662819
2.946519 5.207135 -1.220485 0 100 1.311342e-05 0.586179 0.863474
2.152019 5.207135 -0.8913946 0 100 1.311342e-05 0.455559 0.809370
2.329329 5.207135 -4.681584e-06 0 100 1.311342e-05 0.484711 0.662819
2.152019 4.613005 -0.8913946 -93.8362 6.355584e-05 34.5654 3.829733 1.218076
1.647089 4.613005 -1.647085 -63.36557 0.0001098351 77.36152 4.023657 1.218076
1.647089 2.885365 -1.647085 -75.2341 7.156629e-05 65.87738 4.023657 0.949146
2.152019 2.885365 -0.8913947 -94.71738 -4.205739e-06 32.07203 3.829734 0.949146
0.8913994 4.613005 -2.152025 -41.9109 0.0001500462 90.7936 4.217580 1.218076
0.8913994 2.885365 -2.152015 -44.29687 0.0002433219 89.65372 4.217580 0.949146
0 4.613005 -2.329335 -19.50952 0.000266299 98.07844 4.411504 1.218076
0 2.885365 -2.329335 -19.50952 0.000266299 98.07844 4.411504 0.949146
0 4.613005 -2.329335 19.50919 -1.286144e-05 98.07851 1.308727 1.218076
-0.8913902 4.613005 -2.152025 34.56581 -1.230511e-05 93.83606 1.502651 1.218076
-0.8913902 2.885365 -2.152025 32.07243 -1.242067e-05 94.71726 1.502651 0.949146
0 2.885365 -2.329335 19.50919 -1.286144e-05 98.07851 1.308727 0.949146
-1.64708 4.613005 -1.647085 77.36148 -8.309396e-06 63.36561 1.696575 1.218076
-1.64708 2.885365 -1.647085 65.87771 -9.865725e-06 75.23383 1.696575 0.949146
-2.15202 4.613005 -0.8913946 90.7936 -2.891141e-05 41.91085 1.890498 1.218076
-2.15202 2.885365 -0.8913947 89.65362 -2.529439e-05 44.29704 1.890497 0.949146
-2.32933 4.613005 5.373294e-06 99.50906 2.879392e-05 -9.896772 2.084421 1.218076
-2.32933 2.885365 -4.986049e-06 99.78089 -3.99232e-05 6.615945 2.084421 0.949146
-2.15202 4.613005 0.8913953 93.83615 5.882649e-06 -34.56551 2.278345 1.218076
-2.15202 2.885365 0.8914052 94.71735 -5.121401e-05 -32.07212 2.278345 0.949146
-1.64709 4.613005 1.647085 63.36566 -3.118037e-05 -77.36144 2.472269 1.218076
-1.64709 2.885365 1.647085 75.23407 -0.0001018625 -65.87743 2.472268 0.949146
-0.8913997 4.613005 2.152025 41.91077 1.190615e-05 -90.79366 2.666192 1.218076
-0.8913997 2.885365 2.152025 44.29696 1.175666e-05 -89.65367 2.666192 0.949146
0 4.613005 2.329335 -9.896774 1.304904e-05 -99.50907 2.860116 1.218076
0 2.885365 2.329335 6.615869 1.308469e-05 -99.78092 2.860116 0.949146
0.8913994 4.613005 2.152025 -34.56568 1.230512e-05 -93.83611 3.054039 1.218076
0.8913994 2.885365 2.152025 -32.0723 1.242068e-05 -94.71732 3.054039 0.949146
1.647089 4.613005 1.647085 -77.36183 -7.405967e-05 -63.36518 3.247963 1.218076
1.647089 2.885365 1.647085 -65.87784 -4.519698e-05 -75.2337 3.247963 0.949146
2.152019 4.613005 0.8913953 -90.79382 -5.090243e-05 -41.91039 3.441886 1.218076
2.152019 2.885365 0.8914052 -89.65381 -0.0001237179 -44.29667 3.441886 0.949146
2.329329 4.613005 5.373294e-06 -99.50906 2.657074e-05 9.896773 3.635810 1.218076
2.329329 2.885365 5.14674e-06 -99.78089 -3.793522e-05 -6.615945 3.635810 0.949146
1.22049 5.207135 -2.946514 55.55695 1.090341e-05 -83.14701 4.217580 1.310560
2.255169 5.207135 -2.255164 55.55695 1.090341e-05 -83.14701 4.023657 1.310560
1.22049 4.613005 -2.946514 -92.38789 5.018307e-06 -38.26849 0.067801 0.793440
0.8913994 4.613005 -2.152025 -92.38789 5.018307e-06 -38.26849 0.067801 0.662821
0.8913994 5.207135 -2.152024 -92.38789 5.018307e-06 -38.26849 0.139334 0.662821
1.22049 5.207135 -2.946514 -92.38789 5.018307e-06 -38.26849 0.139334 0.793440
1.647089 5.207135 -1.647084 -55.55732 -1.090338e-05 83.14677 4.023657 1.310560
0.8913994 5.207135 -2.152024 -55.55732 -1.090338e-05 83.14677 4.217580 1.310560
1.647089 4.613005 -1.647085 70.71067 -9.272586e-06 70.71069 0.550951 0.967361
2.255169 4.613005 -2.255165 70.71067 -9.272586e-06 70.71069 0.550951 0.867390
2.255169 5.207135 -2.255164 70.71067 -9.272586e-06 70.71069 0.622483 0.867390
1.647089 5.207135 -1.647084 70.71067 -9.272586e-06 70.71069 0.622483 0.967361
-1.22048 5.207135 -2.946514 -19.50914 1.286144e-05 -98.07851 1.502651 1.310560
0 5.207135 -3.189285 -19.50914 1.286144e-05 -98.07851 1.308727 1.310560
-1.22048 4.613005 -2.946514 -92.3879 -5.018303e-06 38.26846 0.001954 0.927975
-0.8913902 4.613005 -2.152025 -92.3879 -5.018303e-06 38.26846 0.001954 0.797356
-0.8913902 5.207135 -2.152024 -92.3879 -5.018303e-06 38.26846 0.073487 0.797356
-1.22048 5.207135 -2.946514 -92.3879 -5.018303e-06 38.26846 0.073487 0.927975
0 5.207135 -2.329334 19.50919 -1.286144e-05 98.07851 1.308727 1.310560
-0.8913902 5.207135 -2.152024 19.50919 -1.286144e-05 98.07851 1.502651 1.310560
0 4.613005 -2.329335 99.99999 0 0 0.378009 0.804199
0 4.613005 -3.189285 99.99999 0 0 0.378009 0.662819
0 5.207135 -3.189285 99.99999 0 0 0.449542 0.662819
0 5.207135 -2.329334 99.99999 0 0 0.449542 0.804199
-2.946509 5.207135 -1.220485 -83.14699 7.285418e-06 -55.55698 1.890498 1.310560
-2.25516 5.207135 -2.255164 -83.14699 7.285418e-06 -55.55698 1.696574 1.310560
-2.946509 4.613005 -1.220485 -38.26849 -1.211521e-05 92.3879 0.080547 0.938737
-2.15202 4.613005 -0.8913946 -38.26849 -1.211521e-05 92.3879 0.080547 0.808118
-2.15202 5.207135 -0.8913946 -38.26849 -1.211521e-05 92.3879 0.152079 0.808118
-2.946509 5.207135 -1.220485 -38.26849 -1.211521e-05 92.3879 0.152079 0.938737
-1.64708 5.207135 -1.647084 83.14674 -7.285467e-06 55.55735 1.696575 1.310560
-2.15202 5.207135 -0.8913946 83.14674 -7.285467e-06 55.55735 1.890498 1.310560
-1.64708 4.613005 -1.647085 70.71067 9.272586e-06 -70.71069 0.629352 0.967361
-2.25516 4.613005 -2.255165 70.71067 9.272586e-06 -70.71069 0.629352 0.867390
-2.25516 5.207135 -2.255164 70.71067 9.272586e-06 -70.71069 0.700884 0.867390
-1.64708 5.207135 -1.647084 70.71067 9.272586e-06 -70.71069 0.700884 0.967361
-2.946509 5.207135 1.220486 -98.07852 -0.0001689207 19.50904 2.278345 1.310560
-3.189279 5.207135 5.451206e-06 -98.07852 -0.0001689207 19.50904 2.084421 1.310560
-2.946509 4.613005 1.220486 38.26802 -0.0008004875 92.38809 0.158948 0.938737
-2.15202 4.613005 0.8913953 38.26802 -0.0008004875 92.38809 0.158948 0.808118
-2.15202 5.207135 0.8914054 38.26802 -0.0008004875 92.38809 0.230480 0.808118
-2.946509 5.207135 1.220486 38.26802 -0.0008004875 92.38809 0.230480 0.938737
-2.32933 5.207135 5.451206e-06 98.07851 0.0001689196 -19.5091 2.084422 1.310560
-2.15202 5.207135 0.8914054 98.07851 0.0001689196 -19.5091 2.278345 1.310560
-2.32933 4.613005 5.373294e-06 0.0005891501 0.000865855 -100 0.371989 0.662821
-3.189279 4.613005 -4.759496e-06 0.0005891501 0.000865855 -100 0.371989 0.804199
-3.189279 5.207135 5.451206e-06 0.0005891501 0.000865855 -100 0.300457 0.804199
-2.32933 5.207135 5.451206e-06 0.0005891501 0.000865855 -100 0.300457 0.662821
-1.22048 5.207135 2.946516 -55.55696 -1.090341e-05 83.14701 2.666192 1.310560
-2.25516 5.207135 2.255166 -55.55696 -1.090341e-05 83.14701 2.472269 1.310560
-1.22048 4.613005 2.946516 92.3883 -5.018177e-06 38.2675 0.237349 0.938735
-0.8913997 4.613005 2.152025 92.3883 -5.018177e-06 38.2675 0.237349 0.808117
-0.8913997 5.207135 2.152025 92.3883 -5.018177e-06 38.2675 0.308881 0.808117
-1.22048 5.207135 2.946516 92.3883 -5.018177e-06 38.2675 0.308881 0.938735
-1.64709 5.207135 1.647086 55.55727 1.090339e-05 -83.14679 2.472268 1.310560
-0.8913997 5.207135 2.152025 55.55727 1.090339e-05 -83.14679 2.666192 1.310560
-1.64709 4.613005 1.647085 -70.71126 9.272509e-06 -70.7101 0.707753 0.967362
-2.25516 4.613005 2.255165 -70.71126 9.272509e-06 -70.7101 0.707753 0.867390
-2.25516 5.207135 2.255166 -70.71126 9.272509e-06 -70.7101 0.779285 0.867391
-1.64709 5.207135 1.647086 -70.71126 9.272509e-06 -70.7101 0.779285 0.967362
1.22049 5.207135 2.946516 19.50897 -1.286145e-05 98.07855 3.054039 1.310560
0 5.207135 3.189286 19.50897 -1.286145e-05 98.07855 2.860116 1.310560
1.22049 4.613005 2.946516 92.38789 5.018304e-06 -38.26848 0.315748 0.938737
0.8913994 4.613005 2.152025 92.38789 5.018304e-06 -38.26848 0.315748 0.808117
0.8913994 5.207135 2.152025 92.38789 5.018304e-06 -38.26848 0.387281 0.808117
1.22049 5.207135 2.946516 92.38789 5.018304e-06 -38.26848 0.387281 0.938737
0 5.207135 2.329335 -19.509 1.286145e-05 -98.07854 2.860116 1.310560
0.8913994 5.207135 2.152025 -19.509 1.286145e-05 -98.07854 3.054039 1.310560
0 4.613005 2.329335 -99.99999 0 0 0.222904 0.804201
0 4.613005 3.189286 -99.99999 0 0 0.222904 0.662819
0 5.207135 3.189286 -99.99999 0 0 0.294436 0.662819
0 5.207135 2.329335 -99.99999 0 0 0.294436 0.804201
2.946519 5.207135 1.220486 83.14662 -7.28549e-06 55.55753 3.441887 1.310560
2.255159 5.207135 2.255166 83.14662 -7.28549e-06 55.55753 3.247963 1.310560
2.946519 4.613005 1.220486 38.26811 1.211523e-05 -92.38806 0.465681 0.867394
2.152019 4.613005 0.8913953 38.26811 1.211523e-05 -92.38806 0.465681 0.998010
2.152019 5.207135 0.8913953 38.26811 1.211523e-05 -92.38806 0.394149 0.998010
2.946519 5.207135 1.220486 38.26811 1.211523e-05 -92.38806 0.394149 0.867394
1.647089 5.207135 1.647086 -83.14726 7.285364e-06 -55.55656 3.247963 1.310560
2.152019 5.207135 0.8913953 -83.14726 7.285364e-06 -55.55656 3.441886 1.310560
1.647089 4.613005 1.647085 -70.71126 -9.272509e-06 70.7101 0.786153 0.967363
2.255159 4.613005 2.255165 -70.71126 -9.272509e-06 70.7101 0.786153 0.867392
2.255159 5.207135 2.255166 -70.71126 -9.272509e-06 70.7101 0.857685 0.867392
1.647089 5.207135 1.647086 -70.71126 -9.272509e-06 70.7101 0.857685 0.967363
2.946519 5.207135 -1.220485 98.07867 -0.0001637978 -19.5083 3.829733 1.310560
3.189279 5.207135 -4.681584e-06 98.07867 -0.0001637978 -19.5083 3.635810 1.310560
2.946519 4.613005 -1.220485 -38.26808 1.211523e-05 -92.38807 0.544082 0.867394
2.152019 4.613005 -0.8913946 -38.26808 1.211523e-05 -92.38807 0.544082 0.998010
2.152019 5.207135 -0.8913946 -38.26808 1.211523e-05 -92.38807 0.472550 0.998010
2.946519 5.207135 -1.220485 -38.26808 1.211523e-05 -92.38807 0.472550 0.867394
2.329329 5.207135 -4.681584e-06 -98.07851 0.0001645245 19.5091 3.635810 1.310560
2.152019 5.207135 -0.8913946 -98.07851 0.0001645245 19.5091 3.829734 1.310560
2.329329 4.613005 5.373294e-06 0 0.001692369 100 0.145353 0.804202
3.189279 4.613005 5.373294e-06 0 0.001692369 100 0.145353 0.662821
3.189279 5.207135 -4.681584e-06 0 0.001692369 100 0.216885 0.662821
2.329329 5.207135 -4.681584e-06 0 0.001692369 100 0.216885 0.804202
3 0 1 2 
3 0 2 3 
3 1 4 5 
3 1 5 2 
3 4 6 7 
3 4 7 5 
3 8 9 10 
3 8 10 11 
3 9 12 13 
3 9 13 10 
3 12 14 15 
3 12 15 13 
3 14 16 17 
3 14 17 15 
3 16 18 19 
3 16 19 17 
3 18 20 21 
3 18 21 19 
3 20 22 23 
3 20 23 21 
3 22 24 25 
3 22 25 23 
3 24 26 27 
3 24 27 25 
3 26 28 29 
3 26 29 27 
3 28 30 31 
3 28 31 29 
3 30 32 33 
3 30 33 31 
3 32 0 3 
3 32 3 33 
3 34 35 36 
3 35 37 36 
3 37 38 36 
3 38 39 36 
3 39 40 36 
3 40 41 36 
3 41 42 36 
3 42 43 36 
3 43 44 36 
3 44 45 36 
3 45 46 36 
3 46 47 36 
3 47 48 36 
3 48 49 36 
3 49 50 36 
3 50 34 36 
3 51 52 53 
3 51 53 54 
3 52 55 56 
3 52 56 53 
3 55 57 58 
3 55 58 56 
3 57 59 60 
3 57 60 58 
3 59 61 62 
3 59 62 60 
3 61 63 64 
3 61 64 62 
3 63 65 66 
3 63 66 64 
3 65 67 68 
3 65 68 66 
3 67 69 70 
3 67 70 68 
3 69 71 72 
3 69 72 70 
3 71 73 74 
3 71 74 72 
3 73 75 76 
3 73 76 74 
3 75 77 78 
3 75 78 76 
3 77 79 80 
3 77 80 78 
3 79 81 82 
3 79 82 80 
3 81 51 54 
3 81 54 82 
3 83 84 85 
3 83 85 86 
3 84 87 88 
3 84 88 85 
3 87 89 90 
3 87 90 88 
3 91 92 93 
3 91 93 94 
3 92 95 96 
3 92 96 93 
3 95 97 98 
3 95 98 96 
3 97 99 100 
3 97 100 98 
3 99 101 102 
3 99 102 100 
3 101 103 104 
3 101 104 102 
3 103 105 106 
3 103 106 104 
3 105 107 108 
3 105 108 106 
3 107 109 110 
3 107 110 108 
3 109 111 112 
3 109 112 110 
3 111 113 114 
3 111 114 112 
3 113 115 116 
3 113 116 114 
3 115 83 86 
3 115 86 116 
3 117 118 119 
3 117 119 120 
3 121 122 123 
3 121 123 124 
3 125 126 127 
3 125 127 128 
3 129 130 131 
3 129 131 132 
3 133 134 135 
3 133 135 136 
3 137 138 139 
3 137 139 140 
3 141 142 143 
3 141 143 144 
3 145 146 147 
3 145 147 148 
3 149 150 151 
3 149 151 152 
3 153 154 155 
3 153 155 156 
3 157 158 159 
3 157 159 160 
3 161 162 163 
3 161 163 164 
3 165 166 167 
3 165 167 168 
3 169 170 171 
3 169 171 172 
3 173 174 175 
3 173 175 176 
3 177 178 179 
3 177 179 180 
3 181 182 183 
3 181 183 184 
3 182 185 186 
3 182 186 183 
3 185 187 188 
3 185 188 186 
3 189 190 191 
3 189 191 192 
3 190 193 194 
3 190 194 191 
3 193 195 196 
3 193 196 194 
3 195 197 198 
3 195 198 196 
3 197 199 200 
3 197 200 198 
3 199 201 202 
3 199 202 200 
3 201 203 204 
3 201 204 202 
3 203 205 206 
3 203 206 204 
3 205 207 208 
3 205 208 206 
3 207 209 210 
3 207 210 208 
3 209 211 212 
3 209 212 210 
3 211 213 214 
3 211 214 212 
3 213 181 184 
3 213 184 214 
3 85 88 215 
3 85 215 216 
3 217 218 219 
3 217 219 220 
3 185 182 221 
3 185 221 222 
3 223 224 225 
3 223 225 226 
3 94 93 227 
3 94 227 228 
3 229 230 231 
3 229 231 232 
3 190 189 233 
3 190 233 234 
3 235 236 237 
3 235 237 238 
3 96 98 239 
3 96 239 240 
3 241 242 243 
3 241 243 244 
3 195 193 245 
3 195 245 246 
3 247 248 249 
3 247 249 250 
3 100 102 251 
3 100 251 252 
3 253 254 255 
3 253 255 256 
3 199 197 257 
3 199 257 258 
3 259 260 261 
3 259 261 262 
3 104 106 263 
3 104 263 264 
3 265 266 267 
3 265 267 268 
3 203 201 269 
3 203 269 270 
3 271 272 273 
3 271 273 274 
3 108 110 275 
3 108 275 276 
3 277 278 279 
3 277 279 280 
3 207 205 281 
3 207 281 282 
3 283 284 285 
3 283 285 286 
3 112 114 287 
3 112 287 288 
3 289 290 291 
3 289 291 292 
3 211 209 293 
3 211 293 294 
3 295 296 297 
3 295 297 298 
3 116 86 299 
3 116 299 300 
3 301 302 303 
3 301 303 304 
3 181 213 305 
3 181 305 306 
3 307 308 309 
3 307 309 310 
