ply
format ascii 1.0
comment Created by Blender 2.79 (sub 0) - www.blender.org, source file: 'Doors1Upload.blend'
element vertex 88
property float x
property float y
property float z
property float nx
property float ny
property float nz
property float s
property float t
element face 41
property list uchar uint vertex_indices
end_header
4.016009 5.121758 -0.009514 0.000000 0.000000 1.000000 0.508092 0.928066
3.894364 4.981372 -0.009514 0.000000 0.000000 1.000000 0.565311 0.862032
3.817198 4.812401 -0.009514 0.000000 0.000000 1.000000 0.601609 0.782552
3.790762 4.628534 -0.009514 0.000000 0.000000 1.000000 0.614044 0.696064
3.790762 3.148908 -0.009514 0.000000 0.000000 1.000000 0.614046 0.000080
5.096021 3.148908 -0.009514 0.000000 0.000000 1.000000 0.000081 0.000078
5.096021 4.628534 -0.009514 0.000000 0.000000 1.000000 0.000078 0.696062
5.069585 4.812401 -0.009514 0.000000 0.000000 1.000000 0.012513 0.782549
4.992419 4.981372 -0.009514 0.000000 0.000000 1.000000 0.048810 0.862030
4.870773 5.121758 -0.009514 0.000000 0.000000 1.000000 0.106029 0.928065
4.714504 5.222187 -0.009514 0.000000 0.000000 1.000000 0.179535 0.975304
4.536271 5.274521 -0.009514 -0.000000 0.000000 1.000000 0.263372 0.999922
4.443391 5.274521 -0.009514 -0.000000 0.000000 1.000000 0.307061 0.999922
4.350512 5.274521 -0.009514 0.000000 0.000000 1.000000 0.350749 0.999922
4.172278 5.222187 -0.009514 0.000000 0.000000 1.000000 0.434586 0.975305
3.817198 4.812401 0.144635 0.000000 0.000000 -1.000000 0.601609 0.782552
3.894364 4.981372 0.144635 0.000000 0.000000 -1.000000 0.565311 0.862032
4.016009 5.121758 0.144635 0.000000 0.000000 -1.000000 0.508092 0.928066
4.172278 5.222187 0.144635 0.000000 0.000000 -1.000000 0.434586 0.975305
4.350512 5.274521 0.144635 0.000000 0.000000 -1.000000 0.350749 0.999922
4.443391 5.274521 0.144635 0.000000 0.000000 -1.000000 0.307061 0.999922
4.536271 5.274521 0.144635 0.000000 0.000000 -1.000000 0.263372 0.999922
4.714504 5.222187 0.144635 0.000000 0.000000 -1.000000 0.179535 0.975304
3.790762 4.628534 0.144635 0.000000 0.000000 -1.000000 0.614044 0.696064
5.096021 3.148908 0.144635 0.000000 0.000000 -1.000000 0.000081 0.000078
3.790762 3.148908 0.144635 0.000000 0.000000 -1.000000 0.614046 0.000080
5.069585 4.812401 0.144635 0.000000 0.000000 -1.000000 0.012513 0.782549
5.096021 4.628534 0.144635 0.000000 0.000000 -1.000000 0.000078 0.696062
4.870773 5.121758 0.144635 0.000000 0.000000 -1.000000 0.106029 0.928065
4.992419 4.981372 0.144635 0.000000 0.000000 -1.000000 0.048810 0.862030
4.016009 5.121758 -0.009514 0.540643 -0.841252 0.000000 0.840058 0.684139
4.172278 5.222187 -0.009514 0.540643 -0.841252 0.000000 0.786391 0.723137
4.172278 5.222187 0.144635 0.540643 -0.841252 0.000000 0.762872 0.679576
4.016009 5.121758 0.144635 0.540643 -0.841252 0.000000 0.804797 0.649318
4.536271 5.274521 -0.009514 -0.281732 -0.959493 0.000000 0.657932 0.746375
4.714504 5.222187 -0.009514 -0.281732 -0.959493 0.000000 0.594659 0.730617
4.714504 5.222187 0.144635 -0.281732 -0.959493 0.000000 0.612638 0.685218
4.536271 5.274521 0.144635 -0.281732 -0.959493 0.000000 0.661700 0.697929
4.172278 5.222187 -0.009514 0.281732 -0.959493 0.000000 0.786391 0.723137
4.350512 5.274521 -0.009514 0.281732 -0.959493 0.000000 0.723561 0.744324
4.350512 5.274521 0.144635 0.281732 -0.959493 0.000000 0.714463 0.696301
4.172278 5.222187 0.144635 0.281732 -0.959493 0.000000 0.762872 0.679576
5.096021 3.148908 -0.009514 0.000000 1.000000 0.000000 0.519829 0.142764
3.790762 3.148908 -0.009514 0.000000 1.000000 0.000000 0.806047 0.157877
3.790762 3.148908 0.144635 0.000000 1.000000 0.000000 0.779494 0.194880
5.096021 3.148908 0.144635 0.000000 1.000000 0.000000 0.551835 0.175822
4.992419 4.981372 -0.009514 -0.909633 -0.415413 0.000000 0.494706 0.648550
5.069585 4.812401 -0.009514 -0.909633 -0.415413 0.000000 0.464900 0.590112
5.069585 4.812401 0.144635 -0.909633 -0.415413 0.000000 0.509560 0.572797
4.992419 4.981372 0.144635 -0.909633 -0.415413 0.000000 0.535127 0.619812
3.817198 4.812401 -0.009514 0.909632 -0.415414 0.000000 0.902925 0.570073
3.894364 4.981372 -0.009514 0.909632 -0.415414 0.000000 0.879924 0.631398
3.894364 4.981372 0.144635 0.909632 -0.415414 0.000000 0.836431 0.608176
3.817198 4.812401 0.144635 0.909632 -0.415414 0.000000 0.855357 0.559711
4.870773 5.121758 -0.009514 -0.755750 -0.654860 0.000000 0.538738 0.696916
4.992419 4.981372 -0.009514 -0.755750 -0.654860 0.000000 0.494706 0.648550
4.992419 4.981372 0.144635 -0.755750 -0.654860 0.000000 0.535127 0.619812
4.870773 5.121758 0.144635 -0.755750 -0.654860 0.000000 0.569272 0.658518
3.894364 4.981372 -0.009514 0.755750 -0.654860 0.000000 0.879924 0.631398
4.016009 5.121758 -0.009514 0.755750 -0.654860 0.000000 0.840058 0.684139
4.016009 5.121758 0.144635 0.755750 -0.654860 0.000000 0.804797 0.649318
3.894364 4.981372 0.144635 0.755750 -0.654860 0.000000 0.836431 0.608176
4.443391 5.274521 -0.009514 0.000000 -1.000000 -0.000000 0.690370 0.747359
4.536271 5.274521 -0.009514 0.000000 -1.000000 -0.000000 0.657932 0.746375
4.536271 5.274521 0.144635 0.000000 -1.000000 -0.000000 0.661700 0.697929
4.443391 5.274521 0.144635 0.000000 -1.000000 -0.000000 0.688604 0.697512
4.350512 5.274521 -0.009514 0.000000 -1.000000 -0.000000 0.723561 0.744324
4.350512 5.274521 0.144635 0.000000 -1.000000 -0.000000 0.714463 0.696301
5.096021 4.628534 -0.009514 -1.000000 0.000000 -0.000000 0.452998 0.528445
5.096021 3.148908 -0.009514 -1.000000 0.000000 -0.000000 0.519829 0.142764
5.096021 3.148908 0.144635 -1.000000 0.000000 -0.000000 0.551835 0.175822
5.096021 4.628534 0.144635 -1.000000 0.000000 -0.000000 0.498019 0.523113
3.790762 3.148908 -0.009514 1.000000 0.000000 0.000000 0.806047 0.157877
3.790762 4.628534 -0.009514 1.000000 0.000000 0.000000 0.908407 0.505969
3.790762 4.628534 0.144635 1.000000 0.000000 0.000000 0.860584 0.507633
3.790762 3.148908 0.144635 1.000000 0.000000 0.000000 0.779494 0.194880
5.069585 4.812401 -0.009514 -0.989822 -0.142314 0.000000 0.464900 0.590112
5.096021 4.628534 -0.009514 -0.989822 -0.142314 0.000000 0.452998 0.528445
5.096021 4.628534 0.144635 -0.989822 -0.142314 0.000000 0.498019 0.523113
5.069585 4.812401 0.144635 -0.989822 -0.142314 0.000000 0.509560 0.572797
3.790762 4.628534 -0.009514 0.989822 -0.142314 0.000000 0.908407 0.505969
3.817198 4.812401 -0.009514 0.989822 -0.142314 0.000000 0.902925 0.570073
3.817198 4.812401 0.144635 0.989822 -0.142314 0.000000 0.855357 0.559711
3.790762 4.628534 0.144635 0.989822 -0.142314 0.000000 0.860584 0.507633
4.714504 5.222187 -0.009514 -0.540643 -0.841252 0.000000 0.594659 0.730617
4.870773 5.121758 -0.009514 -0.540643 -0.841252 0.000000 0.538738 0.696916
4.870773 5.121758 0.144635 -0.540643 -0.841252 0.000000 0.569272 0.658518
4.714504 5.222187 0.144635 -0.540643 -0.841252 0.000000 0.612638 0.685218
3 0 1 2
3 2 3 4
3 4 5 6
3 6 7 8
3 8 9 10
3 10 11 12
3 12 13 14
3 14 0 2
3 2 4 6
3 6 8 10
3 10 12 14
3 14 2 6
3 6 10 14
3 15 16 17
3 17 18 19
3 20 21 22
3 17 19 20
3 23 15 17
3 24 25 23
3 26 27 24
3 28 29 26
3 20 22 28
3 23 17 20
3 26 24 23
3 20 28 26
3 20 26 23
4 30 31 32 33
4 34 35 36 37
4 38 39 40 41
4 42 43 44 45
4 46 47 48 49
4 50 51 52 53
4 54 55 56 57
4 58 59 60 61
4 62 63 64 65
4 66 62 65 67
4 68 69 70 71
4 72 73 74 75
4 76 77 78 79
4 80 81 82 83
4 84 85 86 87
