ply
format ascii 1.0
comment VCGLIB generated
element vertex 48
property float x
property float y
property float z
property float nx
property float ny
property float nz
property float texture_u
property float texture_v
element face 28
property list uchar int vertex_indices
end_header
56.5624 -30.31482 3.322235 0 -100 0 0.370968 0.666667
17.01669 -30.31482 3.322245 0 -100 0 0.487493 0.666667
17.0167 -30.31482 -3.322235 0 -100 0 0.487493 1.000000
56.56242 -30.31482 -3.322235 0 -100 0 0.370968 1.000000
56.56238 30.31482 3.322245 0 100 0 1.000000 0.000000
56.5624 30.31482 -3.322245 0 100 0 1.000000 0.333333
-56.56238 30.31482 -3.322235 0 100 0 0.666667 0.333333
-56.56242 30.31482 3.322245 0 100 0 0.666667 0.000000
17.01669 -30.31482 3.322245 -4.645552e-06 3.03006e-06 100 0.666667 0.216808
56.5624 -30.31482 3.322235 2.486936e-05 -1.622104e-05 100 0.666667 0.333333
56.56238 30.31482 3.322245 -3.097034e-06 -1.785993e-05 100 0.333333 0.333333
-56.56242 30.31482 3.322245 8.185035e-06 6.701494e-06 100 0.333333 0.000000
-56.56239 -30.31482 3.322245 0 0 100 0.666667 0.000000
-13.02217 -30.31482 3.322245 0 0 100 0.666667 0.128296
-13.02217 13.82458 3.322245 1.637007e-05 4.322295e-05 100 0.423994 0.128296
17.0167 13.82458 3.322235 -4.734403e-07 1.636238e-05 100 0.423994 0.216808
-56.56239 -30.31482 3.322245 -100 -1.966189e-05 -0.0004664687 0.000000 0.000000
-56.56242 30.31482 3.322245 -100 -1.966189e-05 -0.0004664687 0.333333 0.000000
-56.56238 30.31482 -3.322235 -100 -1.966189e-05 -0.0004664687 0.333333 0.333333
-56.56239 -30.31482 -3.322235 -100 -1.966189e-05 -0.0004664687 0.000000 0.333333
-13.02218 -30.31482 -3.322235 0 0 -100 0.333333 0.538371
-56.56239 -30.31482 -3.322235 0 0 -100 0.333333 0.666667
-56.56238 30.31482 -3.322235 -2.985727e-06 -7.883398e-06 -100 0.000000 0.666667
56.5624 30.31482 -3.322245 -8.64504e-06 -2.545249e-05 -100 0.000000 0.333333
56.56242 -30.31482 -3.322235 0 -1.67126e-05 -100 0.333333 0.333333
17.0167 -30.31482 -3.322235 -1.281149e-05 -8.356301e-06 -100 0.333333 0.449859
17.0167 13.82458 -3.322235 -1.281149e-05 -3.072359e-05 -100 0.090661 0.449859
-13.02217 13.82458 -3.322235 -2.985727e-06 -2.83658e-05 -100 0.090661 0.538371
56.56238 30.31482 3.322245 100 4.325616e-05 0.0003947041 0.333333 0.666667
56.5624 -30.31482 3.322235 100 4.325616e-05 0.0003947041 0.333333 0.333333
56.56242 -30.31482 -3.322235 100 4.325616e-05 0.0003947041 0.666667 0.333333
56.5624 30.31482 -3.322245 100 4.325616e-05 0.0003947041 0.666667 0.666667
-13.02217 13.82458 -3.322235 100 -1.147817e-05 -7.624969e-05 0.000000 1.000000
-13.02217 13.82458 3.322245 100 -1.147817e-05 -7.624969e-05 0.000000 0.666667
-13.02217 -30.31482 3.322245 100 -1.147817e-05 -7.624969e-05 0.242672 0.666667
-13.02218 -30.31482 -3.322235 100 -1.147817e-05 -7.624969e-05 0.242672 1.000000
17.0167 13.82458 3.322235 -100 1.080297e-05 -7.176441e-05 0.909339 0.333333
17.0167 13.82458 -3.322235 -100 1.080297e-05 -7.176441e-05 0.909339 0.666667
17.0167 -30.31482 -3.322235 -100 1.080297e-05 -7.176441e-05 0.666667 0.666667
17.01669 -30.31482 3.322245 -100 1.080297e-05 -7.176441e-05 0.666667 0.333333
-13.02218 -30.31482 -3.322235 0 -100 0 0.242672 1.000000
-13.02217 -30.31482 3.322245 0 -100 0 0.242672 0.666667
-56.56239 -30.31482 3.322245 0 -100 0 0.370968 0.666667
-56.56239 -30.31482 -3.322235 0 -100 0 0.370968 1.000000
-13.02217 13.82458 3.322245 0 -100 0 0.997852 0.333333
-13.02217 13.82458 -3.322235 0 -100 0 0.997852 0.666667
17.0167 13.82458 -3.322235 0 -100 0 0.909339 0.666667
17.0167 13.82458 3.322235 0 -100 0 0.909339 0.333333
3 0 1 2 
3 0 2 3 
3 4 5 6 
3 4 6 7 
3 8 9 10 
3 11 12 13 
3 11 13 14 
3 15 8 10 
3 11 14 15 
3 10 11 15 
3 16 17 18 
3 16 18 19 
3 20 21 22 
3 23 24 25 
3 23 25 26 
3 27 20 22 
3 23 26 27 
3 22 23 27 
3 28 29 30 
3 28 30 31 
3 32 33 34 
3 32 34 35 
3 36 37 38 
3 36 38 39 
3 40 41 42 
3 40 42 43 
3 44 45 46 
3 44 46 47 
