ply
format ascii 1.0
comment VCGLIB generated
comment TextureFile Farmhouse
element vertex 552
property float x
property float y
property float z
property float nx
property float ny
property float nz
property float texture_u
property float texture_v
element face 334
property list uchar int vertex_indices
end_header
-2.023838 8.91544 -8.054992 9.54819e-07 -3.783191e-07 -1 0.335384 0.116530
1.97121 8.917807 -8.054984 9.54819e-07 -3.783191e-07 -1 0.280210 0.116678
1.971237 1.352654 -8.054985 9.54819e-07 -3.783191e-07 -1 0.280210 0.016955
-1.992085 1.352654 -8.054985 9.54819e-07 -3.783191e-07 -1 0.334945 0.016839
1.821583 8.753086 29.12818 -0.8175721 -0.2874325 0.4989575 0.114753 0.931018
7.079507 8.753086 29.12818 0.7318363 -0.4137183 0.5415282 0.114753 0.728464
1.821583 8.907376 29.17242 -0.408249 0.6723375 0.617491 0.120697 0.931018
7.079507 8.907376 29.17242 0.3333341 0.4570803 0.8246005 0.120697 0.728464
1.821583 9.398357 27.46017 -0.6792534 0.4625125 -0.569822 0.188456 0.931018
7.079507 9.398357 27.46017 0.4947844 0.6429045 -0.5846898 0.188456 0.728464
1.821583 9.244067 27.41593 -0.7071068 0.08833332 -0.7015677 0.315611 0.836027
7.079507 9.244067 27.41593 0.707369 0.06123663 -0.7041869 0.076840 0.728464
2.041729 8.753086 29.12818 0.2028388 -0.8486344 0.488545 0.114753 0.922537
2.041729 8.907376 29.17242 0 0.04248039 0.9990973 0.120697 0.922537
2.041729 9.398357 27.46017 0 0.9990972 -0.04248449 0.188456 0.922537
2.041729 9.244067 27.41593 0.2706495 0.04904132 -0.961428 0.189979 0.914237
6.864059 8.753086 29.12818 -0.528984 -0.6261901 0.572767 0.114753 0.736764
6.864059 8.907376 29.17242 0 0.7365092 0.6764276 0.120697 0.736764
6.864059 9.398357 27.46017 0 0.67643 -0.7365069 0.188456 0.736764
6.864059 9.244067 27.41593 -0.2071523 -0.2952977 -0.9326774 0.189979 0.728464
1.821583 8.440932 27.43903 -0.6125914 -0.5789001 -0.5381509 0.231976 0.921577
2.041729 8.440932 27.43903 0.5952358 -0.6082361 -0.5251126 0.240457 0.921577
2.041729 8.613385 28.89788 0.5625473 -0.7991434 0.2119212 0.240457 0.977777
1.821583 8.613385 28.89788 -0.3220808 -0.8706048 0.3719023 0.231976 0.977777
6.864059 8.440932 27.43903 -0.8399439 -0.3968117 -0.3701822 0.216639 0.921816
6.864058 8.613384 28.89789 -0.2478436 -0.9160631 0.3152809 0.216639 0.978016
7.079507 8.440932 27.43903 0.6120229 -0.5782799 -0.539463 0.224939 0.921816
7.079506 8.613384 28.89789 0.4554905 -0.8417802 0.2897145 0.224939 0.978016
6.757504 8.950987 27.23482 -6.260116e-07 3.21072e-07 1 0.394524 0.116949
2.229405 8.950924 27.23482 -6.260116e-07 3.21072e-07 1 0.340113 0.116949
2.209645 0.083778 27.23482 -6.260116e-07 3.21072e-07 1 0.339876 0.017110
6.801266 0.083778 27.23483 -6.260116e-07 3.21072e-07 1 0.395050 0.017110
9.584381 0.083779 27.46893 0 -1 2.794453e-08 0.848662 0.954609
-9.56216 0.083779 27.46893 0 -1 2.794453e-08 0.727676 0.954609
-9.56216 0.083778 -8.258186 -0.2357023 -0.9428091 0.2357023 0.727676 0.728851
9.584381 0.083778 -8.258186 0.4082483 -0.8164966 0.4082483 0.875161 0.921888
9.584381 1.352654 -8.258186 0.5345225 0.2672613 0.8017837 0.850650 0.728851
-9.56216 1.352654 -8.258186 -0.2182179 0.8728716 0.4364358 0.850650 0.849837
9.584381 1.352654 -19.50315 0.2672613 0.5345225 -0.8017837 0.921706 0.728851
-9.56216 1.352654 -19.50315 -0.5345225 0.2672613 -0.8017837 0.856066 0.899668
9.584381 0.083778 -19.50315 0.6666667 -0.6666667 -0.3333333 0.875161 0.850832
-9.56216 0.083778 -19.50315 -0.5773503 -0.5773503 -0.5773503 0.864084 0.899668
-1.992085 1.352654 -8.258186 0 0 0 0.850650 0.802002
1.971237 1.352654 -8.258186 0 0 1 0.850650 0.776958
2.209644 0.083779 27.46893 0 -1 2.794453e-08 0.802062 0.954609
6.801266 0.083779 27.46893 0 -1 2.794453e-08 0.831076 0.954609
1.806809 1.352654 -19.50315 0.5343567 0.8019218 -0.2671784 0.921706 0.777997
1.807727 0.083778 -19.50315 0.2182479 -0.872834 -0.4364959 0.904924 0.899972
-1.833586 1.352654 -19.50315 -0.2353633 0.9429772 -0.2353681 0.856066 0.850832
-1.841699 0.083778 -19.50315 -0.4861598 -0.7261457 -0.4861697 0.864084 0.850883
-1.837642 0.718216 -19.50315 -0.8006712 0.272015 -0.5337917 0.860075 0.850858
1.807268 0.718216 -19.50315 0.8019079 -0.2667226 -0.5346054 0.869623 0.899975
-1.837642 0.718216 -21.19149 -0.6657077 0.3371177 -0.6657214 0.850528 0.873867
1.807268 0.718216 -21.19149 0.4081498 0.816595 -0.4081499 0.850528 0.850835
1.807727 0.083778 -21.19149 0.6667737 -0.3329046 -0.6667739 0.854537 0.850832
-1.841699 0.083778 -21.19149 -0.4091129 -0.8156264 -0.4091213 0.854537 0.873893
1.806809 1.352654 -20.34951 0.4081498 0.8165951 -0.4081499 0.825914 0.955607
-1.833586 1.352654 -20.34951 -0.665708 0.3371167 -0.6657216 0.825914 0.978610
1.807268 0.718216 -20.34951 0.6667737 -0.3329045 -0.6667739 0.829923 0.955604
-1.837642 0.718216 -20.34951 -0.4091127 -0.8156266 -0.409121 0.829923 0.978636
0.011112 21.36677 -9.865997 -0.194551 0.5018502 -0.8427908 0.055985 0.613791
-12.05673 10.6756 -9.865997 -0.7152568 -0.1458526 -0.6834726 0.056184 0.433443
12.22292 10.71857 -9.865997 0.9364929 0.1990888 -0.2886949 0.462643 0.435340
0.011112 21.36677 29.07674 0.2032692 0.6280836 0.7511277 0.239715 0.613917
-12.05673 10.6756 29.07674 -0.9478787 0.2930478 0.1250962 0.239914 0.433569
12.22292 10.71857 29.07674 0.7877589 -0.01951743 0.6156745 0.278915 0.435201
-11.69627 10.43732 29.07674 0.05971103 -0.8436055 0.5336332 0.239908 0.430130
0.304019 21.10411 29.07674 0.365686 0.4165998 0.8322971 0.279111 0.608988
-0.004865 20.82557 29.07674 0.001492894 -0.4469869 0.8945392 0.646678 0.132598
11.85535 10.42681 29.07674 -0.02068696 -0.8377371 0.5456817 0.706711 0.016038
11.85587 10.4273 -9.865997 -0.01503179 -0.6087258 -0.7932382 0.432281 0.016521
-0.28755 21.09895 -9.865997 -0.1242463 0.1402452 -0.9822903 0.055990 0.609277
-0.005755 20.84445 -9.865997 0.00236048 -0.7067506 -0.7074589 0.492321 0.133564
-11.69706 10.43628 -9.865997 0.04384275 -0.6194163 -0.7838376 0.056178 0.429988
-8.314565 1.178085 -14.69042 -0.3779275 -0.9057087 0.1919963 0.555138 0.729358
-8.113598 1.178085 -14.46091 -0.3772613 -0.3302009 0.8652406 0.559289 0.729358
-7.723187 1.178085 -14.38326 0.2362687 -0.577657 0.7813383 0.567352 0.729358
-7.370952 1.178085 -14.5902 0.7340419 -0.590206 0.3359157 0.574628 0.729358
-7.314556 1.178085 -14.99481 0.7765312 -0.574872 -0.2579178 0.584525 0.729358
-7.524743 1.178085 -15.3422 0.3403285 -0.5881521 -0.7336577 0.591700 0.729358
-7.926116 1.178085 -15.40345 -0.2637483 -0.5767508 -0.7731723 0.600840 0.943193
-8.292524 1.178085 -15.1728 -0.8792892 -0.347457 -0.325767 0.593271 0.943193
-8.314565 11.53075 -14.69042 -0.4151546 0.9057088 0.08566306 0.555138 0.943193
-8.113598 11.53075 -14.46091 -0.5612649 0.3302009 0.7589132 0.559289 0.943193
-7.723187 11.53075 -14.38326 0.03361326 0.5776569 0.8155873 0.567352 0.943193
-7.370952 11.53075 -14.5902 0.591251 0.5902059 0.5496174 0.574628 0.943193
-7.314556 11.53075 -14.99481 0.8152915 0.5748721 -0.06943984 0.584525 0.943193
-7.524743 11.53075 -15.3422 0.5475711 0.588152 -0.5951833 0.591700 0.943193
-7.926116 11.53075 -15.40345 -0.06662066 0.5767506 -0.8141992 0.600840 0.729358
-8.292524 11.53075 -15.1728 -0.7172936 0.3474571 -0.6039566 0.593271 0.729358
9.735872 10.91997 -18.1918 0.4111427 -0.509315 -0.7560159 0.932359 0.417110
-9.593304 10.91997 -18.1918 -0.6697131 -0.7043979 -0.2351766 0.932359 0.622662
9.735872 11.31869 -18.24192 0.6636652 0.6152697 -0.4254311 0.928119 0.417110
-9.593304 11.31869 -18.24192 -0.4054132 0.2999777 -0.8635123 0.928119 0.622662
9.732642 12.78817 -8.232523 0.4110549 0.5092389 0.7561148 0.705929 0.417144
-9.596533 12.78817 -8.232523 -0.669805 0.7044412 0.2347846 0.705929 0.622696
9.732642 12.38945 -8.182407 0.663568 -0.6151268 0.4257894 0.922247 0.417110
-9.596533 12.38945 -8.182407 -0.4054992 -0.3000736 0.8634386 0.922247 0.622662
7.189742 1.178085 -14.69042 -0.3779275 -0.9057087 0.1919962 0.423509 0.729062
7.390709 1.178085 -14.46091 -0.3772616 -0.3302009 0.8652405 0.427660 0.729062
7.781119 1.178085 -14.38326 0.2362683 -0.577657 0.7813385 0.435724 0.729062
8.133354 1.178085 -14.5902 0.7340416 -0.590206 0.3359164 0.443000 0.729062
8.189751 1.178085 -14.99481 0.7765314 -0.574872 -0.257917 0.452896 0.729062
7.979564 1.178085 -15.3422 0.3403287 -0.5881523 -0.7336575 0.460072 0.729062
7.578191 1.178085 -15.40345 -0.2637487 -0.5767508 -0.7731722 0.480484 0.942897
7.211783 1.178085 -15.1728 -0.8792891 -0.3474569 -0.3257675 0.472916 0.942897
7.189742 11.53075 -14.69042 -0.4151555 0.9057083 0.08566427 0.423509 0.942897
7.390709 11.53075 -14.46091 -0.5612661 0.3302008 0.7589123 0.427660 0.942897
7.781119 11.53075 -14.38326 0.03361113 0.577657 0.8155873 0.435724 0.942897
8.133354 11.53075 -14.5902 0.5912496 0.590206 0.5496187 0.443000 0.942897
8.189751 11.53075 -14.99481 0.8152915 0.5748724 -0.06943776 0.452896 0.942897
7.979564 11.53075 -15.3422 0.5475721 0.5881528 -0.5951816 0.460072 0.942897
7.578191 11.53075 -15.40345 -0.06662109 0.5767516 -0.8141985 0.480484 0.729062
7.211783 11.53075 -15.1728 -0.7172943 0.3474571 -0.6039557 0.472916 0.729062
2.619709 18.72784 -8.258188 -4.538627e-07 -1.418196e-07 -1 0.666231 0.368129
4.74416 16.82279 -8.258188 -4.538627e-07 -1.418196e-07 -1 0.690919 0.346629
1.119221 16.80527 -8.258187 -4.538627e-07 -1.418196e-07 -1 0.648795 0.346431
1.143524 18.72621 -8.258187 -4.538627e-07 -1.418196e-07 -1 0.649077 0.368111
-1.461399 18.72405 -8.258185 0 0 -1 0.618806 0.368086
-1.462166 16.79499 -8.258185 0 0 -1 0.618797 0.346315
-4.775525 16.77474 -8.258185 0 0 -1 0.580293 0.346086
-2.603912 18.72208 -8.258185 0 0 -1 0.605529 0.368064
0.011108 21.06704 -8.258188 0 0 -1 0.635917 0.394530
2.619709 18.72784 -8.258188 0 0 -1 0.666231 0.368129
1.143524 18.72621 -8.258188 0 0 -1 0.649077 0.368111
-1.461399 18.72405 -8.258188 0 0 -1 0.618806 0.368086
-2.603913 18.72208 -8.258188 0 0 -1 0.605529 0.368064
-1.992084 1.352655 -8.258186 0.9999912 0.004198683 0 0.612639 0.172032
-2.023838 8.91544 -8.258186 0.9999912 0.004198683 0 0.612270 0.257386
-2.023838 8.91544 -8.054993 0.9999912 0.004198683 0 0.612270 0.257386
-1.992084 1.352655 -8.054985 0.9999912 0.004198683 0 0.612639 0.172032
1.971237 1.352654 -8.258186 0 1 0 0.658696 0.172032
-1.992085 1.352654 -8.258186 0 1 0 0.612639 0.172032
-1.992085 1.352654 -8.054985 0 1 0 0.612639 0.172032
1.971237 1.352654 -8.054985 0 1 0 0.658696 0.172032
1.97121 8.917807 -8.258186 -1 -3.561237e-06 0 0.658695 0.257413
1.971237 1.352654 -8.258186 -1 -3.561237e-06 0 0.658696 0.172032
1.971237 1.352654 -8.054985 -1 -3.561237e-06 0 0.658696 0.172032
1.97121 8.917807 -8.054985 -1 -3.561237e-06 0 0.658695 0.257413
-2.023838 8.915439 -8.258186 0.0005924883 -0.9999999 0 0.612270 0.257386
1.97121 8.917806 -8.258186 0.0005924883 -0.9999999 0 0.658695 0.257413
1.97121 8.917806 -8.054985 0.0005924883 -0.9999999 0 0.658695 0.257413
-2.023838 8.915439 -8.054993 0.0005924883 -0.9999999 0 0.612270 0.257386
-9.562161 8.910973 -8.258187 1.262447e-07 2.655897e-10 -1 0.524669 0.257336
-2.023839 8.91544 -8.258186 1.262447e-07 2.655897e-10 -1 0.612270 0.257386
-1.992085 1.352655 -8.258186 1.262447e-07 2.655897e-10 -1 0.612639 0.172032
-9.562161 1.352655 -8.258187 1.262447e-07 2.655897e-10 -1 0.524669 0.172032
-9.562161 2.967356 -8.258187 1.262447e-07 2.655897e-10 -1 0.524669 0.190256
-9.56216 12.48244 -8.258186 0 0 -1 0.524669 0.297643
9.584381 12.48244 -8.258186 0 0 -1 0.747166 0.297643
9.584381 8.922317 -8.258186 0 0 -1 0.747166 0.257464
1.97121 8.917807 -8.258186 0 0 -1 0.658695 0.257413
-2.023838 8.91544 -8.258186 0 0 -1 0.612270 0.257386
-9.56216 8.910972 -8.258186 0 0 -1 0.524669 0.257336
1.971211 8.917807 -8.258186 0 0 -1 0.658695 0.257413
9.584381 8.922317 -8.258186 0 0 -1 0.747166 0.257464
9.584381 2.967085 -8.258186 0 0 -1 0.747166 0.190253
9.584381 1.352654 -8.258186 0 0 -1 0.747166 0.172032
1.971238 1.352655 -8.258186 0 0 -1 0.658696 0.172032
4.74416 16.82279 -8.258186 0 0 -1 0.690919 0.346629
9.584381 12.48244 -8.258186 0 0 -1 0.747166 0.297643
-9.56216 12.48244 -8.258186 0 0 -1 0.524669 0.297643
-4.775524 16.77474 -8.258186 0 0 -1 0.580293 0.346086
-1.462166 16.79499 -8.258186 0 0 -1 0.618797 0.346315
1.119221 16.80527 -8.258186 0 0 -1 0.648795 0.346431
1.19159 18.76183 -8.239181 0 0 -1 0.649077 0.368111
1.16639 16.77002 -8.239181 0 0 -1 0.648795 0.346431
-1.510232 16.75936 -8.239181 0 0 -1 0.618797 0.346315
-1.509437 18.75959 -8.239181 0 0 -1 0.618806 0.368086
0.011108 21.06704 27.46893 0 0 1 0.867823 0.390611
-2.577679 18.74561 27.46893 0 0 1 0.837739 0.365995
-1.464676 18.74414 27.46893 0 0 1 0.850673 0.365980
1.113865 18.74075 27.46893 0 0 1 0.880638 0.365944
2.60751 18.73878 27.46893 0 0 1 0.897995 0.365923
9.584381 12.48244 27.46893 0 0 1 0.979072 0.299583
-9.56216 12.48244 27.46893 0 0 1 0.756574 0.299583
-9.56216 8.950749 27.46893 0 0 1 0.756574 0.262135
2.229404 8.950924 27.46893 0 0 1 0.893601 0.262137
6.757504 8.950987 27.46893 0 0 1 0.946221 0.262137
9.584381 8.951014 27.46893 0 0 1 0.979072 0.262138
9.584381 8.951015 27.46893 0 0 1 0.979072 0.262138
6.757504 8.950988 27.46893 0 0 1 0.946221 0.262137
6.801266 0.083779 27.46893 0 0 1 0.946729 0.168113
9.584381 0.083779 27.46893 0 0 1 0.979072 0.168113
9.584381 2.931374 27.46893 0 0 1 0.979072 0.198308
2.229405 8.950925 27.46893 1.618458e-07 -1.203556e-10 1 0.893601 0.262137
-9.562161 8.95075 27.46894 1.617553e-07 0 1 0.756574 0.262135
-9.562161 2.930227 27.46894 1.618232e-07 -9.026673e-11 1 0.756574 0.198296
-9.562161 0.08378 27.46894 1.618911e-07 -1.805335e-10 1 0.756574 0.168113
2.209645 0.083779 27.46893 1.618911e-07 -1.805335e-10 1 0.893372 0.168113
6.757504 8.950987 27.46893 1.368981e-05 -1 0 0.946221 0.262137
2.229404 8.950925 27.46893 1.368981e-05 -1 0 0.893601 0.262137
2.229404 8.950925 27.23482 1.368981e-05 -1 0 0.893601 0.262137
6.757504 8.950987 27.23482 1.368981e-05 -1 0 0.946221 0.262137
2.229404 8.950925 27.46893 0.9999976 -0.002228433 0 0.893601 0.262137
2.209644 0.083779 27.46893 0.9999976 -0.002228433 0 0.893372 0.168113
2.209644 0.083779 27.23482 0.9999976 -0.002228433 0 0.893372 0.168113
2.229404 8.950925 27.23481 0.9999976 -0.002228433 0 0.893601 0.262137
6.801266 0.083779 27.46893 -0.9999878 -0.004935225 1.052322e-08 0.946729 0.168113
6.757504 8.950988 27.46893 -0.9999878 -0.004935225 1.052322e-08 0.946221 0.262137
6.757504 8.950988 27.23482 -0.9999878 -0.004935225 1.052322e-08 0.946221 0.262137
6.801266 0.083778 27.23482 -0.9999878 -0.004935225 1.052322e-08 0.946729 0.168113
1.113865 18.74075 27.46894 2.745493e-07 -5.340597e-07 1 0.880638 0.365944
1.128643 16.95592 27.46894 2.745493e-07 -5.340597e-07 1 0.880809 0.347018
4.593323 16.95805 27.46894 2.745493e-07 -5.340597e-07 1 0.921072 0.347041
2.607509 18.73878 27.46894 2.745493e-07 -5.340597e-07 1 0.897995 0.365923
-4.577393 16.95241 27.46893 0 0 1 0.814501 0.346981
-9.56216 12.48244 27.46893 0 0 1 0.756574 0.299583
9.584381 12.48244 27.46893 0 0 1 0.979072 0.299583
4.593323 16.95805 27.46893 0 0 1 0.921072 0.347041
1.128643 16.95592 27.46893 0 0 1 0.880809 0.347018
-1.47953 16.95432 27.46893 0 0 1 0.850500 0.347001
-2.577679 18.74561 27.46893 0 0 1 0.837739 0.365995
-4.577393 16.95241 27.46893 0 0 1 0.814501 0.346981
-1.47953 16.95432 27.46893 0 0 1 0.850500 0.347001
-1.464676 18.74414 27.46893 0 0 1 0.850673 0.365980
2.209645 0.083779 28.63566 0 0 1 0.893372 0.168113
6.801266 0.083779 28.63566 0 0 1 0.946729 0.168113
6.801266 0.630622 28.63566 0 0 1 0.946729 0.173912
2.209645 0.630622 28.63566 0 0 1 0.893372 0.173912
2.209645 0.083779 27.46893 0 -1 0 0.893372 0.168113
6.801266 0.083779 27.46893 0 -1 0 0.946729 0.168113
6.801266 0.083779 28.63566 0 -1 0 0.946729 0.168113
2.209645 0.083779 28.63566 0 -1 0 0.893372 0.168113
6.801265 0.083779 27.46893 1 0 0 0.946729 0.168113
6.801265 0.630622 27.46893 1 0 0 0.946729 0.173912
6.801265 0.630621 28.63566 1 0 0 0.946729 0.173912
6.801265 0.083779 28.63566 1 0 0 0.946729 0.168113
6.801266 0.630621 27.46893 2.2068e-07 1 0 0.953358 0.118429
2.209645 0.630622 27.46893 2.2068e-07 1 0 0.857799 0.118429
2.209645 0.630622 28.63566 2.2068e-07 1 0 0.857799 0.094385
6.801266 0.630621 28.63566 2.2068e-07 1 0 0.953358 0.094385
2.209645 0.630622 27.46893 -1 0 0 0.893372 0.173912
2.209645 0.083779 27.46893 -1 0 0 0.893372 0.168113
2.209645 0.083779 28.63566 -1 0 0 0.893372 0.168113
2.209645 0.630622 28.63566 -1 0 0 0.893372 0.173912
-1.519492 18.7719 27.42795 0 0 1 0.850141 0.365980
-1.534808 16.92655 27.42795 0 0 1 0.849968 0.347001
1.154275 16.92821 27.42795 0 0 1 0.880278 0.347018
1.139039 18.7684 27.42795 0 0 1 0.880106 0.365944
9.58438 8.943011 17.50713 1 -3.190553e-07 -1.9254e-07 0.333012 0.286816
9.58438 8.951015 27.46893 1 -3.190553e-07 -1.9254e-07 0.267217 0.286922
9.58438 2.931374 27.46893 1 -3.190553e-07 -1.9254e-07 0.267217 0.206526
9.584376 2.941292 17.54625 1 -3.190553e-07 -1.9254e-07 0.332754 0.206658
9.584382 12.48244 -8.258186 1 -1.460618e-07 1.344288e-08 0.503187 0.334087
9.584384 12.48244 27.46893 1 -2.124813e-07 -7.438913e-08 0.267217 0.334087
9.584384 8.951015 27.46893 1 -9.239174e-08 -5.584564e-08 0.267217 0.286922
9.584383 8.943011 17.50713 1 -6.443503e-07 -1.471967e-07 0.333012 0.286816
9.584383 8.939797 13.50586 1 -5.019965e-07 -1.618565e-08 0.359440 0.286773
9.584379 8.933404 5.542252 1 2.343042e-07 1.685399e-07 0.412038 0.286687
9.584382 8.930156 1.501781 1 1.562028e-07 1.123599e-07 0.438724 0.286644
9.584382 8.922316 -8.258186 1 1.562028e-07 1.123599e-07 0.503187 0.286539
9.584383 2.967085 -8.258185 0.9855599 0.1693275 0.0001692956 0.503187 0.207003
9.584382 2.95729 1.540962 0.8352889 0.5498111 0.0005496822 0.438465 0.206872
9.584378 2.953252 5.581184 0.2081015 0.9781067 0.0009777281 0.411781 0.206818
9.584376 2.945292 13.54477 0.5226229 0.8525635 0.0008523554 0.359183 0.206712
9.584376 2.941292 17.54625 0.9432161 0.3321795 0.0003321546 0.332754 0.206658
9.584379 2.931375 27.46893 0.9918689 0.1272644 0.0001272708 0.267217 0.206526
9.584379 0.083779 27.46893 0.9963834 0.08497104 8.501102e-05 0.267217 0.168494
9.584383 0.083778 -8.258185 0.9963834 0.08497104 8.501102e-05 0.503187 0.168494
9.584383 1.352654 -8.258185 0.9907496 0.1357027 0.0001357006 0.503187 0.185441
9.58438 8.922316 -8.258185 1 -3.204785e-10 -9.751724e-08 0.503187 0.286539
9.584381 8.930156 1.501782 1 -3.204785e-10 -9.751724e-08 0.438724 0.286644
9.584381 2.957291 1.540963 1 -3.204785e-10 -9.751724e-08 0.438465 0.206872
9.58438 2.967084 -8.258186 1 -3.204785e-10 -9.751724e-08 0.503187 0.207003
9.584377 8.933404 5.542251 1 -3.197356e-07 -2.392514e-07 0.412038 0.286687
9.584381 8.939797 13.50586 1 -3.197356e-07 -2.392514e-07 0.359440 0.286773
9.584377 2.945292 13.54477 1 -3.197356e-07 -2.392514e-07 0.359183 0.206712
9.584377 2.953252 5.581184 1 -3.197356e-07 -2.392514e-07 0.411781 0.206818
9.584381 8.930156 1.501781 0 -0.9999997 0.0008039196 0.438724 0.286644
9.584377 8.933404 5.542252 0 -0.9999997 0.0008039196 0.412038 0.286687
9.264278 8.933404 5.542252 0 -0.9999997 0.0008039196 0.412038 0.286687
9.264278 8.930156 1.501781 0 -0.9999997 0.0008039196 0.438724 0.286644
9.584377 8.933404 5.542253 -7.78421e-09 -0.006510039 -0.9999788 0.412038 0.286687
9.584377 2.953252 5.581185 -7.78421e-09 -0.006510039 -0.9999788 0.411781 0.206818
9.264278 2.953253 5.581185 -7.78421e-09 -0.006510039 -0.9999788 0.411781 0.206818
9.264278 8.933404 5.542253 -7.78421e-09 -0.006510039 -0.9999788 0.412038 0.286687
9.584377 2.953252 5.581185 1.489655e-06 0.9999995 0.0009995322 0.411781 0.206818
9.584381 2.957291 1.540963 1.489655e-06 0.9999995 0.0009995322 0.438465 0.206872
9.264278 2.957291 1.540963 1.489655e-06 0.9999995 0.0009995322 0.438465 0.206872
9.264278 2.953253 5.581185 1.489655e-06 0.9999995 0.0009995322 0.411781 0.206818
9.584381 2.957291 1.540962 0 0.006559532 0.9999785 0.438465 0.206872
9.584381 8.930156 1.501782 0 0.006559532 0.9999785 0.438724 0.286644
9.264278 8.930156 1.501782 0 0.006559532 0.9999785 0.438724 0.286644
9.264278 2.957291 1.540962 0 0.006559532 0.9999785 0.438465 0.206872
9.58438 8.939797 13.50586 0 -0.9999997 0.0008029764 0.359440 0.286773
9.58438 8.94301 17.50713 0 -0.9999997 0.0008029764 0.333012 0.286816
9.264277 8.94301 17.50713 0 -0.9999997 0.0008029764 0.333012 0.286816
9.264277 8.939797 13.50586 0 -0.9999997 0.0008029764 0.359440 0.286773
9.584381 8.943011 17.50714 0 -0.006517947 -0.9999788 0.333012 0.286816
9.584377 2.941292 17.54626 0 -0.006517947 -0.9999788 0.332754 0.206658
9.264278 2.941292 17.54626 0 -0.006517947 -0.9999788 0.332754 0.206658
9.264278 8.943011 17.50714 0 -0.006517947 -0.9999788 0.333012 0.286816
9.584376 2.941292 17.54625 0 0.9999995 0.0009996152 0.332754 0.206658
9.584376 2.945292 13.54477 0 0.9999995 0.0009996152 0.359183 0.206712
9.264277 2.945292 13.54477 0 0.9999995 0.0009996152 0.359183 0.206712
9.264277 2.941292 17.54625 0 0.9999995 0.0009996152 0.332754 0.206658
9.584376 2.945292 13.54476 0 0.006490157 0.999979 0.359183 0.206712
9.58438 8.939797 13.50586 0 0.006490157 0.999979 0.359440 0.286773
9.264277 8.939797 13.50586 0 0.006490157 0.999979 0.359440 0.286773
9.264277 2.945292 13.54476 0 0.006490157 0.999979 0.359183 0.206712
9.495608 8.930156 1.501783 1 -2.386368e-07 1.179192e-07 0.438724 0.286644
9.495607 8.933403 5.542251 1 -2.386368e-07 1.179192e-07 0.412038 0.286687
9.495606 2.953253 5.581186 1 -2.386368e-07 1.179192e-07 0.411781 0.206818
9.495606 2.957292 1.540963 1 -2.386368e-07 1.179192e-07 0.438465 0.206872
9.495607 8.939797 13.50586 1 -7.876942e-08 1.190913e-07 0.359440 0.286773
9.495606 8.943011 17.50713 1 -7.876942e-08 1.190913e-07 0.333012 0.286816
9.495606 2.941293 17.54625 1 -7.876942e-08 1.190913e-07 0.332754 0.206658
9.495606 2.945292 13.54477 1 -7.876942e-08 1.190913e-07 0.359183 0.206712
-9.562159 12.48243 27.46893 -1 1.800224e-07 2.020676e-08 0.014362 0.335299
-9.56216 12.48244 -8.258185 -1 1.350169e-07 1.319632e-08 0.250332 0.335299
-9.56216 8.910972 -8.258185 -1 1.68771e-07 9.822093e-09 0.250332 0.287600
-9.56216 8.92183 1.494385 -1 2.194022e-07 4.760753e-09 0.185919 0.287745
-9.56216 8.926348 5.552868 -1 2.447179e-07 2.230057e-09 0.159113 0.287805
-9.56216 8.935206 13.51081 -1 1.898674e-07 2.497731e-08 0.106553 0.287923
-9.56216 8.939658 17.50887 -1 1.265782e-07 4.856814e-08 0.080146 0.287983
-9.562159 8.950748 27.46893 -1 1.265782e-07 4.856814e-08 0.014362 0.288131
-9.56216 2.930226 27.46893 -1 0 0 0.014362 0.207723
-9.56216 2.940577 17.50874 -1 0 0 0.080147 0.207861
-9.56216 2.944732 13.51097 -1 0 0 0.106552 0.207916
-9.56216 2.952961 5.592434 -1 0 0 0.158852 0.208026
-9.56216 2.957179 1.534298 -1 0 0 0.185655 0.208082
-9.56216 2.967356 -8.258186 -1 0 0 0.250332 0.208218
-9.56216 1.352654 -8.258186 -1 0 0 0.250332 0.186653
-9.56216 0.083778 -8.258186 -1 0 0 0.250332 0.169706
-9.56216 0.083779 27.46893 -1 0 0 0.014362 0.169706
-9.562162 8.921831 1.494385 -1 -7.961855e-08 4.861147e-08 0.185919 0.287745
-9.562162 8.910971 -8.258186 -1 -7.961855e-08 4.861147e-08 0.250332 0.287600
-9.562162 2.967355 -8.258186 -1 -7.961855e-08 4.861147e-08 0.250332 0.208218
-9.562161 2.957179 1.534298 -1 -7.961855e-08 4.861147e-08 0.185655 0.208082
-9.56216 8.95075 27.46893 -1 0 0 0.014362 0.288131
-9.56216 8.93966 17.50887 -1 0 0 0.080146 0.287983
-9.56216 2.940577 17.50874 -1 0 0 0.080147 0.207861
-9.56216 2.930226 27.46893 -1 0 0 0.014362 0.207723
-9.562161 8.935208 13.51081 -1 -7.96997e-10 -2.402741e-07 0.106553 0.287923
-9.56216 8.926349 5.552867 -1 -7.96997e-10 -2.402741e-07 0.159113 0.287805
-9.56216 2.952961 5.592433 -1 -7.96997e-10 -2.402741e-07 0.158852 0.208026
-9.562161 2.944732 13.51097 -1 -7.96997e-10 -2.402741e-07 0.106552 0.207916
-9.56216 8.93966 17.50886 1.337668e-06 -0.9999994 0.001113598 0.080146 0.287983
-9.56216 8.935207 13.51081 1.337668e-06 -0.9999994 0.001113598 0.106553 0.287923
-9.205691 8.935208 13.51081 1.337668e-06 -0.9999994 0.001113598 0.106553 0.287923
-9.205691 8.93966 17.50886 1.337668e-06 -0.9999994 0.001113598 0.080146 0.287983
-9.56216 8.935208 13.51081 0 2.674534e-05 1 0.106552 0.287923
-9.56216 2.944733 13.51097 0 2.674534e-05 1 0.106552 0.207916
-9.205692 2.944733 13.51097 0 2.674534e-05 1 0.106552 0.207916
-9.205692 8.935208 13.51081 0 2.674534e-05 1 0.106552 0.287923
-9.56216 2.944732 13.51097 0 0.9999995 0.00103931 0.106552 0.207916
-9.56216 2.940577 17.50874 0 0.9999995 0.00103931 0.080147 0.207861
-9.205692 2.940577 17.50874 0 0.9999995 0.00103931 0.080147 0.207861
-9.205692 2.944732 13.51097 0 0.9999995 0.00103931 0.106552 0.207916
-9.56216 2.940577 17.50874 0 2.098404e-05 -1 0.080147 0.207861
-9.56216 8.93966 17.50887 0 2.098404e-05 -1 0.080146 0.287983
-9.205692 8.93966 17.50887 0 2.098404e-05 -1 0.080146 0.287983
-9.205692 2.940577 17.50874 0 2.098404e-05 -1 0.080147 0.207861
-9.56216 8.926348 5.552868 2.675356e-06 -0.9999994 0.001113113 0.159113 0.287805
-9.56216 8.92183 1.494385 2.675356e-06 -0.9999994 0.001113113 0.185919 0.287745
-9.205688 8.921831 1.494385 2.675356e-06 -0.9999994 0.001113113 0.185919 0.287745
-9.205688 8.926349 5.552868 2.675356e-06 -0.9999994 0.001113113 0.159113 0.287805
-9.56216 8.921832 1.494385 0 0.006691428 0.9999776 0.185919 0.287745
-9.56216 2.957179 1.534298 0 0.006691428 0.9999776 0.185655 0.208082
-9.205692 2.957179 1.534298 0 0.006691428 0.9999776 0.185655 0.208082
-9.205688 8.921832 1.494385 0 0.006691428 0.9999776 0.185919 0.287745
-9.56216 2.957179 1.534298 2.675491e-06 0.9999995 0.001039418 0.185655 0.208082
-9.56216 2.952961 5.592434 2.675491e-06 0.9999995 0.001039418 0.158852 0.208026
-9.205691 2.95296 5.592434 2.675491e-06 0.9999995 0.001039418 0.158852 0.208026
-9.205691 2.957178 1.534298 2.675491e-06 0.9999995 0.001039418 0.185655 0.208082
-9.56216 2.952962 5.592435 -8.860185e-09 -0.006623573 -0.9999781 0.158852 0.208026
-9.56216 8.92635 5.552869 -8.860185e-09 -0.006623573 -0.9999781 0.159113 0.287805
-9.205688 8.92635 5.552869 -8.860185e-09 -0.006623573 -0.9999781 0.159113 0.287805
-9.205692 2.952961 5.592435 -8.860185e-09 -0.006623573 -0.9999781 0.158852 0.208026
-9.525482 8.93966 17.50887 -1 0 0 0.080146 0.287983
-9.525482 8.935208 13.51081 -1 0 0 0.106553 0.287923
-9.525482 2.944733 13.51097 -1 0 0 0.106552 0.207916
-9.525482 2.940578 17.50874 -1 0 0 0.080147 0.207861
-9.525481 8.926349 5.552868 -1 8.072152e-08 1.174134e-07 0.159113 0.287805
-9.525481 8.921831 1.494385 -1 8.072152e-08 1.174134e-07 0.185919 0.287745
-9.525482 2.957179 1.534299 -1 8.072152e-08 1.174134e-07 0.185655 0.208082
-9.525481 2.952961 5.592433 -1 8.072152e-08 1.174134e-07 0.158852 0.208026
1.821583 8.907376 29.17242 -0.408249 0.6723375 0.617491 0.122494 0.931018
2.041729 8.907376 29.17242 0 0.04248039 0.9990973 0.122494 0.922537
6.864059 8.907376 29.17242 0 0.7365092 0.6764276 0.122494 0.736764
7.079507 8.907376 29.17242 0.3333341 0.4570803 0.8246005 0.122494 0.728464
1.821583 8.753086 29.12818 -0.8175721 -0.2874325 0.4989575 0.327238 0.903655
1.821583 8.907376 29.17242 -0.408249 0.6723375 0.617491 0.321144 0.904703
1.821583 9.398357 27.46017 -0.6792534 0.4625125 -0.569822 0.309517 0.837074
1.821583 8.440932 27.43903 -0.6125914 -0.5789001 -0.5381509 0.346270 0.840277
1.821583 8.613385 28.89788 -0.3220808 -0.8706048 0.3719023 0.333553 0.895421
2.041729 8.753086 29.12818 0.2028388 -0.8486344 0.488545 0.255941 0.914237
6.864059 8.753086 29.12818 -0.528984 -0.6261901 0.572767 0.255941 0.728464
6.864059 9.244067 27.41593 -0.2071523 -0.2952977 -0.9326774 0.076840 0.736764
7.079507 9.398357 27.46017 0.4947844 0.6429045 -0.5846898 0.070896 0.728464
7.079507 8.440932 27.43903 0.6120229 -0.5782799 -0.539463 0.107779 0.728464
6.864059 8.440932 27.43903 -0.8399439 -0.3968117 -0.3701822 0.107779 0.736764
2.041729 9.244067 27.41593 0.2706495 0.04904132 -0.961428 0.294892 0.984607
2.041729 8.753086 29.12818 0.2028388 -0.8486344 0.488545 0.298500 0.916081
2.041729 8.613385 28.89788 0.5625473 -0.7991434 0.2119212 0.305737 0.923517
2.041729 8.440932 27.43903 0.5952358 -0.6082361 -0.5251126 0.324841 0.976786
1.821583 8.613385 28.89788 -0.3220808 -0.8706048 0.3719023 0.109372 0.931018
2.041729 8.613385 28.89788 0.5625473 -0.7991434 0.2119212 0.109372 0.922537
6.864059 8.753086 29.12818 -0.528984 -0.6261901 0.572767 0.278520 0.916139
6.864059 9.244067 27.41593 -0.2071523 -0.2952977 -0.9326774 0.284888 0.984463
6.864059 8.440932 27.43903 -0.8399439 -0.3968117 -0.3701822 0.254649 0.977857
6.864058 8.613384 28.89789 -0.2478436 -0.9160631 0.3152809 0.271588 0.923860
7.079507 8.753086 29.12818 0.7318363 -0.4137183 0.5415282 0.278919 0.901412
7.079506 8.613384 28.89789 0.4554905 -0.8417802 0.2897145 0.273537 0.892541
7.079507 8.440932 27.43903 0.6120229 -0.5782799 -0.539463 0.266894 0.836340
7.079507 9.244067 27.41593 0.707369 0.06123663 -0.7041869 0.297833 0.835450
7.079507 9.398357 27.46017 0.4947844 0.6429045 -0.5846898 0.303777 0.837154
7.079507 8.907376 29.17242 0.3333341 0.4570803 0.8246005 0.284863 0.903117
6.864058 8.613384 28.89789 -0.2478436 -0.9160631 0.3152809 0.109372 0.736764
7.079506 8.613384 28.89789 0.4554905 -0.8417802 0.2897145 0.109372 0.728464
2.041729 9.244067 27.41593 0.2706495 0.04904132 -0.961428 0.076840 0.922537
1.821583 9.398357 27.46017 -0.6792534 0.4625125 -0.569822 0.070896 0.931018
2.041729 9.398357 27.46017 0 0.9990972 -0.04248449 0.070896 0.922537
6.864059 9.398357 27.46017 0 0.67643 -0.7365069 0.070896 0.736764
2.041729 8.440932 27.43903 0.5952358 -0.6082361 -0.5251126 0.107779 0.922537
1.821583 8.440932 27.43903 -0.6125914 -0.5789001 -0.5381509 0.107779 0.931018
1.821583 9.244067 27.41593 -0.7071068 0.08833332 -0.7015677 0.076840 0.931018
-1.833586 1.352654 -19.50315 -0.2353633 0.9429772 -0.2353681 0.921706 0.801000
-9.56216 1.352654 -19.50315 -0.5345225 0.2672613 -0.8017837 0.921706 0.849837
9.584381 1.352654 -8.258186 0.5345225 0.2672613 0.8017837 0.883179 0.921888
9.584381 1.352654 -19.50315 0.2672613 0.5345225 -0.8017837 0.883179 0.850832
9.584381 0.083778 -8.258186 0.4082483 -0.8164966 0.4082483 0.848662 0.728851
-9.56216 0.083778 -8.258186 -0.2357023 -0.9428091 0.2357023 0.884708 0.850832
-9.56216 1.352654 -8.258186 -0.2182179 0.8728716 0.4364358 0.892726 0.850832
-9.56216 1.352654 -19.50315 -0.5345225 0.2672613 -0.8017837 0.892726 0.921888
-9.56216 0.083778 -19.50315 -0.5773503 -0.5773503 -0.5773503 0.884708 0.921888
-9.56216 0.083778 -8.258186 -0.2357023 -0.9428091 0.2357023 0.975981 0.971818
-9.56216 0.083778 -19.50315 -0.5773503 -0.5773503 -0.5773503 0.904924 0.971818
-1.841699 0.083778 -19.50315 -0.4861598 -0.7261457 -0.4861697 0.904924 0.923033
9.584381 0.083778 -19.50315 0.6666667 -0.6666667 -0.3333333 0.904924 0.850832
9.584381 0.083778 -8.258186 0.4082483 -0.8164966 0.4082483 0.975981 0.850832
-9.56216 0.083778 -8.258186 -0.2357023 -0.9428091 0.2357023 0.928875 0.849837
9.584381 0.083778 -8.258186 0.4082483 -0.8164966 0.4082483 0.928875 0.728851
9.584381 1.352654 -8.258186 0.5345225 0.2672613 0.8017837 0.936893 0.728851
-9.56216 1.352654 -8.258186 -0.2182179 0.8728716 0.4364358 0.936893 0.849837
9.584381 1.352654 -19.50315 0.2672613 0.5345225 -0.8017837 0.865614 0.850832
9.584381 0.083778 -19.50315 0.6666667 -0.6666667 -0.3333333 0.873632 0.850832
1.807727 0.083778 -19.50315 0.2182479 -0.872834 -0.4364959 0.873632 0.899972
1.806809 1.352654 -19.50315 0.5343567 0.8019218 -0.2671784 0.865614 0.899978
-1.837642 0.718216 -19.50315 -0.8006712 0.272015 -0.5337917 0.838330 0.978636
1.807268 0.718216 -19.50315 0.8019079 -0.2667226 -0.5346054 0.838330 0.955604
1.807268 0.718216 -21.19149 0.4081498 0.816595 -0.4081499 0.848998 0.955604
-1.837642 0.718216 -21.19149 -0.6657077 0.3371177 -0.6657214 0.848998 0.978636
1.807268 0.718216 -19.50315 0.8019079 -0.2667226 -0.5346054 0.824384 0.966272
1.807727 0.083778 -19.50315 0.2182479 -0.872834 -0.4364959 0.820375 0.966272
1.807727 0.083778 -21.19149 0.6667737 -0.3329046 -0.6667739 0.820375 0.955604
1.807268 0.718216 -21.19149 0.4081498 0.816595 -0.4081499 0.824384 0.955604
-1.841699 0.083778 -21.19149 -0.4091129 -0.8156264 -0.4091213 0.894256 0.923033
1.807727 0.083778 -21.19149 0.6667737 -0.3329046 -0.6667739 0.894256 0.899972
-1.841699 0.083778 -19.50315 -0.4861598 -0.7261457 -0.4861697 0.814837 0.955604
-1.837642 0.718216 -19.50315 -0.8006712 0.272015 -0.5337917 0.818846 0.955604
-1.837642 0.718216 -21.19149 -0.6657077 0.3371177 -0.6657214 0.818846 0.966272
-1.841699 0.083778 -21.19149 -0.4091129 -0.8156264 -0.4091213 0.814837 0.966272
1.806809 1.352654 -20.34951 0.4081498 0.8165951 -0.4081499 0.927054 0.777997
-1.833586 1.352654 -20.34951 -0.665708 0.3371167 -0.6657216 0.927054 0.801000
1.806809 1.352654 -19.50315 0.5343567 0.8019218 -0.2671784 0.813307 0.960952
1.807268 0.718216 -19.50315 0.8019079 -0.2667226 -0.5346054 0.809298 0.960952
1.807268 0.718216 -20.34951 0.6667737 -0.3329045 -0.6667739 0.809298 0.955604
1.806809 1.352654 -20.34951 0.4081498 0.8165951 -0.4081499 0.813307 0.955604
1.807268 0.718216 -19.50315 0.8019079 -0.2667226 -0.5346054 0.836800 0.955604
-1.837642 0.718216 -19.50315 -0.8006712 0.272015 -0.5337917 0.836800 0.978636
-1.837642 0.718216 -20.34951 -0.4091127 -0.8156266 -0.409121 0.831452 0.978636
1.807268 0.718216 -20.34951 0.6667737 -0.3329045 -0.6667739 0.831452 0.955604
-1.837642 0.718216 -19.50315 -0.8006712 0.272015 -0.5337917 0.803760 0.955604
-1.833586 1.352654 -19.50315 -0.2353633 0.9429772 -0.2353681 0.807769 0.955604
-1.833586 1.352654 -20.34951 -0.665708 0.3371167 -0.6657216 0.807769 0.960952
-1.837642 0.718216 -20.34951 -0.4091127 -0.8156266 -0.409121 0.803760 0.960952
0.011112 21.36677 -9.865997 -0.194551 0.5018502 -0.8427908 0.462844 0.613531
0.011112 21.36677 29.07674 0.2032692 0.6280836 0.7511277 0.279116 0.613393
0.011112 21.36677 -9.865997 -0.194551 0.5018502 -0.8427908 0.492235 0.139417
12.22292 10.71857 -9.865997 0.9364929 0.1990888 -0.2886949 0.430423 0.019776
-0.28755 21.09895 -9.865997 -0.1242463 0.1402452 -0.9822903 0.493747 0.136423
0.011112 21.36677 29.07674 0.2032692 0.6280836 0.7511277 0.646759 0.138675
-12.05673 10.6756 29.07674 -0.9478787 0.2930478 0.1250962 0.585676 0.018449
-11.69627 10.43732 29.07674 0.05971103 -0.8436055 0.5336332 0.587501 0.015779
0.304019 21.10411 29.07674 0.365686 0.4165998 0.8322971 0.648242 0.135731
12.22292 10.71857 29.07674 0.7877589 -0.01951743 0.6156745 0.708571 0.019320
-11.69706 10.43628 -9.865997 0.04384275 -0.6194163 -0.7838376 0.551498 0.017231
-12.05673 10.6756 -9.865997 -0.7152568 -0.1458526 -0.6834726 0.553318 0.019923
11.85535 10.42681 29.07674 -0.02068696 -0.8377371 0.5456817 0.278921 0.429602
11.85587 10.4273 -9.865997 -0.01503179 -0.6087258 -0.7932382 0.462649 0.429750
11.85535 10.42681 29.07674 -0.02068696 -0.8377371 0.5456817 0.641858 0.626531
-0.004865 20.82557 29.07674 0.001492894 -0.4469869 0.8945392 0.579517 0.626531
-0.005755 20.84445 -9.865997 0.00236048 -0.7067506 -0.7074589 0.579512 0.421835
11.85587 10.4273 -9.865997 -0.01503179 -0.6087258 -0.7932382 0.641861 0.421835
-11.69627 10.43732 29.07674 0.05971103 -0.8436055 0.5336332 0.518063 0.626531
-11.69706 10.43628 -9.865997 0.04384275 -0.6194163 -0.7838376 0.518059 0.421835
-7.370952 1.178085 -14.5902 0.7340419 -0.590206 0.3359157 0.576168 0.729358
-7.370952 11.53075 -14.5902 0.591251 0.5902059 0.5496174 0.576168 0.943193
-7.524743 1.178085 -15.3422 0.3403285 -0.5881521 -0.7336577 0.609130 0.943193
-7.524743 11.53075 -15.3422 0.5475711 0.588152 -0.5951833 0.609130 0.729358
-8.292524 1.178085 -15.1728 -0.8792892 -0.347457 -0.325767 0.610375 0.729358
-8.314565 1.178085 -14.69042 -0.3779275 -0.9057087 0.1919963 0.620339 0.729358
-8.314565 11.53075 -14.69042 -0.4151546 0.9057088 0.08566306 0.620339 0.943193
-8.292524 11.53075 -15.1728 -0.7172936 0.3474571 -0.6039566 0.610375 0.943193
-8.314565 1.178085 -14.69042 -0.3779275 -0.9057087 0.1919963 0.621648 0.744085
-8.292524 1.178085 -15.1728 -0.8792892 -0.347457 -0.325767 0.622103 0.734122
-7.926116 1.178085 -15.40345 -0.2637483 -0.5767508 -0.7731723 0.629672 0.729358
-7.524743 1.178085 -15.3422 0.3403285 -0.5881521 -0.7336577 0.637962 0.730623
-7.314556 1.178085 -14.99481 0.7765312 -0.574872 -0.2579178 0.642304 0.737798
-7.370952 1.178085 -14.5902 0.7340419 -0.590206 0.3359157 0.641139 0.746156
-7.723187 1.178085 -14.38326 0.2362687 -0.577657 0.7813383 0.633863 0.750430
-8.113598 1.178085 -14.46091 -0.3772613 -0.3302009 0.8652406 0.625799 0.748826
-8.314565 11.53075 -14.69042 -0.4151546 0.9057088 0.08566306 0.643806 0.735702
-8.113598 11.53075 -14.46091 -0.5612649 0.3302009 0.7589132 0.647956 0.730962
-7.723187 11.53075 -14.38326 0.03361326 0.5776569 0.8155873 0.656020 0.729358
-7.370952 11.53075 -14.5902 0.591251 0.5902059 0.5496174 0.663296 0.733632
-7.314556 11.53075 -14.99481 0.8152915 0.5748721 -0.06943984 0.664461 0.741990
-7.524743 11.53075 -15.3422 0.5475711 0.588152 -0.5951833 0.660119 0.749165
-7.926116 11.53075 -15.40345 -0.06662066 0.5767506 -0.8141992 0.651829 0.750430
-8.292524 11.53075 -15.1728 -0.7172936 0.3474571 -0.6039566 0.644261 0.745666
9.735872 11.31869 -18.24192 0.6636652 0.6152697 -0.4254311 0.812371 0.417110
-9.593304 11.31869 -18.24192 -0.4054132 0.2999777 -0.8635123 0.812371 0.622662
9.732642 12.78817 -8.232523 0.4110549 0.5092389 0.7561148 0.926487 0.417110
-9.596533 12.78817 -8.232523 -0.669805 0.7044412 0.2347846 0.926487 0.622662
9.732642 12.38945 -8.182407 0.663568 -0.6151268 0.4257894 0.920555 0.417144
-9.596533 12.38945 -8.182407 -0.4054992 -0.3000736 0.8634386 0.920555 0.622696
-9.593304 10.91997 -18.1918 -0.6697131 -0.7043979 -0.2351766 0.814112 0.622662
9.735872 10.91997 -18.1918 0.4111427 -0.509315 -0.7560159 0.814112 0.417110
-9.593304 10.91997 -18.1918 -0.6697131 -0.7043979 -0.2351766 0.943500 0.521522
-9.596533 12.38945 -8.182407 -0.4054992 -0.3000736 0.8634386 0.943710 0.413939
-9.596533 12.78817 -8.232523 -0.669805 0.7044412 0.2347846 0.947982 0.413858
-9.593304 11.31869 -18.24192 -0.4054132 0.2999777 -0.8635123 0.947773 0.521442
9.732642 12.38945 -8.182407 0.663568 -0.6151268 0.4257894 0.944013 0.632327
9.735872 10.91997 -18.1918 0.4111427 -0.509315 -0.7560159 0.943818 0.524743
9.735872 11.31869 -18.24192 0.6636652 0.6152697 -0.4254311 0.948091 0.524824
9.732642 12.78817 -8.232523 0.4110549 0.5092389 0.7561148 0.948286 0.632408
8.133354 1.178085 -14.5902 0.7340416 -0.590206 0.3359164 0.444539 0.729062
8.133354 11.53075 -14.5902 0.5912496 0.590206 0.5496187 0.444539 0.942897
7.979564 1.178085 -15.3422 0.3403287 -0.5881523 -0.7336575 0.488774 0.942897
7.979564 11.53075 -15.3422 0.5475721 0.5881528 -0.5951816 0.488774 0.729062
7.211783 1.178085 -15.1728 -0.8792891 -0.3474569 -0.3257675 0.461643 0.729062
7.189742 1.178085 -14.69042 -0.3779275 -0.9057087 0.1919962 0.471606 0.729062
7.189742 11.53075 -14.69042 -0.4151555 0.9057083 0.08566427 0.471606 0.942897
7.211783 11.53075 -15.1728 -0.7172943 0.3474571 -0.6039557 0.461643 0.942897
7.189742 1.178085 -14.69042 -0.3779275 -0.9057087 0.1919962 0.490020 0.743790
7.211783 1.178085 -15.1728 -0.8792891 -0.3474569 -0.3257675 0.490475 0.733826
7.578191 1.178085 -15.40345 -0.2637487 -0.5767508 -0.7731722 0.498043 0.729062
7.979564 1.178085 -15.3422 0.3403287 -0.5881523 -0.7336575 0.506334 0.730327
8.189751 1.178085 -14.99481 0.7765314 -0.574872 -0.257917 0.510675 0.737503
8.133354 1.178085 -14.5902 0.7340416 -0.590206 0.3359164 0.509510 0.745860
7.781119 1.178085 -14.38326 0.2362683 -0.577657 0.7813385 0.502235 0.750134
7.390709 1.178085 -14.46091 -0.3772616 -0.3302009 0.8652405 0.494171 0.748530
7.189742 11.53075 -14.69042 -0.4151555 0.9057083 0.08566427 0.512177 0.735407
7.390709 11.53075 -14.46091 -0.5612661 0.3302008 0.7589123 0.516328 0.730666
7.781119 11.53075 -14.38326 0.03361113 0.577657 0.8155873 0.524392 0.729062
8.133354 11.53075 -14.5902 0.5912496 0.590206 0.5496187 0.531667 0.733337
8.189751 11.53075 -14.99481 0.8152915 0.5748724 -0.06943776 0.532832 0.741694
7.979564 11.53075 -15.3422 0.5475721 0.5881528 -0.5951816 0.528491 0.748869
7.578191 11.53075 -15.40345 -0.06662109 0.5767516 -0.8141985 0.520200 0.750134
7.211783 11.53075 -15.1728 -0.7172943 0.3474571 -0.6039557 0.512632 0.745370
3 0 1 2 
3 0 2 3 
3 13 6 4 
3 13 4 12 
3 13 12 16 
3 13 16 5 
3 13 5 7 
3 13 7 17 
3 14 8 378 
3 14 378 379 
3 14 379 380 
3 14 380 381 
3 14 381 9 
3 14 9 18 
3 20 21 22 
3 20 22 23 
3 382 383 384 
3 382 384 10 
3 382 10 385 
3 382 385 386 
3 387 15 19 
3 387 19 388 
3 25 24 26 
3 25 26 27 
3 389 390 11 
3 389 11 391 
3 389 391 392 
3 393 394 395 
3 393 395 396 
3 12 4 397 
3 12 397 398 
3 399 400 401 
3 399 401 402 
3 403 404 405 
3 403 405 406 
3 403 406 407 
3 403 407 408 
3 5 16 409 
3 5 409 410 
3 411 412 413 
3 411 413 414 
3 411 414 390 
3 411 390 389 
3 411 415 416 
3 411 416 417 
3 411 417 412 
3 28 29 30 
3 28 30 31 
3 39 48 50 
3 39 50 49 
3 39 49 41 
3 37 42 43 
3 37 43 36 
3 37 36 38 
3 37 38 46 
3 37 46 418 
3 37 418 419 
3 420 35 40 
3 420 40 421 
3 34 422 32 
3 34 32 45 
3 34 45 44 
3 34 44 33 
3 423 424 425 
3 423 425 426 
3 427 428 429 
3 427 429 47 
3 427 47 430 
3 427 430 431 
3 432 433 434 
3 432 434 435 
3 436 437 438 
3 436 438 51 
3 436 51 439 
3 52 53 54 
3 52 54 55 
3 57 56 58 
3 57 58 59 
3 440 441 442 
3 440 442 443 
3 444 445 446 
3 444 446 447 
3 47 429 448 
3 47 448 449 
3 450 451 452 
3 450 452 453 
3 418 46 454 
3 418 454 455 
3 456 457 458 
3 456 458 459 
3 460 461 462 
3 460 462 463 
3 464 465 466 
3 464 466 467 
3 60 71 61 
3 60 61 64 
3 60 64 63 
3 61 73 66 
3 61 66 64 
3 62 468 469 
3 62 469 67 
3 62 67 65 
3 470 471 70 
3 470 70 72 
3 470 72 472 
3 473 474 475 
3 473 475 68 
3 473 68 476 
3 476 68 69 
3 476 69 477 
3 472 72 478 
3 472 478 479 
3 480 481 62 
3 480 62 65 
3 482 483 484 
3 482 484 485 
3 484 483 486 
3 484 486 487 
3 74 75 83 
3 74 83 82 
3 75 76 84 
3 75 84 83 
3 76 77 85 
3 76 85 84 
3 488 78 86 
3 488 86 489 
3 78 79 87 
3 78 87 86 
3 490 80 88 
3 490 88 491 
3 80 81 89 
3 80 89 88 
3 492 493 494 
3 492 494 495 
3 496 497 498 
3 496 498 499 
3 496 499 500 
3 496 500 501 
3 496 501 502 
3 496 502 503 
3 504 505 506 
3 504 506 507 
3 504 507 508 
3 504 508 509 
3 504 509 510 
3 504 510 511 
3 90 91 93 
3 90 93 92 
3 512 513 95 
3 512 95 94 
3 514 515 97 
3 514 97 96 
3 516 517 518 
3 516 518 519 
3 520 521 522 
3 520 522 523 
3 524 525 526 
3 524 526 527 
3 98 99 107 
3 98 107 106 
3 99 100 108 
3 99 108 107 
3 100 101 109 
3 100 109 108 
3 528 102 110 
3 528 110 529 
3 102 103 111 
3 102 111 110 
3 530 104 112 
3 530 112 531 
3 104 105 113 
3 104 113 112 
3 532 533 534 
3 532 534 535 
3 536 537 538 
3 536 538 539 
3 536 539 540 
3 536 540 541 
3 536 541 542 
3 536 542 543 
3 544 545 546 
3 544 546 547 
3 544 547 548 
3 544 548 549 
3 544 549 550 
3 544 550 551 
3 114 115 116 
3 114 116 117 
3 118 119 120 
3 118 120 121 
3 122 123 124 
3 122 124 125 
3 122 125 126 
3 127 128 129 
3 127 129 130 
3 131 132 133 
3 131 133 134 
3 135 136 137 
3 135 137 138 
3 139 140 141 
3 139 141 142 
3 143 144 145 
3 143 145 146 
3 143 146 147 
3 148 149 150 
3 148 150 151 
3 148 151 152 
3 148 152 153 
3 154 155 156 
3 154 156 157 
3 154 157 158 
3 160 161 162 
3 160 162 163 
3 160 163 164 
3 160 164 159 
3 165 166 167 
3 165 167 168 
3 169 170 171 
3 169 171 172 
3 169 172 173 
3 174 175 176 
3 174 176 177 
3 174 177 178 
3 174 178 179 
3 180 181 182 
3 180 182 183 
3 180 183 184 
3 185 186 187 
3 185 187 188 
3 185 188 189 
3 190 191 192 
3 190 192 193 
3 194 195 196 
3 194 196 197 
3 198 199 200 
3 198 200 201 
3 202 203 204 
3 202 204 205 
3 206 207 208 
3 206 208 209 
3 206 209 210 
3 206 210 211 
3 212 213 214 
3 212 214 215 
3 216 217 218 
3 216 218 219 
3 220 221 222 
3 220 222 223 
3 224 225 226 
3 224 226 227 
3 228 229 230 
3 228 230 231 
3 232 233 234 
3 232 234 235 
3 236 237 238 
3 236 238 239 
3 240 241 242 
3 240 242 243 
3 244 245 246 
3 244 246 247 
3 244 247 248 
3 244 248 249 
3 244 249 250 
3 244 250 251 
3 254 255 253 
3 253 255 256 
3 253 256 260 
3 260 256 257 
3 260 257 258 
3 260 258 259 
3 253 260 252 
3 261 262 263 
3 261 263 264 
3 265 266 267 
3 265 267 268 
3 269 270 271 
3 269 271 272 
3 273 274 275 
3 273 275 276 
3 277 278 279 
3 277 279 280 
3 281 282 283 
3 281 283 284 
3 285 286 287 
3 285 287 288 
3 289 290 291 
3 289 291 292 
3 293 294 295 
3 293 295 296 
3 297 298 299 
3 297 299 300 
3 301 302 303 
3 301 303 304 
3 305 306 307 
3 305 307 308 
3 309 310 311 
3 309 311 312 
3 309 312 313 
3 309 313 314 
3 309 314 315 
3 309 315 316 
3 320 321 322 
3 320 322 323 
3 320 323 318 
3 320 318 319 
3 323 324 325 
3 323 325 317 
3 323 317 318 
3 326 327 328 
3 326 328 329 
3 330 331 332 
3 330 332 333 
3 334 335 336 
3 334 336 337 
3 338 339 340 
3 338 340 341 
3 342 343 344 
3 342 344 345 
3 346 347 348 
3 346 348 349 
3 350 351 352 
3 350 352 353 
3 354 355 356 
3 354 356 357 
3 358 359 360 
3 358 360 361 
3 362 363 364 
3 362 364 365 
3 366 367 368 
3 366 368 369 
3 370 371 372 
3 370 372 373 
3 374 375 376 
3 374 376 377 
