ply
format ascii 1.0
comment VCGLIB generated
element vertex 208
property float x
property float y
property float z
property float nx
property float ny
property float nz
property float texture_u
property float texture_v
element face 202
property list uchar int vertex_indices
end_header
6.342961 1.376288 0.7252314 0.8657997 0.5003908 0 0.000000 0.828405
6.342961 1.376288 1.087847 0.8657997 0.5003908 0 0.000000 0.811885
7.933818 -1.376288 3.041319 0.8657997 0.5003908 0 0.248117 0.722890
4.167266 1.376288 1.450463 0 0.5003908 0.8657997 0.748246 0.171595
3.80465 1.376288 1.450463 0 0.5003908 0.8657997 0.748246 0.188115
1.851178 -1.376288 3.041319 0 0.5003908 0.8657997 0.500000 0.277110
5.61773 1.376288 -1.450464 0 0.5003908 -0.8657997 0.251754 0.105515
5.980346 1.376288 -1.450464 0 0.5003908 -0.8657997 0.251754 0.088995
7.933818 -1.376288 -3.041319 0 0.5003908 -0.8657997 0.500000 0.000000
1.851178 -1.376288 3.041319 -0 -1 -0 0.000000 0.445780
7.933818 -1.376288 -3.041319 -0 -1 -0 0.251754 0.722890
7.933818 -1.376288 3.041319 -0 -1 -0 0.000000 0.722890
6.342961 1.376288 -1.087848 0 1 0 0.919148 0.000000
5.980346 1.376288 -1.450464 0 1 0 0.934156 0.016519
5.980346 1.376288 -1.087848 0 1 0 0.919148 0.016519
3.442034 1.376288 -1.450464 0 0.5003908 -0.8657997 0.251754 0.204635
1.851178 -1.376288 -3.041319 0 0.5003908 -0.8657997 0.500000 0.277110
-7.933818 -1.376288 -3.041319 0 0.5003908 -0.8657997 0.500000 0.722890
-7.933818 -1.376288 -3.041319 0 -1 0 0.251754 0.000000
1.851178 -1.376288 -3.041319 0 -1 0 0.251754 0.445780
3.442034 1.376288 -0.3626156 -0.23518 0.9719519 0 0.889131 0.132156
-7.933818 -1.376288 -3.041319 -0.23518 0.9719519 0 1.000000 0.652243
3.442034 1.376288 -5.848706e-07 -0.23518 0.9719519 0 0.874123 0.132156
3.442034 1.376288 1.450463 0 0.5003908 0.8657997 0.748246 0.204634
-7.933818 -1.376288 3.041319 0 0.5003908 0.8657997 0.500000 0.722890
4.892498 1.376288 -1.087848 0 1 0 0.919148 0.066078
4.529882 1.376288 -1.450464 0 1 0 0.934156 0.082597
4.529882 1.376288 -1.087848 0 1 0 0.919148 0.082597
5.255114 1.376288 -0.7252316 0 0.5982473 0.8013115 0.363827 0.772450
5.250839 0.8848629 -0.3583416 0 0.5982473 0.8013115 0.409215 0.772255
5.61773 1.376288 -0.7252316 0 0.5982473 0.8013115 0.363827 0.788970
6.342961 1.376288 0.3626154 0 1 0 0.859115 0.000000
5.980346 1.376288 -5.848706e-07 0 1 0 0.874123 0.016519
5.980346 1.376288 0.3626154 0 1 0 0.859115 0.016519
4.892498 1.376288 0.7252314 0 0.5982469 -0.8013119 0.409215 0.755930
5.071669 0.8848629 0.3583414 0 0.5982469 -0.8013119 0.454603 0.747767
4.892498 0.8848629 0.3583414 0 0.5982469 -0.8013119 0.454603 0.755930
5.61773 1.376288 1.087847 0 1 0 0.829098 0.033039
5.255114 1.376288 0.7252314 0 1 0 0.844106 0.049558
5.255114 1.376288 1.087847 0 1 0 0.829098 0.049558
6.342961 1.376288 1.087847 0 1 0 0.829098 0.000000
5.980346 1.376288 0.7252314 0 1 0 0.844106 0.016519
5.980346 1.376288 1.087847 0 1 0 0.829098 0.016519
4.167266 1.376288 0.3626154 0 1 0 0.859115 0.099117
3.80465 1.376288 -5.848706e-07 0 1 0 0.874123 0.115636
3.80465 1.376288 0.3626154 0 1 0 0.859115 0.115636
4.167266 1.376288 1.087847 0 1 0 0.829098 0.099117
3.80465 1.376288 0.7252314 0 1 0 0.844106 0.115636
3.80465 1.376288 1.087847 0 1 0 0.829098 0.115636
4.892498 1.376288 1.087847 0 1 0 0.829098 0.066078
4.529882 1.376288 0.7252314 0 1 0 0.844106 0.082597
4.529882 1.376288 1.087847 0 1 0 0.829098 0.082597
4.167266 1.376288 -1.087848 0 1 0 0.919148 0.099117
3.80465 1.376288 -1.450464 0 1 0 0.934156 0.115636
3.80465 1.376288 -1.087848 0 1 0 0.919148 0.115636
4.167266 1.376288 -0.3626156 0 1 0 0.889131 0.099117
3.80465 1.376288 -0.7252316 0 1 0 0.904140 0.115636
3.80465 1.376288 -0.3626156 0 1 0 0.889131 0.115636
4.167266 1.376288 -0.3626156 0.8013119 0.5982469 0 0.500000 0.739410
4.534156 0.8848629 -0.3583416 0.8013119 0.5982469 0 0.454603 0.739605
4.167266 1.376288 -0.7252316 0.8013119 0.5982469 0 0.500000 0.722890
5.61773 1.376288 -1.087848 0 1 0 0.919148 0.033039
5.255114 1.376288 -1.450464 0 1 0 0.934156 0.049558
5.255114 1.376288 -1.087848 0 1 0 0.919148 0.049558
5.61773 1.376288 -5.848706e-07 -0.8013115 0.5982473 0 0.545402 0.755930
5.250839 0.8848629 -0.1791706 -0.8013115 0.5982473 0 0.500000 0.764093
5.250839 0.8848629 -5.848706e-07 -0.8013115 0.5982473 0 0.500000 0.755930
6.342961 1.376288 -0.3626156 0 1 0 0.889131 0.000000
5.980346 1.376288 -0.7252316 0 1 0 0.904140 0.016519
5.980346 1.376288 -0.3626156 0 1 0 0.889131 0.016519
5.61773 1.376288 -0.7252316 0 1 0 0.904140 0.033039
5.61773 1.376288 -0.3626156 0 1 0 0.889131 0.033039
5.61773 1.376288 -5.848706e-07 0 1 0 0.874123 0.033039
6.342961 1.376288 -5.848706e-07 0 1 0 0.874123 0.000000
5.250839 0.8848629 0.1791704 -0.8013115 0.5982473 0 0.500000 0.747767
5.61773 1.376288 0.3626154 -0.8013115 0.5982473 0 0.545402 0.739410
4.167266 1.376288 0.3626154 0.8013119 0.5982469 0 0.500000 0.772450
4.534156 0.8848629 0.3583414 0.8013119 0.5982469 0 0.454603 0.772255
4.534156 0.8848629 0.1791704 0.8013119 0.5982469 0 0.454603 0.764093
4.529882 1.376288 0.7252314 0 0.5982473 -0.8013115 0.409215 0.772450
4.534156 0.8848629 0.3583414 0 0.5982473 -0.8013115 0.454603 0.772255
4.167266 1.376288 0.7252314 0 0.5982473 -0.8013115 0.409215 0.788970
4.892498 1.376288 -1.450464 0 1 0 0.934156 0.066078
5.255114 1.376288 -0.7252316 0 1 0 0.904140 0.049558
4.892498 1.376288 -0.7252316 0 1 0 0.904140 0.066078
4.892498 1.376288 -0.7252316 0 0.5982473 0.8013115 0.363827 0.755930
5.071669 0.8848629 -0.3583416 0 0.5982473 0.8013115 0.409215 0.764093
4.713327 0.8848629 -0.3583416 0 0.5982473 0.8013115 0.409215 0.747767
4.892498 0.8848629 -0.3583416 0 0.5982473 0.8013115 0.409215 0.755930
5.61773 1.376288 -0.3626156 -0.8013119 0.5982469 0 0.545402 0.772450
5.250839 0.8848629 -0.3583416 -0.8013119 0.5982469 0 0.500000 0.772255
5.250839 0.8848629 -0.1791706 -0.8013119 0.5982469 0 0.500000 0.764093
3.442034 1.376288 -0.7252316 0 1 0 0.904140 0.132156
3.442034 1.376288 -0.3626156 0 1 0 0.889131 0.132156
3.442034 1.376288 -5.848706e-07 0 1 0 0.874123 0.132156
4.167266 1.376288 -5.848706e-07 0 1 0 0.874123 0.099117
3.442034 1.376288 -1.450464 0 1 0 0.934156 0.132156
3.442034 1.376288 -1.087848 0 1 0 0.919148 0.132156
4.167266 1.376288 -0.7252316 0 1 0 0.904140 0.099117
4.167266 1.376288 0.7252314 0 1 0 0.844106 0.099117
4.529882 1.376288 1.450463 0 1 0 0.814090 0.082597
4.167266 1.376288 1.450463 0 1 0 0.814090 0.099117
4.892498 1.376288 1.450463 0 1 0 0.814090 0.066078
3.442034 1.376288 0.7252314 0 1 0 0.844106 0.132156
3.442034 1.376288 1.087847 0 1 0 0.829098 0.132156
3.80465 1.376288 1.450463 0 1 0 0.814090 0.115636
3.442034 1.376288 1.450463 0 1 0 0.814090 0.132156
3.442034 1.376288 0.3626154 0 1 0 0.859115 0.132156
5.61773 1.376288 0.7252314 0 1 0 0.844106 0.033039
5.980346 1.376288 1.450463 0 1 0 0.814090 0.016519
5.61773 1.376288 1.450463 0 1 0 0.814090 0.033039
6.342961 1.376288 1.450463 0 1 0 0.814090 0.000000
4.892498 1.376288 0.7252314 0 1 0 0.844106 0.066078
5.255114 1.376288 1.450463 0 1 0 0.814090 0.049558
5.255114 1.376288 0.7252314 0 0.5982469 -0.8013119 0.409215 0.739410
5.250839 0.8848629 0.3583414 0 0.5982469 -0.8013119 0.454603 0.739605
4.167266 1.376288 -5.848706e-07 0.8013119 0.5982469 0 0.500000 0.755930
4.534156 0.8848629 -0.1791706 0.8013119 0.5982469 0 0.454603 0.747767
4.167266 1.376288 -5.848706e-07 0.8013115 0.5982473 0 0.500000 0.755930
4.534156 0.8848629 0.1791704 0.8013115 0.5982473 0 0.454603 0.764093
4.534156 0.8848629 -5.848706e-07 0.8013115 0.5982473 0 0.454603 0.755930
5.61773 1.376288 0.3626154 0 1 0 0.859115 0.033039
6.342961 1.376288 0.7252314 0 1 0 0.844106 0.000000
4.529882 1.376288 -0.7252316 0 0.5982473 0.8013115 0.363827 0.739410
4.534156 0.8848629 -0.3583416 0 0.5982473 0.8013115 0.409215 0.739605
5.250839 0.8848629 0.3583414 -0.8013115 0.5982473 0 0.500000 0.739605
5.61773 1.376288 0.7252314 -0.8013115 0.5982473 0 0.545402 0.722890
4.892498 1.376288 0.7252314 0 0.5982473 -0.8013115 0.409215 0.755930
4.713327 0.8848629 0.3583414 0 0.5982473 -0.8013115 0.454603 0.764093
4.167266 1.376288 -1.450464 0 1 0 0.934156 0.099117
4.529882 1.376288 -0.7252316 0 1 0 0.904140 0.082597
5.61773 1.376288 -1.450464 0 1 0 0.934156 0.033039
6.342961 1.376288 -0.7252316 0 1 0 0.904140 0.000000
4.892498 0.8848629 0.1791704 0 1 0 0.341580 0.739215
4.713327 0.8848629 -5.848706e-07 0 1 0 0.348995 0.747377
4.713327 0.8848629 0.1791704 0 1 0 0.341580 0.747377
5.250839 0.8848629 0.1791704 0 1 0 0.341580 0.722890
5.071669 0.8848629 -5.848706e-07 0 1 0 0.348995 0.731053
5.071669 0.8848629 0.1791704 0 1 0 0.341580 0.731053
4.892498 0.8848629 -0.1791706 0 1 0 0.356411 0.739215
4.713327 0.8848629 -0.3583416 0 1 0 0.363827 0.747377
4.713327 0.8848629 -0.1791706 0 1 0 0.356411 0.747377
5.250839 0.8848629 -0.1791706 0 1 0 0.356411 0.722890
5.071669 0.8848629 -0.3583416 0 1 0 0.363827 0.731053
5.071669 0.8848629 -0.1791706 0 1 0 0.356411 0.731053
4.892498 0.8848629 -0.3583416 0 1 0 0.363827 0.739215
4.892498 0.8848629 -5.848706e-07 0 1 0 0.348995 0.739215
5.250839 0.8848629 -5.848706e-07 0 1 0 0.348995 0.722890
4.534156 0.8848629 -0.3583416 0 1 0 0.363827 0.755540
4.534156 0.8848629 -0.1791706 0 1 0 0.356411 0.755540
4.534156 0.8848629 -5.848706e-07 0 1 0 0.348995 0.755540
5.071669 0.8848629 0.3583414 0 1 0 0.334164 0.731053
4.892498 0.8848629 0.3583414 0 1 0 0.334164 0.739215
5.250839 0.8848629 0.3583414 0 1 0 0.334164 0.722890
4.534156 0.8848629 0.1791704 0 1 0 0.341580 0.755540
4.713327 0.8848629 0.3583414 0 1 0 0.334164 0.747377
4.534156 0.8848629 0.3583414 0 1 0 0.334164 0.755540
7.933818 -1.376288 -3.041319 0.8657997 0.5003908 0 0.248117 1.000000
6.342961 1.376288 -5.848706e-07 0.8657997 0.5003908 0 0.000000 0.861445
6.342961 1.376288 -1.450464 0.8657997 0.5003908 0 0.000000 0.927525
6.342961 1.376288 -1.087848 0.8657997 0.5003908 0 0.000000 0.911005
6.342961 1.376288 -0.7252316 0.8657997 0.5003908 0 0.000000 0.894485
6.342961 1.376288 -0.3626156 0.8657997 0.5003908 0 0.000000 0.877965
6.342961 1.376288 1.450463 0.8657997 0.5003908 0 0.000000 0.795366
6.342961 1.376288 0.3626154 0.8657997 0.5003908 0 0.000000 0.844925
7.933818 -1.376288 3.041319 0 0.5003908 0.8657997 0.500000 0.000000
4.892498 1.376288 1.450463 0 0.5003908 0.8657997 0.748246 0.138555
6.342961 1.376288 1.450463 0 0.5003908 0.8657997 0.748246 0.072475
5.980346 1.376288 1.450463 0 0.5003908 0.8657997 0.748246 0.088995
5.61773 1.376288 1.450463 0 0.5003908 0.8657997 0.748246 0.105515
5.255114 1.376288 1.450463 0 0.5003908 0.8657997 0.748246 0.122035
4.529882 1.376288 1.450463 0 0.5003908 0.8657997 0.748246 0.155075
4.892498 1.376288 -1.450464 0 0.5003908 -0.8657997 0.251754 0.138555
3.80465 1.376288 -1.450464 0 0.5003908 -0.8657997 0.251754 0.188115
4.167266 1.376288 -1.450464 0 0.5003908 -0.8657997 0.251754 0.171595
4.529882 1.376288 -1.450464 0 0.5003908 -0.8657997 0.251754 0.155075
6.342961 1.376288 -1.450464 0 0.5003908 -0.8657997 0.251754 0.072475
5.255114 1.376288 -1.450464 0 0.5003908 -0.8657997 0.251754 0.122035
6.342961 1.376288 -1.450464 0 1 0 0.934156 0.000000
-7.933818 -1.376288 3.041319 0 -1 0 0.000000 0.000000
-7.933818 -1.376288 3.041319 -0.23518 0.9719519 0 0.748246 0.652243
3.442034 1.376288 1.450463 -0.23518 0.9719519 0 0.814090 0.132156
3.442034 1.376288 1.087847 -0.23518 0.9719519 0 0.829098 0.132156
3.442034 1.376288 0.7252314 -0.23518 0.9719519 0 0.844106 0.132156
3.442034 1.376288 0.3626154 -0.23518 0.9719519 0 0.859115 0.132156
3.442034 1.376288 -1.450464 -0.23518 0.9719519 0 0.934156 0.132156
3.442034 1.376288 -1.087848 -0.23518 0.9719519 0 0.919148 0.132156
3.442034 1.376288 -0.7252316 -0.23518 0.9719519 0 0.904140 0.132156
5.255114 1.376288 -0.7252316 0 0.5982469 0.8013119 0.363827 0.772450
5.071669 0.8848629 -0.3583416 0 0.5982469 0.8013119 0.409215 0.764093
5.250839 0.8848629 -0.3583416 0 0.5982469 0.8013119 0.409215 0.772255
5.255114 1.376288 0.7252314 0 0.5982473 -0.8013115 0.409215 0.739410
5.071669 0.8848629 0.3583414 0 0.5982473 -0.8013115 0.454603 0.747767
5.61773 1.376288 -0.3626156 -0.8013115 0.5982473 0 0.545402 0.772450
4.167266 1.376288 0.7252314 0.8013119 0.5982469 0 0.500000 0.788970
4.892498 1.376288 -0.7252316 0 0.5982469 0.8013119 0.363827 0.755930
4.892498 0.8848629 -0.3583416 0 0.5982469 0.8013119 0.409215 0.755930
5.61773 1.376288 -0.7252316 -0.8013115 0.5982473 0 0.545402 0.788970
5.250839 0.8848629 -0.3583416 -0.8013115 0.5982473 0 0.500000 0.772255
5.61773 1.376288 0.7252314 0 0.5982473 -0.8013115 0.409215 0.722890
5.250839 0.8848629 0.3583414 0 0.5982473 -0.8013115 0.454603 0.739605
4.534156 0.8848629 -0.1791706 0.8013115 0.5982473 0 0.454603 0.747767
4.167266 1.376288 -0.7252316 0 0.5982473 0.8013115 0.363827 0.722890
5.61773 1.376288 0.3626154 -0.8013119 0.5982469 0 0.545402 0.739410
5.250839 0.8848629 0.1791704 -0.8013119 0.5982469 0 0.500000 0.747767
5.250839 0.8848629 0.3583414 -0.8013119 0.5982469 0 0.500000 0.739605
4.892498 0.8848629 0.3583414 0 0.5982473 -0.8013115 0.454603 0.755930
5.250839 0.8848629 -0.3583416 0 1 0 0.363827 0.722890
3 0 1 2 
3 3 4 5 
3 6 7 8 
3 9 10 11 
3 12 13 14 
3 15 16 17 
3 9 18 19 
3 20 21 22 
3 5 23 24 
3 25 26 27 
3 28 29 30 
3 31 32 33 
3 34 35 36 
3 37 38 39 
3 40 41 42 
3 43 44 45 
3 46 47 48 
3 49 50 51 
3 52 53 54 
3 55 56 57 
3 58 59 60 
3 61 62 63 
3 64 65 66 
3 67 68 69 
3 69 70 71 
3 32 71 72 
3 73 69 32 
3 64 74 75 
3 76 77 78 
3 79 80 81 
3 63 82 25 
3 83 25 84 
3 70 63 83 
3 85 86 28 
3 85 87 88 
3 89 90 91 
3 57 92 93 
3 44 93 94 
3 95 57 44 
3 54 96 97 
3 56 97 92 
3 98 54 56 
3 51 99 46 
3 100 46 101 
3 102 51 100 
3 48 103 104 
3 105 104 106 
3 101 48 105 
3 45 94 107 
3 47 107 103 
3 99 45 47 
3 42 108 37 
3 109 37 110 
3 111 42 109 
3 39 112 49 
3 113 49 102 
3 110 39 113 
3 114 115 35 
3 116 117 58 
3 118 119 120 
3 33 72 121 
3 41 121 108 
3 122 33 41 
3 123 124 87 
3 75 125 126 
3 127 128 79 
3 27 129 52 
3 130 52 98 
3 84 27 130 
3 14 131 61 
3 68 61 70 
3 132 14 68 
3 133 134 135 
3 136 137 138 
3 139 140 141 
3 142 143 144 
3 144 145 139 
3 137 139 146 
3 147 144 137 
3 141 148 149 
3 134 149 150 
3 146 141 134 
3 138 146 133 
3 151 133 152 
3 153 138 151 
3 135 150 154 
3 155 154 156 
3 152 135 155 
3 2 157 158 
3 157 159 160 
3 160 161 157 
3 161 162 157 
3 157 162 158 
3 1 163 2 
3 158 164 2 
3 164 0 2 
3 5 165 166 
3 165 167 168 
3 168 169 165 
3 169 170 165 
3 165 170 166 
3 4 23 5 
3 166 171 5 
3 171 3 5 
3 8 16 172 
3 16 15 173 
3 173 174 16 
3 174 175 16 
3 16 175 172 
3 7 176 8 
3 172 177 8 
3 177 6 8 
3 9 19 10 
3 12 178 13 
3 9 179 18 
3 180 181 182 
3 183 184 180 
3 184 22 180 
3 180 182 183 
3 185 21 186 
3 21 180 22 
3 186 21 187 
3 20 187 21 
3 25 82 26 
3 188 189 190 
3 31 73 32 
3 127 191 192 
3 37 108 38 
3 40 122 41 
3 43 95 44 
3 46 99 47 
3 49 112 50 
3 52 129 53 
3 55 98 56 
3 58 117 59 
3 61 131 62 
3 64 193 65 
3 67 132 68 
3 69 68 70 
3 32 69 71 
3 73 67 69 
3 64 66 74 
3 76 194 77 
3 79 128 80 
3 63 62 82 
3 83 63 25 
3 70 61 63 
3 195 196 189 
3 85 123 87 
3 193 197 198 
3 57 56 92 
3 44 57 93 
3 95 55 57 
3 54 53 96 
3 56 54 97 
3 98 52 54 
3 51 50 99 
3 100 51 46 
3 102 49 51 
3 48 47 103 
3 105 48 104 
3 101 46 48 
3 45 44 94 
3 47 45 107 
3 99 43 45 
3 42 41 108 
3 109 42 37 
3 111 40 42 
3 39 38 112 
3 113 39 49 
3 110 37 39 
3 191 199 200 
3 118 120 201 
3 116 76 78 
3 33 32 72 
3 41 33 121 
3 122 31 33 
3 123 202 124 
3 203 204 205 
3 127 206 128 
3 27 26 129 
3 130 27 52 
3 84 25 27 
3 14 13 131 
3 68 14 61 
3 132 12 14 
3 133 146 134 
3 136 147 137 
3 139 145 140 
3 142 207 143 
3 144 143 145 
3 137 144 139 
3 147 142 144 
3 141 140 148 
3 134 141 149 
3 146 139 141 
3 138 137 146 
3 151 138 133 
3 153 136 138 
3 135 134 150 
3 155 135 154 
3 152 133 135 
