ply
format ascii 1.0
comment VCGLIB generated
element vertex 126
property float x
property float y
property float z
property float nx
property float ny
property float nz
property float texture_u
property float texture_v
element face 68
property list uchar int vertex_indices
end_header
62.2137 -21.73214 62.27601 0 -1 0 0.454529 0.417104
8.627219 -21.73214 62.27601 0 -1 0 0.467752 0.400502
8.62721 -21.73214 54.963 0 -1 0 0.544783 0.608665
62.21373 -21.73214 54.96299 0 -1 0 0.446398 0.646090
62.21367 21.72025 62.27601 0 1 0 0.395779 0.349907
62.21371 21.72025 54.96299 0 1 0 0.000101 0.379372
-62.29318 21.72025 54.963 0 1 0 0.389501 0.000101
-62.29324 21.72025 62.27602 0 1 0 0.448052 0.272558
8.627219 -21.73214 62.27601 4.534011e-08 -5.591445e-08 1 0.467752 0.400502
62.2137 -21.73214 62.27601 1.779692e-08 -2.194756e-08 1 0.454529 0.417104
62.21367 21.72025 62.27601 3.226262e-08 -5.224878e-09 1 0.395779 0.349907
-62.29324 21.72025 62.27602 1.295103e-08 6.448729e-08 1 0.448052 0.272558
-62.29321 -21.73214 62.27602 5.30466e-08 6.584277e-08 1 0.521288 0.324972
-8.359053 -21.73214 62.27602 -9.683415e-09 -1.20193e-08 1 0.491297 0.368602
-8.359063 -0.5113947 62.27602 -8.280839e-09 6.570492e-08 1 0.563495 0.426054
8.627213 -0.5113947 62.27602 4.796717e-08 -2.982425e-08 1 0.552440 0.443318
0.1340757 5.964198 62.27602 3.140733e-08 1.040735e-07 1 0.567798 0.441100
-62.29321 -21.73214 62.27602 -1 -3.072663e-07 -4.955496e-06 0.521288 0.324972
-62.29324 21.72025 62.27602 -1 -3.072663e-07 -4.955496e-06 0.448052 0.272558
-62.29318 21.72025 54.963 -1 -3.072663e-07 -4.955496e-06 0.389501 0.000101
-62.29319 -21.73214 54.963 -1 -3.072663e-07 -4.955496e-06 0.762548 0.220703
62.21367 21.72025 62.27601 1 6.14532e-07 4.173048e-06 0.395779 0.349907
62.2137 -21.73214 62.27601 1 6.14532e-07 4.173048e-06 0.454529 0.417104
62.21373 -21.73214 54.96299 1 6.14532e-07 4.173048e-06 0.446398 0.646090
62.21371 21.72025 54.96299 1 6.14532e-07 4.173048e-06 0.000101 0.379372
62.2137 -21.73214 -54.9469 0 -1 0 0.634797 0.293679
-62.2932 -21.73214 -54.9469 0 -1 0 0.785042 0.293679
-62.29319 -21.73214 -62.25992 0 -1 0 0.785042 0.352415
62.21373 -21.73214 -62.25992 0 -1 0 0.634797 0.352415
62.21368 21.72025 -54.9469 0 1 0 0.785042 0.058736
62.21371 21.72025 -62.25992 0 1 0 0.785042 0.000000
-62.29318 21.72025 -62.25992 0 1 0 0.935288 0.000000
-62.29324 21.72025 -54.9469 0 1 0 0.935288 0.058736
62.2137 -21.73214 -54.9469 0 0 1 0.785042 0.176208
62.21368 21.72025 -54.9469 0 0 1 0.785042 0.234943
-62.29324 21.72025 -54.9469 0 0 1 0.634797 0.234943
-62.2932 -21.73214 -54.9469 0 0 1 0.634797 0.176208
-62.2932 -21.73214 -54.9469 -1 -3.07266e-07 -4.955495e-06 0.785042 0.176208
-62.29324 21.72025 -54.9469 -1 -3.07266e-07 -4.955495e-06 0.934916 0.176208
-62.29318 21.72025 -62.25992 -1 -3.07266e-07 -4.955495e-06 0.934916 0.234943
-62.29319 -21.73214 -62.25992 -1 -3.07266e-07 -4.955495e-06 0.785042 0.234943
-62.29319 -21.73214 -62.25992 0 0 -1 0.785042 0.058736
-62.29318 21.72025 -62.25992 0 0 -1 0.634797 0.058736
62.21371 21.72025 -62.25992 0 0 -1 0.634797 0.000000
62.21373 -21.73214 -62.25992 0 0 -1 0.785042 0.000000
62.21368 21.72025 -54.9469 1 5.706369e-07 4.433864e-06 0.934916 0.293679
62.2137 -21.73214 -54.9469 1 5.706369e-07 4.433864e-06 0.785042 0.293679
62.21373 -21.73214 -62.25992 1 5.706369e-07 4.433864e-06 0.785042 0.234943
62.21371 21.72025 -62.25992 1 5.706369e-07 4.433864e-06 0.934916 0.234943
-69.5771 -21.72441 62.23094 -5.793461e-14 -1 3.063843e-08 0.634797 0.000000
-69.5771 -21.72441 -62.27598 -5.793461e-14 -1 3.063843e-08 0.634797 1.000000
-62.26408 -21.72441 -62.27598 -5.793461e-14 -1 3.063843e-08 0.625972 1.000000
-62.26409 -21.72441 62.23096 -5.793461e-14 -1 3.063843e-08 0.625972 0.000000
-69.5771 21.72797 62.23091 2.647012e-13 1 -4.595766e-08 0.617147 1.000000
-62.26409 21.72797 62.23094 2.647012e-13 1 -4.595766e-08 0.608322 1.000000
-62.26408 21.72797 -62.27597 2.647012e-13 1 -4.595766e-08 0.608322 0.000000
-69.5771 21.72797 -62.27602 2.647012e-13 1 -4.595766e-08 0.617147 0.000000
-69.5771 -21.72441 62.23094 -1 -4.572587e-14 -6.127686e-08 0.299749 1.000000
-69.5771 21.72797 62.23091 -1 -4.572587e-14 -6.127686e-08 0.149875 1.000000
-69.5771 21.72797 -62.27602 -1 -4.572587e-14 -6.127686e-08 0.149874 0.000000
-69.5771 -21.72441 -62.27598 -1 -4.572587e-14 -6.127686e-08 0.299748 0.000000
-69.5771 -21.72441 -62.27598 3.651417e-06 -2.633709e-07 -1 0.935288 0.058736
-69.5771 21.72797 -62.27602 3.651417e-06 -2.633709e-07 -1 0.935288 0.000000
-62.26408 21.72797 -62.27597 3.651417e-06 -2.633709e-07 -1 0.944112 0.000000
-62.26408 -21.72441 -62.27598 3.651417e-06 -2.633709e-07 -1 0.944112 0.058736
-62.26408 -21.72441 -62.27598 1 -5.379517e-15 9.19153e-08 0.449623 1.000000
-62.26408 21.72797 -62.27597 1 -5.379517e-15 9.19153e-08 0.299749 1.000000
-62.26409 21.72797 62.23094 1 -5.379517e-15 9.19153e-08 0.299749 0.000000
-62.26409 -21.72441 62.23096 1 -5.379517e-15 9.19153e-08 0.449623 0.000000
-69.5771 21.72797 62.23091 -4.17305e-06 5.486893e-07 1 0.944112 0.058736
-69.5771 -21.72441 62.23094 -4.17305e-06 5.486893e-07 1 0.944112 0.000000
-62.26409 -21.72441 62.23096 -4.17305e-06 5.486893e-07 1 0.952937 0.000000
-62.26409 21.72797 62.23094 -4.17305e-06 5.486893e-07 1 0.952937 0.058736
62.26408 -21.72025 62.23094 -8.989846e-14 -1 3.063843e-08 0.625972 0.000000
62.26408 -21.72025 -62.27598 -8.989846e-14 -1 3.063843e-08 0.625972 1.000000
69.5771 -21.72025 -62.27597 -8.989846e-14 -1 3.063843e-08 0.617147 1.000000
69.5771 -21.72025 62.23096 -8.989846e-14 -1 3.063843e-08 0.617147 0.000000
62.26408 21.73214 62.23091 9.189622e-14 1 -1.531922e-08 0.608322 1.000000
69.5771 21.73214 62.23095 9.189622e-14 1 -1.531922e-08 0.599497 1.000000
69.5771 21.73214 -62.27595 9.189622e-14 1 -1.531922e-08 0.599497 0.000000
62.26408 21.73214 -62.276 9.189622e-14 1 -1.531922e-08 0.608322 0.000000
62.26408 -21.72025 62.23094 -1 -3.563928e-14 -6.127687e-08 0.149874 1.000000
62.26408 21.73214 62.23091 -1 -3.563928e-14 -6.127687e-08 0.000000 1.000000
62.26408 21.73214 -62.276 -1 -3.563928e-14 -6.127687e-08 0.000000 0.000000
62.26408 -21.72025 -62.27598 -1 -3.563928e-14 -6.127687e-08 0.149874 0.000000
62.26408 -21.72025 -62.27598 4.694677e-06 -8.779028e-08 -1 0.952566 0.176208
62.26408 21.73214 -62.276 4.694677e-06 -8.779028e-08 -1 0.952566 0.234943
69.5771 21.73214 -62.27595 4.694677e-06 -8.779028e-08 -1 0.943741 0.234943
69.5771 -21.72025 -62.27597 4.694677e-06 -8.779028e-08 -1 0.943741 0.176208
69.5771 -21.72025 -62.27597 1 5.379512e-15 6.127688e-08 0.599497 1.000000
69.5771 21.73214 -62.27595 1 5.379512e-15 6.127688e-08 0.449623 1.000000
69.5771 21.73214 62.23095 1 5.379512e-15 6.127688e-08 0.449623 0.000000
69.5771 -21.72025 62.23096 1 5.379512e-15 6.127688e-08 0.599497 0.000000
62.26408 21.73214 62.23091 -4.23825e-06 5.596631e-07 1 0.934916 0.234943
62.26408 -21.72025 62.23094 -4.23825e-06 5.596631e-07 1 0.934916 0.176208
69.5771 -21.72025 62.23096 -4.23825e-06 5.596631e-07 1 0.943741 0.176208
69.5771 21.73214 62.23095 -4.23825e-06 5.596631e-07 1 0.943741 0.234943
-8.359062 -0.5113947 54.963 1 2.471737e-07 -5.86835e-07 0.705895 0.500968
-8.359063 -0.5113947 62.27602 1 2.471737e-07 -5.86835e-07 0.563495 0.426054
-8.359053 -21.73214 62.27602 1 2.471737e-07 -5.86835e-07 0.491297 0.368602
-8.359062 -21.73214 54.963 1 2.471737e-07 -5.86835e-07 0.762548 0.357552
-8.359062 -21.73214 54.963 0 -1 0 0.762548 0.357552
-8.359053 -21.73214 62.27602 0 -1 0 0.491297 0.368602
-62.29321 -21.73214 62.27602 0 -1 0 0.521288 0.324972
-62.29319 -21.73214 54.963 0 -1 0 0.762548 0.220703
8.627213 -0.5113947 62.27602 -1 -4.494074e-08 6.52039e-07 0.552440 0.443318
8.627213 -0.5113947 54.963 -1 -4.494074e-08 6.52039e-07 0.652593 0.560490
8.62721 -21.73214 54.963 -1 -4.494074e-08 6.52039e-07 0.544783 0.608665
8.627219 -21.73214 62.27601 -1 -4.494074e-08 6.52039e-07 0.467752 0.400502
8.627213 -0.5113947 54.963 -0.6063175 -0.7952227 9.768186e-08 0.652593 0.560490
8.627213 -0.5113947 62.27602 -0.6063175 -0.7952227 9.768186e-08 0.552440 0.443318
0.1340757 5.964198 62.27602 -0.6063175 -0.7952227 9.768186e-08 0.567798 0.441100
0.1340747 5.964198 54.963 -0.6063175 -0.7952227 9.768186e-08 0.677722 0.537333
-8.359063 -0.5113947 62.27602 0.6063175 -0.7952227 -5.814761e-08 0.563495 0.426054
-8.359062 -0.5113947 54.963 0.6063175 -0.7952227 -5.814761e-08 0.705895 0.500968
0.1340747 5.964198 54.963 0.6063175 -0.7952227 -5.814761e-08 0.677722 0.537333
0.1340757 5.964198 62.27602 0.6063175 -0.7952227 -5.814761e-08 0.567798 0.441100
-8.359062 -21.73214 54.963 -9.94624e-09 -1.234551e-08 -1 0.000101 0.953167
-62.29319 -21.73214 54.963 -1.989248e-08 -2.469102e-08 -1 0.022130 0.862249
-62.29318 21.72025 54.963 -2.080799e-08 -3.864855e-08 -1 0.022130 0.646291
62.21371 21.72025 54.96299 -3.101622e-08 -1.660829e-08 -1 0.238088 0.646291
62.21373 -21.73214 54.96299 -3.781843e-08 -1.992054e-14 -1 0.238088 0.862249
8.62721 -21.73214 54.963 -3.781844e-08 -6.76105e-15 -1 0.260466 0.952461
8.627213 -0.5113947 54.963 -3.115508e-08 -1.606119e-08 -1 0.158101 0.977853
-8.359062 -0.5113947 54.963 -1.97016e-08 -4.779621e-08 -1 0.102602 0.978004
0.1340747 5.964198 54.963 -2.927706e-08 -5.400853e-08 -1 0.130411 0.999899
3 0 1 2 
3 0 2 3 
3 4 5 6 
3 4 6 7 
3 8 9 10 
3 11 12 13 
3 11 13 14 
3 15 8 10 
3 11 14 16 
3 16 15 10 
3 10 11 16 
3 17 18 19 
3 17 19 20 
3 21 22 23 
3 21 23 24 
3 25 26 27 
3 25 27 28 
3 29 30 31 
3 29 31 32 
3 33 34 35 
3 33 35 36 
3 37 38 39 
3 37 39 40 
3 41 42 43 
3 41 43 44 
3 45 46 47 
3 45 47 48 
3 49 50 51 
3 49 51 52 
3 53 54 55 
3 53 55 56 
3 57 58 59 
3 57 59 60 
3 61 62 63 
3 61 63 64 
3 65 66 67 
3 65 67 68 
3 69 70 71 
3 69 71 72 
3 73 74 75 
3 73 75 76 
3 77 78 79 
3 77 79 80 
3 81 82 83 
3 81 83 84 
3 85 86 87 
3 85 87 88 
3 89 90 91 
3 89 91 92 
3 93 94 95 
3 93 95 96 
3 97 98 99 
3 97 99 100 
3 101 102 103 
3 101 103 104 
3 105 106 107 
3 105 107 108 
3 109 110 111 
3 109 111 112 
3 113 114 115 
3 113 115 116 
3 117 118 119 
3 120 121 122 
3 120 122 123 
3 124 117 119 
3 120 123 125 
3 125 124 119 
3 119 120 125 
