ply
format ascii 1.0
comment VCGLIB generated
element vertex 120
property float x
property float y
property float z
property float nx
property float ny
property float nz
property float texture_u
property float texture_v
element face 64
property list uchar int vertex_indices
end_header
56.52628 -30.32311 56.58289 0 -100 0 0.000000 1.000000
18.15803 -30.32311 56.58289 0 -100 0 0.000000 0.855005
18.15803 -30.32311 49.93842 0 -100 0 0.021918 0.855005
56.52631 -30.32311 49.93842 0 -100 0 0.021918 1.000000
56.52626 30.30653 56.58289 0 100 0 0.734245 0.427503
56.52629 30.30653 49.93842 0 100 0 0.756163 0.427502
-56.59848 30.30653 49.93842 0 100 0 0.756163 0.855005
-56.59854 30.30653 56.58289 0 100 0 0.734245 0.855005
18.15803 -30.32311 56.58289 0 0 100 0.600000 0.282508
56.52628 -30.32311 56.58289 0 0 100 0.600000 0.427502
56.52626 30.30653 56.58289 0 0 100 0.400000 0.427502
-56.59854 30.30653 56.58289 0 0 100 0.400000 0.000000
-56.59851 -30.32311 56.58289 0 0 100 0.600000 0.000000
-16.8676 -30.32311 56.58289 0 0 100 0.600000 0.150145
-16.8676 16.14668 56.58289 0 0 100 0.446709 0.150145
18.15804 16.14668 56.58289 0 0 100 0.446709 0.282508
-56.59851 -30.32311 56.58289 -100 -7.864764e-06 -0.0005023511 0.646572 0.656624
-56.59854 30.30653 56.58289 -100 -7.864764e-06 -0.0005023511 0.646572 0.885745
-56.59848 30.30653 49.93842 -100 -7.864764e-06 -0.0005023511 0.624654 0.885745
-56.5985 -30.32311 49.93843 -100 -7.864764e-06 -0.0005023511 0.624654 0.656624
-16.8676 -30.32311 49.93842 -1.200167e-05 -7.864749e-06 -100 0.200000 0.704861
-56.5985 -30.32311 49.93843 -2.400334e-05 -1.57295e-05 -100 0.200000 0.855005
-56.59848 30.30653 49.93842 -8.001112e-06 -5.243166e-06 -100 0.000000 0.855005
56.52629 30.30653 49.93842 0 0 -100 0.000000 0.427503
56.52631 -30.32311 49.93842 0 0 -100 0.200000 0.427503
18.15803 -30.32311 49.93842 0 0 -100 0.200000 0.572497
18.15804 16.14668 49.93842 0 0 -100 0.046709 0.572497
-16.8676 16.14668 49.93842 0 0 -100 0.046709 0.704861
56.52626 30.30653 56.58289 100 3.34252e-05 0.0004485277 0.646572 0.885745
56.52628 -30.32311 56.58289 100 3.34252e-05 0.0004485277 0.646572 0.656624
56.52631 -30.32311 49.93842 100 3.34252e-05 0.0004485277 0.668490 0.656624
56.52629 30.30653 49.93842 100 3.34252e-05 0.0004485277 0.668490 0.885745
56.52628 -30.32312 -49.92379 0 -100 0 0.668490 0.855005
-56.5985 -30.32312 -49.92379 0 -100 0 0.668490 0.427502
-56.59848 -30.32312 -56.56828 0 -100 0 0.690409 0.427503
56.52631 -30.32312 -56.56828 0 -100 0 0.690409 0.855005
56.52626 30.30653 -49.92379 0 100 0 0.712327 0.427503
56.52629 30.30653 -56.56828 0 100 0 0.734245 0.427502
-56.59848 30.30653 -56.56828 0 100 0 0.734245 0.855005
-56.59854 30.30653 -49.92379 0 100 0 0.712327 0.855005
56.52628 -30.32312 -49.92379 0 0 100 0.800000 0.427502
56.52626 30.30653 -49.92379 0 0 100 0.600000 0.427502
-56.59854 30.30653 -49.92379 0 0 100 0.600000 0.000000
-56.5985 -30.32312 -49.92379 0 0 100 0.800000 0.000000
-56.5985 -30.32312 -49.92379 -100 -3.145901e-05 -0.0005741151 0.646572 0.427502
-56.59854 30.30653 -49.92379 -100 -3.145901e-05 -0.0005741151 0.646572 0.656624
-56.59848 30.30653 -56.56828 -100 -3.145901e-05 -0.0005741151 0.624654 0.656624
-56.59848 -30.32312 -56.56828 -100 -3.145901e-05 -0.0005741151 0.624654 0.427502
-56.59848 -30.32312 -56.56828 0 0 -100 1.000000 0.427502
-56.59848 30.30653 -56.56828 0 0 -100 0.800000 0.427502
56.52629 30.30653 -56.56828 0 0 -100 0.800000 0.000000
56.52631 -30.32312 -56.56828 0 0 -100 1.000000 0.000000
56.52626 30.30653 -49.92379 100 3.34252e-05 0.0004485275 0.821918 0.885745
56.52628 -30.32312 -49.92379 100 3.34252e-05 0.0004485275 0.821918 0.656624
56.52631 -30.32312 -56.56828 100 3.34252e-05 0.0004485275 0.843837 0.656624
56.52629 30.30653 -56.56828 100 3.34252e-05 0.0004485275 0.843837 0.885745
-63.21655 -30.31233 56.54193 -2.216738e-11 -100 8.825455e-06 0.800000 0.427503
-63.21652 -30.31234 -56.58286 -2.216738e-11 -100 8.825455e-06 0.800000 0.855005
-56.57204 -30.31234 -56.58286 -2.216738e-11 -100 8.825455e-06 0.778082 0.855005
-56.57207 -30.31233 56.54197 -2.216738e-11 -100 8.825455e-06 0.778082 0.427502
-63.21655 30.31732 56.54192 0 100 0 0.712327 0.855005
-56.57207 30.31732 56.54195 0 100 0 0.690409 0.855005
-56.57204 30.31732 -56.58284 0 100 0 0.690409 0.427503
-63.21652 30.31732 -56.58289 0 100 0 0.712327 0.427502
-63.21655 -30.31233 56.54193 -100 -7.956252e-12 -1.686057e-05 0.200000 0.427503
-63.21655 30.31732 56.54192 -100 -7.956252e-12 -1.686057e-05 0.400000 0.427503
-63.21652 30.31732 -56.58289 -100 -7.956252e-12 -1.686057e-05 0.400000 0.855005
-63.21652 -30.31234 -56.58286 -100 -7.956252e-12 -1.686057e-05 0.200000 0.855005
-63.21652 -30.31234 -56.58286 0.0003947044 -1.966188e-05 -100 0.646572 0.656624
-63.21652 30.31732 -56.58289 0.0003947044 -1.966188e-05 -100 0.646572 0.427503
-56.57204 30.31732 -56.58284 0.0003947044 -1.966188e-05 -100 0.668490 0.427502
-56.57204 -30.31234 -56.58286 0.0003947044 -1.966188e-05 -100 0.668490 0.656624
-56.57204 -30.31234 -56.58286 100 6.630207e-13 1.686057e-05 0.400000 0.427502
-56.57204 30.31732 -56.58284 100 6.630207e-13 1.686057e-05 0.200000 0.427502
-56.57207 30.31732 56.54195 100 6.630207e-13 1.686057e-05 0.200000 0.000000
-56.57207 -30.31233 56.54197 100 6.630207e-13 1.686057e-05 0.400000 0.000000
-63.21655 30.31732 56.54192 -0.0005023511 3.145901e-05 100 0.624654 0.656624
-63.21655 -30.31233 56.54193 -0.0005023511 3.145901e-05 100 0.624654 0.885745
-56.57207 -30.31233 56.54197 -0.0005023511 3.145901e-05 100 0.602735 0.885745
-56.57207 30.31732 56.54195 -0.0005023511 3.145901e-05 100 0.602735 0.656624
56.57206 -30.30652 56.54195 -2.476696e-11 -100 8.825455e-06 0.821918 0.427503
56.57207 -30.30653 -56.58286 -2.476696e-11 -100 8.825455e-06 0.821918 0.855005
63.21655 -30.30653 -56.58284 -2.476696e-11 -100 8.825455e-06 0.800000 0.855005
63.21653 -30.30652 56.54197 -2.476696e-11 -100 8.825455e-06 0.800000 0.427502
56.57206 30.32312 56.54192 5.142453e-11 100 -8.430286e-06 0.778082 0.855005
63.21653 30.32312 56.54195 5.142453e-11 100 -8.430286e-06 0.756163 0.855005
63.21655 30.32311 -56.58283 5.142453e-11 100 -8.430286e-06 0.756163 0.427503
56.57207 30.32311 -56.58289 5.142453e-11 100 -8.430286e-06 0.778082 0.427502
56.57206 -30.30652 56.54195 -100 -3.646616e-12 -8.430286e-06 0.200000 0.427503
56.57206 30.32312 56.54192 -100 -3.646616e-12 -8.430286e-06 0.000000 0.427502
56.57207 30.32311 -56.58289 -100 -3.646616e-12 -8.430286e-06 0.000000 0.000000
56.57207 -30.30653 -56.58286 -100 -3.646616e-12 -8.430286e-06 0.200000 0.000000
56.57207 -30.30653 -56.58286 0.0005023509 -1.572951e-05 -100 0.843837 0.427502
56.57207 30.32311 -56.58289 0.0005023509 -1.572951e-05 -100 0.843837 0.656624
63.21655 30.32311 -56.58283 0.0005023509 -1.572951e-05 -100 0.821918 0.656624
63.21655 -30.30653 -56.58284 0.0005023509 -1.572951e-05 -100 0.821918 0.427502
63.21655 -30.30653 -56.58284 100 6.630207e-13 8.430286e-06 0.400000 0.427502
63.21655 30.32311 -56.58283 100 6.630207e-13 8.430286e-06 0.600000 0.427502
63.21653 30.32312 56.54195 100 6.630207e-13 8.430286e-06 0.600000 0.855005
63.21653 -30.30652 56.54197 100 6.630207e-13 8.430286e-06 0.400000 0.855005
56.57206 30.32312 56.54192 -0.0003947043 4.325615e-05 100 0.602735 0.656624
56.57206 -30.30652 56.54195 -0.0003947043 4.325615e-05 100 0.602735 0.427502
63.21653 -30.30652 56.54197 -0.0003947043 4.325615e-05 100 0.624654 0.427503
63.21653 30.32312 56.54195 -0.0003947043 4.325615e-05 100 0.624654 0.656624
18.15804 16.14668 56.58289 -100 2.308777e-05 0 0.865755 0.603113
18.15804 16.14668 49.93842 -100 2.308777e-05 0 0.843837 0.603113
18.15803 -30.32311 49.93842 -100 2.308777e-05 0 0.843837 0.427502
18.15803 -30.32311 56.58289 -100 2.308777e-05 0 0.865755 0.427502
-16.8676 16.14668 49.93842 100 0 0 0.865755 0.778724
-16.8676 16.14668 56.58289 100 0 0 0.843837 0.778724
-16.8676 -30.32311 56.58289 100 0 0 0.843837 0.603113
-16.8676 -30.32311 49.93842 100 0 0 0.865755 0.603113
-16.8676 -30.32311 49.93842 0 -100 0 0.865755 0.928869
-16.8676 -30.32311 56.58289 0 -100 0 0.843837 0.928869
-56.59851 -30.32311 56.58289 0 -100 0 0.843837 0.778724
-56.5985 -30.32311 49.93843 0 -100 0 0.865755 0.778724
18.15804 16.14668 49.93842 0 -100 0 0.043837 0.987368
18.15804 16.14668 56.58289 0 -100 0 0.021918 0.987368
-16.8676 16.14668 56.58289 0 -100 0 0.021918 0.855005
-16.8676 16.14668 49.93842 0 -100 0 0.043836 0.855005
3 0 1 2 
3 0 2 3 
3 4 5 6 
3 4 6 7 
3 8 9 10 
3 11 12 13 
3 11 13 14 
3 15 8 10 
3 11 14 15 
3 10 11 15 
3 16 17 18 
3 16 18 19 
3 20 21 22 
3 23 24 25 
3 23 25 26 
3 27 20 22 
3 23 26 27 
3 22 23 27 
3 28 29 30 
3 28 30 31 
3 32 33 34 
3 32 34 35 
3 36 37 38 
3 36 38 39 
3 40 41 42 
3 40 42 43 
3 44 45 46 
3 44 46 47 
3 48 49 50 
3 48 50 51 
3 52 53 54 
3 52 54 55 
3 56 57 58 
3 56 58 59 
3 60 61 62 
3 60 62 63 
3 64 65 66 
3 64 66 67 
3 68 69 70 
3 68 70 71 
3 72 73 74 
3 72 74 75 
3 76 77 78 
3 76 78 79 
3 80 81 82 
3 80 82 83 
3 84 85 86 
3 84 86 87 
3 88 89 90 
3 88 90 91 
3 92 93 94 
3 92 94 95 
3 96 97 98 
3 96 98 99 
3 100 101 102 
3 100 102 103 
3 104 105 106 
3 104 106 107 
3 108 109 110 
3 108 110 111 
3 112 113 114 
3 112 114 115 
3 116 117 118 
3 116 118 119 
