ply
format ascii 1.0
comment VCGLIB generated
element vertex 477
property float x
property float y
property float z
property float nx
property float ny
property float nz
property float texture_u
property float texture_v
element face 618
property list uchar int vertex_indices
end_header
-0.160899 0.0248865 0.0947825 -0.671478 0.7306848 0.1233578 0.535418 0.577458
0.160861 0.0248865 0.0947825 0.671478 0.7306848 0.1233578 0.535418 0.002678
-0.15787 0.0248865 -0.1178775 0 0.5857843 -0.810467 0.915306 0.572047
-0.160899 -0.0248865 0.0947825 -0.6722122 -0.7304732 0.120581 0.381856 0.579455
-0.160899 -0.0248865 -0.1148485 -0.727552 -0.5942731 -0.3427939 0.007410 0.579455
-0.155164 -0.0248865 0.0947825 0 -0.9866509 0.1628499 0.381856 0.569211
0.160861 -0.0248865 0.0947825 0.6722122 -0.7304732 0.120581 0.381856 0.004723
-0.15787 0.0248865 -0.1178775 0 0.5857843 -0.810467 0.007466 0.946548
0.157832 0.0214535 -0.1172425 0.2881942 -0.6921487 -0.6617208 0.577251 0.952744
-0.15787 0.0214535 -0.1172425 -0.2881942 -0.6921487 -0.6617208 0.007466 0.952744
-0.15787 0.0248865 -0.1178775 -0.8454742 -0.5157443 -0.1384963 0.007466 0.946548
0.157832 0.0248865 -0.1178775 0.3034187 0.5653319 -0.7670313 0.577251 0.946548
0.160861 0.0248865 -0.1148485 0.7256943 0.6008079 -0.3352577 0.604652 0.701262
0.160861 0.0248865 0.0947825 0.671478 0.7306848 0.1233578 0.978418 0.701262
0.160861 0.0214535 -0.1142135 0.7106939 -0.6537452 -0.2598682 0.605784 0.707383
0.160861 0.0214535 0.0954175 0.7411793 -0.6642416 -0.09714096 0.979550 0.707383
0.156931 0.0214535 0.1092195 -0.5360117 0.4281558 0.727581 0.496835 0.009511
0.160261 0.0214535 0.1092195 0.5177909 0.4311775 0.7389037 0.496835 0.003179
0.156961 0.0243945 0.1074955 -0.4458828 0.6674516 0.5964034 0.502287 0.009464
0.16029 0.0243945 0.1074955 0.4462242 0.6664526 0.5972646 0.502286 0.003132
-0.160899 0.0214535 0.1078875 -0.9735536 0.1154836 0.1971218 0.498277 0.635757
-0.160899 0.0248865 0.1058755 -0.6824784 0.7126924 0.1621505 0.501864 0.629636
-0.160899 0.0214535 0.1056065 -0.8717803 -0.4664853 -0.1496353 0.502344 0.635757
-0.160899 0.0248865 0.1034895 -0.651764 0.7309913 -0.2021274 0.506120 0.629636
0.158174 -0.0175265 -0.1124385 0.7150923 0.1390446 -0.6850618 0.587254 0.895612
-0.157787 -0.0175265 -0.1126515 -0.7146453 0.1282123 -0.6876364 0.020790 0.895614
-0.157787 -0.009724502 -0.1114715 -0.7157069 0.07767183 -0.6940683 0.020791 0.881608
0.158174 -0.009724502 -0.1111275 0.7209015 0.07462043 -0.6890085 0.587255 0.881605
0.160861 -0.009724502 0.1148185 0.9713833 -0.0838958 0.2222071 0.468718 0.690014
0.160861 -0.0175265 0.1110555 0.9673442 -0.1342241 0.2150095 0.462009 0.703924
0.160861 -0.009724502 0.1123505 0.7333766 0.2249871 -0.6415135 0.464319 0.690015
0.160861 -0.0175265 0.1085795 0.6602566 0.370597 -0.6532373 0.457596 0.703926
-0.160328 -0.0175265 0.1123865 -0.5170235 -0.4284879 0.7410026 0.423095 0.612787
-0.155734 -0.0175265 0.1123865 0.5170235 -0.4284879 0.7410026 0.423094 0.604051
-0.155734 -0.009724502 0.1161495 0.5256689 -0.2766904 0.8044344 0.438216 0.604032
-0.160328 -0.009724502 0.1161495 -0.5256689 -0.2766904 0.8044344 0.438217 0.612767
0.158174 -0.002155501 -0.1107535 0.7175996 0.003082076 -0.6964491 0.587255 0.868030
-0.157787 -0.002155501 -0.1109185 -0.7172313 0.01922744 -0.6965699 0.020791 0.868031
-0.157787 0.006677497 -0.1110745 -0.7236413 -0.06201548 -0.6873844 0.020791 0.852198
0.158174 0.006677497 -0.1111175 0.7216287 -0.07239188 -0.6884848 0.587255 0.852200
0.160861 -0.002155501 0.1140785 0.7556843 0.01242125 -0.6548183 0.467399 0.676523
0.160861 0.006677497 0.1146915 0.9745427 0.06003159 0.2160157 0.468492 0.660777
0.160861 -0.002155501 0.1165455 0.9714449 -0.002380024 0.2372534 0.471798 0.676522
0.160861 0.006677497 0.1122245 0.7002928 -0.2125045 -0.6814924 0.464093 0.660778
-0.155734 -0.002155501 0.1178775 0.5184889 -0.007294139 0.8550533 0.452732 0.604023
-0.155734 0.006677497 0.1160235 0.5368847 0.2168661 0.8153061 0.469368 0.604032
-0.160328 -0.002155501 0.1178775 -0.5184889 -0.007294139 0.8550533 0.452733 0.612758
-0.160328 0.006677497 0.1160235 -0.5368847 0.2168661 0.8153061 0.469369 0.612768
-0.155164 0.0248865 0.1058755 0.1252512 0.9269629 0.3536271 0.515601 0.567213
-0.160899 0.0248865 0.1034895 -0.651764 0.7309913 -0.2021274 0.519865 0.577458
-0.160899 0.0248865 0.1058755 -0.6824784 0.7126924 0.1621505 0.515601 0.577458
-0.097702 0.0248865 0.1058755 -0.1252512 0.9269629 0.3536271 0.515601 0.464564
0.016449 0.0248865 0.1058755 -0.1252512 0.9269629 0.3536271 0.515601 0.260650
0.160861 0.0248865 0.1034895 0.6482384 0.7339078 -0.2028949 0.519865 0.002678
0.079676 0.0248865 0.1058755 0.1252512 0.9269629 0.3536271 0.515601 0.147705
0.15639 0.0248865 0.1058755 -0.1252512 0.9269629 0.3536271 0.515601 0.010665
0.160861 0.0248865 0.1058755 0.6800084 0.7146177 0.1640431 0.515601 0.002678
-0.034565 0.0248865 0.1058755 0.1252512 0.9269629 0.3536271 0.515601 0.351780
0.022523 0.0248865 0.1058755 0.1252491 0.9269772 0.3535901 0.515601 0.249800
-0.040638 0.0248865 0.1058755 -0.1252499 0.926953 0.3536533 0.515601 0.362628
-0.091086 0.0248865 0.1058755 0.1252512 0.9269629 0.3536271 0.515601 0.452747
0.073504 0.0248865 0.1058755 -0.1252512 0.9269629 0.3536271 0.515601 0.158730
0.15639 -0.0248865 0.1058755 -0.1133498 -0.9378657 0.3279631 0.401671 0.012709
0.160861 -0.0248865 0.1034895 0.6527169 -0.7312431 -0.1981014 0.397408 0.004723
0.160861 -0.0248865 0.1058755 0.6832348 -0.7147916 0.1492087 0.401671 0.004723
0.079676 -0.0248865 0.1058755 0.1133498 -0.9378657 0.3279631 0.401671 0.149738
0.016449 -0.0248865 0.1058755 -0.1133498 -0.9378657 0.3279631 0.401671 0.262674
-0.155164 -0.0248865 0.1034895 0 -0.965206 -0.2614906 0.397408 0.569211
-0.097702 -0.0248865 0.1058755 -0.1133487 -0.9378565 0.3279899 0.401671 0.466571
-0.155164 -0.0248865 0.1058755 0.1133498 -0.9378657 0.3279631 0.401671 0.569211
0.022523 -0.0248865 0.1058755 0.1133487 -0.9378565 0.3279899 0.401671 0.251825
-0.034565 -0.0248865 0.1058755 0.1133498 -0.9378657 0.3279631 0.401671 0.353796
0.073504 -0.0248865 0.1058755 -0.1133498 -0.9378657 0.3279631 0.401671 0.160762
-0.040638 -0.0248865 0.1058755 -0.1133487 -0.9378565 0.3279899 0.401671 0.364643
-0.091086 -0.0248865 0.1058755 0.1133498 -0.9378657 0.3279631 0.401671 0.454755
0.160861 0.0248865 0.1058755 0.6800085 0.7146177 0.1640431 0.452775 0.628321
0.160861 0.0214535 0.1078875 0.970618 0.1189929 0.2091445 0.456362 0.634441
0.160899 0.0214535 0.1042715 0.875889 -0.4744453 -0.0878638 0.449939 0.634483
0.160861 0.0248865 0.1034895 0.6482384 0.7339078 -0.2028949 0.448520 0.628323
-0.160899 0.0229725 0.1002915 -0.8158473 0.5752316 -0.05917691 0.511821 0.633050
-0.160899 0.0198065 0.1009265 -0.6436751 -0.7650798 0.01831126 0.510689 0.638694
0.160861 -0.0228235 0.1048875 0.8678721 0.4856205 -0.1047421 0.451013 0.713371
0.160861 -0.0230165 0.1002915 0.813517 -0.5785815 -0.05859715 0.442819 0.713716
0.160861 -0.0211015 0.1007495 0.6406841 0.7673379 0.02676538 0.443636 0.710302
0.160861 -0.0248865 0.1034895 0.6527169 -0.7312431 -0.1981014 0.448520 0.717047
-0.160899 -0.0248865 0.1034895 -0.6527169 -0.7312431 -0.1981014 0.506120 0.718380
-0.160899 -0.0248865 0.1058755 -0.6832348 -0.7147916 0.1492087 0.501864 0.718380
-0.160899 -0.0228245 0.1052275 -0.8625198 0.4916263 -0.1198468 0.503021 0.714703
-0.160899 -0.0228245 0.1073275 -0.9710211 -0.137549 0.1954438 0.499277 0.714703
-0.160899 -0.009724502 0.1148185 -0.9737492 -0.08044908 0.2129335 0.485920 0.691346
-0.160899 -0.002155501 0.1140785 -0.7585546 0.005737126 -0.6515843 0.487239 0.677852
-0.160899 -0.009724502 0.1123505 -0.7276697 0.4048063 -0.5537407 0.490320 0.691346
-0.160899 -0.002155501 0.1165455 -0.9738417 -0.002289063 0.2272162 0.482840 0.677852
-0.160899 0.0229725 0.1002915 -0.8158473 0.5752316 -0.05917691 0.525576 0.577458
0.160861 0.0229725 0.1002915 0.8150387 0.5760453 -0.0623199 0.525576 0.002678
-0.155164 -0.0230165 0.1002915 0 -0.9949064 -0.1008033 0.391697 0.569211
0.160861 -0.0230165 0.1002915 0.813517 -0.5785815 -0.05859715 0.391697 0.004723
0.160861 0.0229725 0.1002915 0.8150387 0.5760453 -0.0623199 0.442819 0.631737
0.160861 0.0198065 0.1009265 0.6319352 -0.7725385 0.06198489 0.443951 0.637380
-0.160899 -0.0211015 0.1007495 -0.6400231 0.7679599 0.02465974 0.511004 0.711632
-0.160899 -0.0230165 0.1002915 -0.813517 -0.5785815 -0.05859715 0.511821 0.715046
-0.160899 0.0214535 0.0954175 -0.7411793 -0.6642416 -0.09714096 0.520511 0.635757
-0.160899 0.0248865 0.0947825 -0.6714779 0.7306848 0.1233578 0.521643 0.629636
0.160861 -0.0248865 0.0947825 0.6722122 -0.7304732 0.120581 0.432997 0.717052
0.160861 -0.0228235 0.0952405 0.742719 0.6619347 -0.1010499 0.433814 0.713376
0.160861 0.0248865 0.0947825 0.6714779 0.7306848 0.1233578 0.432997 0.628327
0.160861 0.0214535 0.0954175 0.7411793 -0.6642416 -0.09714096 0.434129 0.634447
-0.160899 -0.0228245 0.0952405 -0.8403727 0.3832277 -0.3832887 0.520827 0.714703
-0.160899 -0.0248865 0.0947825 -0.6722122 -0.7304732 0.120581 0.521643 0.718380
-0.160899 0.0214535 -0.1142135 -0.7106785 -0.6537596 -0.259874 0.978417 0.730902
-0.160899 0.0214535 0.0954175 -0.7411793 -0.6642416 -0.09714096 0.604652 0.730902
-0.160899 0.0248865 0.0947825 -0.671478 0.7306848 0.1233578 0.605784 0.724780
-0.160899 0.0248865 -0.1148485 -0.7256943 0.6008079 -0.3352577 0.979549 0.724780
0.160861 -0.0248865 0.0947825 0.6722122 -0.7304732 0.120581 0.978420 0.774169
0.160861 -0.0248865 -0.1148485 0.7275519 -0.5942731 -0.3427939 0.604652 0.774169
0.160861 -0.0228235 -0.1143905 0.7095926 0.6577411 -0.2526954 0.605469 0.770492
0.160861 -0.0228235 0.0952405 0.7427189 0.6619347 -0.1010498 0.979237 0.770492
-0.160328 0.0214535 0.1092195 -0.5268474 0.4297062 0.7333379 0.496904 0.612804
-0.155734 0.0214535 0.1092195 0.5268474 0.4297062 0.7333379 0.496903 0.604068
-0.160328 0.0243945 0.1074955 -0.4460709 0.6669389 0.596836 0.502356 0.612812
-0.155734 0.0243945 0.1074955 0.4460709 0.6669389 0.596836 0.502355 0.604077
-0.097702 -0.0248865 0.1058755 -0.1133487 -0.9378565 0.3279899 0.408584 0.493731
-0.155164 -0.0228245 0.1073275 0.5176135 -0.4924045 0.6997243 0.412629 0.602993
-0.155164 -0.0248865 0.1058755 0.1133498 -0.9378657 0.3279631 0.408596 0.603000
-0.097702 -0.0228235 0.1073275 -0.5176135 -0.4924045 0.6997243 0.412617 0.493724
-0.097702 -0.009724502 0.1148185 -0.5584747 -0.2800764 0.7808093 0.438098 0.493685
-0.155164 -0.002155501 0.1165455 0.5879233 -0.007416181 0.8088827 0.452626 0.602944
-0.155164 -0.009724502 0.1148185 0.5584747 -0.2800764 0.7808093 0.438110 0.602954
-0.097702 -0.002155501 0.1165455 -0.5879233 -0.007416181 0.8088827 0.452614 0.493676
-0.160899 -0.0248865 0.1058755 -0.6832348 -0.7147916 0.1492087 0.401671 0.579455
-0.160899 -0.0248865 0.1034895 -0.6527169 -0.7312431 -0.1981014 0.397408 0.579455
-0.160899 -0.0230165 0.1002915 -0.813517 -0.5785815 -0.05859715 0.391697 0.579455
0.15639 0.0248865 0.1058755 -0.1252512 0.9269629 0.3536271 0.503094 0.010558
0.079676 0.0248865 0.1058755 0.1252512 0.9269629 0.3536271 0.503111 0.156436
0.15639 0.0214535 0.1078875 -0.5334457 0.4296502 0.7285852 0.496730 0.010547
0.079676 0.0214535 0.1078875 0.5203177 0.4297684 0.737949 0.496747 0.156425
0.156961 -0.0244195 0.1075355 -0.440697 -0.7006599 0.5611257 0.409546 0.009464
0.160261 -0.0228235 0.1086585 0.5080043 -0.4936897 0.7058344 0.412666 0.003182
0.156931 -0.0228235 0.1086585 -0.5273136 -0.4910566 0.6934002 0.412667 0.009513
0.16029 -0.0244195 0.1075355 0.4420672 -0.6976628 0.5637759 0.409546 0.003132
0.160261 -0.009724502 0.1161495 0.5180375 -0.2780938 0.8088887 0.438147 0.003143
0.156931 -0.002155501 0.1178775 -0.5255694 -0.007263144 0.8507198 0.452664 0.009465
0.156931 -0.009724502 0.1161495 -0.5333616 -0.2752266 0.7998599 0.438148 0.009474
0.160261 -0.002155501 0.1178775 0.5115076 -0.007324252 0.8592476 0.452663 0.003134
-0.091657 -0.0244195 0.1075355 0.4413986 -0.6991642 0.5624382 0.409600 0.482228
-0.097131 -0.0228235 0.1086585 -0.5176135 -0.4924045 0.6997243 0.412722 0.492632
-0.097131 -0.0244195 0.1075355 -0.4413986 -0.6991642 0.5624382 0.409602 0.492638
-0.091657 -0.0228235 0.1086585 0.5176135 -0.4924045 0.6997243 0.412721 0.482222
-0.091657 -0.009724502 0.1161495 0.5256562 -0.2766837 0.804445 0.438202 0.482183
-0.097131 -0.002155501 0.1178775 -0.5184889 -0.007294139 0.8550533 0.452719 0.492583
-0.097131 -0.009724502 0.1161495 -0.5256562 -0.2766837 0.804445 0.438203 0.492593
-0.091657 -0.002155501 0.1178775 0.5184889 -0.007294139 0.8550533 0.452718 0.482174
-0.097702 0.0248865 0.1058755 -0.1252512 0.9269629 0.3536271 0.503150 0.493731
-0.155164 0.0248865 0.1058755 0.1252512 0.9269629 0.3536271 0.503162 0.603000
-0.097702 0.0214535 0.1078875 -0.5268474 0.4297062 0.7333379 0.496785 0.493721
-0.155164 0.0214535 0.1078875 0.5268474 0.4297062 0.7333379 0.496798 0.602990
-0.091657 0.0243945 0.1074955 0.4460709 0.6669389 0.596836 0.502341 0.482228
-0.097131 0.0243945 0.1074955 -0.4460461 0.6669481 0.5968443 0.502342 0.492638
-0.091657 0.0214535 0.1092195 0.5268474 0.4297062 0.7333379 0.496889 0.482219
-0.097131 0.0214535 0.1092195 -0.5268474 0.4297062 0.7333379 0.496891 0.492629
-0.091086 -0.0248865 0.1058755 0.1133498 -0.9378657 0.3279631 0.408582 0.481152
-0.040638 -0.0228235 0.1073275 -0.5176135 -0.4924045 0.6997243 0.412604 0.385213
-0.091086 -0.0228235 0.1073275 0.5176135 -0.4924045 0.6997243 0.412615 0.481144
-0.040638 -0.0248865 0.1058755 -0.1133487 -0.9378565 0.3279899 0.408571 0.385220
-0.091086 -0.009724502 0.1148185 0.5584747 -0.2800764 0.7808093 0.438096 0.481105
-0.040638 -0.002155501 0.1165455 -0.5879233 -0.007416181 0.8088827 0.452601 0.385165
-0.091086 -0.002155501 0.1165455 0.5879233 -0.007416181 0.8088827 0.452612 0.481096
-0.040638 -0.009724502 0.1148185 -0.5584747 -0.2800764 0.7808093 0.438085 0.385174
-0.040638 0.0248865 0.1058755 -0.1252499 0.926953 0.3536533 0.503137 0.385220
-0.091086 0.0248865 0.1058755 0.1252512 0.9269629 0.3536271 0.503148 0.481152
-0.040638 0.0214535 0.1078875 -0.5268474 0.4297062 0.7333379 0.496773 0.385210
-0.091086 0.0214535 0.1078875 0.5268474 0.4297062 0.7333379 0.496784 0.481141
-0.035136 -0.0244195 0.1075355 0.4413986 -0.6991642 0.5624382 0.409588 0.374750
-0.040067 -0.0228235 0.1086585 -0.5176135 -0.4924045 0.6997243 0.412709 0.384121
-0.040067 -0.0244195 0.1075355 -0.4413986 -0.6991642 0.5624382 0.409589 0.384127
-0.035136 -0.0228235 0.1086585 0.5176135 -0.4924045 0.6997243 0.412708 0.374744
-0.035136 -0.009724502 0.1161495 0.5256562 -0.2766837 0.804445 0.438189 0.374705
-0.040067 -0.002155501 0.1178775 -0.5184889 -0.007294139 0.8550533 0.452707 0.384073
-0.040067 -0.009724502 0.1161495 -0.5256562 -0.2766837 0.804445 0.438191 0.384082
-0.035136 -0.002155501 0.1178775 0.5184889 -0.007294139 0.8550533 0.452705 0.374695
-0.040067 0.0214535 0.1092195 -0.5268474 0.4297062 0.7333379 0.496878 0.384118
-0.035136 0.0214535 0.1092195 0.5268474 0.4297062 0.7333379 0.496877 0.374741
-0.040067 0.0243945 0.1074955 -0.4460709 0.6669389 0.596836 0.502330 0.384127
-0.035136 0.0243945 0.1074955 0.4460709 0.6669389 0.596836 0.502329 0.374750
0.016449 -0.0248865 0.1058755 -0.1133498 -0.9378657 0.3279631 0.408559 0.276666
-0.034565 -0.0228235 0.1073275 0.5176135 -0.4924045 0.6997243 0.412603 0.373666
-0.034565 -0.0248865 0.1058755 0.1133498 -0.9378657 0.3279631 0.408570 0.373673
0.016449 -0.0228235 0.1073275 -0.5176135 -0.4924045 0.6997243 0.412592 0.276658
0.016449 -0.009724502 0.1148185 -0.5666805 -0.2787012 0.7753702 0.438073 0.276619
-0.034565 -0.002155501 0.1165455 0.5879233 -0.007416181 0.8088827 0.452600 0.373617
-0.034565 -0.009724502 0.1148185 0.5584747 -0.2800764 0.7808093 0.438084 0.373626
0.016449 -0.002155501 0.1165455 -0.5965062 -0.007355273 0.8025748 0.452589 0.276610
0.016449 0.0248865 0.1058755 -0.1252512 0.9269629 0.3536271 0.503125 0.276666
-0.034565 0.0248865 0.1058755 0.1252512 0.9269629 0.3536271 0.503136 0.373673
0.016449 0.0214535 0.1078875 -0.5334457 0.4296502 0.7285852 0.496761 0.276655
-0.034565 0.0214535 0.1078875 0.5268474 0.4297062 0.7333379 0.496772 0.373663
0.021952 -0.0244195 0.1075355 0.4413986 -0.6991642 0.5624382 0.409576 0.266192
0.01702 -0.0228235 0.1086585 -0.5176091 -0.4924614 0.6996875 0.412697 0.275566
0.01702 -0.0244195 0.1075355 -0.4413986 -0.6991642 0.5624382 0.409577 0.275572
0.021952 -0.0228235 0.1086585 0.5175993 -0.49236 0.6997662 0.412696 0.266186
0.021923 -0.009724502 0.1161495 0.5178853 -0.2777578 0.8091016 0.438177 0.266203
0.016991 -0.002155501 0.1178775 -0.5255694 -0.007263144 0.8507198 0.452694 0.275573
0.016991 -0.009724502 0.1161495 -0.5335086 -0.2755895 0.7996368 0.438178 0.275582
0.021923 -0.002155501 0.1178775 0.5114939 -0.007324057 0.8592557 0.452693 0.266194
0.016991 0.0214535 0.1092195 -0.5360117 0.4281558 0.727581 0.496866 0.275619
0.021923 0.0214535 0.1092195 0.5177909 0.4311775 0.7389037 0.496865 0.266239
0.01702 0.0243945 0.1074955 -0.4458828 0.6674516 0.5964034 0.502317 0.275572
0.021952 0.0243945 0.1074955 0.4462242 0.6664526 0.5972646 0.502316 0.266193
0.022523 -0.0248865 0.1058755 0.1133487 -0.9378565 0.3279899 0.408558 0.265116
0.073504 -0.0228235 0.1073275 -0.522821 -0.4932785 0.6952226 0.412579 0.168164
0.022523 -0.0228235 0.1073275 0.5176135 -0.4924045 0.6997243 0.412591 0.265108
0.073504 -0.0248865 0.1058755 -0.1133498 -0.9378657 0.3279631 0.408547 0.168172
0.022523 -0.009724502 0.1148185 0.5503498 -0.281416 0.786079 0.438072 0.265069
0.073504 -0.002155501 0.1165455 -0.5965062 -0.007355273 0.8025748 0.452577 0.168116
0.022523 -0.002155501 0.1165455 0.5794017 -0.007477099 0.8150079 0.452588 0.265060
0.073504 -0.009724502 0.1148185 -0.567078 -0.2779699 0.7753421 0.438061 0.168125
0.073504 0.0248865 0.1058755 -0.1252512 0.9269629 0.3536271 0.503112 0.168172
0.022523 0.0248865 0.1058755 0.1252491 0.9269772 0.3535901 0.503124 0.265116
0.073504 0.0214535 0.1078875 -0.5334457 0.4296502 0.7285852 0.496748 0.168161
0.022523 0.0214535 0.1078875 0.5203177 0.4297684 0.737949 0.496759 0.265105
0.074074 -0.0244195 0.1075355 -0.440697 -0.7006599 0.5611257 0.409564 0.167078
0.079076 -0.0228235 0.1086585 0.5079858 -0.4937027 0.7058387 0.412684 0.157561
0.074045 -0.0228235 0.1086585 -0.5273136 -0.4910566 0.6934002 0.412685 0.167128
0.079105 -0.0244195 0.1075355 0.4420672 -0.6976628 0.5637759 0.409563 0.157512
0.079076 -0.009724502 0.1161495 0.5180375 -0.2780938 0.8088887 0.438165 0.157522
0.074045 -0.002155501 0.1178775 -0.5255694 -0.007263144 0.8507198 0.452682 0.167079
0.074045 -0.009724502 0.1161495 -0.5333616 -0.2752266 0.7998599 0.438166 0.167089
0.079076 -0.002155501 0.1178775 0.5114939 -0.007324057 0.8592557 0.452681 0.157513
0.074045 0.0214535 0.1092195 -0.5360117 0.4281558 0.727581 0.496853 0.167125
0.079076 0.0214535 0.1092195 0.5177909 0.4311775 0.7389037 0.496852 0.157559
0.074074 0.0243945 0.1074955 -0.4458828 0.6674516 0.5964034 0.502305 0.167078
0.079105 0.0243945 0.1074955 0.4462242 0.6664526 0.5972646 0.502304 0.157512
0.15639 -0.0248865 0.1058755 -0.1133498 -0.9378657 0.3279631 0.408529 0.010558
0.079676 -0.0228235 0.1073275 0.5124105 -0.4915664 0.7041293 0.412578 0.156428
0.079676 -0.0248865 0.1058755 0.1133498 -0.9378657 0.3279631 0.408545 0.156436
0.15639 -0.0228235 0.1073275 -0.522821 -0.4932785 0.6952226 0.412561 0.010550
0.15639 -0.009724502 0.1148185 -0.567078 -0.2779699 0.7753421 0.438043 0.010511
0.079676 -0.002155501 0.1165455 0.5794017 -0.007477099 0.8150079 0.452575 0.156380
0.079676 -0.009724502 0.1148185 0.5499298 -0.2821216 0.78612 0.438059 0.156389
0.15639 -0.002155501 0.1165455 -0.5965062 -0.007355273 0.8025748 0.452559 0.010502
-0.15787 -0.0228235 -0.1174195 -0.2860582 0.7038683 -0.6501847 0.007486 0.993940
0.157832 -0.0228235 -0.1174195 0.2860582 0.7038683 -0.6501847 0.579318 0.993940
-0.15787 -0.0248865 -0.1178775 -0.3044025 -0.552343 -0.7760518 0.007486 0.997676
0.157832 -0.0248865 -0.1178775 0.3044025 -0.552343 -0.7760518 0.579318 0.997676
0.160861 -0.0248865 0.1058755 0.6832348 -0.7147916 0.1492087 0.452775 0.717046
0.160861 -0.0228235 0.1073275 0.9695552 -0.1385867 0.2018825 0.455362 0.713369
-0.160328 -0.0244195 0.1075355 -0.4413986 -0.6991642 0.5624382 0.409615 0.612812
-0.155734 -0.0244195 0.1075355 0.4413986 -0.6991642 0.5624382 0.409614 0.604077
-0.155734 -0.0228245 0.1086585 0.5176135 -0.4924045 0.6997243 0.412735 0.604071
-0.160328 -0.0228245 0.1086585 -0.5176135 -0.4924045 0.6997243 0.412736 0.612806
-0.160899 -0.0228245 0.0952405 -0.8403727 0.3832277 -0.3832887 0.604652 0.791566
-0.160899 -0.0228235 -0.1143905 -0.7095926 0.6577411 -0.2526954 0.978417 0.791566
-0.160899 -0.0248865 0.0947825 -0.6722122 -0.7304732 0.120581 0.605469 0.795243
-0.160899 -0.0248865 -0.1148485 -0.7275519 -0.5942731 -0.3427939 0.979233 0.795243
0.158174 -0.002155501 0.0957745 1 0 0 0.385083 0.765813
0.158174 -0.0175265 0.1092295 0.6012346 0.3787163 -0.7036269 0.409074 0.793218
0.158174 -0.0228615 0.1053865 0.5588081 0.7782418 -0.2864843 0.402222 0.802731
-0.160899 -0.0175265 0.1092735 -0.7435727 0.3283877 -0.5824614 0.495806 0.705258
-0.160899 -0.0175265 0.1110555 -0.9699833 -0.1288208 0.2062468 0.492630 0.705258
-0.157787 -0.0175265 0.1092295 -0.6820712 0.3516718 -0.6411754 0.010641 0.700830
-0.157787 -0.001786502 0.0953245 -1 0 0 0.035421 0.672781
-0.157787 -0.0228245 0.1059375 -0.5547842 0.7575263 -0.344047 0.016508 0.710287
-0.157787 -0.0228245 0.0952405 -0.6746541 0.7296801 -0.111395 0.035571 0.710309
-0.157787 -0.0211015 0.1007495 -0.787879 0.6156602 0.01446624 0.025753 0.707225
-0.155164 -0.0175265 0.1110555 0.5365222 -0.4338568 0.7238178 0.422989 0.602973
-0.097702 -0.0175265 0.1110555 -0.5365222 -0.4338568 0.7238178 0.422976 0.493704
0.156931 -0.0175265 0.1123865 -0.5253635 -0.4260522 0.7365276 0.423026 0.009494
0.160261 -0.0175265 0.1123865 0.5087926 -0.4308457 0.7453202 0.423026 0.003162
-0.091657 -0.0175265 0.1123865 0.5170015 -0.4284945 0.7410141 0.423080 0.482203
-0.097131 -0.0175265 0.1123865 -0.5170015 -0.4284945 0.7410141 0.423082 0.492612
-0.091086 -0.0175265 0.1110555 0.5365222 -0.4338568 0.7238178 0.422975 0.481125
-0.040638 -0.0175265 0.1110555 -0.5365222 -0.4338568 0.7238178 0.422964 0.385193
-0.040067 -0.0175265 0.1123865 -0.5170235 -0.4284879 0.7410026 0.423069 0.384101
-0.035136 -0.0175265 0.1123865 0.5170235 -0.4284879 0.7410026 0.423068 0.374724
-0.034565 -0.0175265 0.1110555 0.5365222 -0.4338568 0.7238178 0.422963 0.373646
0.016449 -0.0175265 0.1110555 -0.53973 -0.433279 0.7217763 0.422952 0.276639
0.02194 -0.0175265 0.1123865 0.5135834 -0.4291663 0.7429996 0.423056 0.266189
0.017008 -0.0175265 0.1123865 -0.5204668 -0.4278111 0.7389804 0.423057 0.275569
0.073504 -0.0175265 0.1110555 -0.5456745 -0.4307108 0.7188377 0.422939 0.168145
0.022523 -0.0175265 0.1110555 0.5333266 -0.4344127 0.7258433 0.422950 0.265089
0.079076 -0.0175265 0.1123865 0.5087926 -0.4308457 0.7453202 0.423043 0.157542
0.074045 -0.0175265 0.1123865 -0.5253635 -0.4260522 0.7365276 0.423044 0.167108
0.15639 -0.0175265 0.1110555 -0.5456527 -0.4307181 0.7188498 0.422921 0.010530
0.079676 -0.0175265 0.1110555 0.5274949 -0.4368827 0.7286169 0.422938 0.156409
0.158174 0.0138865 -0.1123435 0.7093092 -0.125406 -0.6936525 0.587254 0.839295
-0.157787 0.0138865 -0.1122525 -0.7095395 -0.1208865 -0.6942191 0.020790 0.839292
-0.157787 0.0214535 -0.1136515 -0.2565133 -0.9234481 -0.2853849 0.020789 0.825747
0.158174 0.0214535 -0.1137935 0.2547777 -0.9241626 -0.2846257 0.587253 0.825751
0.158174 0.0214535 0.0954175 0.6759424 -0.7291989 -0.1066349 0.384447 0.723718
0.158174 0.0138865 -0.1123435 0.7093092 -0.125406 -0.6936525 0.014015 0.737210
0.158174 0.0214535 -0.1137915 0.7071068 -0.7071068 0 0.011434 0.723718
0.158174 0.0214535 -0.1137935 0.2547777 -0.9241626 -0.2846257 0.011430 0.723718
0.160261 0.0138865 0.1136535 0.5140398 0.3472813 0.7843206 0.482808 0.003156
0.156931 0.0138865 0.1136535 -0.5297858 0.3436176 0.7754057 0.482809 0.009487
-0.160899 0.0138865 0.1102295 -0.7433333 -0.2658857 -0.6138081 0.494101 0.649249
-0.160899 0.0138865 0.1123215 -0.972094 0.1025749 0.2109779 0.490371 0.649249
0.160861 0.0138865 0.1123215 0.9696001 0.106909 0.2201051 0.464267 0.647928
0.160861 0.0138865 0.1092215 0.6265665 -0.3565292 -0.6930378 0.458740 0.647929
-0.157787 0.0138865 0.1101925 -0.6811249 -0.2880394 -0.6731287 0.008924 0.644793
-0.157787 0.0214535 0.1061145 -0.5613424 -0.7476625 -0.3548177 0.016192 0.631303
-0.157787 -0.0228235 -0.1138285 -0.2478464 0.9270812 -0.2812341 0.996996 0.655357
-0.160899 -0.0228245 0.0952405 -0.8403727 0.3832277 -0.3832887 0.623749 0.660913
-0.160899 -0.0228245 0.0952405 0 0.9154802 -0.4023631 0.623749 0.660913
-0.160899 -0.0228235 -0.1143905 -0.7095926 0.6577411 -0.2526954 0.998000 0.660913
-0.155734 0.0138865 0.1136535 0.5218478 0.3454779 0.7799487 0.482877 0.604045
-0.160328 0.0138865 0.1136535 -0.5218478 0.3454779 0.7799487 0.482878 0.612780
0.079676 0.0138865 0.1123215 0.5419694 0.3526249 0.76284 0.482720 0.156402
0.15639 0.0138865 0.1123215 -0.559581 0.3474989 0.7524052 0.482704 0.010524
-0.155164 0.0138865 0.1123215 0.5507243 0.350119 0.7577068 0.482772 0.602967
-0.097702 0.0138865 0.1123215 -0.5507243 0.350119 0.7577068 0.482759 0.493698
-0.091657 0.0138865 0.1136535 0.5218478 0.3454779 0.7799487 0.482863 0.482196
-0.097131 0.0138865 0.1136535 -0.5218478 0.3454779 0.7799487 0.482864 0.492606
-0.091086 0.0138865 0.1123215 0.5507243 0.350119 0.7577068 0.482758 0.481118
-0.040638 0.0138865 0.1123215 -0.5507243 0.350119 0.7577068 0.482747 0.385187
-0.040067 0.0138865 0.1136535 -0.5218478 0.3454779 0.7799487 0.482852 0.384095
-0.035136 0.0138865 0.1136535 0.5218478 0.3454779 0.7799487 0.482851 0.374718
-0.034565 0.0138865 0.1123215 0.5507243 0.350119 0.7577068 0.482745 0.373639
0.016449 0.0138865 0.1123215 -0.559581 0.3474989 0.7524052 0.482734 0.276632
0.016991 0.0138865 0.1136535 -0.5297858 0.3436176 0.7754057 0.482839 0.275595
0.021923 0.0138865 0.1136535 0.5140398 0.3472813 0.7843206 0.482838 0.266216
0.022523 0.0138865 0.1123215 0.5419905 0.3526192 0.7628276 0.482733 0.265082
0.073504 0.0138865 0.1123215 -0.5596016 0.3474931 0.7523926 0.482722 0.168138
0.074045 0.0138865 0.1136535 -0.5297858 0.3436176 0.7754057 0.482827 0.167102
0.079076 0.0138865 0.1136535 0.5140272 0.3472729 0.7843325 0.482826 0.157535
0.160861 0.006677497 0.1122245 0.7002928 -0.2125045 -0.6814924 0.568465 0.656885
0.160861 -0.002155501 0.1140785 0.7556843 0.01242125 -0.6548183 0.567948 0.673889
0.158174 0.006677497 0.1124545 0.6566482 -0.213756 -0.7232715 0.563257 0.656892
0.160861 -0.009724502 0.1123505 0.7333766 0.2249871 -0.6415135 0.568430 0.688606
0.160861 -0.0175265 0.1085795 0.6602566 0.370597 -0.6532373 0.569481 0.703867
0.158174 -0.009724502 0.1123505 0.6826515 0.2372247 -0.6911666 0.563286 0.688623
0.160861 -0.0228235 0.1048875 0.8678721 0.4856205 -0.1047421 0.605544 0.748299
0.160861 -0.0211015 0.1007495 0.6406841 0.7673379 0.02676538 0.612932 0.748299
0.158174 -0.0228615 0.1053865 0.5588081 0.7782418 -0.2864843 0.604652 0.753095
0.160861 -0.0228235 0.0952405 0.742719 0.6619347 -0.1010498 0.622767 0.748299
0.160861 -0.0228235 -0.1143905 0.7095926 0.6577411 -0.2526954 0.997046 0.748299
0.158174 -0.0228235 -0.1137035 0.2444895 0.928516 -0.2794333 0.995819 0.753095
0.157832 -0.0228235 -0.1174195 0.2860582 0.7038683 -0.6501847 0.007400 0.922526
-0.15787 -0.0228235 -0.1174195 -0.2860582 0.7038683 -0.6501847 0.570287 0.922526
-0.157787 -0.0228235 -0.1138285 -0.2478464 0.9270812 -0.2812341 0.570139 0.928928
-0.160899 -0.0211015 0.1007495 -0.6400231 0.7679599 0.02465974 0.613914 0.660913
-0.157787 -0.0211015 0.1007495 -0.787879 0.6156602 0.01446624 0.613914 0.655357
-0.160899 -0.0228245 0.1052275 -0.8625198 0.4916263 -0.1198468 0.605921 0.660913
-0.157787 -0.0175265 0.1092295 -0.6820712 0.3516718 -0.6411754 0.544589 0.703702
-0.160899 -0.0228245 0.1052275 -0.8625198 0.4916263 -0.1198468 0.539073 0.715556
-0.160899 -0.0175265 0.1092735 -0.7435727 0.3283877 -0.5824614 0.539040 0.703670
-0.160899 -0.009724502 0.1123505 -0.0007320108 0.4491777 -0.8934422 0.539048 0.688716
-0.160899 -0.002155501 0.1140785 -0.7585546 0.005737126 -0.6515843 0.539055 0.674875
-0.157787 -0.002155501 0.1140785 -0.6619553 0.006561092 -0.7495146 0.544603 0.674878
-0.160899 -0.009724502 0.1123505 -0.7276697 0.4048063 -0.5537407 0.539048 0.688716
-0.160899 0.006677497 0.1122245 -0.7147895 -0.1663596 -0.6792647 0.539063 0.658782
-0.160899 0.0138865 0.1102295 -0.7433333 -0.2658857 -0.6138081 0.539069 0.645446
-0.157787 0.0138865 0.1101925 -0.6811249 -0.2880394 -0.6731287 0.544618 0.645431
-0.160899 0.0214535 0.1056065 -0.8717803 -0.4664853 -0.1496353 0.605558 0.678310
-0.157787 0.0198065 0.1009265 -0.7829714 -0.6219524 0.01144428 0.613913 0.683865
-0.157787 0.0214535 0.1061145 -0.5613424 -0.7476625 -0.3548177 0.604652 0.683865
-0.160899 0.0198065 0.1009265 -0.6436751 -0.7650798 0.01831126 0.613913 0.678310
-0.160899 0.0214535 0.0954175 -0.7411793 -0.6642416 -0.09714096 0.623747 0.678310
-0.157787 0.0214535 0.0954175 -0.6759424 -0.7291989 -0.1066349 0.623747 0.683865
-0.157787 0.0214535 -0.1136515 -0.2565133 -0.9234481 -0.2853849 0.996947 0.683865
-0.160899 0.0214535 -0.1142135 -0.7106785 -0.6537596 -0.259874 0.997950 0.678310
-0.157787 0.0214535 -0.1136515 -0.2565133 -0.9234481 -0.2853849 0.007548 0.976544
0.157832 0.0214535 -0.1172425 0.2881942 -0.6921487 -0.6617208 0.570289 0.970141
0.158174 0.0214535 -0.1137935 0.2547777 -0.9241626 -0.2846258 0.570899 0.976290
-0.15787 0.0214535 -0.1172425 -0.2881942 -0.6921487 -0.6617208 0.007400 0.970141
0.158174 0.0214535 -0.1137935 0.2547777 -0.9241626 -0.2846257 0.994624 0.631303
0.160861 0.0214535 -0.1142135 0.7106939 -0.6537452 -0.2598682 0.995373 0.636091
0.158174 0.0214535 -0.1137915 0.7071068 -0.7071068 0 0.994620 0.631303
0.160861 0.0214535 0.0954175 0.7411793 -0.6642416 -0.09714096 0.621744 0.636091
0.160861 0.0198065 0.1009265 0.6319352 -0.7725385 0.06198489 0.611925 0.636091
0.158174 0.0198065 0.1009265 0.7969204 -0.6026651 0.04138411 0.611925 0.631303
0.160899 0.0214535 0.1042715 0.875889 -0.4744453 -0.0878638 0.605963 0.637961
0.160899 0.0214535 0.1042715 0.875889 -0.4744453 -0.0878638 0.570754 0.628659
0.160861 0.0138865 0.1092215 0.6265665 -0.3565292 -0.6930378 0.569302 0.643075
0.158174 0.0214535 0.1050075 0.5475509 -0.7712583 -0.3245746 0.565332 0.628644
0.160861 0.0214535 0.1078875 0.970618 0.1189929 0.2091445 0.496729 0.002045
0.160861 0.0248865 0.1058755 0.6800085 0.7146177 0.1640431 0.503093 0.002056
0.15639 0.006677497 0.1146915 -0.5619422 0.2165 0.7983413 0.469195 0.010512
0.156931 0.006677497 0.1160235 -0.5446484 0.2156191 0.810473 0.469300 0.009475
0.160861 -0.0248865 0.1058755 0.6832348 -0.7147916 0.1492087 0.408528 0.002056
0.160861 -0.0228235 0.1073275 0.9695552 -0.1385867 0.2018825 0.412560 0.002048
0.160861 -0.0175265 0.1110555 0.9673442 -0.1342241 0.2150095 0.422920 0.002029
0.160861 -0.009724502 0.1148185 0.9713833 -0.0838958 0.2222071 0.438042 0.002009
0.160861 -0.002155501 0.1165455 0.9714449 -0.002380024 0.2372534 0.452558 0.002000
0.160861 0.006677497 0.1146915 0.9745427 0.06003159 0.2160157 0.469194 0.002010
0.160261 0.006677497 0.1160235 0.5291702 0.2180592 0.8200178 0.469299 0.003143
0.160861 0.0138865 0.1123215 0.9696001 0.106909 0.2201051 0.482703 0.002022
-0.160899 0.0248865 0.1058755 -0.6824784 0.7126924 0.1621505 0.503164 0.613906
-0.160899 0.0214535 0.1078875 -0.9735536 0.1154836 0.1971218 0.496799 0.613896
-0.160899 0.0138865 0.1123215 -0.972094 0.1025749 0.2109779 0.482773 0.613872
-0.160899 0.006677497 0.1146915 -0.9766734 0.0574982 0.2068893 0.469264 0.613860
-0.160899 -0.002155501 0.1165455 -0.9738417 -0.002289063 0.2272162 0.452628 0.613850
-0.160899 -0.009724502 0.1148185 -0.9737492 -0.08044908 0.2129335 0.438112 0.613859
-0.160899 -0.0175265 0.1110555 -0.9699833 -0.1288208 0.2062468 0.422990 0.613879
-0.160899 -0.0228245 0.1073275 -0.9710211 -0.137549 0.1954438 0.412631 0.613899
-0.160899 -0.0248865 0.1058755 -0.6832348 -0.7147916 0.1492087 0.408598 0.613906
-0.155164 0.006677497 0.1146915 0.5537336 0.2179962 0.8036522 0.469263 0.602954
-0.097702 0.006677497 0.1146915 -0.5537336 0.2179962 0.8036522 0.469250 0.493685
-0.097131 0.006677497 0.1160235 -0.5368626 0.2168697 0.8153197 0.469355 0.492593
-0.091086 0.006677497 0.1146915 0.5537336 0.2179962 0.8036522 0.469249 0.481106
-0.091657 0.006677497 0.1160235 0.5368626 0.2168697 0.8153197 0.469354 0.482184
-0.040638 0.006677497 0.1146915 -0.5537336 0.2179962 0.8036522 0.469238 0.385174
-0.040067 0.006677497 0.1160235 -0.5368626 0.2168697 0.8153197 0.469343 0.384082
-0.034565 0.006677497 0.1146915 0.5537336 0.2179962 0.8036522 0.469236 0.373627
-0.035136 0.006677497 0.1160235 0.5368626 0.2168697 0.8153197 0.469342 0.374705
0.016449 0.006677497 0.1146915 -0.5619422 0.2165 0.7983413 0.469225 0.276620
0.016991 0.006677497 0.1160235 -0.5446484 0.2156191 0.810473 0.469330 0.275583
0.022523 0.006677497 0.1146915 0.5456238 0.2194335 0.8087915 0.469224 0.265070
0.021923 0.006677497 0.1160235 0.5291702 0.2180592 0.8200178 0.469329 0.266203
0.073504 0.006677497 0.1146915 -0.561956 0.2165053 0.7983301 0.469213 0.168126
0.074045 0.006677497 0.1160235 -0.5446703 0.2156155 0.8104593 0.469318 0.167089
0.079676 0.006677497 0.1146915 0.5456238 0.2194335 0.8087915 0.469211 0.156390
0.079076 0.006677497 0.1160235 0.5291702 0.2180592 0.8200178 0.469317 0.157523
-0.160899 -0.0228235 -0.1143905 -0.7095926 0.6577411 -0.2526954 0.575687 0.927926
0.158174 -0.0228235 -0.1137035 0.2444895 0.928516 -0.2794333 0.006790 0.929151
0.160861 -0.0228235 -0.1143905 0.7095926 0.6577411 -0.2526954 0.002000 0.927926
-0.160899 0.0214535 -0.1142135 -0.7106785 -0.6537596 -0.259874 0.002000 0.975541
0.160861 0.0214535 -0.1142135 0.7106939 -0.6537452 -0.2598682 0.575689 0.975541
0.160861 0.0248865 -0.1148485 0.7256943 0.6008079 -0.3352577 0.582717 0.946548
0.160861 0.0214535 -0.1142135 0.7106939 -0.6537452 -0.2598682 0.582717 0.952744
-0.160899 -0.0248865 -0.1148485 -0.727552 -0.5942731 -0.3427939 0.002000 0.997676
-0.160899 -0.0228235 -0.1143905 -0.7095926 0.6577411 -0.2526954 0.002000 0.993940
0.160861 -0.0248865 -0.1148485 0.727552 -0.5942731 -0.3427939 0.584804 0.997676
0.160861 -0.0228235 -0.1143905 0.7095926 0.6577411 -0.2526954 0.584804 0.993940
-0.160899 0.0214535 -0.1142135 -0.7106785 -0.6537596 -0.259874 0.002000 0.952744
-0.160899 0.0248865 -0.1148485 -0.7256943 0.6008079 -0.3352577 0.002000 0.946548
-0.160899 0.006677497 0.1146915 -0.9766734 0.0574982 0.2068893 0.486146 0.662102
-0.160899 0.006677497 0.1122245 -0.7147895 -0.1663596 -0.6792647 0.490545 0.662102
-0.157787 -0.0228235 -0.1138285 -0.2478464 0.9270812 -0.2812341 0.020789 0.905129
0.158174 -0.0228235 -0.1137035 0.2444895 0.928516 -0.2794333 0.587253 0.905129
0.160861 -0.0228235 0.1048875 0.8678721 0.4856205 -0.1047421 0.570510 0.714280
0.158174 -0.0228615 0.1053865 0.5588081 0.7782418 -0.2864843 0.565226 0.714348
-0.160899 0.0214535 0.1056065 -0.8717803 -0.4664853 -0.1496353 0.539124 0.629636
-0.157787 -0.009724502 0.1123505 -0.6899703 0.2156156 -0.6909783 0.005079 0.686906
-0.157787 -0.002155501 0.1140785 -0.6619553 0.006561092 -0.7495146 0.002000 0.673401
-0.157787 0.0214535 0.0954175 -0.6759424 -0.7291989 -0.1066349 0.035255 0.631325
-0.157787 0.0138865 -0.1122525 -0.7095395 -0.1208865 -0.6942191 0.405343 0.645250
-0.157787 0.006677497 0.1122245 -0.6995538 -0.1703871 -0.6939688 0.005304 0.657648
-0.157787 0.0198065 0.1009265 -0.7829714 -0.6219524 0.01144428 0.025438 0.634251
-0.157787 -0.0175265 -0.1126515 -0.7146453 0.1282123 -0.6876364 0.406056 0.701286
-0.157787 -0.0228235 -0.1138285 -0.2478464 0.9270812 -0.2812341 0.408153 0.710739
-0.157787 -0.002155501 -0.1109185 -0.7172313 0.01922744 -0.6965699 0.402968 0.673864
-0.157787 -0.009724502 -0.1114715 -0.7157069 0.07767183 -0.6940683 0.403952 0.687366
-0.157787 0.0214535 -0.1136515 -0.2565133 -0.9234481 -0.2853849 0.407837 0.631755
-0.157787 0.006677497 -0.1110745 -0.7236413 -0.06201548 -0.6873844 0.403245 0.658107
0.158174 -0.002155501 0.1140785 0.6644045 0.01593139 -0.7472035 0.417718 0.765813
0.158174 -0.009724502 0.1123505 0.6826515 0.2372247 -0.6911666 0.414638 0.779307
0.158174 0.0198065 0.1009265 0.7969204 -0.6026651 0.04138411 0.394269 0.726655
0.158174 0.0214535 0.1050075 0.5475509 -0.7712583 -0.3245746 0.401545 0.723718
0.158174 0.0138865 0.1101925 0.5532202 -0.3540221 -0.7540662 0.410791 0.737210
0.158174 0.006677497 0.1124545 0.6566482 -0.213756 -0.7232715 0.414823 0.750063
0.158174 -0.0211015 0.1007495 0.7885568 0.6146884 0.01834246 0.612932 0.753095
0.158174 -0.0228235 0.0952405 0.6746541 0.7296801 -0.111395 0.622767 0.753095
0.158174 -0.0211015 0.1007495 0.7885568 0.6146884 0.01834246 0.393954 0.799593
0.158174 -0.0228235 0.0952405 0.6746541 0.7296801 -0.111395 0.384131 0.802663
0.158174 -0.0228235 -0.1137035 0.2444895 0.928516 -0.2794333 0.011591 0.802663
0.158174 -0.0175265 -0.1124385 0.7150923 0.1390446 -0.6850618 0.013847 0.793218
0.158174 -0.009724502 -0.1111275 0.7209015 0.07462043 -0.6890085 0.016185 0.779307
0.158174 -0.002155501 -0.1107535 0.7175996 0.003082076 -0.6964491 0.016851 0.765813
0.157832 -0.0248865 -0.1178775 0.3044025 -0.552343 -0.7760518 0.002000 0.010133
-0.15787 -0.0248865 -0.1178775 -0.3044025 -0.552343 -0.7760518 0.002000 0.574045
0.160861 -0.0248865 -0.1148485 0.7275519 -0.5942731 -0.3427939 0.007410 0.004723
0.160861 0.0248865 -0.1148485 0.7256943 0.6008079 -0.3352577 0.909895 0.002678
0.157832 0.0248865 -0.1178775 0.3034187 0.5653319 -0.7670313 0.915306 0.008089
-0.160899 0.0248865 -0.1148485 -0.7256943 0.6008079 -0.3352577 0.909895 0.577458
-0.15787 0.0248865 -0.1178775 -0.8454742 -0.5157443 -0.1384963 0.915306 0.572047
-0.157787 0.0214535 0.1061145 -0.5613424 -0.7476625 -0.3548177 0.544726 0.630105
-0.157787 0.006677497 0.1122245 -0.6995538 -0.1703871 -0.6939688 0.544612 0.658785
-0.157787 -0.009724502 0.1123505 -0.6899703 0.2156156 -0.6909783 0.544597 0.688719
-0.157787 -0.0228245 0.1059375 -0.5547842 0.7575263 -0.344047 0.544717 0.714822
-0.157787 -0.0228245 0.1059375 -0.5547842 0.7575263 -0.344047 0.604652 0.655357
-0.157787 -0.0228245 0.0952405 -0.6746541 0.7296801 -0.111395 0.623749 0.655357
0.158174 -0.0175265 0.1092295 0.6012346 0.3787163 -0.7036269 0.564155 0.703855
0.158174 -0.002155501 0.1140785 0.6644045 0.01593139 -0.7472035 0.562804 0.673906
0.158174 0.0138865 0.1101925 0.5532202 -0.3540221 -0.7540662 0.563887 0.643049
0.158174 0.0214535 0.1050075 0.5475509 -0.7712583 -0.3245746 0.604652 0.631303
0.158174 0.0214535 0.0954175 0.6759424 -0.7291989 -0.1066349 0.621744 0.631303
0.158174 0.006677497 -0.1111175 0.7216287 -0.07239188 -0.6884848 0.016202 0.750063
3 0 1 2 
3 3 4 5 
3 4 6 5 
3 7 8 9 
3 9 10 7 
3 8 7 11 
3 12 13 14 
3 15 14 13 
3 16 17 18 
3 17 19 18 
3 20 21 22 
3 22 21 23 
3 24 25 26 
3 24 26 27 
3 28 29 30 
3 31 30 29 
3 32 33 34 
3 32 34 35 
3 36 37 38 
3 36 38 39 
3 40 41 42 
3 41 40 43 
3 44 45 46 
3 46 45 47 
3 48 49 50 
3 51 49 48 
3 52 53 49 
3 53 54 55 
3 53 55 56 
3 49 57 52 
3 58 53 52 
3 49 59 57 
3 49 60 59 
3 60 49 51 
3 61 53 58 
3 53 61 54 
3 62 63 64 
3 63 62 65 
3 66 67 63 
3 68 69 67 
3 63 70 66 
3 71 67 66 
3 63 72 70 
3 72 63 65 
3 73 67 71 
3 74 67 73 
3 67 74 68 
3 75 76 77 
3 77 78 75 
3 79 22 23 
3 22 79 80 
3 81 82 83 
3 82 81 84 
3 85 86 87 
3 87 86 88 
3 89 90 91 
3 90 89 92 
3 93 53 94 
3 53 93 49 
3 95 63 67 
3 63 95 96 
3 78 77 97 
3 77 98 97 
3 85 99 100 
3 99 85 87 
3 101 80 79 
3 101 79 102 
3 82 103 104 
3 104 83 82 
3 0 94 1 
3 94 0 93 
3 5 96 95 
3 96 5 6 
3 105 97 106 
3 98 106 97 
3 100 107 108 
3 107 100 99 
3 109 110 111 
3 109 111 112 
3 113 114 115 
3 113 115 116 
3 117 118 119 
3 118 120 119 
3 121 122 123 
3 122 121 124 
3 125 126 127 
3 126 125 128 
3 129 67 69 
3 67 129 130 
3 67 131 95 
3 131 67 130 
3 95 3 5 
3 3 95 131 
3 132 133 134 
3 135 134 133 
3 136 137 138 
3 137 136 139 
3 140 141 142 
3 141 140 143 
3 144 145 146 
3 145 144 147 
3 148 149 150 
3 149 148 151 
3 152 153 154 
3 155 154 153 
3 156 157 158 
3 159 158 157 
3 160 161 162 
3 161 160 163 
3 164 165 166 
3 165 164 167 
3 168 169 170 
3 171 170 169 
3 172 173 174 
3 173 172 175 
3 176 177 178 
3 177 176 179 
3 180 181 182 
3 181 183 182 
3 184 185 186 
3 185 184 187 
3 188 189 190 
3 189 188 191 
3 192 193 194 
3 195 194 193 
3 196 197 198 
3 197 196 199 
3 200 201 202 
3 201 200 203 
3 204 205 206 
3 205 207 206 
3 208 209 210 
3 209 208 211 
3 212 213 214 
3 213 212 215 
3 216 217 218 
3 219 218 217 
3 220 221 222 
3 221 220 223 
3 224 225 226 
3 225 224 227 
3 228 229 230 
3 229 231 230 
3 232 233 234 
3 233 232 235 
3 236 237 238 
3 237 236 239 
3 240 241 242 
3 243 242 241 
3 84 81 244 
3 81 245 244 
3 246 247 248 
3 246 248 249 
3 250 251 252 
3 253 252 251 
3 254 255 256 
3 257 87 88 
3 257 88 258 
3 259 260 261 
3 262 263 260 
3 124 264 122 
3 264 124 265 
3 137 266 138 
3 266 137 267 
3 268 145 147 
3 145 268 269 
3 161 270 162 
3 270 161 271 
3 175 272 173 
3 272 175 273 
3 187 274 185 
3 274 187 275 
3 199 276 197 
3 197 276 277 
3 210 209 278 
3 210 278 279 
3 280 222 221 
3 222 280 281 
3 233 235 282 
3 233 282 283 
3 284 285 286 
3 284 286 287 
3 288 289 290 
3 290 289 291 
3 292 17 293 
3 293 17 16 
3 22 294 20 
3 295 20 294 
3 76 296 297 
3 297 77 76 
3 298 299 260 
3 300 301 302 
3 301 300 303 
3 304 117 305 
3 117 304 118 
3 306 307 134 
3 306 134 135 
3 308 309 154 
3 308 154 155 
3 310 159 311 
3 159 310 158 
3 312 313 170 
3 312 170 171 
3 314 315 181 
3 314 181 180 
3 316 317 194 
3 316 194 195 
3 318 319 205 
3 318 205 204 
3 320 321 218 
3 320 218 219 
3 322 323 229 
3 322 229 228 
3 324 325 326 
3 327 328 329 
3 330 331 332 
3 333 334 335 
3 336 337 338 
3 339 302 301 
3 302 339 340 
3 340 339 341 
3 342 343 344 
3 345 346 347 
3 346 345 348 
3 349 350 351 
3 352 353 354 
3 353 352 355 
3 353 356 357 
3 356 353 355 
3 356 358 357 
3 358 356 359 
3 360 361 362 
3 361 360 363 
3 364 365 366 
3 367 366 365 
3 367 368 369 
3 368 370 369 
3 371 372 373 
3 19 17 374 
3 19 374 375 
3 375 132 18 
3 375 18 19 
3 18 134 16 
3 134 18 132 
3 134 307 16 
3 293 16 307 
3 376 239 377 
3 141 377 239 
3 236 282 266 
3 266 142 236 
3 235 232 136 
3 136 138 235 
3 232 139 136 
3 139 232 378 
3 379 139 378 
3 139 379 137 
3 379 380 137 
3 137 380 267 
3 381 382 140 
3 140 382 143 
3 383 292 384 
3 292 383 385 
3 153 386 119 
3 153 119 120 
3 119 387 117 
3 387 119 386 
3 387 388 117 
3 305 117 388 
3 389 390 47 
3 46 47 390 
3 391 392 32 
3 32 35 391 
3 393 394 246 
3 246 249 393 
3 247 246 394 
3 247 394 123 
3 122 247 123 
3 247 122 248 
3 122 264 248 
3 248 264 33 
3 127 126 34 
3 34 126 44 
3 395 304 45 
3 304 395 308 
3 120 118 155 
3 120 155 153 
3 169 152 157 
3 169 157 156 
3 157 154 159 
3 154 157 152 
3 154 309 159 
3 311 159 309 
3 396 128 397 
3 149 397 128 
3 125 265 269 
3 269 150 125 
3 124 121 146 
3 146 145 124 
3 121 144 146 
3 144 121 160 
3 162 144 160 
3 144 162 147 
3 162 270 147 
3 147 270 268 
3 164 166 148 
3 148 166 151 
3 398 310 399 
3 310 398 312 
3 156 158 171 
3 156 171 169 
3 193 168 182 
3 193 182 183 
3 182 170 180 
3 170 182 168 
3 170 313 180 
3 314 180 313 
3 400 165 401 
3 177 401 165 
3 167 271 272 
3 272 178 167 
3 161 163 174 
3 174 173 161 
3 172 174 163 
3 172 163 186 
3 185 172 186 
3 172 185 175 
3 185 274 175 
3 175 274 273 
3 190 189 176 
3 176 189 179 
3 402 315 403 
3 315 402 316 
3 183 181 195 
3 183 195 193 
3 217 192 206 
3 217 206 207 
3 206 194 204 
3 194 206 192 
3 194 317 204 
3 318 204 317 
3 404 191 405 
3 201 405 191 
3 188 275 277 
3 277 202 188 
3 187 184 198 
3 198 197 187 
3 196 198 184 
3 196 184 208 
3 210 196 208 
3 196 210 199 
3 210 279 199 
3 199 279 276 
3 212 214 200 
3 200 214 203 
3 406 319 407 
3 319 406 320 
3 207 205 219 
3 207 219 217 
3 216 231 133 
3 231 216 230 
3 230 218 228 
3 218 230 216 
3 218 321 228 
3 322 228 321 
3 408 213 409 
3 225 409 213 
3 215 278 281 
3 281 226 215 
3 209 211 220 
3 220 222 209 
3 223 220 211 
3 223 211 234 
3 233 223 234 
3 223 233 221 
3 233 283 221 
3 221 283 280 
3 238 237 224 
3 224 237 227 
3 410 323 411 
3 323 410 306 
3 231 229 135 
3 231 135 133 
3 412 338 337 
3 336 413 414 
3 363 360 415 
3 416 362 361 
3 8 417 418 
3 417 8 11 
3 419 240 242 
3 240 419 420 
3 243 241 421 
3 421 241 422 
3 9 423 424 
3 9 424 10 
3 37 36 26 
3 27 26 36 
3 30 40 28 
3 40 42 28 
3 35 34 44 
3 35 44 46 
3 92 425 90 
3 90 425 426 
3 396 126 128 
3 126 396 395 
3 384 141 143 
3 141 384 377 
3 151 397 149 
3 397 151 399 
3 166 165 400 
3 166 400 398 
3 179 403 177 
3 177 403 401 
3 191 402 189 
3 402 191 404 
3 203 407 201 
3 201 407 405 
3 214 213 408 
3 214 408 406 
3 227 411 225 
3 225 411 409 
3 376 237 239 
3 237 376 410 
3 325 327 329 
3 346 349 347 
3 142 239 236 
3 239 142 141 
3 382 384 143 
3 384 382 383 
3 35 390 391 
3 390 35 46 
3 126 45 44 
3 45 126 395 
3 150 128 125 
3 128 150 149 
3 166 399 151 
3 399 166 398 
3 178 165 167 
3 165 178 177 
3 189 403 179 
3 403 189 402 
3 202 191 188 
3 191 202 201 
3 214 407 203 
3 407 214 406 
3 226 213 215 
3 213 226 225 
3 237 411 227 
3 411 237 410 
3 25 24 427 
3 428 427 24 
3 29 245 31 
3 81 31 245 
3 249 248 33 
3 249 33 32 
3 258 91 257 
3 91 258 89 
3 125 264 265 
3 264 125 127 
3 267 142 266 
3 142 267 140 
3 268 150 269 
3 150 268 148 
3 270 271 167 
3 270 167 164 
3 273 178 272 
3 178 273 176 
3 275 190 274 
3 190 275 188 
3 276 200 277 
3 277 200 202 
3 279 278 215 
3 279 215 212 
3 280 224 281 
3 281 224 226 
3 283 282 236 
3 283 236 238 
3 328 429 430 
3 344 345 342 
3 345 344 348 
3 282 235 138 
3 138 266 282 
3 380 381 267 
3 267 381 140 
3 392 393 249 
3 249 32 392 
3 264 127 33 
3 33 127 34 
3 265 124 145 
3 145 269 265 
3 270 164 268 
3 268 164 148 
3 271 161 173 
3 173 272 271 
3 274 190 273 
3 273 190 176 
3 275 187 197 
3 197 277 275 
3 279 212 276 
3 276 212 200 
3 278 209 222 
3 222 281 278 
3 283 238 280 
3 280 238 224 
3 39 38 285 
3 39 285 284 
3 384 292 377 
3 377 292 293 
3 425 295 426 
3 295 294 426 
3 296 41 43 
3 43 297 296 
3 45 305 47 
3 305 45 304 
3 410 376 307 
3 410 307 306 
3 395 396 309 
3 395 309 308 
3 399 311 397 
3 311 399 310 
3 398 400 313 
3 398 313 312 
3 401 403 315 
3 401 315 314 
3 402 404 317 
3 402 317 316 
3 405 407 319 
3 405 319 318 
3 406 408 321 
3 406 321 320 
3 411 322 409 
3 322 411 323 
3 350 431 351 
3 372 324 326 
3 307 376 293 
3 377 293 376 
3 17 292 385 
3 17 385 374 
3 388 389 305 
3 47 305 389 
3 118 304 308 
3 118 308 155 
3 309 396 311 
3 397 311 396 
3 158 310 312 
3 158 312 171 
3 313 400 314 
3 401 314 400 
3 181 315 316 
3 181 316 195 
3 317 404 318 
3 405 318 404 
3 205 319 320 
3 205 320 219 
3 321 408 322 
3 409 322 408 
3 229 323 306 
3 229 306 135 
3 432 433 260 
3 434 435 260 
3 433 436 260 
3 259 432 260 
3 436 298 260 
3 299 437 260 
3 437 434 260 
3 263 261 260 
3 438 439 262 
3 260 440 441 
3 262 260 438 
3 434 442 435 
3 443 440 260 
3 260 435 443 
3 441 438 260 
3 444 445 254 
3 446 447 254 
3 254 288 446 
3 448 449 254 
3 254 447 448 
3 449 444 254 
3 254 445 255 
3 450 333 451 
3 254 256 452 
3 453 454 455 
3 456 457 254 
3 4 458 6 
3 4 459 458 
3 458 460 6 
3 1 461 462 
3 463 2 464 
3 0 2 463 
3 462 2 1 
3 431 465 351 
3 351 466 349 
3 349 466 347 
3 347 467 345 
3 345 467 342 
3 342 468 343 
3 469 340 341 
3 340 470 302 
3 302 470 300 
3 338 413 336 
3 335 451 333 
3 453 254 452 
3 450 331 333 
3 331 450 332 
3 430 471 328 
3 328 471 329 
3 329 472 325 
3 325 472 326 
3 326 473 372 
3 372 473 373 
3 370 474 369 
3 369 475 367 
3 367 475 366 
3 254 457 476 
3 476 289 254 
3 455 254 453 
3 288 254 289 
3 455 456 254 
