ply
format ascii 1.0
comment VCGLIB generated
element vertex 226
property float x
property float y
property float z
property float nx
property float ny
property float nz
property float texture_u
property float texture_v
element face 220
property list uchar int vertex_indices
end_header
-16.7004 16.0171 16.5035 -0.2485246 -0.3555368 0.9010156 0.154700 0.430900
-5.7499 15.9356 16.4294 0.3118472 -0.8206317 0.4788685 0.307700 0.403600
-16.7731 16.0171 -16.4294 -0.9042133 -0.3513612 -0.2427833 0.182200 0.030800
-5.7499 15.9356 -16.4294 0.4047567 -0.877529 -0.2571283 0.307700 0.030800
-16.7004 18.3232 16.5035 -0.4595754 0.2739305 0.8448388 0.154700 0.404800
-5.6772 18.3232 16.4294 0.8513812 0.2711937 0.4490034 0.029200 0.403600
-16.7731 18.3232 -16.4294 -0.8513799 0.2711947 -0.4490052 0.156100 0.030800
-5.7499 18.3232 -16.5035 0.4595772 0.2739303 -0.8448378 0.030600 0.029700
-16.7731 16.0171 16.4294 -0.8513799 -0.2711947 0.4490052 0.182200 0.403600
-16.7004 15.9356 16.4294 -0.4047551 -0.8775297 0.2571284 0.183500 0.403600
-5.6772 16.0171 16.4294 0.9042141 -0.3513597 0.2427824 0.003100 0.403600
-5.7499 16.0171 16.5035 0.4595772 -0.2739303 0.8448378 0.030600 0.430900
-16.7004 16.0171 -16.5035 -0.4595754 -0.2739305 -0.8448388 0.154700 0.003600
-16.7004 15.9356 -16.4294 -0.311846 -0.8206321 -0.4788686 0.183500 0.030800
-5.7499 16.0171 -16.5035 0.2485256 -0.3555368 -0.9010153 0.030600 0.003600
-5.6772 16.0171 -16.4294 0.8513812 -0.2711937 -0.4490034 0.003100 0.030800
-16.7004 18.4047 16.4294 -0.2604983 0.8787065 0.4000195 0.154800 0.403600
-16.7731 18.3232 16.4294 -0.9042133 0.3513612 0.2427833 0.156100 0.403600
-5.7499 18.4047 16.4294 0.484401 0.8189395 0.3077237 0.030500 0.403600
-5.7499 18.3232 16.5035 0.2485256 0.3555368 0.9010153 0.030600 0.404800
-16.7004 18.4047 -16.4294 -0.4843992 0.8189405 -0.3077238 0.154800 0.030800
-16.7004 18.3232 -16.5035 -0.2485246 0.3555368 -0.9010156 0.154700 0.029700
-5.7499 18.4047 -16.4294 0.2604994 0.8787062 -0.4000194 0.030500 0.030800
-5.6772 18.3232 -16.4294 0.9042141 0.3513597 -0.2427824 0.029200 0.030800
-5.4981 16.0171 16.5035 -0.2485256 -0.3555368 0.9010153 0.772900 0.430900
5.4524 15.9356 16.4294 0.3118472 -0.8206317 0.4788685 0.925900 0.403600
-5.5708 16.0171 -16.4294 -0.9042141 -0.3513597 -0.2427824 0.800400 0.030800
5.4524 15.9356 -16.4294 0.4047567 -0.877529 -0.2571283 0.925900 0.030800
-5.4981 18.3232 16.5035 -0.4595772 0.2739303 0.8448378 0.772900 0.404800
5.5251 18.3232 16.4294 0.8513812 0.2711937 0.4490034 0.647400 0.403600
-5.5708 18.3232 -16.4294 -0.8513812 0.2711937 -0.4490034 0.774200 0.030800
5.4524 18.3232 -16.5035 0.4595772 0.2739303 -0.8448378 0.648800 0.029700
-5.5708 16.0171 16.4294 -0.8513812 -0.2711937 0.4490034 0.800400 0.403600
-5.4981 15.9356 16.4294 -0.4047567 -0.877529 0.2571283 0.801600 0.403600
5.5251 16.0171 16.4294 0.9042141 -0.3513597 0.2427824 0.621200 0.403600
5.4524 16.0171 16.5035 0.4595772 -0.2739303 0.8448378 0.648800 0.430900
-5.4981 16.0171 -16.5035 -0.4595772 -0.2739303 -0.8448378 0.772900 0.003600
-5.4981 15.9356 -16.4294 -0.3118472 -0.8206317 -0.4788685 0.801600 0.030800
5.4524 16.0171 -16.5035 0.2485256 -0.3555368 -0.9010153 0.648800 0.003600
5.5251 16.0171 -16.4294 0.8513812 -0.2711937 -0.4490034 0.621200 0.030800
-5.4981 18.4047 16.4294 -0.2604994 0.8787062 0.4000194 0.773000 0.403600
-5.5708 18.3232 16.4294 -0.9042141 0.3513597 0.2427824 0.774200 0.403600
5.4524 18.4047 16.4294 0.484401 0.8189395 0.3077237 0.648700 0.403600
5.4524 18.3232 16.5035 0.2485256 0.3555368 0.9010153 0.648800 0.404800
-5.4981 18.4047 -16.4294 -0.484401 0.8189395 -0.3077237 0.773000 0.030800
-5.4981 18.3232 -16.5035 -0.2485256 0.3555368 -0.9010153 0.772900 0.029700
5.4524 18.4047 -16.4294 0.2604994 0.8787062 -0.4000194 0.648700 0.030800
5.5251 18.3232 -16.4294 0.9042141 0.3513597 -0.2427824 0.647400 0.030800
5.7499 16.0171 16.5035 -0.2485256 -0.3555368 0.9010153 0.463300 0.430900
16.7004 15.9356 16.4294 0.311846 -0.8206321 0.4788686 0.616300 0.403600
5.6772 16.0171 -16.4294 -0.9042141 -0.3513597 -0.2427824 0.490800 0.030800
16.7004 15.9356 -16.4294 0.4047551 -0.8775297 -0.2571284 0.616300 0.030800
5.7499 18.3232 16.5035 -0.4595772 0.2739303 0.8448378 0.463300 0.404800
16.7731 18.3232 16.4294 0.8513799 0.2711947 0.4490052 0.337800 0.403600
5.6772 18.3232 -16.4294 -0.8513812 0.2711937 -0.4490034 0.464700 0.030800
16.7004 18.3232 -16.5035 0.4595754 0.2739305 -0.8448388 0.339200 0.029700
5.6772 16.0171 16.4294 -0.8513812 -0.2711937 0.4490034 0.490800 0.403600
5.7499 15.9356 16.4294 -0.4047566 -0.877529 0.2571283 0.492100 0.403600
16.7731 16.0171 16.4294 0.9042133 -0.3513612 0.2427833 0.311700 0.403600
16.7004 16.0171 16.5035 0.4595754 -0.2739305 0.8448388 0.339200 0.430900
5.7499 16.0171 -16.5035 -0.4595772 -0.2739303 -0.8448378 0.463300 0.003600
5.7499 15.9356 -16.4294 -0.3118472 -0.8206317 -0.4788685 0.492100 0.030800
16.7004 16.0171 -16.5035 0.2485246 -0.3555368 -0.9010156 0.339200 0.003600
16.7731 16.0171 -16.4294 0.8513799 -0.2711947 -0.4490052 0.311700 0.030800
5.7499 18.4047 16.4294 -0.2604994 0.8787062 0.4000194 0.463400 0.403600
5.6772 18.3232 16.4294 -0.9042141 0.3513597 0.2427824 0.464700 0.403600
16.7004 18.4047 16.4294 0.4843992 0.8189405 0.3077238 0.339100 0.403600
16.7004 18.3232 16.5035 0.2485246 0.3555368 0.9010156 0.339200 0.404800
5.7499 18.4047 -16.4294 -0.484401 0.8189395 -0.3077237 0.463400 0.030800
5.7499 18.3232 -16.5035 -0.2485256 0.3555368 -0.9010153 0.463300 0.029700
16.7004 18.4047 -16.4294 0.2604983 0.8787065 -0.4000195 0.339100 0.030800
16.7731 18.3232 -16.4294 0.9042133 0.3513612 -0.2427833 0.337800 0.030800
-10.7916 9.7191 12.5962 0 -0.7071068 -0.7071068 0.901300 0.927000
11.093 9.7191 12.5962 0 -0.7071068 -0.7071068 0.901300 0.678700
-10.7916 15.8516 12.5962 0 0 -1 0.831700 0.927000
11.093 15.8516 12.5962 0 0 -1 0.831700 0.678700
-10.7916 9.7191 14.2527 0 -0.4472136 0.8944272 0.920000 0.927000
11.093 9.7191 14.2527 0 -0.8944272 0.4472136 0.920000 0.678700
-10.7916 15.8516 14.2527 0 0 1 0.989600 0.927000
11.093 15.8516 14.2527 0 0 1 0.989600 0.678700
-12.2959 9.7191 -11.0925 0.7071068 -0.7071068 0 0.738400 0.998300
-12.2959 9.7191 11.2345 0.7071068 -0.7071068 0 0.738400 0.745000
-12.2959 15.8516 -11.0925 1 0 0 0.668800 0.998300
-12.2959 15.8516 11.2345 1 0 0 0.668800 0.745000
-13.9196 9.7191 -11.0925 -0.8944272 -0.4472136 0 0.756800 0.998300
-13.9196 9.7191 11.2345 -0.4472136 -0.8944272 0 0.756800 0.745000
-13.9196 15.8516 -11.0925 -1 0 0 0.826400 0.998300
-13.9196 15.8516 11.2345 -1 0 0 0.826400 0.745000
12.6252 9.7191 11.2339 -0.7071068 -0.7071068 0 0.900900 0.674200
12.6252 9.7191 -11.093 -0.7071068 -0.7071068 0 0.900900 0.420900
12.6252 15.8516 11.2339 -1 0 0 0.831300 0.674200
12.6252 15.8516 -11.093 -1 0 0 0.831300 0.420900
14.2489 9.7191 11.2339 0.8944272 -0.4472136 0 0.919300 0.674200
14.2489 9.7191 -11.093 0.4472136 -0.8944272 0 0.919300 0.420900
14.2489 15.8516 11.2339 1 0 0 0.988900 0.674200
14.2489 15.8516 -11.093 1 0 0 0.988900 0.420900
11.0884 9.7191 -12.3428 0 -0.7071068 0.7071068 0.594100 0.745000
-10.7963 9.7191 -12.3428 0 -0.7071068 0.7071068 0.594100 0.993300
11.0884 15.8516 -12.3428 0 0 1 0.663700 0.745000
-10.7963 15.8516 -12.3428 0 0 1 0.663700 0.993300
11.0884 9.7191 -13.9993 0 -0.4472136 -0.8944272 0.575400 0.745000
-10.7963 9.7191 -13.9993 0 -0.8944272 -0.4472136 0.575400 0.993300
11.0884 15.8516 -13.9993 0 0 -1 0.505800 0.745000
-10.7963 15.8516 -13.9993 0 0 -1 0.505800 0.993300
-10.6683 -18.4047 14.3413 0.8944272 0 0.4472136 0.005100 0.666600
-10.6683 -18.4047 10.9888 0.4472136 0 -0.8944272 0.005100 0.628600
-14.0886 -18.4047 14.3413 -0.4472136 0 0.8944272 0.005100 0.705400
-14.0886 -18.4047 10.9888 -0.8944272 0 -0.4472136 0.005100 0.589800
-10.6683 17.0417 14.3413 0.4472136 0 0.8944272 0.407200 0.666600
-10.6683 17.0417 10.9888 0.8944272 0 -0.4472136 0.407200 0.628600
-14.0886 17.0417 14.3413 -0.8944272 0 0.4472136 0.407200 0.705400
-14.0886 17.0417 10.9888 -0.4472136 0 -0.8944272 0.407200 0.589800
-14.0886 -18.4047 -14.19 -0.8944272 0 -0.4472136 0.814500 0.549200
-14.0886 -18.4047 -10.8375 -0.4472136 0 0.8944272 0.814500 0.587200
-10.6683 -18.4047 -14.19 0.4472136 0 -0.8944272 0.814500 0.510400
-10.6683 -18.4047 -10.8375 0.8944272 0 0.4472136 0.814500 0.472300
-14.0886 17.0417 -14.19 -0.4472136 0 -0.8944272 0.412400 0.549200
-14.0886 17.0417 -10.8375 -0.8944272 0 0.4472136 0.412400 0.587200
-10.6683 17.0417 -14.19 0.8944272 0 -0.4472136 0.412400 0.510400
-10.6683 17.0417 -10.8375 0.4472136 0 0.8944272 0.412400 0.472300
14.3762 -18.4047 10.9549 0.4472136 0 -0.8944272 0.005900 0.548400
11.0237 -18.4047 10.9549 -0.8944272 0 -0.4472136 0.005900 0.510400
14.3762 -18.4047 14.3752 0.8944272 0 0.4472136 0.005900 0.433500
11.0237 -18.4047 14.3752 -0.4472136 0 0.8944272 0.005900 0.471600
14.3762 17.0417 10.9549 0.8944272 0 -0.4472136 0.408000 0.548400
11.0237 17.0417 10.9549 -0.4472136 0 -0.8944272 0.408000 0.510400
14.3762 17.0417 14.3752 0.4472136 0 0.8944272 0.408000 0.433500
11.0237 17.0417 14.3752 -0.8944272 0 0.4472136 0.408000 0.471600
14.4101 -18.4047 -10.8375 0.8944272 0 0.4472136 0.413000 0.743400
14.4101 -18.4047 -14.19 0.4472136 0 -0.8944272 0.413000 0.705400
10.9898 -18.4047 -10.8375 -0.4472136 0 0.8944272 0.413000 0.628600
10.9898 -18.4047 -14.19 -0.8944272 0 -0.4472136 0.413000 0.666600
14.4101 17.0417 -10.8375 0.4472136 0 0.8944272 0.815100 0.743400
14.4101 17.0417 -14.19 0.8944272 0 -0.4472136 0.815100 0.705400
10.9898 17.0417 -10.8375 -0.8944272 0 0.4472136 0.815100 0.628600
10.9898 17.0417 -14.19 -0.4472136 0 -0.8944272 0.815100 0.666600
-10.7916 -4.194 12.5962 0 -0.7071068 -0.7071068 0.201100 0.993300
11.093 -4.194 12.5962 0 -0.7071068 -0.7071068 0.201100 0.745000
-10.7916 -0.6498 12.5962 0 0.7071068 -0.7071068 0.160900 0.993300
11.093 -0.6498 12.5962 0 0.7071068 -0.7071068 0.160900 0.745000
-10.7916 -4.194 14.2527 0 -0.4472136 0.8944272 0.219900 0.993300
11.093 -4.194 14.2527 0 -0.8944272 0.4472136 0.219900 0.745000
-10.7916 -0.6498 14.2527 0 0.8944272 0.4472136 0.260100 0.993300
11.093 -0.6498 14.2527 0 0.4472136 0.8944272 0.260100 0.745000
14.2489 -0.6498 11.2339 0.7071068 0.7071068 0 0.118500 0.998300
14.2489 -0.6498 -11.093 0.7071068 0.7071068 0 0.118500 0.745000
14.2489 -4.194 11.2339 0.7071068 -0.7071068 0 0.078300 0.998300
14.2489 -4.194 -11.093 0.7071068 -0.7071068 0 0.078300 0.745000
12.6252 -0.6498 11.2339 -0.8944272 0.4472136 0 0.019700 0.998300
12.6252 -0.6498 -11.093 -0.4472136 0.8944272 0 0.019700 0.745000
12.6252 -4.194 11.2339 -0.4472136 -0.8944272 0 0.059900 0.998300
12.6252 -4.194 -11.093 -0.8944272 -0.4472136 0 0.059900 0.745000
11.0884 -4.194 -12.3428 0 -0.7071068 0.7071068 0.484300 0.993300
-10.7963 -4.194 -12.3428 0 -0.7071068 0.7071068 0.484300 0.745000
11.0884 -0.6498 -12.3428 0 0.7071068 0.7071068 0.444100 0.993300
-10.7963 -0.6498 -12.3428 0 0.7071068 0.7071068 0.444100 0.745000
11.0884 -4.194 -13.9993 0 -0.4472136 -0.8944272 0.385100 0.993300
-10.7963 -4.194 -13.9993 0 -0.8944272 -0.4472136 0.385100 0.745000
11.0884 -0.6498 -13.9993 0 0.8944272 -0.4472136 0.425300 0.993300
-10.7963 -0.6498 -13.9993 0 0.4472136 -0.8944272 0.425300 0.745000
-13.9196 -4.194 11.2345 -0.7071068 -0.7071068 0 0.322400 0.745000
-13.9196 -4.194 -11.0925 -0.7071068 -0.7071068 0 0.322400 0.998300
-13.9196 -0.6498 11.2345 -0.7071068 0.7071068 0 0.362700 0.745000
-13.9196 -0.6498 -11.0925 -0.7071068 0.7071068 0 0.362700 0.998300
-12.2959 -4.194 11.2345 0.8944272 -0.4472136 0 0.304000 0.745000
-12.2959 -4.194 -11.0925 0.4472136 -0.8944272 0 0.304000 0.998300
-12.2959 -0.6498 11.2345 0.4472136 0.8944272 0 0.263800 0.745000
-12.2959 -0.6498 -11.0925 0.8944272 0.4472136 0 0.263800 0.998300
-16.7731 16.0171 16.4294 -0.8513799 -0.2711947 0.4490052 0.155800 0.431000
-16.7004 15.9356 16.4294 -0.4047551 -0.8775297 0.2571284 0.154900 0.432100
-5.7499 15.9356 16.4294 0.3118472 -0.8206317 0.4788685 0.030400 0.432100
-5.6772 16.0171 16.4294 0.9042141 -0.3513597 0.2427824 0.029500 0.431000
-16.7731 16.0171 -16.4294 -0.9042133 -0.3513612 -0.2427833 0.155800 0.003500
-16.7004 15.9356 -16.4294 -0.311846 -0.8206321 -0.4788686 0.154900 0.002400
-5.7499 15.9356 -16.4294 0.4047567 -0.877529 -0.2571283 0.030400 0.002400
-5.6772 16.0171 -16.4294 0.8513812 -0.2711937 -0.4490034 0.029500 0.003500
-16.7731 18.3232 16.4294 -0.9042133 0.3513612 0.2427833 0.155800 0.404700
-5.6772 18.3232 16.4294 0.8513812 0.2711937 0.4490034 0.029500 0.404700
-16.7731 18.3232 -16.4294 -0.8513799 0.2711947 -0.4490052 0.155800 0.029800
-5.6772 18.3232 -16.4294 0.9042141 0.3513597 -0.2427824 0.029500 0.029800
-5.7499 15.9356 -16.4294 0.4047567 -0.877529 -0.2571283 0.001800 0.030800
-5.7499 15.9356 16.4294 0.3118472 -0.8206317 0.4788685 0.001800 0.403600
-5.5708 16.0171 16.4294 -0.8513812 -0.2711937 0.4490034 0.774000 0.431000
-5.4981 15.9356 16.4294 -0.4047567 -0.877529 0.2571283 0.773000 0.432100
5.4524 15.9356 16.4294 0.3118472 -0.8206317 0.4788685 0.648600 0.432100
5.5251 16.0171 16.4294 0.9042141 -0.3513597 0.2427824 0.647600 0.431000
-5.5708 16.0171 -16.4294 -0.9042141 -0.3513597 -0.2427824 0.774000 0.003400
-5.4981 15.9356 -16.4294 -0.3118472 -0.8206317 -0.4788685 0.773000 0.002400
5.4524 15.9356 -16.4294 0.4047567 -0.877529 -0.2571283 0.648600 0.002400
5.5251 16.0171 -16.4294 0.8513812 -0.2711937 -0.4490034 0.647600 0.003400
-5.5708 18.3232 16.4294 -0.9042141 0.3513597 0.2427824 0.774000 0.404700
5.5251 18.3232 16.4294 0.8513812 0.2711937 0.4490034 0.647600 0.404700
-5.5708 18.3232 -16.4294 -0.8513812 0.2711937 -0.4490034 0.774000 0.029800
5.5251 18.3232 -16.4294 0.9042141 0.3513597 -0.2427824 0.647600 0.029800
5.4524 15.9356 -16.4294 0.4047567 -0.877529 -0.2571283 0.620000 0.030800
5.4524 15.9356 16.4294 0.3118472 -0.8206317 0.4788685 0.620000 0.403600
5.6772 16.0171 16.4294 -0.8513812 -0.2711937 0.4490034 0.464400 0.431000
5.7499 15.9356 16.4294 -0.4047566 -0.877529 0.2571283 0.463500 0.432100
16.7004 15.9356 16.4294 0.311846 -0.8206321 0.4788686 0.339000 0.432100
16.7731 16.0171 16.4294 0.9042133 -0.3513612 0.2427833 0.338100 0.431000
5.6772 16.0171 -16.4294 -0.9042141 -0.3513597 -0.2427824 0.464400 0.003500
5.7499 15.9356 -16.4294 -0.3118472 -0.8206317 -0.4788685 0.463500 0.002400
16.7004 15.9356 -16.4294 0.4047551 -0.8775297 -0.2571284 0.339000 0.002400
16.7731 16.0171 -16.4294 0.8513799 -0.2711947 -0.4490052 0.338100 0.003400
5.6772 18.3232 16.4294 -0.9042141 0.3513597 0.2427824 0.464400 0.404700
16.7731 18.3232 16.4294 0.8513799 0.2711947 0.4490052 0.338100 0.404700
5.6772 18.3232 -16.4294 -0.8513812 0.2711937 -0.4490034 0.464400 0.029800
16.7731 18.3232 -16.4294 0.9042133 0.3513612 -0.2427833 0.338100 0.029800
16.7004 15.9356 -16.4294 0.4047551 -0.8775297 -0.2571284 0.310400 0.030800
16.7004 15.9356 16.4294 0.311846 -0.8206321 0.4788686 0.310400 0.403600
-14.0886 17.0417 10.9888 -0.4472136 0 -0.8944272 0.407200 0.743400
-14.0886 -18.4047 10.9888 -0.8944272 0 -0.4472136 0.005100 0.743400
-14.0886 17.0417 -10.8375 -0.8944272 0 0.4472136 0.412400 0.433500
-14.0886 -18.4047 -10.8375 -0.4472136 0 0.8944272 0.814500 0.433500
14.3762 17.0417 14.3752 0.4472136 0 0.8944272 0.408000 0.587200
14.3762 -18.4047 14.3752 0.8944272 0 0.4472136 0.005900 0.587200
14.4101 17.0417 -10.8375 0.4472136 0 0.8944272 0.815100 0.589800
14.4101 -18.4047 -10.8375 0.8944272 0 0.4472136 0.413000 0.589800
-10.7916 -0.6498 14.2527 0 0.8944272 0.4472136 0.142100 0.993300
11.093 -0.6498 14.2527 0 0.4472136 0.8944272 0.142100 0.745000
12.6252 -0.6498 -11.093 -0.4472136 0.8944272 0 0.136900 0.745000
12.6252 -0.6498 11.2339 -0.8944272 0.4472136 0 0.136900 0.998300
-10.7963 -4.194 -13.9993 0 -0.8944272 -0.4472136 0.503100 0.745000
11.0884 -4.194 -13.9993 0 -0.4472136 -0.8944272 0.503100 0.993300
-12.2959 -0.6498 11.2345 0.4472136 0.8944272 0 0.381100 0.745000
-12.2959 -0.6498 -11.0925 0.8944272 0.4472136 0 0.381100 0.998300
3 9 13 3 
3 9 3 1 
3 16 18 22 
3 16 22 20 
3 0 11 19 
3 0 19 4 
3 10 15 23 
3 10 23 5 
3 14 12 21 
3 14 21 7 
3 2 8 17 
3 2 17 6 
3 0 168 169 
3 170 171 11 
3 172 12 173 
3 174 14 175 
3 4 16 176 
3 177 18 19 
3 178 20 21 
3 7 22 179 
3 9 8 2 
3 9 2 13 
3 173 12 14 
3 173 14 174 
3 180 15 10 
3 180 10 181 
3 170 11 0 
3 170 0 169 
3 16 4 19 
3 16 19 18 
3 18 5 23 
3 18 23 22 
3 22 7 21 
3 22 21 20 
3 20 6 17 
3 20 17 16 
3 11 171 177 
3 11 177 19 
3 4 176 168 
3 4 168 0 
3 175 14 7 
3 175 7 179 
3 12 172 178 
3 12 178 21 
3 33 37 27 
3 33 27 25 
3 40 42 46 
3 40 46 44 
3 24 35 43 
3 24 43 28 
3 34 39 47 
3 34 47 29 
3 38 36 45 
3 38 45 31 
3 26 32 41 
3 26 41 30 
3 24 182 183 
3 184 185 35 
3 186 36 187 
3 188 38 189 
3 28 40 190 
3 191 42 43 
3 192 44 45 
3 31 46 193 
3 33 32 26 
3 33 26 37 
3 187 36 38 
3 187 38 188 
3 194 39 34 
3 194 34 195 
3 184 35 24 
3 184 24 183 
3 40 28 43 
3 40 43 42 
3 42 29 47 
3 42 47 46 
3 46 31 45 
3 46 45 44 
3 44 30 41 
3 44 41 40 
3 35 185 191 
3 35 191 43 
3 28 190 182 
3 28 182 24 
3 189 38 31 
3 189 31 193 
3 36 186 192 
3 36 192 45 
3 57 61 51 
3 57 51 49 
3 64 66 70 
3 64 70 68 
3 48 59 67 
3 48 67 52 
3 58 63 71 
3 58 71 53 
3 62 60 69 
3 62 69 55 
3 50 56 65 
3 50 65 54 
3 48 196 197 
3 198 199 59 
3 200 60 201 
3 202 62 203 
3 52 64 204 
3 205 66 67 
3 206 68 69 
3 55 70 207 
3 57 56 50 
3 57 50 61 
3 201 60 62 
3 201 62 202 
3 208 63 58 
3 208 58 209 
3 198 59 48 
3 198 48 197 
3 64 52 67 
3 64 67 66 
3 66 53 71 
3 66 71 70 
3 70 55 69 
3 70 69 68 
3 68 54 65 
3 68 65 64 
3 59 199 205 
3 59 205 67 
3 52 204 196 
3 52 196 48 
3 203 62 55 
3 203 55 207 
3 60 200 206 
3 60 206 69 
3 75 73 72 
3 75 72 74 
3 79 78 76 
3 79 76 77 
3 77 76 72 
3 77 72 73 
3 83 81 80 
3 83 80 82 
3 87 86 84 
3 87 84 85 
3 85 84 80 
3 85 80 81 
3 91 89 88 
3 91 88 90 
3 95 94 92 
3 95 92 93 
3 93 92 88 
3 93 88 89 
3 99 97 96 
3 99 96 98 
3 103 102 100 
3 103 100 101 
3 101 100 96 
3 101 96 97 
3 109 108 104 
3 109 104 105 
3 111 109 105 
3 111 105 107 
3 110 210 211 
3 110 211 106 
3 108 110 106 
3 108 106 104 
3 117 116 112 
3 117 112 113 
3 119 212 213 
3 119 213 115 
3 118 119 115 
3 118 115 114 
3 116 118 114 
3 116 114 112 
3 125 124 120 
3 125 120 121 
3 127 125 121 
3 127 121 123 
3 126 127 123 
3 126 123 122 
3 124 214 215 
3 124 215 120 
3 133 132 128 
3 133 128 129 
3 135 133 129 
3 135 129 131 
3 134 135 131 
3 134 131 130 
3 216 134 130 
3 216 130 217 
3 136 138 139 
3 136 139 137 
3 140 141 143 
3 140 143 142 
3 136 137 141 
3 136 141 140 
3 139 138 218 
3 139 218 219 
3 144 146 147 
3 144 147 145 
3 148 149 151 
3 148 151 150 
3 144 145 220 
3 144 220 221 
3 147 146 150 
3 147 150 151 
3 152 154 155 
3 152 155 153 
3 156 157 159 
3 156 159 158 
3 152 153 222 
3 152 222 223 
3 155 154 158 
3 155 158 159 
3 160 162 163 
3 160 163 161 
3 164 165 167 
3 164 167 166 
3 160 161 165 
3 160 165 164 
3 163 162 224 
3 163 224 225 
