ply
format ascii 1.0
comment VCGLIB generated
element vertex 142
property float x
property float y
property float z
property float nx
property float ny
property float nz
property float texture_u
property float texture_v
element face 118
property list uchar int vertex_indices
end_header
-2.9528 -24.7821 13.77955 0 -1 0 0.372200 0.801400
-2.9528 -24.7821 -13.77945 0 -1 0 0.066900 0.801400
2.9527 -24.7821 -13.77945 0 -1 0 0.066900 0.736000
2.9527 -24.7821 13.77955 0 -1 0 0.372200 0.736000
2.5974 22.462 13.77955 0.4116634 0.6533545 0.6353434 0.070600 0.546600
2.5974 24.7821 4.971027e-05 0.4625792 0.8862082 -0.02560101 0.223300 0.546600
-2.5975 24.7821 4.971027e-05 -0.3032461 0.9527224 0.01902166 0.223300 0.604200
-2.5975 22.462 13.77955 -0.4784352 0.4500033 0.7540536 0.070600 0.604200
8.0864 -24.7821 18.91315 0.1825742 -0.9128709 0.3651484 0.249800 0.489600
8.0864 -20.7539 18.91315 0.6663523 0.4097043 0.6229904 0.249800 0.534200
-7.7311 -20.7539 18.91315 -0.3871734 0.1587418 0.9082389 0.074500 0.534200
-7.7311 -24.7821 18.91315 -0.2596888 -0.7345096 0.6269429 0.074500 0.489600
8.0864 -24.7821 -18.55785 0.7172542 -0.6302736 -0.297156 0.011200 0.940900
8.0864 -20.7539 -18.55785 0.8956435 0.3200186 -0.3088867 0.011200 0.896200
-7.7311 -24.7821 -18.91315 -0.227458 -0.8041864 -0.5491331 0.245800 0.432500
-7.7311 -20.7539 -18.91315 -0.3088389 0.3199903 -0.89567 0.245800 0.477100
7.731 -20.7539 -18.91315 0.3871039 0.1588172 -0.9082553 0.074500 0.477100
7.731 -24.7821 -18.91315 0.259648 -0.7344996 -0.6269715 0.074500 0.432500
-8.0864 -24.7821 18.55785 -0.5491331 -0.8041863 0.227458 0.541800 0.601500
-8.0864 -20.7539 18.55785 -0.8957095 0.3198774 0.3088413 0.541800 0.556900
-8.0864 -20.7539 -18.55785 -0.9082353 0.1587749 -0.3871681 0.952900 0.556900
-8.0864 -24.7821 -18.55785 -0.6269429 -0.7345096 -0.2596888 0.952900 0.601500
-2.5975 -20.3985 13.77955 -0.3213006 0.4985276 0.8051312 0.463100 0.740600
2.5974 -20.3985 13.77955 0.2468255 0.8726598 0.4213575 0.463100 0.683100
2.9527 24.4218 4.971027e-05 0.9255447 0.3780435 0.02121759 0.506500 0.162700
2.9527 22.1615 13.42425 0.8802174 0.1966337 0.4319172 0.481500 0.311400
2.9527 -20.3985 13.42425 0.7871217 0.5815225 0.2055992 0.010000 0.311400
2.9527 -20.3985 -13.42415 0.5491329 0.8041865 -0.2274583 0.010000 0.013900
2.9527 22.1615 -13.42415 0.8802197 0.3932672 -0.2656205 0.481500 0.013900
-2.5975 22.462 -13.77945 -0.4240845 0.5524344 -0.7176132 0.937900 0.782500
2.5974 22.462 -13.77945 0.4764077 0.5995198 -0.6431265 0.937900 0.840000
2.5974 -20.3985 -13.77945 0.2055992 0.5815225 -0.7871217 0.463100 0.840000
-2.5975 -20.3985 -13.77945 -0.3399697 0.7631909 -0.5495091 0.463100 0.782500
-1.5097 22.2873 4.971027e-05 -0.711479 -0.7016032 -0.03937806 0.986200 0.135400
-1.5097 20.3814 -11.31935 -0.3873715 -0.7639891 0.5160078 0.965100 0.260800
-1.5097 -17.9384 -11.31935 -0.6666667 0.3333333 0.6666667 0.540500 0.260800
-1.5097 -17.9384 11.31935 -0.6666667 0.6666667 -0.3333333 0.540500 0.010000
-1.5097 20.3814 11.31935 -0.3873713 -0.3819943 -0.8390613 0.965100 0.010000
-7.8352 -24.7821 -18.66185 0 -1 0 0.012800 0.855500
-7.8352 -24.7821 18.66195 0 -1 0 0.426300 0.855500
7.8351 -24.7821 -18.66185 0 -1 0 0.012800 0.681900
-3.204 -20.3985 14.03075 -0.2410192 0.9692607 0.04943088 0.591900 0.467700
-7.8352 -20.3985 18.66195 -0.2261124 0.9092044 0.3496004 0.540600 0.519000
7.8351 -20.3985 18.66195 0.2714602 0.9528283 0.1357481 0.540600 0.345400
3.204 -20.3985 14.03075 0 1 0 0.591900 0.396700
-2.9528 -20.3985 13.42425 -0.3109953 0.9501266 0.02327072 0.598600 0.464900
-2.9528 -20.3985 -13.42415 -0.9008442 0.3860067 -0.1986923 0.896100 0.464900
-3.204 -20.3985 -14.03075 -0.1534825 0.976159 -0.1534825 0.902800 0.467700
-7.8352 -20.3985 -18.66185 -0.3495815 0.9092193 -0.226082 0.954100 0.519000
3.204 -20.3985 -14.03075 0 1 0 0.902800 0.396700
7.8351 -20.3985 -18.66185 0.2260547 0.9092398 -0.349546 0.954100 0.345400
-2.9528 24.4268 4.971027e-05 -0.9116029 0.4104504 -0.02260095 0.506600 0.495300
-2.9528 22.2326 -13.50815 -0.9315723 0.1436102 -0.3339899 0.482300 0.644900
-2.9528 20.3814 -11.31935 -0.7834167 -0.2575141 0.5656366 0.461800 0.620700
-2.9528 22.2873 4.971027e-05 -0.711479 -0.7016032 0.03937704 0.482900 0.495300
-2.9528 -20.1473 -13.52825 -0.9035998 0.1715866 -0.3925117 0.012800 0.645100
-2.9528 -17.9384 -11.31935 -0.8728716 0.4364358 0.2182179 0.037300 0.620700
-2.9528 -20.1473 13.52835 -0.9322938 0.2385359 0.2718988 0.012800 0.345400
-2.9528 -17.9384 11.31935 -0.8017837 0.2672613 -0.5345225 0.037300 0.369900
-2.9528 22.2326 13.50825 -0.9372919 0.2846673 0.2011179 0.482300 0.345600
-2.9528 20.3814 11.31935 -0.7834166 -0.5150281 -0.3478573 0.461800 0.369900
8.0864 -20.7539 18.91315 0.6663523 0.4097043 0.6229904 0.426300 0.896200
8.0864 -24.7821 18.91315 0.1825742 -0.9128709 0.3651484 0.426300 0.940900
2.5974 22.462 13.77955 0.4116634 0.6533545 0.6353434 0.937900 0.683100
-2.5975 22.462 13.77955 -0.4784352 0.4500033 0.7540536 0.937900 0.740600
-8.0864 -24.7821 18.55785 -0.5491331 -0.8041863 0.227458 0.425100 0.858300
-8.0864 -24.7821 -18.55785 -0.6269429 -0.7345096 -0.2596888 0.013900 0.858300
8.0864 -24.7821 18.91315 0.1825742 -0.9128709 0.3651484 0.429100 0.679100
-7.7311 -24.7821 18.91315 -0.2596888 -0.7345096 0.6269429 0.429100 0.854400
8.0864 -24.7821 -18.55785 0.7172542 -0.6302736 -0.297156 0.013900 0.679100
-7.7311 -24.7821 -18.91315 -0.227458 -0.8041864 -0.5491331 0.010000 0.854400
7.731 -24.7821 -18.91315 0.259648 -0.7344996 -0.6269715 0.010000 0.683100
2.5974 -20.3985 13.77955 0.2468255 0.8726598 0.4213575 0.594700 0.403400
-2.5975 -20.3985 13.77955 -0.3213006 0.4985276 0.8051312 0.594700 0.461000
-2.5975 -20.3985 -13.77945 -0.3399697 0.7631909 -0.5495091 0.900000 0.461000
2.5974 -20.3985 -13.77945 0.2055992 0.5815225 -0.7871217 0.900000 0.403400
2.9527 -20.3985 -13.42415 0.5491329 0.8041865 -0.2274583 0.896100 0.399500
2.9527 -20.3985 13.42425 0.7871217 0.5815225 0.2055992 0.598600 0.399500
2.5974 22.462 -13.77945 0.4764077 0.5995198 -0.6431265 0.375900 0.546600
-2.5975 22.462 -13.77945 -0.4240845 0.5524344 -0.7176132 0.375900 0.604200
-2.9528 -20.3985 -13.42415 -0.9008442 0.3860067 -0.1986923 0.010000 0.644000
-2.9528 -20.3985 13.42425 -0.3109953 0.9501266 0.02327072 0.010000 0.346500
-2.9528 22.2873 4.971027e-05 -0.711479 -0.7016032 0.03937704 0.588500 0.940000
-2.9528 20.3814 -11.31935 -0.7834167 -0.2575141 0.5656366 0.463100 0.940000
-1.5097 20.3814 -11.31935 -0.3873715 -0.7639891 0.5160078 0.463100 0.924000
-1.5097 22.2873 4.971027e-05 -0.711479 -0.7016032 -0.03937806 0.588500 0.924000
-2.9528 20.3814 -11.31935 -0.7834167 -0.2575141 0.5656366 0.887600 0.890000
-2.9528 -17.9384 -11.31935 -0.8728716 0.4364358 0.2182179 0.463100 0.890000
-1.5097 -17.9384 -11.31935 -0.6666667 0.3333333 0.6666667 0.463100 0.874000
-1.5097 20.3814 -11.31935 -0.3873715 -0.7639891 0.5160078 0.887600 0.874000
-2.9528 -17.9384 -11.31935 -0.8728716 0.4364358 0.2182179 0.791400 0.643000
-2.9528 -17.9384 11.31935 -0.8017837 0.2672613 -0.5345225 0.540600 0.643000
-1.5097 -17.9384 11.31935 -0.6666667 0.6666667 -0.3333333 0.540600 0.627100
-1.5097 -17.9384 -11.31935 -0.6666667 0.3333333 0.6666667 0.791400 0.627100
-2.9528 -17.9384 11.31935 -0.8017837 0.2672613 -0.5345225 0.540500 0.294800
-2.9528 20.3814 11.31935 -0.7834166 -0.5150281 -0.3478573 0.965100 0.294800
-1.5097 20.3814 11.31935 -0.3873713 -0.3819943 -0.8390613 0.965100 0.310800
-1.5097 -17.9384 11.31935 -0.6666667 0.6666667 -0.3333333 0.540500 0.310800
-2.9528 20.3814 11.31935 -0.7834166 -0.5150281 -0.3478573 0.713900 0.940000
-1.5097 20.3814 11.31935 -0.3873713 -0.3819943 -0.8390613 0.713900 0.924000
-2.9528 -20.1473 13.52835 -0.9322938 0.2385359 0.2718988 0.597500 0.464900
-2.9528 -20.1473 -13.52825 -0.9035998 0.1715866 -0.3925117 0.897200 0.464900
2.5974 22.462 13.77955 0.4116634 0.6533545 0.6353434 0.010000 0.971500
2.9527 22.1615 13.42425 0.8802174 0.1966337 0.4319172 0.014000 0.966400
2.9527 24.4218 4.971027e-05 0.9255447 0.3780435 0.02121759 0.163700 0.984400
2.5974 24.7821 4.971027e-05 0.4625792 0.8862082 -0.02560101 0.163700 0.990000
-2.9528 24.4268 4.971027e-05 -0.9116029 0.4104504 -0.02260095 0.223300 0.608100
-2.9528 22.2326 -13.50815 -0.9315723 0.1436102 -0.3339899 0.372900 0.608100
-2.9528 -20.1473 13.52835 -0.9322938 0.2385359 0.2718988 0.465800 0.744600
-2.9528 22.2326 13.50825 -0.9372919 0.2846673 0.2011179 0.935300 0.744600
2.9527 -20.3985 13.42425 0.7871217 0.5815225 0.2055992 0.463100 0.679100
2.9527 22.1615 13.42425 0.8802174 0.1966337 0.4319172 0.934600 0.679100
2.5974 -20.3985 -13.77945 0.2055992 0.5815225 -0.7871217 0.010000 0.010000
2.5974 22.462 -13.77945 0.4764077 0.5995198 -0.6431265 0.484800 0.010000
-2.9528 22.2326 -13.50815 -0.9315723 0.1436102 -0.3339899 0.935300 0.778600
-2.9528 -20.1473 -13.52825 -0.9035998 0.1715866 -0.3925117 0.465800 0.778600
2.9527 22.1615 -13.42415 0.8802197 0.3932672 -0.2656205 0.309400 0.966800
2.5974 22.462 -13.77945 0.4764077 0.5995198 -0.6431265 0.313200 0.971900
-2.9528 22.2326 13.50825 -0.9372919 0.2846673 0.2011179 0.073600 0.608100
-7.7311 -20.7539 18.91315 -0.3871734 0.1587418 0.9082389 0.609500 0.447500
-7.8352 -20.3985 18.66195 -0.2261124 0.9092044 0.3496004 0.606700 0.451600
-8.0864 -20.7539 18.55785 -0.8957095 0.3198774 0.3088413 0.603900 0.447500
-8.0864 -20.7539 -18.55785 -0.9082353 0.1587749 -0.3871681 0.698100 0.449300
-7.8352 -20.3985 -18.66185 -0.3495815 0.9092193 -0.226082 0.695300 0.453400
-7.7311 -20.7539 -18.91315 -0.3088389 0.3199903 -0.89567 0.692500 0.449300
7.731 -20.7539 -18.91315 0.3871039 0.1588172 -0.9082553 0.820500 0.447500
7.8351 -20.3985 -18.66185 0.2260547 0.9092398 -0.349546 0.817700 0.451600
8.0864 -20.7539 -18.55785 0.8956435 0.3200186 -0.3088867 0.814900 0.447500
8.0864 -24.7821 -18.55785 0.7172542 -0.6302736 -0.297156 0.070600 0.432500
8.0864 -20.7539 -18.55785 0.8956435 0.3200186 -0.3088867 0.070600 0.477100
-8.0864 -24.7821 -18.55785 -0.6269429 -0.7345096 -0.2596888 0.249800 0.432500
-8.0864 -20.7539 -18.55785 -0.9082353 0.1587749 -0.3871681 0.249800 0.477100
-8.0864 -20.7539 18.55785 -0.8957095 0.3198774 0.3088413 0.070600 0.534200
-8.0864 -24.7821 18.55785 -0.5491331 -0.8041863 0.227458 0.070600 0.489600
7.8351 -20.3985 18.66195 0.2714602 0.9528283 0.1357481 0.247000 0.538100
-7.8352 -20.3985 18.66195 -0.2261124 0.9092044 0.3496004 0.073400 0.538100
-7.8352 -20.3985 18.66195 -0.2261124 0.9092044 0.3496004 0.540600 0.553000
-7.8352 -20.3985 -18.66185 -0.3495815 0.9092193 -0.226082 0.954100 0.553000
-7.8352 -20.3985 -18.66185 -0.3495815 0.9092193 -0.226082 0.247000 0.481100
7.8351 -20.3985 -18.66185 0.2260547 0.9092398 -0.349546 0.073400 0.481100
7.8351 -20.3985 -18.66185 0.2260547 0.9092398 -0.349546 0.010000 0.892300
7.8351 -20.3985 18.66195 0.2714602 0.9528283 0.1357481 0.423500 0.892300
3 0 1 2 
3 0 2 3 
3 4 5 6 
3 4 6 7 
3 8 9 10 
3 8 10 11 
3 12 13 61 
3 12 61 62 
3 14 15 16 
3 14 16 17 
3 18 19 20 
3 18 20 21 
3 63 64 22 
3 63 22 23 
3 24 25 26 
3 24 26 27 
3 24 27 28 
3 29 30 31 
3 29 31 32 
3 33 34 35 
3 33 35 36 
3 33 36 37 
3 65 66 38 
3 65 38 1 
3 65 1 0 
3 65 0 39 
3 67 68 39 
3 67 39 0 
3 67 0 3 
3 2 40 69 
3 2 69 67 
3 2 67 3 
3 70 71 40 
3 70 40 2 
3 70 2 1 
3 70 1 38 
3 72 73 41 
3 72 41 42 
3 72 42 43 
3 72 43 44 
3 45 46 47 
3 45 47 48 
3 45 48 42 
3 45 42 41 
3 74 75 49 
3 74 49 50 
3 74 50 48 
3 74 48 47 
3 76 77 44 
3 76 44 43 
3 76 43 50 
3 76 50 49 
3 78 79 6 
3 78 6 5 
3 51 52 53 
3 51 53 54 
3 52 55 56 
3 52 56 53 
3 80 81 57 
3 80 57 58 
3 80 58 56 
3 80 56 55 
3 57 59 60 
3 57 60 58 
3 59 51 54 
3 59 54 60 
3 82 83 84 
3 82 84 85 
3 86 87 88 
3 86 88 89 
3 90 91 92 
3 90 92 93 
3 94 95 96 
3 94 96 97 
3 98 82 85 
3 98 85 99 
3 72 44 77 
3 100 45 41 
3 100 41 73 
3 76 49 75 
3 74 47 46 
3 74 46 101 
3 102 103 104 
3 102 104 105 
3 106 6 79 
3 106 79 107 
3 108 22 64 
3 108 64 109 
3 23 110 111 
3 23 111 63 
3 27 112 113 
3 27 113 28 
3 114 29 32 
3 114 32 115 
3 105 104 116 
3 105 116 117 
3 118 7 6 
3 118 6 106 
3 38 66 70 
3 39 68 65 
3 40 71 69 
3 119 120 121 
3 122 123 124 
3 125 126 127 
3 128 17 16 
3 128 16 129 
3 14 130 131 
3 14 131 15 
3 10 132 133 
3 10 133 11 
3 9 134 135 
3 9 135 10 
3 19 136 137 
3 19 137 20 
3 15 138 139 
3 15 139 16 
3 13 140 141 
3 13 141 61 
