ply
format ascii 1.0
comment VCGLIB generated
element vertex 444
property float x
property float y
property float z
property float nx
property float ny
property float nz
property float texture_u
property float texture_v
element face 482
property list uchar int vertex_indices
end_header
0.42846 -0.0489685 -0.620865 0.587715 -0.5167566 -0.6225381 0.659083 0.982467
0.42846 -0.0545245 -0.591203 0.6910459 -0.7182686 -0.08090675 0.644679 0.982467
-0.42846 -0.0489685 -0.620865 -0.5876815 -0.5167243 -0.6225965 0.659083 0.566314
-0.42846 -0.0405825 -0.591203 -0.7098449 0.7025818 0.04999005 0.919634 0.637850
-0.417105 -0.0405825 -0.591203 -0.1068187 0.9905731 -0.08575995 0.925932 0.637850
-0.417861 -0.0381215 -0.620714 0 0.996541 0.08310366 0.925513 0.654208
-0.42846 -0.0381085 -0.620865 -0.5730919 0.6030617 -0.5548714 0.919634 0.654292
-0.42846 -0.0489685 -0.620865 -0.5876815 -0.5167243 -0.6225965 0.863010 0.973378
-0.42846 -0.0381085 -0.620865 -0.5730919 0.6030617 -0.5548714 0.856991 0.973378
0.418951 -0.0381085 -0.620865 0 0.7358857 -0.6771058 0.856991 0.503672
0.42846 -0.0381085 -0.620865 0.5730919 0.6030617 -0.5548714 0.856991 0.498401
0.42846 -0.0489685 -0.620865 0.587715 -0.5167566 -0.6225381 0.863010 0.498401
-0.42846 -0.0405825 -0.591203 -0.7098449 0.7025818 0.04999005 0.923186 0.029112
-0.42846 -0.0381085 -0.620865 -0.5730919 0.6030617 -0.5548714 0.921815 0.012671
-0.42846 -0.0489685 -0.620865 -0.5876815 -0.5167243 -0.6225965 0.927834 0.012671
-0.42846 -0.0545245 -0.591203 -0.6884907 -0.7212688 -0.07584061 0.930914 0.029112
-0.42846 -0.0631025 0.620865 -0.5762734 -0.5834457 0.5722762 0.827668 0.502564
0.42846 -0.0631025 0.620865 0.5763246 -0.5834958 0.5721736 0.827668 0.977541
0.42846 -0.0498185 0.620865 0.5780406 0.5785897 0.5754156 0.820306 0.977541
0.418633 -0.0498185 0.620865 0 0.7071068 0.7071068 0.820306 0.972094
-0.418827 -0.0498185 0.620865 0 0.7071068 0.7071068 0.820306 0.507904
-0.42846 -0.0498185 0.620865 -0.5780092 0.5788033 0.5752322 0.820306 0.502564
0.42846 -0.0498185 0.620865 0.5780406 0.5785897 0.5754156 0.892082 0.336034
0.42846 -0.0631025 0.620865 0.5763246 -0.5834958 0.5721736 0.899445 0.336034
0.42846 -0.0619925 0.505956 -0.008515211 -0.9999638 0 0.898829 0.399726
0.42846 -0.0515495 0.505956 0.7103952 0.703803 -0.0003360076 0.893042 0.399726
0.42846 -0.0498185 0.620865 0.5780406 0.5785897 0.5754156 0.953728 0.639329
0.42846 -0.0515495 0.505956 0.7103952 0.703803 -0.0003360076 0.953728 0.575677
0.418782 -0.0515495 0.505956 0.7063342 0.7078303 -0.008271166 0.959093 0.575677
0.421075 -0.0498185 0.607366 0.1118824 0.9852724 0.1293086 0.957823 0.631848
0.418633 -0.0498185 0.620865 0 0.7071068 0.7071068 0.959176 0.639329
-0.42846 -0.0498185 0.620865 -0.5780092 0.5788033 0.5752322 0.892082 0.315846
-0.42846 -0.0515495 0.505956 -0.7106228 0.7035725 -0.001007042 0.893042 0.252154
-0.42846 -0.0619925 0.505956 0.05084495 -0.9987066 0 0.898830 0.252154
-0.42846 -0.0631025 0.620865 -0.5762734 -0.5834457 0.5722762 0.899445 0.315846
0.42846 -0.0601265 0.3804 -0.4417604 -0.8971331 0 0.897795 0.469319
0.42846 -0.0497875 0.3804 0.7088382 0.7052061 0.01525933 0.892064 0.469319
-0.417237 0.0168225 0.505956 -0.65012 0.7250446 0.2272762 0.090673 0.475516
0.418782 0.0168225 0.505956 0.6492977 0.7263896 0.2253238 0.090453 0.070184
0.418782 0.0207035 0.3804 0.7206644 0.6904801 0.06229063 0.151355 0.070151
-0.42846 -0.0497875 0.3804 -0.7088382 0.7052061 0.01525933 0.892065 0.182561
-0.42846 -0.0601265 0.3804 -0.6272889 -0.7787247 -0.009827186 0.897795 0.182561
0.42846 -0.0584175 0.256776 0.02658234 0.9996467 0 0.896848 0.537841
0.42846 -0.0461645 0.256776 0.7089047 0.7048146 0.02627677 0.890056 0.537841
-0.417141 0.0393985 0.256867 -0.703445 0.704147 0.09665529 0.211991 0.475507
0.418782 0.0392605 0.256776 0.7043269 0.7032899 0.09647187 0.211964 0.070118
-0.42846 -0.0461645 0.256776 -0.7089047 0.7048146 0.02627677 0.890057 0.114039
-0.42846 -0.0584175 0.256776 -0.797282 -0.6036071 0 0.896848 0.114039
0.42846 -0.0566875 0.126392 -0.03030587 0.9995407 0 0.895889 0.610111
0.42846 -0.0402525 0.126392 0.7102244 0.7027471 0.04156766 0.886779 0.610111
0.418782 0.0554725 0.126392 0.6796734 0.7335104 -0.002564099 0.275703 0.070112
-0.42846 -0.0402525 0.126392 -0.7102244 0.7027471 0.04156766 0.886779 0.041769
-0.42846 -0.0566875 0.126392 0.03366245 0.9994333 0 0.895889 0.041769
0.42846 -0.0523795 0.073895 0.8518475 -0.4508577 0.2666145 0.893501 0.639209
0.42846 -0.0364295 0.074061 0.623168 0.7309309 -0.2782119 0.884661 0.639117
-0.417237 0.0197375 0.025947 -0.6539482 0.4884701 -0.5777099 0.328629 0.475676
0.418782 0.0361715 0.048711 0.6732845 0.6072411 -0.4218367 0.314981 0.070112
0.418782 0.0140335 0.025947 0.6764584 0.4449391 -0.5868844 0.330385 0.070106
-0.42846 -0.0533355 0.025947 -0.7119954 0.700398 -0.05005207 0.783078 0.617121
-0.42846 -0.0670245 0.025947 -0.9092227 -0.4163102 0 0.783078 0.609534
-0.42846 -0.0670245 0.061823 -0.8409563 -0.4631281 0.2798301 0.802963 0.609534
-0.42846 -0.0500875 0.060805 -0.7939837 0.5483055 -0.2625856 0.802399 0.618922
0.424751 -0.0702245 0.061794 0.3058912 -0.8711019 0.3842033 0.301182 0.996109
0.411331 -0.0702245 0.061794 -0.3058912 -0.8711019 0.3842033 0.301182 0.989266
0.411331 -0.0702245 0.025919 -0.3485002 -0.9373087 0 0.319474 0.989266
0.411331 -0.0702245 0.004670997 -0.3466941 -0.9376922 -0.02316428 0.330308 0.989266
0.424751 -0.0702245 0.004670997 0.3466941 -0.9376922 -0.02316428 0.330308 0.996109
0.418782 -0.0249435 0.004698996 0.9683168 0.2495257 0.009980266 0.351920 0.070070
-0.42846 -0.0543945 0.004698996 -0.7204551 0.6934769 0.005860041 0.771301 0.616534
-0.42846 -0.0670245 0.004698996 -0.9067134 -0.4216169 -0.0104981 0.771301 0.609534
0.42846 -0.0512565 -0.042244 0.7912317 0.5608751 0.2436627 0.798145 0.579876
0.42846 -0.0543945 0.004698996 0.7204551 0.6934769 0.005860041 0.772125 0.578137
0.42846 -0.0670245 0.004698996 0.9067134 -0.4216169 -0.0104981 0.772125 0.571137
0.42846 -0.0644725 -0.046773 0.8652262 -0.4575168 -0.2050902 0.800655 0.572551
-0.417237 0.07022449 -0.097677 -0.6663175 0.7436823 0.05438453 0.455081 0.473214
0.418782 0.0534415 -0.046399 0.6558527 0.6597288 0.3668994 0.429696 0.067795
0.418782 0.0651515 -0.09225401 0.673129 0.7370671 0.06024516 0.452645 0.067836
-0.42846 -0.0388335 -0.097677 -0.7164963 0.695164 -0.05813909 0.922216 0.302663
-0.42846 -0.0592625 -0.097677 -0.6795459 -0.7292924 0.07968645 0.933540 0.302663
-0.42846 -0.0511565 -0.06317601 -0.8627551 -0.4736929 -0.1768296 0.929047 0.321787
-0.42846 -0.0341715 -0.06047501 -0.622807 0.7440912 0.2417432 0.919632 0.323284
0.42846 -0.0452905 -0.250271 0.711503 0.7024997 -0.01605356 0.890824 0.764596
0.42846 -0.0388335 -0.097677 0.7164963 0.695164 -0.05813909 0.887245 0.680016
0.42846 -0.0592625 -0.097677 0.6471835 -0.7536948 0.1144455 0.898568 0.680016
0.42846 -0.0582115 -0.250271 0.7068741 -0.7073311 -0.00344902 0.897985 0.764596
0.418782 0.0511535 -0.250271 0.6988956 0.708967 -0.09439693 0.529564 0.067830
-0.42846 -0.0452905 -0.250271 -0.711503 0.7024997 -0.01605356 0.925796 0.218084
-0.42846 -0.0582115 -0.250271 -0.7045053 -0.7096934 -0.002747064 0.932957 0.218084
0.42846 -0.0456105 -0.342024 0.7062113 0.7079813 -0.0053101 0.891001 0.815453
0.42846 -0.0580665 -0.342024 0.7063585 -0.7078535 0.001129012 0.897905 0.815453
-0.417237 0.0351915 -0.342024 -0.7276615 0.6827379 -0.06616477 0.574844 0.473185
0.418782 0.0351915 -0.342024 0.7261702 0.6847565 -0.06152612 0.574721 0.067816
-0.42846 -0.0456105 -0.342024 -0.7062113 0.7079813 -0.0053101 0.925973 0.167227
-0.42846 -0.0580665 -0.342024 -0.7054858 -0.7087209 0.002167061 0.932877 0.167227
0.42846 -0.0589185 -0.479169 0.700877 -0.7132063 -0.01040728 0.898378 0.891470
0.42846 -0.0471915 -0.479169 0.7151271 0.6987987 0.0165414 0.891877 0.891470
0.418782 0.0342255 -0.479169 0.6480204 0.7279809 -0.2238601 0.641222 0.067796
-0.42846 -0.0471915 -0.479169 -0.7151271 0.6987987 0.0165414 0.926849 0.091210
-0.42846 -0.0589185 -0.479169 -0.6947901 -0.7190223 -0.01654115 0.933349 0.091210
0.42846 -0.0405825 -0.591203 0.7098449 0.7025818 0.04999005 0.888214 0.953568
0.42846 -0.0545245 -0.591203 0.6910459 -0.7182686 -0.08090675 0.895942 0.953568
-0.410325 -0.0511565 -0.06317601 0.06869902 -0.956356 -0.2840133 0.388248 0.575122
-0.42846 -0.0511565 -0.06317601 -0.8627551 -0.4736929 -0.1768296 0.388248 0.566314
-0.42846 -0.0592625 -0.097677 -0.6795459 -0.7292924 0.07968645 0.405004 0.566314
-0.42846 -0.0589185 -0.479169 -0.6947901 -0.7190223 -0.01654115 0.590271 0.566314
-0.42846 -0.0545245 -0.591203 -0.6884907 -0.7212688 -0.07584061 0.644679 0.566314
0.42846 -0.0511565 -0.06317601 0.8502594 -0.4854346 -0.2035002 0.388248 0.982468
-0.42846 -0.0580665 -0.342024 -0.7054858 -0.7087209 0.002167061 0.523668 0.566314
-0.42846 -0.0582115 -0.250271 -0.7045053 -0.7096934 -0.002747064 0.479109 0.566314
0.407622 -0.0511565 -0.06317601 -0.06869902 -0.956356 -0.2840133 0.388248 0.972348
0.254706 -0.0511565 -0.06317601 0.06869902 -0.956356 -0.2840133 0.388248 0.898086
0.233154 -0.0511565 -0.06317601 -0.06869902 -0.956356 -0.2840133 0.388248 0.887620
0.105895 -0.0511565 -0.06317601 0.06869902 -0.956356 -0.2840133 0.388248 0.825818
0.08229099 -0.0511565 -0.06317601 -0.06869902 -0.956356 -0.2840133 0.388248 0.814355
-0.04804701 -0.0511565 -0.06317601 0.06869902 -0.956356 -0.2840133 0.388248 0.751058
-0.069599 -0.0511565 -0.06317601 -0.06869902 -0.956356 -0.2840133 0.388248 0.740591
-0.198911 -0.0511565 -0.06317601 0.06869902 -0.956356 -0.2840133 0.388248 0.677792
-0.223541 -0.0511565 -0.06317601 -0.06869902 -0.956356 -0.2840133 0.388248 0.665831
0.42846 -0.0489685 -0.620865 0.587715 -0.5167566 -0.6225381 0.892862 0.970009
0.42846 -0.0381085 -0.620865 0.5730919 0.6030617 -0.5548714 0.886843 0.970009
0.42846 -0.0500875 0.060805 0.7939837 0.5483055 -0.2625856 0.741027 0.580525
0.42846 -0.0364295 0.074061 0.623168 0.7309309 -0.2782119 0.733679 0.588095
0.42846 -0.0523795 0.073895 0.8518475 -0.4508577 0.2666145 0.733771 0.579254
0.42846 -0.0670245 0.061823 0.8409563 -0.4631281 0.2798301 0.740462 0.571137
0.42846 -0.0523795 0.073895 0.8518475 -0.4508577 0.2666145 0.271460 0.980751
0.42846 -0.0566875 0.126392 -0.03030587 0.9995407 0 0.245951 0.980751
0.42846 -0.0584175 0.256776 0.02658234 0.9996467 0 0.182593 0.980751
0.42846 -0.0601265 0.3804 -0.4417604 -0.8971331 0 0.122521 0.980751
0.42846 -0.0619925 0.505956 -0.008515211 -0.9999638 0 0.061511 0.980751
0.42846 -0.0631025 0.620865 0.5763246 -0.5834958 0.5721736 0.005674 0.980751
-0.42846 -0.0631025 0.620865 -0.5762734 -0.5834457 0.5722762 0.005673 0.564353
-0.417237 0.0487125 0.07494599 -0.6773545 0.7093698 -0.1948986 0.300875 0.475677
0.418782 0.0487125 0.07494599 0.673435 0.7087458 -0.2101544 0.300875 0.070112
-0.42846 -0.0364295 0.074061 -0.623168 0.7309309 -0.2782119 0.884661 0.012763
-0.42846 -0.0523795 0.073895 -0.852555 -0.4506165 0.2647542 0.893501 0.012671
0.424751 -0.0584415 0.071508 0.2038702 -0.5352503 0.819722 0.296228 0.996109
0.411331 -0.0584415 0.071508 -0.2038702 -0.5352503 0.819722 0.296228 0.989266
-0.42846 -0.0523795 0.073895 -0.852555 -0.4506165 0.2647542 0.809654 0.617651
-0.42846 -0.0364295 0.074061 -0.623168 0.7309309 -0.2782119 0.809746 0.626492
0.42846 -0.0533355 0.025947 0.7119954 0.700398 -0.05005207 0.760348 0.578724
0.42846 -0.0511565 -0.06317601 0.8502594 -0.4854346 -0.2035002 0.809747 0.579932
0.42846 -0.0341715 -0.06047501 0.622807 0.7440912 0.2417432 0.808250 0.589346
0.411331 -0.0676725 -0.046802 -0.3172452 -0.8908497 -0.3251804 0.356554 0.989266
0.424751 -0.0676725 -0.046802 0.3172485 -0.8908587 -0.3251527 0.356554 0.996109
-0.417237 0.0329145 -0.018067 -0.6551951 0.4412532 0.6132006 0.411435 0.473108
0.418782 -0.0249435 0.004698996 0.9683168 0.2495257 0.009980266 0.383497 0.067581
0.418782 0.0262035 -0.018085 0.6681248 0.4269318 0.6093755 0.410646 0.067727
-0.42846 -0.0512565 -0.042244 -0.7912317 0.5608751 0.2436627 0.745281 0.618274
-0.42846 -0.0644725 -0.046773 -0.8652262 -0.4575168 -0.2050902 0.742770 0.610949
0.411331 -0.0566935 -0.060325 -0.2393952 -0.6529045 -0.7186137 0.363449 0.989266
0.424751 -0.0566935 -0.060325 0.2393952 -0.6529045 -0.7186137 0.363449 0.996109
-0.42846 -0.0341715 -0.06047501 -0.622807 0.7440912 0.2417432 0.735176 0.627744
-0.42846 -0.0511565 -0.06317601 -0.8627551 -0.4736929 -0.1768296 0.733679 0.618330
0.42846 -0.0341715 -0.06047501 0.622807 0.7440912 0.2417432 0.884661 0.659396
0.42846 -0.0511565 -0.06317601 0.8502594 -0.4854346 -0.2035002 0.894075 0.660893
0.418782 -0.0515495 0.505956 0.7063342 0.7078303 -0.008271166 0.119441 0.006912
0.418782 0.0168225 0.505956 0.6492977 0.7263896 0.2253238 0.119441 0.040064
0.421075 -0.0498185 0.607366 0.1118824 0.9852724 0.1293086 0.070267 0.007751
-0.418247 -0.0498185 0.607366 -0.1056267 0.9854589 0.1330931 0.073762 0.539433
-0.417237 0.0168225 0.505956 -0.65012 0.7250446 0.2272762 0.122891 0.507149
-0.417237 -0.0515495 0.505956 -0.7047457 0.7094458 -0.004517081 0.122891 0.540272
0.418782 -0.0497875 0.3804 0.7053885 0.7086546 0.01535132 0.180321 0.007766
-0.417237 0.0207035 0.3804 -0.7207714 0.6903437 0.06256434 0.183716 0.505269
-0.417237 -0.0497875 0.3804 -0.7053885 0.7086546 0.01535132 0.183716 0.539418
0.418782 -0.0461645 0.256776 0.7053015 0.7084146 0.02642969 0.240264 0.009523
0.418782 0.0392605 0.256776 0.7043269 0.7032899 0.09647187 0.240264 0.050944
-0.417237 -0.0461645 0.256776 -0.7050564 0.7086574 0.02646065 0.243606 0.537663
0.418782 -0.0402525 0.126392 0.7040085 0.7089525 0.04193245 0.303486 0.012390
-0.417237 0.0554725 0.126392 -0.6797843 0.7334065 -0.002869065 0.306771 0.488425
-0.417237 -0.0402525 0.126392 -0.7040085 0.7089525 0.04193245 0.306771 0.534799
0.418782 -0.0364295 0.074061 0.8157414 0.5405822 -0.2057591 0.328860 0.014243
0.418782 0.0487125 0.07494599 0.673435 0.7087458 -0.2101544 0.328431 0.055527
-0.417237 0.0403275 0.055372 -0.6845201 0.6372757 -0.3539944 0.341177 0.495761
-0.417237 -0.0533355 0.025947 -0.7022781 0.7100913 -0.05075323 0.355432 0.541137
-0.417237 -0.0500875 0.060805 -0.6368231 0.6953903 -0.3329996 0.338545 0.539563
0.418782 -0.0249435 0.004698996 0.9683168 0.2495257 0.009980266 0.362493 0.019812
0.418782 0.0140335 0.025947 0.6764584 0.4449391 -0.5868844 0.352190 0.038712
0.418782 -0.0543945 0.004698996 0.6942219 0.7197355 0.006073148 0.362493 0.005532
-0.417237 -0.0249435 0.004698996 -0.9748018 0.2229403 0.007691077 0.365725 0.527383
-0.417237 -0.0543945 0.004698996 -0.6942219 0.7197355 0.006073148 0.365725 0.541650
0.418782 0.0262035 -0.018085 0.6681248 0.4269318 0.6093755 0.386811 0.041081
0.418782 -0.0249435 0.004698996 0.9683168 0.2495257 0.009980266 0.375763 0.016280
0.418782 -0.0543945 0.004698996 0.6942219 0.7197355 0.006073148 0.375763 0.002000
-0.417237 -0.0341715 -0.06047501 -0.8163174 0.5493387 0.1784738 0.416556 0.536093
-0.417237 0.0564955 -0.046059 -0.6598593 0.6665425 0.3468526 0.409566 0.492130
-0.417237 -0.0388335 -0.097677 -0.6979434 0.7136607 -0.05969531 0.434594 0.538353
0.418782 -0.0452905 -0.250271 0.7027585 0.7112426 -0.0162662 0.499394 0.006414
0.418782 0.0511535 -0.250271 0.6988956 0.708967 -0.09439693 0.499394 0.053178
0.418782 0.0651515 -0.09225401 0.673129 0.7370671 0.06024516 0.422774 0.059965
-0.417237 0.0525765 -0.250271 -0.6984882 0.7074613 -0.1077627 0.508584 0.494031
-0.417237 -0.0452905 -0.250271 -0.7027585 0.7112426 -0.0162662 0.508584 0.541485
0.418782 0.0351915 -0.342024 0.7261702 0.6847565 -0.06152612 0.543882 0.045439
-0.417237 -0.0456105 -0.342024 -0.7080119 0.7061808 -0.005280096 0.553073 0.541640
0.418782 -0.0471915 -0.479169 0.6990641 0.7148733 0.01629717 0.610382 0.005493
0.418782 0.0342255 -0.479169 0.6480204 0.7279809 -0.2238601 0.610382 0.044970
-0.417237 0.0342255 -0.479169 -0.6479768 0.7280587 -0.2237337 0.619572 0.502929
-0.417237 -0.0471915 -0.479169 -0.6991385 0.7147949 0.01654148 0.619572 0.542406
0.418571 -0.0405825 -0.591203 0.1068173 0.9905601 -0.08591183 0.664705 0.008697
-0.417105 -0.0405825 -0.591203 -0.1068187 0.9905731 -0.08575995 0.673896 0.539202
0.418782 -0.0500875 0.060805 0.6368231 0.6953903 -0.3329996 0.335288 0.007621
-0.417237 -0.0364295 0.074061 -0.8157414 0.5405822 -0.2057591 0.332123 0.532947
0.418782 0.0361715 0.048711 0.6732845 0.6072411 -0.4218367 0.341152 0.049447
0.418782 -0.0341715 -0.06047501 0.8163174 0.5493387 0.1784738 0.407365 0.011806
0.418782 0.0534415 -0.046399 0.6558527 0.6597288 0.3668994 0.400540 0.054288
-0.417237 -0.0249435 0.004698996 -0.9748018 0.2229403 0.007691077 0.384954 0.531619
-0.417237 -0.0512565 -0.042244 -0.6386376 0.7057794 0.3066227 0.407716 0.544377
-0.417237 -0.0543945 0.004698996 -0.6942219 0.7197355 0.006073148 0.384954 0.545899
0.418782 -0.0497875 0.3804 0.7053885 0.7086546 0.01535132 0.959093 0.506068
0.42846 -0.0497875 0.3804 0.7088382 0.7052061 0.01525933 0.953728 0.506068
0.418782 -0.0461645 0.256776 0.7053015 0.7084146 0.02642969 0.959093 0.437499
0.42846 -0.0461645 0.256776 0.7089047 0.7048146 0.02627677 0.953728 0.437499
0.418782 -0.0402525 0.126392 0.7040085 0.7089525 0.04193245 0.959093 0.365147
0.42846 -0.0402525 0.126392 0.7102244 0.7027471 0.04156766 0.953728 0.365147
0.418782 -0.0364295 0.074061 0.8157414 0.5405822 -0.2057591 0.959093 0.336085
0.42846 -0.0364295 0.074061 0.623168 0.7309309 -0.2782119 0.953728 0.336085
0.418782 -0.0500875 0.060805 0.6368231 0.6953903 -0.3329996 0.744228 0.680363
0.418782 -0.0364295 0.074061 0.8157414 0.5405822 -0.2057591 0.733679 0.680297
0.42846 -0.0364295 0.074061 0.623168 0.7309309 -0.2782119 0.733713 0.674933
0.42846 -0.0500875 0.060805 0.7939837 0.5483055 -0.2625856 0.744262 0.675000
0.418782 -0.0533355 0.025947 0.7022781 0.7100913 -0.05075323 0.763632 0.680486
0.42846 -0.0533355 0.025947 0.7119954 0.700398 -0.05005207 0.763665 0.675122
0.418782 -0.0543945 0.004698996 0.6942219 0.7197355 0.006073148 0.775423 0.680560
0.42846 -0.0543945 0.004698996 0.7204551 0.6934769 0.005860041 0.775457 0.675196
0.418782 -0.0512565 -0.042244 0.6386376 0.7057794 0.3066227 0.801501 0.680723
0.42846 -0.0512565 -0.042244 0.7912317 0.5608751 0.2436627 0.801535 0.675359
0.418782 -0.0341715 -0.06047501 0.8163174 0.5493387 0.1784738 0.815350 0.680809
0.42846 -0.0341715 -0.06047501 0.622807 0.7440912 0.2417432 0.815384 0.675445
0.418782 -0.0388335 -0.097677 0.6979434 0.7136607 -0.05969531 0.919750 0.695113
0.418782 -0.0341715 -0.06047501 0.8163174 0.5493387 0.1784738 0.919750 0.674479
0.42846 -0.0341715 -0.06047501 0.622807 0.7440912 0.2417432 0.925117 0.674479
0.42846 -0.0388335 -0.097677 0.7164963 0.695164 -0.05813909 0.925117 0.695113
0.418782 -0.0452905 -0.250271 0.7027585 0.7112426 -0.0162662 0.919750 0.779749
0.42846 -0.0452905 -0.250271 0.711503 0.7024997 -0.01605356 0.925117 0.779749
0.418782 -0.0456105 -0.342024 0.7080119 0.7061808 -0.005280096 0.919750 0.830638
0.42846 -0.0456105 -0.342024 0.7062113 0.7079813 -0.0053101 0.925117 0.830638
0.418782 -0.0471915 -0.479169 0.6990641 0.7148733 0.01629717 0.919750 0.906705
0.42846 -0.0471915 -0.479169 0.7151271 0.6987987 0.0165414 0.925117 0.906705
0.418571 -0.0405825 -0.591203 0.1068173 0.9905601 -0.08591183 0.919632 0.968844
0.42846 -0.0405825 -0.591203 0.7098449 0.7025818 0.04999005 0.925117 0.968844
-0.417237 -0.0471915 -0.479169 -0.6991385 0.7147949 0.01654148 0.925859 0.575737
-0.42846 -0.0471915 -0.479169 -0.7151271 0.6987987 0.0165414 0.919634 0.575737
-0.417237 -0.0456105 -0.342024 -0.7080119 0.7061808 -0.005280096 0.925858 0.499667
-0.42846 -0.0456105 -0.342024 -0.7062113 0.7079813 -0.0053101 0.919633 0.499667
-0.417237 -0.0452905 -0.250271 -0.7027585 0.7112426 -0.0162662 0.925858 0.448778
-0.42846 -0.0452905 -0.250271 -0.711503 0.7024997 -0.01605356 0.919633 0.448778
-0.417237 -0.0388335 -0.097677 -0.6979434 0.7136607 -0.05969531 0.925858 0.364121
-0.42846 -0.0388335 -0.097677 -0.7164963 0.695164 -0.05813909 0.919632 0.364121
-0.417237 -0.0341715 -0.06047501 -0.8163174 0.5493387 0.1784738 0.925857 0.343471
-0.42846 -0.0341715 -0.06047501 -0.622807 0.7440912 0.2417432 0.919632 0.343471
-0.417237 -0.0512565 -0.042244 -0.6386376 0.7057794 0.3066227 0.801500 0.648032
-0.417237 -0.0341715 -0.06047501 -0.8163174 0.5493387 0.1784738 0.815349 0.647931
-0.42846 -0.0341715 -0.06047501 -0.622807 0.7440912 0.2417432 0.815394 0.654152
-0.42846 -0.0512565 -0.042244 -0.7912317 0.5608751 0.2436627 0.801546 0.654253
-0.417237 -0.0543945 0.004698996 -0.6942219 0.7197355 0.006073148 0.775423 0.648221
-0.42846 -0.0543945 0.004698996 -0.7204551 0.6934769 0.005860041 0.775468 0.654442
-0.417237 -0.0533355 0.025947 -0.7022781 0.7100913 -0.05075323 0.763632 0.648307
-0.42846 -0.0533355 0.025947 -0.7119954 0.700398 -0.05005207 0.763677 0.654528
-0.417237 -0.0500875 0.060805 -0.6368231 0.6953903 -0.3329996 0.744228 0.648448
-0.42846 -0.0500875 0.060805 -0.7939837 0.5483055 -0.2625856 0.744273 0.654669
-0.417237 -0.0364295 0.074061 -0.8157414 0.5405822 -0.2057591 0.733679 0.648525
-0.42846 -0.0364295 0.074061 -0.623168 0.7309309 -0.2782119 0.733724 0.654745
-0.417237 -0.0402525 0.126392 -0.7040085 0.7089525 0.04193245 0.953728 0.041732
-0.417237 -0.0364295 0.074061 -0.8157414 0.5405822 -0.2057591 0.953728 0.012671
-0.42846 -0.0364295 0.074061 -0.623168 0.7309309 -0.2782119 0.959950 0.012671
-0.42846 -0.0402525 0.126392 -0.7102244 0.7027471 0.04156766 0.959950 0.041732
-0.417237 -0.0461645 0.256776 -0.7050564 0.7086574 0.02646065 0.953728 0.114079
-0.42846 -0.0461645 0.256776 -0.7089047 0.7048146 0.02627677 0.959950 0.114079
-0.417237 -0.0497875 0.3804 -0.7053885 0.7086546 0.01535132 0.953728 0.182643
-0.42846 -0.0497875 0.3804 -0.7088382 0.7052061 0.01525933 0.959950 0.182643
-0.417237 -0.0515495 0.505956 -0.7047457 0.7094458 -0.004517081 0.953728 0.252248
-0.42846 -0.0515495 0.505956 -0.7106228 0.7035725 -0.001007042 0.959950 0.252248
-0.417105 -0.0405825 -0.591203 -0.1068187 0.9905731 -0.08575995 0.749312 0.470479
0.418782 0.0342255 -0.479169 0.6480204 0.7279809 -0.2238601 0.683992 0.065173
0.418571 -0.0405825 -0.591203 0.1068173 0.9905601 -0.08591183 0.749312 0.065275
0.421075 -0.0498185 0.607366 0.1118824 0.9852724 0.1293086 0.002000 0.073971
0.418782 0.0168225 0.505956 0.6492977 0.7263896 0.2253238 0.060839 0.075083
-0.417237 0.0168225 0.505956 -0.65012 0.7250446 0.2272762 0.060839 0.480451
0.418951 -0.0381085 -0.620865 0 0.7358857 -0.6771058 0.919843 0.985296
0.42846 -0.0381085 -0.620865 0.5730919 0.6030617 -0.5548714 0.925117 0.985296
-0.417105 -0.0405825 -0.591203 -0.1068187 0.9905731 -0.08575995 0.836804 0.018965
0.418571 -0.0405825 -0.591203 0.1068173 0.9905601 -0.08591183 0.836804 0.482166
0.418951 -0.0381085 -0.620865 0 0.7358857 -0.6771058 0.820306 0.482377
-0.418247 -0.0498185 0.607366 -0.1056267 0.9854589 0.1330931 0.954288 0.308417
-0.42846 -0.0498185 0.620865 -0.5780092 0.5788033 0.5752322 0.959950 0.315897
-0.418827 -0.0498185 0.620865 0 0.7071068 0.7071068 0.954609 0.315897
0.421075 -0.0498185 0.607366 0.1118824 0.9852724 0.1293086 0.864473 0.012671
-0.418827 -0.0498185 0.620865 0 0.7071068 0.7071068 0.856991 0.478213
0.418633 -0.0498185 0.620865 0 0.7071068 0.7071068 0.856991 0.014025
-0.414033 -0.0702245 0.004670997 0.3466941 -0.9376922 -0.02316428 0.330308 0.568420
-0.414033 -0.0702245 0.061794 0.3058994 -0.8710944 0.3842136 0.301181 0.568420
-0.424752 -0.0702245 0.061794 -0.3058912 -0.8711019 0.3842033 0.301181 0.562955
-0.424752 -0.0702245 0.004670997 -0.3466941 -0.9376922 -0.02316428 0.330308 0.562955
-0.414033 -0.0584415 0.071508 0.2038702 -0.5352503 0.819722 0.296228 0.568420
-0.424752 -0.0584415 0.071508 -0.2038686 -0.535215 0.8197454 0.296228 0.562955
-0.414033 -0.0676725 -0.046802 0.3172485 -0.8908587 -0.3251527 0.356554 0.568420
-0.424752 -0.0676725 -0.046802 -0.3172452 -0.8908497 -0.3251804 0.356554 0.562955
-0.414033 -0.0566935 -0.060325 0.2393952 -0.6529045 -0.7186137 0.363449 0.568420
-0.424752 -0.0566935 -0.060325 -0.2393952 -0.6529045 -0.7186137 0.363449 0.562955
-0.223541 -0.0670245 0.004698996 -0.3502957 -0.9363505 -0.02325531 0.330293 0.665550
-0.223541 -0.0670245 0.061823 -0.340655 -0.8289612 0.4435962 0.301167 0.665550
-0.410325 -0.0670245 0.061823 0.340655 -0.8289612 0.4435962 0.301167 0.570311
-0.410325 -0.0670245 0.004698996 0.3502957 -0.9363505 -0.02325531 0.330293 0.570311
-0.223541 -0.0523795 0.073895 -0.05194332 -0.8853774 0.4619618 0.295011 0.665550
-0.410325 -0.0523795 0.073895 0.05301239 -0.8859453 0.4607501 0.295011 0.570311
-0.223541 -0.0644725 -0.046773 -0.3506051 -0.865464 -0.3578382 0.356539 0.665550
-0.410325 -0.0644725 -0.046773 0.3506051 -0.865464 -0.3578382 0.356539 0.570311
-0.223541 -0.0511565 -0.06317601 -0.06869902 -0.956356 -0.2840133 0.364903 0.665550
-0.410325 -0.0511565 -0.06317601 0.06869902 -0.956356 -0.2840133 0.364903 0.570311
-0.219833 -0.0702245 0.004670997 -0.3466941 -0.9376922 -0.02316428 0.330308 0.667441
-0.202619 -0.0702245 0.004670997 0.3466941 -0.9376922 -0.02316428 0.330308 0.676218
-0.202619 -0.0702245 0.061794 0.3058994 -0.8710944 0.3842136 0.301181 0.676218
-0.219833 -0.0702245 0.061794 -0.3058912 -0.8711019 0.3842033 0.301181 0.667441
-0.202619 -0.0584415 0.071508 0.2038702 -0.5352503 0.819722 0.296228 0.676218
-0.219833 -0.0584415 0.071508 -0.2038686 -0.535215 0.8197454 0.296228 0.667441
-0.202619 -0.0676725 -0.046802 0.3172452 -0.8908497 -0.3251804 0.356554 0.676218
-0.219833 -0.0676725 -0.046802 -0.3172485 -0.8908587 -0.3251527 0.356554 0.667441
-0.202619 -0.0566935 -0.060325 0.2393952 -0.6529045 -0.7186137 0.363449 0.676218
-0.219833 -0.0566935 -0.060325 -0.2393952 -0.6529045 -0.7186137 0.363449 0.667441
-0.069599 -0.0670245 0.004698996 -0.3502957 -0.9363505 -0.02325531 0.330293 0.744044
-0.069599 -0.0670245 0.061823 -0.340655 -0.8289612 0.4435962 0.301167 0.744044
-0.198911 -0.0670245 0.061823 0.340655 -0.8289612 0.4435962 0.301167 0.678109
-0.198911 -0.0670245 0.004698996 0.3502957 -0.9363505 -0.02325531 0.330293 0.678109
-0.069599 -0.0523795 0.073895 -0.05194332 -0.8853774 0.4619618 0.295011 0.744044
-0.198911 -0.0523795 0.073895 0.05194332 -0.8853774 0.4619618 0.295011 0.678109
-0.069599 -0.0644725 -0.046773 -0.3506051 -0.865464 -0.3578382 0.356539 0.744044
-0.198911 -0.0644725 -0.046773 0.3506051 -0.865464 -0.3578382 0.356539 0.678109
-0.069599 -0.0511565 -0.06317601 -0.06869902 -0.956356 -0.2840133 0.364903 0.744044
-0.198911 -0.0511565 -0.06317601 0.06869902 -0.956356 -0.2840133 0.364903 0.678109
-0.06589101 -0.0702245 0.004670997 -0.3466941 -0.9376922 -0.02316428 0.330308 0.745935
-0.05175601 -0.0702245 0.004670997 0.3466941 -0.9376922 -0.02316428 0.330308 0.753142
-0.05175601 -0.0702245 0.061794 0.3058994 -0.8710944 0.3842136 0.301181 0.753142
-0.06589101 -0.0702245 0.061794 -0.3058994 -0.8710944 0.3842136 0.301181 0.745935
-0.05175601 -0.0584415 0.071508 0.2038702 -0.5352503 0.819722 0.296228 0.753142
-0.06589101 -0.0584415 0.071508 -0.2038702 -0.5352503 0.819722 0.296228 0.745935
-0.05175601 -0.0676725 -0.046802 0.3172485 -0.8908587 -0.3251527 0.356554 0.753142
-0.06589101 -0.0676725 -0.046802 -0.3172485 -0.8908587 -0.3251527 0.356554 0.745935
-0.05175601 -0.0566935 -0.060325 0.2393952 -0.6529045 -0.7186137 0.363449 0.753142
-0.06589101 -0.0566935 -0.060325 -0.2393952 -0.6529045 -0.7186137 0.363449 0.745935
0.08229099 -0.0670245 0.004698996 -0.3502957 -0.9363505 -0.02325531 0.330293 0.821491
0.08229099 -0.0670245 0.061823 -0.340655 -0.8289612 0.4435962 0.301167 0.821491
-0.04804701 -0.0670245 0.061823 0.340655 -0.8289612 0.4435962 0.301167 0.755033
-0.04804701 -0.0670245 0.004698996 0.3502957 -0.9363505 -0.02325531 0.330293 0.755033
0.08229099 -0.0523795 0.073895 -0.05194332 -0.8853774 0.4619618 0.295011 0.821491
-0.04804701 -0.0523795 0.073895 0.05194406 -0.8853901 0.4619375 0.295011 0.755033
0.08229099 -0.0644725 -0.046773 -0.3506051 -0.865464 -0.3578382 0.356539 0.821491
-0.04804701 -0.0644725 -0.046773 0.3506051 -0.865464 -0.3578382 0.356539 0.755033
0.08229099 -0.0511565 -0.06317601 -0.06869902 -0.956356 -0.2840133 0.364903 0.821491
-0.04804701 -0.0511565 -0.06317601 0.06869902 -0.956356 -0.2840133 0.364903 0.755033
0.085999 -0.0702245 0.004670997 -0.3466941 -0.9376922 -0.02316428 0.330308 0.823382
0.102187 -0.0702245 0.004670997 0.3466941 -0.9376922 -0.02316428 0.330308 0.831636
0.102187 -0.0702245 0.061794 0.3058994 -0.8710944 0.3842136 0.301181 0.831636
0.085999 -0.0702245 0.061794 -0.3058994 -0.8710944 0.3842136 0.301181 0.823382
0.102187 -0.0584415 0.071508 0.2038702 -0.5352503 0.819722 0.296228 0.831636
0.085999 -0.0584415 0.071508 -0.2038652 -0.5352371 0.8197318 0.296228 0.823382
0.102187 -0.0676725 -0.046802 0.3172485 -0.8908587 -0.3251527 0.356554 0.831636
0.085999 -0.0676725 -0.046802 -0.3172485 -0.8908587 -0.3251527 0.356554 0.823382
0.102187 -0.0566935 -0.060325 0.2393952 -0.6529045 -0.7186137 0.363449 0.831636
0.085999 -0.0566935 -0.060325 -0.2393952 -0.6529045 -0.7186137 0.363449 0.823382
0.233154 -0.0670245 0.004698996 -0.3502957 -0.9363505 -0.02325531 0.330293 0.898415
0.233154 -0.0670245 0.061823 -0.340655 -0.8289612 0.4435962 0.301167 0.898415
0.105895 -0.0670245 0.061823 0.340655 -0.8289612 0.4435962 0.301167 0.833527
0.105895 -0.0670245 0.004698996 0.3502957 -0.9363505 -0.02325531 0.330293 0.833527
0.233154 -0.0523795 0.073895 -0.05194406 -0.8853901 0.4619375 0.295011 0.898415
0.105895 -0.0523795 0.073895 0.05194406 -0.8853901 0.4619375 0.295011 0.833527
0.233154 -0.0644725 -0.046773 -0.3506051 -0.865464 -0.3578382 0.356539 0.898415
0.105895 -0.0644725 -0.046773 0.3506051 -0.865464 -0.3578382 0.356539 0.833527
0.233154 -0.0511565 -0.06317601 -0.06869902 -0.956356 -0.2840133 0.364903 0.898415
0.105895 -0.0511565 -0.06317601 0.06869902 -0.956356 -0.2840133 0.364903 0.833527
0.236863 -0.0702245 0.004670997 -0.3466941 -0.9376922 -0.02316428 0.330308 0.900306
0.250998 -0.0702245 0.004670997 0.3466941 -0.9376922 -0.02316428 0.330308 0.907514
0.250998 -0.0702245 0.061794 0.3058994 -0.8710944 0.3842136 0.301181 0.907514
0.236863 -0.0702245 0.061794 -0.3058994 -0.8710944 0.3842136 0.301181 0.900306
0.250998 -0.0584415 0.071508 0.2038686 -0.535215 0.8197454 0.296228 0.907514
0.236863 -0.0584415 0.071508 -0.2038702 -0.5352503 0.819722 0.296228 0.900306
0.250998 -0.0676725 -0.046802 0.3172485 -0.8908587 -0.3251527 0.356554 0.907514
0.236863 -0.0676725 -0.046802 -0.3172452 -0.8908497 -0.3251804 0.356554 0.900306
0.250998 -0.0566935 -0.060325 0.2393952 -0.6529045 -0.7186137 0.363449 0.907514
0.236863 -0.0566935 -0.060325 -0.2393952 -0.6529045 -0.7186137 0.363449 0.900306
0.407622 -0.0670245 0.025947 -0.3485002 -0.9373087 0 0.319459 0.987375
0.407622 -0.0670245 0.061823 -0.340655 -0.8289612 0.4435962 0.301167 0.987375
0.254706 -0.0670245 0.061823 0.340655 -0.8289612 0.4435962 0.301167 0.909404
0.254706 -0.0670245 0.004698996 0.3502957 -0.9363505 -0.02325531 0.330293 0.909404
0.407622 -0.0670245 0.004698996 -0.3502957 -0.9363505 -0.02325531 0.330294 0.987375
0.407622 -0.0523795 0.073895 -0.05194406 -0.8853901 0.4619375 0.295011 0.987375
0.254706 -0.0523795 0.073895 0.05194332 -0.8853774 0.4619618 0.295011 0.909404
0.407622 -0.0644725 -0.046773 -0.3506051 -0.865464 -0.3578382 0.356539 0.987375
0.254706 -0.0644725 -0.046773 0.3506051 -0.865464 -0.3578382 0.356539 0.909404
0.407622 -0.0511565 -0.06317601 -0.06869902 -0.956356 -0.2840133 0.364903 0.987375
0.254706 -0.0511565 -0.06317601 0.06869902 -0.956356 -0.2840133 0.364903 0.909404
0.42846 -0.0670245 0.061823 0.8409563 -0.4631281 0.2798301 0.301167 0.998000
0.42846 -0.0523795 0.073895 0.8518475 -0.4508577 0.2666145 0.295011 0.998000
0.42846 -0.0511565 -0.06317601 0.8502594 -0.4854346 -0.2035002 0.364903 0.998000
0.42846 -0.0644725 -0.046773 0.8652262 -0.4575168 -0.2050902 0.356539 0.998000
0.42846 -0.0670245 0.004698996 0.9067134 -0.4216169 -0.0104981 0.330294 0.998000
-0.42846 -0.0670245 0.004698996 -0.9067134 -0.4216169 -0.0104981 0.330293 0.561064
-0.42846 -0.0644725 -0.046773 -0.8652262 -0.4575168 -0.2050902 0.356539 0.561064
-0.42846 -0.0511565 -0.06317601 -0.8627551 -0.4736929 -0.1768296 0.364903 0.561064
-0.42846 -0.0523795 0.073895 -0.852555 -0.4506165 0.2647542 0.295011 0.561064
-0.42846 -0.0670245 0.061823 -0.8409563 -0.4631281 0.2798301 0.301167 0.561064
-0.42846 -0.0670245 0.025947 -0.9092227 -0.4163102 0 0.319459 0.561064
0.418782 0.0554725 0.126392 0.6796734 0.7335104 -0.002564099 0.303486 0.058805
0.418782 0.0207035 0.3804 0.7206644 0.6904801 0.06229063 0.180321 0.041946
0.418782 -0.0533355 0.025947 0.7022781 0.7100913 -0.05075323 0.352190 0.006046
0.418782 -0.0512565 -0.042244 0.6386376 0.7057794 0.3066227 0.398525 0.003521
0.418782 -0.0388335 -0.097677 0.6979434 0.7136607 -0.05969531 0.425403 0.009545
0.418782 -0.0456105 -0.342024 0.7080119 0.7061808 -0.005280096 0.543882 0.006259
-0.42846 -0.0381085 -0.620865 -0.5730919 0.6030617 -0.5548714 0.820306 0.012671
-0.417861 -0.0381215 -0.620714 0 0.996541 0.08310366 0.820389 0.018546
-0.417237 0.0342255 -0.479169 -0.6479768 0.7280587 -0.2237337 0.683992 0.470542
-0.417237 0.0342255 -0.479169 -0.6479768 0.7280587 -0.2237337 0.641345 0.473164
-0.417237 0.0525765 -0.250271 -0.6984882 0.7074613 -0.1077627 0.529564 0.473199
-0.417237 0.0564955 -0.046059 -0.6598593 0.6665425 0.3468526 0.429182 0.473166
-0.417237 -0.0249435 0.004698996 -0.9748018 0.2229403 0.007691077 0.381287 0.472943
-0.417237 -0.0249435 0.004698996 -0.9748018 0.2229403 0.007691077 0.352630 0.475634
-0.417237 0.0403275 0.055372 -0.6845201 0.6372757 -0.3539944 0.311206 0.475677
-0.417237 0.0554725 0.126392 -0.6797843 0.7334065 -0.002869065 0.275703 0.475677
-0.417237 0.0207035 0.3804 -0.7207714 0.6903437 0.06256434 0.151576 0.475483
-0.418247 -0.0498185 0.607366 -0.1056267 0.9854589 0.1330931 0.002000 0.480941
-0.418247 -0.0498185 0.607366 -0.1056267 0.9854589 0.1330931 0.864473 0.477892
-0.417141 0.0393985 0.256867 -0.703445 0.704147 0.09665529 0.243606 0.495911
-0.417237 0.0487125 0.07494599 -0.6773545 0.7093698 -0.1948986 0.331694 0.491699
-0.417237 0.0197375 0.025947 -0.6539482 0.4884701 -0.5777099 0.355432 0.505737
-0.417237 0.0329145 -0.018067 -0.6551951 0.4412532 0.6132006 0.395993 0.503564
-0.417237 0.07022449 -0.097677 -0.6663175 0.7436823 0.05438453 0.434594 0.485473
-0.417237 0.0351915 -0.342024 -0.7276615 0.6827379 -0.06616477 0.553073 0.502460
0.42846 -0.0589185 -0.479169 0.700877 -0.7132063 -0.01040728 0.590271 0.982468
0.42846 -0.0580665 -0.342024 0.7063585 -0.7078535 0.001129012 0.523668 0.982468
0.42846 -0.0582115 -0.250271 0.7068741 -0.7073311 -0.00344902 0.479109 0.982468
0.42846 -0.0592625 -0.097677 0.6471835 -0.7536948 0.1144455 0.405004 0.982468
-0.42846 -0.0584175 0.256776 -0.797282 -0.6036071 0 0.182593 0.564353
-0.42846 -0.0566875 0.126392 0.03366245 0.9994333 0 0.245951 0.564353
-0.42846 -0.0523795 0.073895 -0.852555 -0.4506165 0.2647542 0.271460 0.564353
0.407622 -0.0523795 0.073895 -0.05194406 -0.8853901 0.4619375 0.271460 0.970625
0.254706 -0.0523795 0.073895 0.05194332 -0.8853774 0.4619618 0.271460 0.896319
0.233154 -0.0523795 0.073895 -0.05194406 -0.8853901 0.4619375 0.271460 0.885847
0.105895 -0.0523795 0.073895 0.05194406 -0.8853901 0.4619375 0.271460 0.824009
0.08229099 -0.0523795 0.073895 -0.05194332 -0.8853774 0.4619618 0.271460 0.812539
-0.04804701 -0.0523795 0.073895 0.05194406 -0.8853901 0.4619375 0.271460 0.749204
-0.069599 -0.0523795 0.073895 -0.05194332 -0.8853774 0.4619618 0.271460 0.738732
-0.198911 -0.0523795 0.073895 0.05194332 -0.8853774 0.4619618 0.271460 0.675896
-0.223541 -0.0523795 0.073895 -0.05194332 -0.8853774 0.4619618 0.271460 0.663927
-0.410325 -0.0523795 0.073895 0.05301239 -0.8859453 0.4607501 0.271460 0.573165
-0.42846 -0.0619925 0.505956 0.05084495 -0.9987066 0 0.061511 0.564353
-0.42846 -0.0601265 0.3804 -0.6272889 -0.7787247 -0.009827186 0.122521 0.564353
3 0 1 2 
3 3 4 5 
3 5 6 3 
3 7 8 9 
3 7 9 10 
3 7 10 11 
3 12 13 14 
3 14 15 12 
3 16 17 18 
3 16 18 19 
3 16 19 20 
3 16 20 21 
3 22 23 24 
3 24 25 22 
3 26 27 28 
3 26 28 29 
3 26 29 30 
3 31 32 33 
3 33 34 31 
3 25 24 35 
3 35 36 25 
3 37 38 39 
3 40 41 33 
3 33 32 40 
3 36 35 42 
3 42 43 36 
3 44 39 45 
3 46 47 41 
3 41 40 46 
3 43 42 48 
3 48 49 43 
3 44 45 50 
3 46 51 52 
3 52 47 46 
3 49 48 53 
3 53 54 49 
3 55 56 57 
3 58 59 60 
3 60 61 58 
3 62 63 64 
3 64 65 66 
3 62 64 66 
3 55 57 67 
3 68 69 59 
3 59 58 68 
3 70 71 72 
3 72 73 70 
3 74 75 76 
3 77 78 79 
3 79 80 77 
3 81 82 83 
3 83 84 81 
3 74 76 85 
3 86 87 78 
3 78 77 86 
3 88 81 84 
3 84 89 88 
3 90 85 91 
3 92 93 87 
3 87 86 92 
3 88 89 94 
3 94 95 88 
3 90 91 96 
3 97 98 93 
3 93 92 97 
3 99 95 94 
3 94 100 99 
3 101 102 103 
3 104 105 106 
3 107 104 106 
3 108 107 106 
3 103 108 106 
3 103 106 109 
3 103 109 110 
3 103 110 111 
3 103 111 112 
3 103 112 113 
3 103 113 114 
3 103 114 115 
3 103 115 116 
3 103 116 117 
3 101 103 117 
3 12 15 98 
3 98 97 12 
3 99 100 118 
3 118 119 99 
3 120 121 122 
3 122 123 120 
3 124 125 126 
3 124 126 127 
3 124 127 128 
3 124 128 129 
3 124 129 130 
3 131 50 132 
3 51 133 134 
3 134 52 51 
3 63 62 135 
3 135 136 63 
3 131 132 56 
3 61 60 137 
3 137 138 61 
3 72 71 139 
3 139 120 123 
3 72 139 123 
3 70 73 140 
3 140 141 70 
3 142 143 66 
3 66 65 142 
3 144 145 146 
3 147 148 69 
3 69 68 147 
3 149 150 143 
3 143 142 149 
3 144 146 75 
3 147 151 152 
3 152 148 147 
3 82 153 154 
3 154 83 82 
3 155 156 157 
3 158 159 160 
3 161 156 155 
3 160 162 163 
3 164 165 161 
3 163 162 166 
3 167 165 164 
3 166 168 169 
3 170 171 167 
3 172 173 174 
3 175 176 177 
3 178 179 173 
3 180 181 182 
3 183 184 185 
3 186 187 188 
3 185 189 190 
3 191 187 186 
3 190 189 192 
3 193 194 191 
3 192 195 196 
3 197 194 193 
3 196 195 198 
3 171 170 199 
3 169 168 200 
3 200 172 174 
3 201 199 176 
3 202 203 180 
3 204 205 206 
3 184 183 205 
3 188 203 202 
3 207 28 27 
3 27 208 207 
3 209 207 208 
3 208 210 209 
3 211 209 210 
3 210 212 211 
3 213 211 212 
3 212 214 213 
3 215 216 217 
3 217 218 215 
3 219 215 218 
3 218 220 219 
3 221 219 220 
3 220 222 221 
3 223 221 222 
3 222 224 223 
3 225 223 224 
3 224 226 225 
3 227 228 229 
3 229 230 227 
3 231 227 230 
3 230 232 231 
3 233 231 232 
3 232 234 233 
3 235 233 234 
3 234 236 235 
3 237 235 236 
3 236 238 237 
3 239 4 3 
3 3 240 239 
3 241 239 240 
3 240 242 241 
3 243 241 242 
3 242 244 243 
3 245 243 244 
3 244 246 245 
3 247 245 246 
3 246 248 247 
3 249 250 251 
3 251 252 249 
3 253 249 252 
3 252 254 253 
3 255 253 254 
3 254 256 255 
3 257 255 256 
3 256 258 257 
3 259 257 258 
3 258 260 259 
3 261 262 263 
3 263 264 261 
3 265 261 264 
3 264 266 265 
3 267 265 266 
3 266 268 267 
3 269 267 268 
3 268 270 269 
3 271 272 273 
3 274 275 276 
3 277 237 238 
3 238 278 277 
3 279 280 281 
3 282 269 270 
3 282 270 283 
3 282 283 284 
3 285 286 287 
3 288 289 290 
3 290 291 288 
3 289 292 293 
3 293 290 289 
3 294 288 291 
3 291 295 294 
3 296 294 295 
3 295 297 296 
3 298 299 300 
3 300 301 298 
3 299 302 303 
3 303 300 299 
3 304 298 301 
3 301 305 304 
3 306 304 305 
3 305 307 306 
3 308 309 310 
3 310 311 308 
3 310 312 313 
3 313 311 310 
3 314 309 308 
3 308 315 314 
3 316 314 315 
3 315 317 316 
3 318 319 320 
3 320 321 318 
3 319 322 323 
3 323 320 319 
3 324 318 321 
3 321 325 324 
3 326 324 325 
3 325 327 326 
3 328 329 330 
3 330 331 328 
3 330 332 333 
3 333 331 330 
3 334 329 328 
3 328 335 334 
3 336 334 335 
3 335 337 336 
3 338 339 340 
3 340 341 338 
3 339 342 343 
3 343 340 339 
3 344 338 341 
3 341 345 344 
3 346 344 345 
3 345 347 346 
3 348 349 350 
3 350 351 348 
3 350 352 353 
3 353 351 350 
3 354 349 348 
3 348 355 354 
3 356 354 355 
3 355 357 356 
3 358 359 360 
3 360 361 358 
3 359 362 363 
3 363 360 359 
3 364 358 361 
3 361 365 364 
3 366 364 365 
3 365 367 366 
3 368 369 370 
3 370 371 368 
3 370 372 373 
3 373 371 370 
3 374 369 368 
3 368 375 374 
3 376 374 375 
3 375 377 376 
3 378 379 380 
3 378 380 381 
3 378 381 382 
3 379 383 384 
3 384 380 379 
3 385 382 381 
3 381 386 385 
3 387 385 386 
3 386 388 387 
3 135 62 389 
3 389 390 135 
3 136 135 390 
3 390 383 136 
3 63 136 383 
3 383 379 63 
3 64 63 379 
3 379 378 64 
3 65 64 378 
3 378 382 65 
3 142 65 382 
3 382 385 142 
3 149 142 385 
3 385 387 149 
3 150 149 387 
3 387 391 150 
3 143 150 391 
3 391 392 143 
3 66 143 392 
3 392 393 66 
3 62 66 393 
3 393 389 62 
3 295 291 394 
3 394 395 295 
3 297 295 395 
3 395 396 297 
3 296 297 396 
3 396 307 296 
3 294 296 307 
3 307 305 294 
3 288 294 305 
3 305 301 288 
3 289 288 301 
3 301 300 289 
3 292 289 300 
3 300 303 292 
3 293 292 303 
3 303 397 293 
3 290 293 397 
3 397 398 290 
3 399 394 291 
3 399 291 290 
3 399 290 398 
3 308 311 299 
3 299 298 308 
3 315 308 298 
3 298 304 315 
3 317 315 304 
3 304 306 317 
3 316 317 306 
3 306 327 316 
3 314 316 327 
3 327 325 314 
3 309 314 325 
3 325 321 309 
3 310 309 321 
3 321 320 310 
3 312 310 320 
3 320 323 312 
3 313 312 323 
3 323 302 313 
3 311 313 302 
3 302 299 311 
3 328 331 319 
3 319 318 328 
3 335 328 318 
3 318 324 335 
3 337 335 324 
3 324 326 337 
3 336 337 326 
3 326 347 336 
3 334 336 347 
3 347 345 334 
3 329 334 345 
3 345 341 329 
3 330 329 341 
3 341 340 330 
3 332 330 340 
3 340 343 332 
3 333 332 343 
3 343 322 333 
3 331 333 322 
3 322 319 331 
3 348 351 339 
3 339 338 348 
3 355 348 338 
3 338 344 355 
3 357 355 344 
3 344 346 357 
3 356 357 346 
3 346 367 356 
3 354 356 367 
3 367 365 354 
3 349 354 365 
3 365 361 349 
3 350 349 361 
3 361 360 350 
3 352 350 360 
3 360 363 352 
3 353 352 363 
3 363 342 353 
3 351 353 342 
3 342 339 351 
3 368 371 359 
3 359 358 368 
3 375 368 358 
3 358 364 375 
3 377 375 364 
3 364 366 377 
3 376 377 366 
3 366 388 376 
3 374 376 388 
3 388 386 374 
3 369 374 386 
3 386 381 369 
3 370 369 381 
3 381 380 370 
3 372 370 380 
3 380 384 372 
3 373 372 384 
3 384 362 373 
3 371 373 362 
3 362 359 371 
3 199 201 171 
3 171 400 167 
3 167 400 165 
3 165 401 161 
3 161 401 156 
3 199 402 176 
3 176 402 177 
3 182 403 180 
3 180 403 202 
3 202 404 188 
3 188 404 186 
3 186 405 191 
3 191 405 193 
3 281 406 407 
3 407 279 281 
3 271 408 272 
3 96 409 90 
3 90 410 85 
3 85 410 74 
3 74 411 75 
3 75 411 144 
3 144 412 145 
3 67 413 55 
3 55 414 56 
3 56 414 131 
3 131 415 50 
3 50 415 44 
3 44 416 39 
3 39 416 37 
3 276 417 274 
3 285 418 286 
3 160 159 162 
3 162 419 166 
3 166 419 168 
3 168 420 200 
3 200 420 172 
3 172 421 173 
3 173 421 178 
3 204 422 205 
3 205 422 184 
3 184 423 185 
3 185 423 189 
3 189 424 192 
3 192 424 195 
3 105 1 425 
3 105 425 426 
3 105 426 427 
3 105 427 428 
3 105 428 106 
3 1 105 2 
3 429 430 431 
3 432 124 130 
3 433 432 130 
3 434 433 130 
3 435 434 130 
3 436 435 130 
3 437 436 130 
3 438 437 130 
3 439 438 130 
3 440 439 130 
3 441 440 130 
3 130 442 443 
3 441 130 443 
3 431 441 443 
3 429 431 443 
