ply
format ascii 1.0
comment VCGLIB generated
element vertex 299
property float x
property float y
property float z
property float nx
property float ny
property float nz
property float texture_u
property float texture_v
element face 172
property list uchar int vertex_indices
end_header
-0.6499998 0.3649999 0.3500001 -0.5773501 0.5773503 0.5773503 0.034824 0.034824
0.6499998 0.3649999 0.3500001 0.5773501 0.5773503 0.5773503 0.691294 0.034824
0.6499998 0.3650001 -0.3499999 0.5773501 0.5773503 -0.5773503 0.691294 0.388308
-0.6499998 0.3650001 -0.3499999 -0.5773501 0.5773503 -0.5773503 0.034823 0.388308
-0.6499998 0.3349999 0.35 -0.5773601 -0.5773303 0.5773603 0.034823 0.019674
0.6499998 0.3349999 0.35 0.5773401 -0.5773703 0.5773403 0.691294 0.019674
0.6499998 0.3349999 0.35 0.5773401 -0.5773703 0.5773403 0.706444 0.034824
0.6499998 0.3350001 -0.35 0.5773501 -0.5773503 -0.5773503 0.706444 0.388308
0.6499998 0.3350001 -0.35 0.5773501 -0.5773503 -0.5773503 0.691294 0.403457
-0.6499998 0.3350001 -0.35 -0.5773401 -0.5773703 -0.5773403 0.034823 0.403457
-0.6499998 0.3350001 -0.35 -0.5773401 -0.5773703 -0.5773403 0.019674 0.388308
-0.6499998 0.3349999 0.35 -0.5773601 -0.5773303 0.5773603 0.019674 0.034824
-0.6249998 0.335 -0.325 -0.3015025 -0.9045399 -0.3015027 0.007050 0.375683
-0.6249998 0.335 -0.275 -0.3014944 -0.9045453 0.3014944 0.007050 0.350435
-0.6149998 0.335 -0.275 -0.5773301 -0.5773603 0.5773603 0.002000 0.350435
-0.6149998 0.335 0.275 -0.5773601 -0.5773303 -0.5773603 0.002000 0.072697
-0.6249998 0.335 0.275 -0.5773501 0.5773503 -0.5773503 0.007050 0.072697
-0.6249998 0.335 0.325 -0.3015025 -0.9045399 0.3015025 0.007050 0.047448
-0.5749998 0.265 0.315 0.9034875 -0.304977 0.3011629 0.002000 0.588104
-0.5749998 0.265 0.285 0.9034874 -0.304977 -0.3011629 0.002000 0.572955
0.5749998 0.265 0.285 -0.9034875 -0.304977 -0.3011629 0.582724 0.572955
0.5749998 0.265 0.315 -0.9034874 -0.304977 0.3011629 0.582724 0.588104
0.5849998 0.265 -0.275 -0.3011628 -0.3049771 0.9034877 0.499033 0.674116
0.6149998 0.265 -0.275 0.3011628 -0.3049771 0.9034876 0.499033 0.689266
0.6149998 0.265 0.275 0.3011628 -0.3049769 -0.9034877 0.221295 0.689266
0.5849998 0.265 0.275 -0.3011628 -0.3049769 -0.9034876 0.221295 0.674116
-0.5749998 0.265 -0.285 0.9034875 -0.304977 0.3011629 0.582776 0.471797
-0.5749998 0.265 -0.315 0.9034874 -0.304977 -0.3011629 0.582775 0.486941
0.5749998 0.265 -0.315 -0.9034875 -0.304977 -0.3011629 0.002000 0.486939
0.5749998 0.265 -0.285 -0.9034874 -0.304977 0.3011629 0.002001 0.471796
0.6249998 0.335 0.325 0.3015025 -0.9045399 0.3015025 0.719068 0.047448
0.6249998 0.335 0.275 0.3015025 -0.9045399 -0.3015027 0.719068 0.072697
0.6149998 0.335 0.275 0.5773501 -0.5773503 -0.5773503 0.724118 0.072697
0.6149998 0.335 -0.275 0.5773501 -0.5773503 0.5773503 0.724118 0.350435
0.6249998 0.335 -0.275 0.3015025 -0.9045399 0.3015025 0.719068 0.350435
0.6249998 0.335 -0.325 0.3015025 -0.9045399 -0.3015027 0.719068 0.375683
-0.6149998 0.265 -0.275 -0.3011628 -0.3049771 0.9034877 0.221215 0.789769
-0.5849998 0.265 -0.275 0.3011628 -0.3049771 0.9034876 0.221215 0.774620
-0.5849998 0.265 0.275 0.3011628 -0.3049769 -0.9034877 0.498953 0.774620
-0.6149998 0.265 0.275 -0.3011628 -0.3049769 -0.9034876 0.498953 0.789769
-0.5849998 0.335 0.275 0.5773501 -0.5773503 -0.5773503 0.637911 0.073604
-0.5849998 0.335 -0.275 0.5773601 -0.5773303 0.5773603 0.637911 0.350039
-0.5749998 0.335 -0.275 0.3015025 -0.9045399 0.3015025 0.070491 0.350039
-0.5749998 0.335 0.275 0.3015025 -0.9045399 -0.3015027 0.070491 0.073604
-0.5749998 0.335 -0.285 0.5773501 -0.5773503 0.5773503 0.070491 0.073604
0.5749998 0.335 -0.285 -0.5773501 -0.5773503 0.5773503 0.637911 0.073604
0.5749998 0.335 -0.275 -0.3015025 -0.9045399 0.3015025 0.637911 0.350039
0.5849998 0.335 -0.275 -0.5773501 -0.5773503 0.5773503 0.070491 0.350039
0.5849998 0.335 0.275 -0.5773501 -0.5773503 -0.5773503 0.070491 0.073604
0.5749998 0.335 0.275 -0.3015025 -0.9045399 -0.3015027 0.637911 0.073604
-0.5749998 0.335 0.285 0.5773501 -0.5773503 -0.5773503 0.070491 0.350039
0.5749998 0.335 0.285 -0.5773501 -0.5773503 -0.5773503 0.637911 0.350039
0.5789968 -0.365 0.3183389 0 -1 -1.311342e-07 0.516255 0.655905
0.5789968 -0.365 0.2789969 0 -1 -1.311342e-07 0.516255 0.639262
0.6183388 -0.365 0.2789969 0 -1 -1.311342e-07 0.532898 0.639262
0.6183388 -0.365 0.3183389 0 -1 -1.311342e-07 0.532898 0.655905
0.6183388 -0.365 -0.2789971 0 -1 -1.311342e-07 0.532898 0.655905
0.5789968 -0.365 -0.2789971 0 -1 -1.311342e-07 0.516255 0.655905
0.5789968 -0.365 -0.3183391 0 -1 -1.311342e-07 0.516255 0.639262
0.6183388 -0.365 -0.3183391 0 -1 -1.311342e-07 0.532898 0.639262
-0.5789968 -0.365 -0.3183391 0 -1 -1.311342e-07 0.532898 0.639262
-0.5789968 -0.365 -0.2789971 0 -1 -1.311342e-07 0.532898 0.655905
-0.6183388 -0.365 -0.2789971 0 -1 -1.311342e-07 0.516255 0.655905
-0.6183388 -0.365 -0.3183391 0 -1 -1.311342e-07 0.516255 0.639262
-0.6183388 -0.365 0.2789969 0 -1 -1.311342e-07 0.516255 0.639262
-0.5789968 -0.365 0.2789969 0 -1 -1.311342e-07 0.532898 0.639262
-0.5789968 -0.365 0.3183389 0 -1 -1.311342e-07 0.532898 0.655905
-0.6183388 -0.365 0.3183389 0 -1 -1.311342e-07 0.516255 0.655905
0.6249998 0.335 0.325 0 -1.311342e-07 1 0.027253 0.993810
0.5749998 0.335 0.325 0 -1.311342e-07 1 0.002000 0.993618
0.5749998 0.265 0.325 0 -1.311342e-07 1 0.002573 0.958077
0.6249998 0.265 0.325 0 -1.311342e-07 1 0.027936 0.958417
0.5749998 0.335 0.325 -0.9999998 0 0 0.098658 0.994264
0.5749998 0.335 0.315 -0.9999998 0 0 0.093746 0.994291
0.5749998 0.265 0.315 -0.9999998 0 0 0.093820 0.958791
0.5749998 0.265 0.325 -0.9999998 0 0 0.098181 0.958779
0.5749998 0.335 0.315 0 -1.311342e-07 1 0.582724 0.623452
-0.5749998 0.335 0.315 0 -1.311342e-07 1 0.002000 0.623453
-0.5749998 0.265 0.315 0 -1.311342e-07 1 0.002000 0.588104
0.5749998 0.265 0.315 0 -1.311342e-07 1 0.582724 0.588104
-0.5749998 0.335 0.315 0.9999998 0 0 0.906907 0.357133
-0.5749998 0.335 0.325 0.9999998 0 0 0.902341 0.357124
-0.5749998 0.265 0.325 0.9999998 0 0 0.902485 0.321649
-0.5749998 0.265 0.315 0.9999998 0 0 0.906686 0.321666
-0.5749998 0.335 0.325 0 -1.311342e-07 1 0.902341 0.357124
-0.6249998 0.335 0.325 0 -1.311342e-07 1 0.877540 0.357010
-0.6249998 0.265 0.325 0 -1.311342e-07 1 0.878154 0.321608
-0.5749998 0.265 0.325 0 -1.311342e-07 1 0.902485 0.321649
-0.6249998 0.335 0.325 -0.9999998 0 0 0.877540 0.357010
-0.6249998 0.335 0.275 -0.9999998 0 0 0.852350 0.356870
-0.6249998 0.265 0.275 -0.9999998 0 0 0.852854 0.321335
-0.6249998 0.265 0.325 -0.9999998 0 0 0.878154 0.321608
-0.6249998 0.335 0.275 0 1.311342e-07 -1 0.948677 0.357390
-0.6149998 0.335 0.275 0 1.311342e-07 -1 0.943790 0.357424
-0.6149998 0.265 0.275 0 1.311342e-07 -1 0.943862 0.321925
-0.6249998 0.265 0.275 0 1.311342e-07 -1 0.948140 0.321903
-0.6149998 0.335 0.275 -0.9999998 0 0 0.498953 0.825118
-0.6149998 0.335 -0.275 -0.9999998 0 0 0.221215 0.825118
-0.6149998 0.265 -0.275 -0.9999998 0 0 0.221215 0.789769
-0.6149998 0.265 0.275 -0.9999998 0 0 0.498953 0.789769
-0.6149998 0.335 -0.275 -2.999999e-06 -1.311342e-07 1 0.794769 0.357276
-0.6249998 0.335 -0.275 -2.999999e-06 -1.311342e-07 1 0.789966 0.357256
-0.6249998 0.265 -0.275 -2.999999e-06 -1.311342e-07 1 0.790263 0.321779
-0.6149998 0.265 -0.275 -2.999999e-06 -1.311342e-07 1 0.794503 0.321815
-0.6249998 0.335 -0.275 -0.9999998 0 0 0.789966 0.357256
-0.6249998 0.335 -0.325 -0.9999998 0 0 0.764882 0.357060
-0.6249998 0.265 -0.325 -0.9999998 0 0 0.765709 0.321658
-0.6249998 0.265 -0.275 -0.9999998 0 0 0.790263 0.321779
-0.6249998 0.335 -0.325 0 1.311342e-07 -1 0.764882 0.357060
-0.5749998 0.335 -0.325 0 1.311342e-07 -1 0.739433 0.356685
-0.5749998 0.265 -0.325 0 1.311342e-07 -1 0.740214 0.321192
-0.6249998 0.265 -0.325 0 1.311342e-07 -1 0.765709 0.321658
-0.5749998 0.335 -0.325 0.9999998 -7.86805e-13 6e-06 0.837035 0.357439
-0.5749998 0.335 -0.315 0.9999998 -7.86805e-13 6e-06 0.832145 0.357468
-0.5749998 0.265 -0.315 0.9999998 -7.86805e-13 6e-06 0.832250 0.321980
-0.5749998 0.265 -0.325 0.9999998 -7.86805e-13 6e-06 0.836519 0.321969
-0.5749998 0.335 -0.315 0 1.311342e-07 -1 0.582774 0.522291
0.5749998 0.335 -0.315 0 1.311342e-07 -1 0.002000 0.522284
0.5749998 0.265 -0.315 0 1.311342e-07 -1 0.002000 0.486939
-0.5749998 0.265 -0.315 0 1.311342e-07 -1 0.582775 0.486941
0.5749998 0.335 -0.315 -0.9999998 0 0 0.189132 0.997770
0.5749998 0.335 -0.325 -0.9999998 0 0 0.184698 0.997830
0.5749998 0.265 -0.325 -0.9999998 0 0 0.184061 0.961957
0.5749998 0.265 -0.315 -0.9999998 0 0 0.187923 0.961929
0.5749998 0.335 -0.325 0 1.311342e-07 -1 0.184698 0.997830
0.6249998 0.335 -0.325 0 1.311342e-07 -1 0.160234 0.997981
0.6249998 0.265 -0.325 0 1.311342e-07 -1 0.160244 0.962074
0.5749998 0.265 -0.325 0 1.311342e-07 -1 0.184061 0.961957
0.6249998 0.335 -0.325 0.9999998 0 0 0.160234 0.997981
0.6249998 0.335 -0.275 0.9999998 0 0 0.135711 0.998000
0.6249998 0.265 -0.275 0.9999998 0 0 0.136289 0.962097
0.6249998 0.265 -0.325 0.9999998 0 0 0.160244 0.962074
0.6249998 0.335 -0.275 0 -1.311342e-07 1 0.135711 0.998000
0.6149998 0.335 -0.275 0 -1.311342e-07 1 0.131140 0.997966
0.6149998 0.265 -0.275 0 -1.311342e-07 1 0.132196 0.962057
0.6249998 0.265 -0.275 0 -1.311342e-07 1 0.136289 0.962097
0.6149998 0.335 -0.275 0.9999998 0 0 0.499033 0.724614
0.6149998 0.335 0.275 0.9999998 0 0 0.221295 0.724614
0.6149998 0.265 0.275 0.9999998 0 0 0.221295 0.689266
0.6149998 0.265 -0.275 0.9999998 0 0 0.499033 0.689266
0.6149998 0.335 0.275 0 1.311342e-07 -1 0.056899 0.993973
0.6249998 0.335 0.275 0 1.311342e-07 -1 0.052193 0.993966
0.6249998 0.265 0.275 0 1.311342e-07 -1 0.052342 0.958498
0.6149998 0.265 0.275 0 1.311342e-07 -1 0.056408 0.958520
0.6249998 0.335 0.275 0.9999998 0 0 0.052193 0.993966
0.6249998 0.335 0.325 0.9999998 0 0 0.027253 0.993810
0.6249998 0.265 0.325 0.9999998 0 0 0.027936 0.958417
0.6249998 0.265 0.275 0.9999998 0 0 0.052342 0.958498
0.5749998 0.335 0.285 -0.9999998 0 0 0.079640 0.994234
0.5749998 0.335 0.275 -0.9999998 0 0 0.074738 0.994230
0.5749998 0.265 0.275 -0.9999998 0 0 0.074724 0.958735
0.5749998 0.265 0.285 -0.9999998 0 0 0.079307 0.958767
0.5749998 0.335 0.275 0 1.311342e-07 -1 0.074738 0.994230
0.5849998 0.335 0.275 0 1.311342e-07 -1 0.069923 0.994201
0.5849998 0.265 0.275 0 1.311342e-07 -1 0.070472 0.958686
0.5749998 0.265 0.275 0 1.311342e-07 -1 0.074724 0.958735
0.5849998 0.335 0.275 -0.9999998 0 0 0.221295 0.638768
0.5849998 0.335 -0.275 -0.9999998 0 0 0.499033 0.638768
0.5849998 0.265 -0.275 -0.9999998 0 0 0.499033 0.674116
0.5849998 0.265 0.275 -0.9999998 0 0 0.221295 0.674116
0.5849998 0.335 -0.275 0 -1.311342e-07 1 0.119193 0.997736
0.5749998 0.335 -0.275 0 -1.311342e-07 1 0.114367 0.997849
0.5749998 0.265 -0.275 0 -1.311342e-07 1 0.113973 0.961951
0.5849998 0.265 -0.275 0 -1.311342e-07 1 0.118275 0.961868
0.5749998 0.335 -0.275 -0.9999998 0 0 0.205980 0.997788
0.5749998 0.335 -0.285 -0.9999998 0 0 0.201192 0.997834
0.5749998 0.265 -0.285 -0.9999998 0 0 0.201543 0.961925
0.5749998 0.265 -0.275 -0.9999998 0 0 0.205350 0.961881
0.5749998 0.335 -0.285 0 -1.311342e-07 1 0.002001 0.436447
-0.5749998 0.335 -0.285 0 -1.311342e-07 1 0.582776 0.436451
-0.5749998 0.265 -0.285 0 -1.311342e-07 1 0.582776 0.471797
0.5749998 0.265 -0.285 0 -1.311342e-07 1 0.002001 0.471796
-0.5749998 0.335 -0.285 0.9999998 -7.86805e-13 6e-06 0.818260 0.357420
-0.5749998 0.335 -0.275 0.9999998 -7.86805e-13 6e-06 0.813387 0.357438
-0.5749998 0.265 -0.275 0.9999998 -7.86805e-13 6e-06 0.813321 0.321954
-0.5749998 0.265 -0.285 0.9999998 -7.86805e-13 6e-06 0.817849 0.321962
-0.5749998 0.335 -0.275 -2.999999e-06 -1.311342e-07 1 0.813387 0.357438
-0.5849998 0.335 -0.275 -2.999999e-06 -1.311342e-07 1 0.808497 0.357427
-0.5849998 0.265 -0.275 -2.999999e-06 -1.311342e-07 1 0.808868 0.321929
-0.5749998 0.265 -0.275 -2.999999e-06 -1.311342e-07 1 0.813321 0.321954
-0.5849998 0.335 -0.275 0.9999998 0 0 0.221215 0.739272
-0.5849998 0.335 0.275 0.9999998 0 0 0.498953 0.739272
-0.5849998 0.265 0.275 0.9999998 0 0 0.498953 0.774620
-0.5849998 0.265 -0.275 0.9999998 0 0 0.221215 0.774620
-0.5849998 0.335 0.275 0 1.311342e-07 -1 0.929858 0.357396
-0.5749998 0.335 0.275 0 1.311342e-07 -1 0.924994 0.357411
-0.5749998 0.265 0.275 0 1.311342e-07 -1 0.924911 0.321905
-0.5849998 0.265 0.275 0 1.311342e-07 -1 0.929444 0.321922
-0.5749998 0.335 0.275 0.9999998 0 0 0.924994 0.357411
-0.5749998 0.335 0.285 0.9999998 0 0 0.920174 0.357404
-0.5749998 0.265 0.285 0.9999998 0 0 0.920711 0.321900
-0.5749998 0.265 0.275 0.9999998 0 0 0.924911 0.321905
-0.5749998 0.335 0.285 0 1.311342e-07 -1 0.002000 0.537606
0.5749998 0.335 0.285 0 1.311342e-07 -1 0.582724 0.537606
0.5749998 0.265 0.285 0 1.311342e-07 -1 0.582724 0.572955
-0.5749998 0.265 0.285 0 1.311342e-07 -1 0.002000 0.572955
0.6149998 0.265 0.275 0 -0.006343868 -0.9999799 0.056408 0.958520
0.6249998 0.265 0.275 0 -0.006343868 -0.9999799 0.052342 0.958498
0.6183388 -0.365 0.2789969 0 -0.006343868 -0.9999799 0.052513 0.639240
0.5849998 0.265 0.275 0 -0.006343868 -0.9999799 0.070472 0.958686
0.5749998 0.265 0.275 0 -0.006343868 -0.9999799 0.074724 0.958735
0.5789968 -0.365 0.2789969 0 -0.006343868 -0.9999799 0.074269 0.639323
0.6249998 0.265 0.275 0.999944 -0.010573 -1.386482e-09 0.052342 0.958498
0.6249998 0.265 0.325 0.999944 -0.010573 -1.386482e-09 0.027936 0.958417
0.6183388 -0.365 0.3183389 0.999944 -0.010573 -1.386482e-09 0.030911 0.639134
0.6183388 -0.365 0.2789969 0.999944 -0.010573 -1.386482e-09 0.052513 0.639240
0.6249998 0.265 0.325 0 -0.01057313 0.9999442 0.027936 0.958417
0.5749998 0.265 0.325 0 -0.01057313 0.9999442 0.002573 0.958077
0.5789968 -0.365 0.3183389 0 -0.01057313 0.9999442 0.010749 0.638768
0.6183388 -0.365 0.3183389 0 -0.01057313 0.9999442 0.030911 0.639134
0.5749998 0.265 0.285 -0.9999797 -0.006343999 -8.31915e-10 0.079307 0.958767
0.5749998 0.265 0.275 -0.9999797 -0.006343999 -8.31915e-10 0.074724 0.958735
0.5789968 -0.365 0.2789969 -0.9999797 -0.006343999 -8.31915e-10 0.074269 0.639323
0.5749998 0.265 0.315 -0.9999797 -0.006343999 -8.31915e-10 0.093820 0.958791
0.5789968 -0.365 0.3183389 -0.9999797 -0.006343999 -8.31915e-10 0.095410 0.639400
0.5749998 0.265 0.325 -0.9999797 -0.006343999 -8.31915e-10 0.098181 0.958779
0.5749998 0.265 -0.315 -0.9999797 -0.006343999 -8.31915e-10 0.187923 0.961929
0.5749998 0.265 -0.325 -0.9999797 -0.006343999 -8.31915e-10 0.184061 0.961957
0.5789968 -0.365 -0.3183391 -0.9999797 -0.006343999 -8.31915e-10 0.181036 0.638867
0.5749998 0.265 -0.285 -0.9999797 -0.006343999 -8.31915e-10 0.201543 0.961925
0.5749998 0.265 -0.275 -0.9999797 -0.006343999 -8.31915e-10 0.205350 0.961881
0.5789968 -0.365 -0.2789971 -0.9999797 -0.006343999 -8.31915e-10 0.202748 0.638768
0.5749998 0.265 -0.325 0 -0.01057287 -0.9999442 0.184061 0.961957
0.6249998 0.265 -0.325 0 -0.01057287 -0.9999442 0.160244 0.962074
0.6183388 -0.365 -0.3183391 0 -0.01057287 -0.9999442 0.158585 0.639037
0.5789968 -0.365 -0.3183391 0 -0.01057287 -0.9999442 0.181036 0.638867
0.6249998 0.265 -0.325 0.999944 -0.010573 -1.386482e-09 0.160244 0.962074
0.6249998 0.265 -0.275 0.999944 -0.010573 -1.386482e-09 0.136289 0.962097
0.6183388 -0.365 -0.2789971 0.999944 -0.010573 -1.386482e-09 0.136482 0.639072
0.6183388 -0.365 -0.3183391 0.999944 -0.010573 -1.386482e-09 0.158585 0.639037
0.5849998 0.265 -0.275 0 -0.006344131 0.9999799 0.118275 0.961868
0.5749998 0.265 -0.275 0 -0.00634413 0.9999799 0.113973 0.961951
0.5789968 -0.365 -0.2789971 0 -0.006344131 0.9999799 0.115550 0.638975
0.6149998 0.265 -0.275 0 -0.006344131 0.9999799 0.132196 0.962057
0.6183388 -0.365 -0.2789971 0 -0.006344131 0.9999799 0.136482 0.639072
0.6249998 0.265 -0.275 0 -0.00634413 0.9999799 0.136289 0.962097
-0.6149998 0.265 -0.275 -2.999999e-06 -0.00634413 0.9999799 0.794503 0.321815
-0.6249998 0.265 -0.275 -2.999999e-06 -0.00634413 0.9999799 0.790263 0.321779
-0.6183388 -0.365 -0.2789971 -2.999999e-06 -0.006344131 0.9999799 0.790884 0.002597
-0.5849998 0.265 -0.275 0 -0.00634413 0.9999799 0.808868 0.321929
-0.6149998 0.265 -0.275 0 -0.00634413 0.9999799 0.794503 0.321815
-0.6183388 -0.365 -0.2789971 0 -0.00634413 0.9999799 0.790884 0.002597
-0.5749998 0.265 -0.275 -2.999999e-06 -0.00634413 0.9999799 0.813321 0.321954
-0.5849998 0.265 -0.275 -2.999999e-06 -0.00634413 0.9999799 0.808868 0.321929
-0.5749998 0.265 -0.275 -9.999995e-07 -0.00634413 0.9999799 0.813321 0.321954
-0.6183388 -0.365 -0.2789971 -9.999995e-07 -0.00634413 0.9999799 0.790884 0.002597
-0.5789968 -0.365 -0.2789971 -9.999995e-07 -0.00634413 0.9999799 0.812427 0.002644
-0.6249998 0.265 -0.275 -0.999944 -0.010573 -1.386482e-09 0.790263 0.321779
-0.6249998 0.265 -0.325 -0.999944 -0.010573 -1.386482e-09 0.765709 0.321658
-0.6183388 -0.365 -0.3183391 -0.999944 -0.010573 -1.386482e-09 0.769560 0.002448
-0.6183388 -0.365 -0.2789971 -0.999944 -0.010573 -1.386482e-09 0.790884 0.002597
-0.6249998 0.265 -0.325 0 -0.01057287 -0.9999442 0.765709 0.321658
-0.5749998 0.265 -0.325 0 -0.01057287 -0.9999442 0.740214 0.321192
-0.5789968 -0.365 -0.3183391 0 -0.01057287 -0.9999442 0.749748 0.002000
-0.6183388 -0.365 -0.3183391 0 -0.01057287 -0.9999442 0.769560 0.002448
-0.5749998 0.265 -0.285 0.9999797 -0.006343999 5.999167e-06 0.817849 0.321962
-0.5749998 0.265 -0.275 0.9999797 -0.006343999 5.999167e-06 0.813321 0.321954
-0.5789968 -0.365 -0.2789971 0.9999797 -0.006343999 5.999167e-06 0.812427 0.002644
-0.5749998 0.265 -0.315 0.9999797 -0.006343999 -8.31915e-10 0.832250 0.321980
-0.5749998 0.265 -0.285 0.9999797 -0.006343999 -8.31915e-10 0.817849 0.321962
-0.5789968 -0.365 -0.2789971 0.9999797 -0.006343999 -8.31915e-10 0.812427 0.002644
-0.5749998 0.265 -0.315 0.9999797 -0.006343999 1.999168e-06 0.832250 0.321980
-0.5789968 -0.365 -0.2789971 0.9999797 -0.006343999 1.999168e-06 0.812427 0.002644
-0.5789968 -0.365 -0.3183391 0.9999797 -0.006343999 1.999168e-06 0.833651 0.002686
-0.5749998 0.265 -0.325 0.9999797 -0.006343999 5.999167e-06 0.836519 0.321969
-0.5749998 0.265 -0.315 0.9999797 -0.006343999 5.999167e-06 0.832250 0.321980
-0.5789968 -0.365 -0.3183391 0.9999797 -0.006343999 5.999167e-06 0.833651 0.002686
-0.5749998 0.265 0.325 0 -0.01057313 0.9999442 0.902485 0.321649
-0.6249998 0.265 0.325 0 -0.01057313 0.9999442 0.878154 0.321608
-0.6183388 -0.365 0.3183389 0 -0.01057313 0.9999442 0.880499 0.002305
-0.5789968 -0.365 0.3183389 0 -0.01057313 0.9999442 0.902283 0.002362
-0.6249998 0.265 0.325 -0.999944 -0.010573 -1.386482e-09 0.878154 0.321608
-0.6249998 0.265 0.275 -0.999944 -0.010573 -1.386482e-09 0.852854 0.321335
-0.6183388 -0.365 0.2789969 -0.999944 -0.010573 -1.386482e-09 0.860233 0.002000
-0.6183388 -0.365 0.3183389 -0.999944 -0.010573 -1.386482e-09 0.880499 0.002305
-0.5849998 0.265 0.275 0 -0.006343868 -0.9999799 0.929444 0.321922
-0.5749998 0.265 0.275 0 -0.006343868 -0.9999799 0.924911 0.321905
-0.5789968 -0.365 0.2789969 0 -0.006343868 -0.9999799 0.924033 0.002431
-0.6149998 0.265 0.275 0 -0.006343868 -0.9999799 0.943862 0.321925
-0.6249998 0.265 0.275 0 -0.006343868 -0.9999799 0.948140 0.321903
-0.6183388 -0.365 0.2789969 0 -0.006343868 -0.9999799 0.945261 0.002497
-0.5749998 0.265 0.315 0.9999797 -0.006343999 -8.31915e-10 0.906686 0.321666
-0.5749998 0.265 0.325 0.9999797 -0.006343999 -8.31915e-10 0.902485 0.321649
-0.5789968 -0.365 0.3183389 0.9999797 -0.006343999 -8.31915e-10 0.902283 0.002362
-0.5749998 0.265 0.285 0.9999797 -0.006343999 -8.31915e-10 0.920711 0.321900
-0.5789968 -0.365 0.2789969 0.9999797 -0.006343999 -8.31915e-10 0.924033 0.002431
-0.5749998 0.265 0.275 0.9999797 -0.006343999 -8.31915e-10 0.924911 0.321905
-0.5749998 0.335 0.325 0.3015025 -0.9045399 0.3015025 0.072696 0.007050
-0.5749998 0.335 0.315 0.5773501 -0.5773503 0.5773503 0.072696 0.002000
0.5749998 0.335 0.315 -0.5773501 -0.5773503 0.5773503 0.653421 0.002000
0.5749998 0.335 0.325 -0.5773501 0.5773503 0.5773503 0.653421 0.007050
0.6249998 0.335 0.325 0.3015025 -0.9045399 0.3015025 0.678670 0.007050
-0.6249998 0.335 0.325 -0.3015025 -0.9045399 0.3015025 0.047448 0.007050
0.5749998 0.335 -0.325 -0.3015025 -0.9045399 -0.3015027 0.653421 0.416082
0.5749998 0.335 -0.315 -0.5773501 -0.5773503 -0.5773503 0.653421 0.421132
-0.5749998 0.335 -0.315 0.5773601 -0.5773603 -0.5773303 0.072697 0.421131
-0.5749998 0.335 -0.325 0.5773601 0.5773603 -0.5773303 0.072697 0.416081
-0.6249998 0.335 -0.325 -0.3015025 -0.9045399 -0.3015027 0.047448 0.416081
0.6249998 0.335 -0.325 0.3015025 -0.9045399 -0.3015027 0.678670 0.416082
3 0 1 2 
3 2 3 0 
3 4 5 1 
3 1 0 4 
3 6 7 2 
3 2 1 6 
3 8 9 3 
3 3 2 8 
3 10 11 0 
3 0 3 10 
3 11 10 12 
3 11 12 13 
3 11 13 14 
3 11 14 15 
3 11 15 16 
3 11 16 17 
3 18 19 20 
3 20 21 18 
3 22 23 24 
3 24 25 22 
3 26 27 28 
3 28 29 26 
3 6 30 31 
3 31 32 33 
3 6 31 33 
3 6 33 34 
3 7 6 34 
3 7 34 35 
3 36 37 38 
3 38 39 36 
3 40 41 42 
3 43 40 42 
3 42 44 45 
3 42 45 46 
3 46 47 48 
3 46 48 49 
3 42 46 49 
3 43 42 49 
3 50 43 49 
3 50 49 51 
3 52 53 54 
3 54 55 52 
3 56 57 58 
3 58 59 56 
3 60 61 62 
3 62 63 60 
3 64 65 66 
3 66 67 64 
3 68 69 70 
3 70 71 68 
3 72 73 74 
3 74 75 72 
3 76 77 78 
3 78 79 76 
3 80 81 82 
3 82 83 80 
3 84 85 86 
3 86 87 84 
3 88 89 90 
3 90 91 88 
3 92 93 94 
3 94 95 92 
3 96 97 98 
3 98 99 96 
3 100 101 102 
3 102 103 100 
3 104 105 106 
3 106 107 104 
3 108 109 110 
3 110 111 108 
3 112 113 114 
3 114 115 112 
3 116 117 118 
3 118 119 116 
3 120 121 122 
3 122 123 120 
3 124 125 126 
3 126 127 124 
3 128 129 130 
3 130 131 128 
3 132 133 134 
3 134 135 132 
3 136 137 138 
3 138 139 136 
3 140 141 142 
3 142 143 140 
3 144 145 146 
3 146 147 144 
3 148 149 150 
3 150 151 148 
3 152 153 154 
3 154 155 152 
3 156 157 158 
3 158 159 156 
3 160 161 162 
3 162 163 160 
3 164 165 166 
3 166 167 164 
3 168 169 170 
3 170 171 168 
3 172 173 174 
3 174 175 172 
3 176 177 178 
3 178 179 176 
3 180 181 182 
3 182 183 180 
3 184 185 186 
3 186 187 184 
3 188 189 190 
3 190 191 188 
3 192 193 194 
3 194 195 192 
3 196 197 198 
3 199 196 198 
3 200 199 198 
3 200 198 201 
3 202 203 204 
3 204 205 202 
3 206 207 208 
3 208 209 206 
3 210 211 212 
3 213 210 212 
3 213 212 214 
3 215 213 214 
3 216 217 218 
3 219 216 218 
3 220 219 218 
3 220 218 221 
3 222 223 224 
3 224 225 222 
3 226 227 228 
3 228 229 226 
3 230 231 232 
3 233 230 232 
3 233 232 234 
3 235 233 234 
3 236 237 238 
3 239 240 241 
3 242 243 238 
3 244 245 246 
3 247 248 249 
3 249 250 247 
3 251 252 253 
3 253 254 251 
3 255 256 257 
3 258 259 260 
3 261 262 263 
3 264 265 266 
3 267 268 269 
3 269 270 267 
3 271 272 273 
3 273 274 271 
3 275 276 277 
3 278 275 277 
3 279 278 277 
3 279 277 280 
3 281 282 283 
3 284 281 283 
3 284 283 285 
3 286 284 285 
3 287 288 289 
3 290 291 5 
3 289 290 5 
3 287 289 5 
3 292 287 5 
3 292 5 4 
3 293 294 295 
3 296 297 9 
3 295 296 9 
3 293 295 9 
3 298 293 9 
3 298 9 8 
