ply
format ascii 1.0
comment VCGLIB generated
element vertex 446
property float x
property float y
property float z
property float nx
property float ny
property float nz
property float texture_u
property float texture_v
element face 412
property list uchar int vertex_indices
end_header
0.1204252 5.162192 1.242185 11.18034 0 22.36068 0.170206 0.977477
0.1204252 5.662191 1.242185 22.36068 0 11.18034 0.170228 0.994037
-2.363945 5.662191 1.242185 -11.18034 0 22.36068 0.252504 0.993947
-2.363945 5.162192 1.242185 -22.36068 0 11.18034 0.252495 0.977388
-0.1295751 6.161492 0.992185 0 25 -7.509266e-05 0.298858 0.847655
-0.1295751 6.161487 -0.992185 0 25 -7.509266e-05 0.361124 0.847658
-2.113945 6.161487 -0.992185 0 25 -7.509266e-05 0.361126 0.785391
-2.113945 6.161492 0.992185 0 25 -7.509266e-05 0.298859 0.785388
0.1204252 5.662191 -1.242185 11.18034 0 -22.36068 0.087948 0.994170
0.1204252 5.162192 -1.242185 22.36068 0 -11.18034 0.087922 0.977610
-2.363945 5.162192 -1.242185 0 0 -25 0.009781 0.977724
-2.363945 5.662191 -1.242185 0 0 -25 0.009805 0.994284
-2.363945 5.662191 -1.242185 -25 0 0 0.330642 0.993945
-2.363945 5.162192 -1.242185 -25 0 0 0.330642 0.977385
-0.1295751 -6.087808 0.992185 11.18034 0 22.36068 0.428670 0.385509
-0.1295751 5.162192 0.992185 22.36068 0 11.18034 0.428671 0.758109
-2.113945 5.162192 0.992185 0 0 25 0.362949 0.758109
-2.113945 -6.087808 0.992185 0 0 25 0.362948 0.385509
-2.113945 -6.087808 0.992185 -25 0 0 0.493630 0.006629
-2.113945 5.162192 0.992185 -25 0 0 0.493631 0.379230
-2.113945 5.162192 -0.992185 -22.36068 0 -11.18034 0.427909 0.379230
-2.113945 -6.087808 -0.992185 -11.18034 0 -22.36068 0.427908 0.006629
-0.1295751 5.162192 -0.992185 0 0 -25 0.362186 0.379230
-0.1295751 -6.087808 -0.992185 0 0 -25 0.362186 0.006629
-0.1295751 -6.087808 -0.992185 25 0 0 0.494393 0.385509
-0.1295751 5.162192 -0.992185 25 0 0 0.494393 0.758109
-0.1295751 6.161487 -0.992185 0 0 -25 0.009551 0.955675
-0.1295751 5.662191 -0.992185 0 0 -25 0.009549 0.972212
-2.113945 5.662191 -0.992185 -11.18034 0 -22.36068 0.075271 0.972222
-2.113945 6.161487 -0.992185 -22.36068 0 -11.18034 0.075273 0.955686
-2.113945 5.662191 0.992185 -22.36068 0 11.18034 0.140993 0.972231
-2.113945 6.161492 0.992185 -11.18034 0 22.36068 0.140996 0.955694
-0.1295751 5.662191 0.992185 11.18034 0 22.36068 0.206715 0.972251
-0.1295751 6.161492 0.992185 22.36068 0 11.18034 0.206719 0.955715
-0.1295751 5.662191 -0.992185 25 0 0 0.272438 0.972262
-0.1295751 6.161487 -0.992185 25 0 0 0.272440 0.955725
-2.113945 5.162192 0.992185 0 -25 0 0.366780 0.852767
-2.363945 5.162192 1.242185 0 -25 0 0.372865 0.858852
-2.363945 5.162192 -1.242185 0 -25 0 0.372864 0.774242
-2.113945 5.162192 -0.992185 0 -25 0 0.366780 0.780326
-2.113945 5.662191 -0.992185 0 25 0 0.459538 0.852845
-2.363945 5.662191 -1.242185 0 25 0 0.465622 0.858929
-2.363945 5.662191 1.242185 0 25 0 0.465622 0.774319
-2.113945 5.662191 0.992185 0 25 0 0.459538 0.780403
-0.1295751 5.162192 -0.992185 0 -25 0 0.294339 0.780326
0.1204252 5.162192 -1.242185 0 -25 0 0.288255 0.774242
0.1204252 5.162192 1.242185 0 -25 0 0.288255 0.858851
-0.1295751 5.162192 0.992185 0 -25 0 0.294339 0.852768
-0.1295751 5.662191 0.992185 0 25 0 0.387097 0.780403
0.1204252 5.662191 1.242185 0 25 0 0.381012 0.774319
0.1204252 5.662191 -1.242185 0 25 0 0.381013 0.858929
-0.1295751 5.662191 -0.992185 0 25 0 0.387097 0.852845
15.41059 5.162192 -1.242185 -11.18034 0 -22.36068 0.170206 0.977477
15.41059 5.662191 -1.242185 -22.36068 0 -11.18034 0.170228 0.994037
17.89495 5.662191 -1.242185 11.18034 0 -22.36068 0.252504 0.993947
17.89495 5.162192 -1.242185 22.36068 0 -11.18034 0.252495 0.977387
15.66059 6.161492 -0.992185 0 25 7.509266e-05 0.298858 0.847655
15.66059 6.161487 0.992185 0 25 7.509266e-05 0.361124 0.847658
17.64495 6.161487 0.992185 0 25 7.509266e-05 0.361126 0.785391
17.64495 6.161492 -0.992185 0 25 7.509266e-05 0.298859 0.785388
15.41059 5.662191 1.242185 -11.18034 0 22.36068 0.087948 0.994170
15.41059 5.162192 1.242185 -22.36068 0 11.18034 0.087922 0.977610
17.89495 5.162192 1.242185 0 0 25 0.009781 0.977724
17.89495 5.662191 1.242185 0 0 25 0.009804 0.994284
17.89495 5.662191 1.242185 25 0 0 0.330642 0.993945
17.89495 5.162192 1.242185 25 0 0 0.330642 0.977385
15.66059 -6.087808 -0.992185 -11.18034 0 -22.36068 0.202220 0.532631
15.66059 5.162192 -0.992185 -22.36068 0 -11.18034 0.202220 0.905231
17.64495 5.162192 -0.992185 11.18034 0 -22.36068 0.136498 0.905231
17.64495 -6.087808 -0.992185 22.36068 0 -11.18034 0.136497 0.532631
17.64495 5.162192 0.992185 22.36068 0 11.18034 0.070775 0.905231
17.64495 -6.087808 0.992185 11.18034 0 22.36068 0.070775 0.532631
15.66059 5.162192 0.992185 0 0 25 0.005053 0.905232
15.66059 -6.087808 0.992185 0 0 25 0.005053 0.532631
15.66059 -6.087808 0.992185 -25 0 0 0.267942 0.532631
15.66059 5.162192 0.992185 -25 0 0 0.267942 0.905232
15.66059 6.161487 0.992185 0 0 25 0.009551 0.955675
15.66059 5.662191 0.992185 0 0 25 0.009549 0.972212
17.64495 5.662191 0.992185 11.18034 0 22.36068 0.075271 0.972222
17.64495 6.161487 0.992185 22.36068 0 11.18034 0.075273 0.955686
17.64495 5.662191 -0.992185 22.36068 0 -11.18034 0.140993 0.972231
17.64495 6.161492 -0.992185 11.18034 0 -22.36068 0.140996 0.955694
15.66059 5.662191 -0.992185 -11.18034 0 -22.36068 0.206715 0.972251
15.66059 6.161492 -0.992185 -22.36068 0 -11.18034 0.206719 0.955715
15.66059 5.662191 0.992185 -25 0 0 0.272438 0.972262
15.66059 6.161487 0.992185 -25 0 0 0.272440 0.955725
17.64495 5.162192 -0.992185 0 -25 0 0.366780 0.852767
17.89495 5.162192 -1.242185 0 -25 0 0.372865 0.858852
17.89495 5.162192 1.242185 0 -25 0 0.372864 0.774242
17.64495 5.162192 0.992185 0 -25 0 0.366780 0.780326
17.64495 5.662191 0.992185 0 25 0 0.459538 0.852845
17.89495 5.662191 1.242185 0 25 0 0.465622 0.858929
17.89495 5.662191 -1.242185 0 25 0 0.465622 0.774319
17.64495 5.662191 -0.992185 0 25 0 0.459538 0.780404
15.66059 5.162192 0.992185 0 -25 0 0.294339 0.780326
15.41059 5.162192 1.242185 0 -25 0 0.288255 0.774242
15.41059 5.162192 -1.242185 0 -25 0 0.288255 0.858851
15.66059 5.162192 -0.992185 0 -25 0 0.294339 0.852767
15.66059 5.662191 -0.992185 0 25 0 0.387097 0.780404
15.41059 5.662191 -1.242185 0 25 0 0.381012 0.774319
15.41059 5.662191 1.242185 0 25 0 0.381012 0.858929
15.66059 5.662191 0.992185 0 25 0 0.387096 0.852845
14.7998 3.899072 -0.394395 11.18034 1.109501e-05 -22.36068 0.277945 0.500006
14.7998 -6.161493 -0.3944 22.36068 5.547505e-06 -11.18034 0.005266 0.500007
13.96647 -6.161493 -0.3944 -11.18034 1.109501e-05 -22.36068 0.005266 0.477420
13.96647 3.899072 -0.394395 -22.36068 5.547505e-06 -11.18034 0.277945 0.477420
4.799805 3.899072 -0.394395 11.18034 1.109501e-05 -22.36068 0.277945 0.165852
4.799805 -6.161493 -0.3944 22.36068 5.547505e-06 -11.18034 0.005265 0.165852
3.96647 -6.161493 -0.3944 -11.18034 1.109501e-05 -22.36068 0.005265 0.143265
3.96647 3.899072 -0.394395 -22.36068 5.547505e-06 -11.18034 0.277945 0.143265
9.799806 3.899072 -0.394395 11.18034 1.109501e-05 -22.36068 0.277945 0.332929
9.799806 -6.161493 -0.3944 22.36068 5.547505e-06 -11.18034 0.005266 0.332929
8.96647 -6.161493 -0.3944 -11.18034 1.109501e-05 -22.36068 0.005266 0.310343
8.96647 3.899072 -0.394395 -22.36068 5.547505e-06 -11.18034 0.277945 0.310343
12.2998 3.899072 -0.20034 -11.18034 0 -22.36068 0.277945 0.416468
12.2998 -6.161493 -0.20034 -22.36068 0 -11.18034 0.005266 0.416467
11.46647 -6.161493 -0.20034 11.18034 0 -22.36068 0.005266 0.393881
11.46647 3.899072 -0.20034 22.36068 0 -11.18034 0.277945 0.393881
13.96647 3.899072 -0.20034 -11.18034 0 -22.36068 0.277945 0.472160
13.96647 -6.161493 -0.20034 -22.36068 0 -11.18034 0.005266 0.472160
13.13313 -6.161493 -0.20034 11.18034 0 -22.36068 0.005266 0.449573
13.13313 3.899072 -0.20034 22.36068 0 -11.18034 0.277945 0.449573
7.299805 3.899072 -0.20034 -11.18034 0 -22.36068 0.277945 0.249390
7.299805 -6.161493 -0.20034 -22.36068 0 -11.18034 0.005266 0.249391
6.46647 -6.161493 -0.20034 11.18034 0 -22.36068 0.005266 0.226804
6.46647 3.899072 -0.20034 22.36068 0 -11.18034 0.277945 0.226804
8.96647 3.899072 -0.20034 -11.18034 0 -22.36068 0.277945 0.305083
8.96647 -6.161493 -0.20034 -22.36068 0 -11.18034 0.005266 0.305083
8.133141 -6.161493 -0.20034 11.18034 0 -22.36068 0.005266 0.282497
8.133141 3.899072 -0.20034 22.36068 0 -11.18034 0.277945 0.282497
2.299805 3.899072 -0.20034 -11.18034 0 -22.36068 0.277945 0.082313
2.299805 -6.161493 -0.20034 -22.36068 0 -11.18034 0.005265 0.082314
1.46647 -6.161493 -0.20034 11.18034 0 -22.36068 0.005266 0.059727
1.46647 3.899072 -0.20034 22.36068 0 -11.18034 0.277945 0.059727
3.96647 3.899072 -0.20034 -11.18034 0 -22.36068 0.277945 0.138006
3.96647 -6.161493 -0.20034 -22.36068 0 -11.18034 0.005265 0.138006
3.13314 -6.161493 -0.20034 11.18034 0 -22.36068 0.005265 0.115419
3.13314 3.899072 -0.20034 22.36068 0 -11.18034 0.277945 0.115419
15.63313 -6.161493 -0.20034 0 0 -25 0.005266 0.527853
14.7998 -6.161493 -0.20034 17.67767 0 -17.67767 0.005266 0.505266
14.7998 3.899072 -0.20034 17.67767 0 -17.67767 0.277945 0.505266
15.63313 3.899072 -0.20034 0 0 -25 0.277945 0.527853
13.13313 3.899072 -0.394395 11.18034 1.109501e-05 -22.36068 0.277945 0.444314
13.13313 -6.161493 -0.3944 22.36068 5.547505e-06 -11.18034 0.005266 0.444314
12.2998 -6.161493 -0.3944 -11.18034 1.109501e-05 -22.36068 0.005266 0.421727
12.2998 3.899072 -0.394395 -22.36068 5.547505e-06 -11.18034 0.277945 0.421727
11.46647 3.899072 -0.394395 11.18034 1.109501e-05 -22.36068 0.277945 0.388621
11.46647 -6.161493 -0.3944 22.36068 5.547505e-06 -11.18034 0.005266 0.388621
10.63313 -6.161493 -0.3944 -11.18034 1.109501e-05 -22.36068 0.005266 0.366035
10.63313 3.899072 -0.394395 -22.36068 5.547505e-06 -11.18034 0.277945 0.366035
10.63313 3.899072 -0.20034 -11.18034 0 -22.36068 0.277945 0.360775
10.63313 -6.161493 -0.20034 -22.36068 0 -11.18034 0.005266 0.360775
9.799806 -6.161493 -0.20034 11.18034 0 -22.36068 0.005266 0.338189
9.799806 3.899072 -0.20034 22.36068 0 -11.18034 0.277945 0.338189
8.133141 3.899072 -0.394395 11.18034 1.109501e-05 -22.36068 0.277945 0.277237
8.133141 -6.161493 -0.3944 22.36068 5.547505e-06 -11.18034 0.005266 0.277237
7.299805 -6.161493 -0.3944 -11.18034 1.109501e-05 -22.36068 0.005266 0.254650
7.299805 3.899072 -0.394395 -22.36068 5.547505e-06 -11.18034 0.277945 0.254650
6.46647 3.899072 -0.394395 11.18034 1.109501e-05 -22.36068 0.277945 0.221544
6.46647 -6.161493 -0.3944 22.36068 5.547505e-06 -11.18034 0.005266 0.221545
5.63314 -6.161493 -0.3944 -11.18034 1.109501e-05 -22.36068 0.005266 0.198958
5.63314 3.899072 -0.394395 -22.36068 5.547505e-06 -11.18034 0.277945 0.198958
5.63314 3.899072 -0.20034 -11.18034 0 -22.36068 0.277945 0.193698
5.63314 -6.161493 -0.20034 -22.36068 0 -11.18034 0.005266 0.193698
4.799805 -6.161493 -0.20034 11.18034 0 -22.36068 0.005266 0.171111
4.799805 3.899072 -0.20034 22.36068 0 -11.18034 0.277945 0.171111
3.13314 3.899072 -0.394395 11.18034 1.109501e-05 -22.36068 0.277945 0.110160
3.13314 -6.161493 -0.3944 22.36068 5.547505e-06 -11.18034 0.005265 0.110160
2.299805 -6.161493 -0.3944 -11.18034 1.109501e-05 -22.36068 0.005265 0.087573
2.299805 3.899072 -0.394395 -22.36068 5.547505e-06 -11.18034 0.277945 0.087573
1.46647 3.899072 -0.394395 11.18034 1.109501e-05 -22.36068 0.277945 0.054467
1.46647 -6.161493 -0.3944 22.36068 5.547505e-06 -11.18034 0.005266 0.054467
0.6331348 -6.161493 -0.3944 -11.18034 1.109501e-05 -22.36068 0.005266 0.031881
0.6331348 3.899072 -0.394395 -22.36068 5.547505e-06 -11.18034 0.277945 0.031880
0.6331348 3.899072 -0.20034 -11.18034 0 -22.36068 0.277945 0.026621
0.6331348 -6.161493 -0.20034 -22.36068 0 -11.18034 0.005266 0.026621
-0.180015 -6.161493 -0.20034 0 0 -25 0.005266 0.004581
-0.180015 3.899072 -0.20034 0 0 -25 0.277945 0.004581
15.63313 3.899072 -0.394395 0 0 -25 0.283338 0.521797
-0.180015 3.899072 -0.394395 0 0 -25 0.283337 0.006543
-0.180015 4.015282 -0.394395 0 -11.18034 -22.36068 0.287124 0.006543
15.63313 4.015282 -0.394395 0 -22.36068 -11.18034 0.287124 0.521797
15.63313 4.015282 -0.618865 0 -11.18034 -22.36068 0.294438 0.521797
-0.180015 4.015282 -0.618865 0 -22.36068 -11.18034 0.294438 0.006543
-0.180015 4.182137 -0.618865 0 17.67767 -17.67767 0.299875 0.006543
15.63313 4.182137 -0.618865 0 17.67767 -17.67767 0.299875 0.521797
15.63313 3.899072 0.3944 0 0 25 0.356742 0.521797
15.63313 4.015282 0.3944 0 -22.36068 11.18034 0.352956 0.521797
-0.180015 4.015282 0.3944 0 -11.18034 22.36068 0.352956 0.006544
-0.180015 3.899072 0.3944 0 0 25 0.356742 0.006544
15.63313 4.015282 0.618865 0 -11.18034 22.36068 0.345642 0.521797
15.63313 4.182137 0.618865 0 22.36068 11.18034 0.340205 0.521797
-0.180015 4.182137 0.618865 0 11.18034 22.36068 0.340205 0.006543
-0.180015 4.015282 0.618865 0 -22.36068 11.18034 0.345642 0.006543
15.63313 3.899072 -0.394395 0 -25 0 0.469507 0.924521
15.63313 3.899072 0.3944 0 -25 0 0.469507 0.947478
-0.180015 3.899072 0.3944 0 -25 0 0.009273 0.947478
-0.180015 3.899072 -0.394395 0 -25 0 0.009273 0.924521
14.7998 3.899072 0.3944 11.18034 0 22.36068 0.005268 0.500008
13.96647 3.899072 0.3944 -22.36068 0 11.18034 0.005268 0.477421
13.96647 -6.161493 0.3944 -11.18034 0 22.36068 0.277947 0.477421
14.7998 -6.161493 0.3944 22.36068 0 11.18034 0.277947 0.500008
4.799805 3.899072 0.3944 11.18034 0 22.36068 0.005266 0.165854
3.96647 3.899072 0.3944 -22.36068 0 11.18034 0.005267 0.143267
3.96647 -6.161493 0.3944 -11.18034 0 22.36068 0.277946 0.143266
4.799805 -6.161493 0.3944 22.36068 0 11.18034 0.277946 0.165852
9.799806 3.899072 0.3944 11.18034 0 22.36068 0.005268 0.332930
8.96647 3.899072 0.3944 -22.36068 0 11.18034 0.005268 0.310345
8.96647 -6.161493 0.3944 -11.18034 0 22.36068 0.277947 0.310344
9.799806 -6.161493 0.3944 22.36068 0 11.18034 0.277947 0.332930
12.2998 3.899072 0.20034 -11.18034 0 22.36068 0.005268 0.416469
11.46647 3.899072 0.20034 22.36068 0 11.18034 0.005268 0.393883
11.46647 -6.161493 0.20034 11.18034 0 22.36068 0.277947 0.393882
12.2998 -6.161493 0.20034 -22.36068 0 11.18034 0.277947 0.416469
13.96647 3.899072 0.20034 -11.18034 0 22.36068 0.005268 0.472161
13.13313 3.899072 0.20034 22.36068 0 11.18034 0.005267 0.449575
13.13313 -6.161493 0.20034 11.18034 0 22.36068 0.277947 0.449575
13.96647 -6.161493 0.20034 -22.36068 0 11.18034 0.277947 0.472161
7.299805 3.899072 0.20034 -11.18034 0 22.36068 0.005267 0.249393
6.46647 3.899072 0.20034 22.36068 0 11.18034 0.005267 0.226806
6.46647 -6.161493 0.20034 11.18034 0 22.36068 0.277946 0.226805
7.299805 -6.161493 0.20034 -22.36068 0 11.18034 0.277947 0.249391
8.96647 3.899072 0.20034 -11.18034 0 22.36068 0.005268 0.305085
8.133141 3.899072 0.20034 22.36068 0 11.18034 0.005268 0.282499
8.133141 -6.161493 0.20034 11.18034 0 22.36068 0.277947 0.282497
8.96647 -6.161493 0.20034 -22.36068 0 11.18034 0.277947 0.305083
2.299805 3.899072 0.20034 -11.18034 0 22.36068 0.005266 0.082316
1.46647 3.899072 0.20034 22.36068 0 11.18034 0.005266 0.059729
1.46647 -6.161493 0.20034 11.18034 0 22.36068 0.277945 0.059727
2.299805 -6.161493 0.20034 -22.36068 0 11.18034 0.277946 0.082314
3.96647 3.899072 0.20034 -11.18034 0 22.36068 0.005267 0.138008
3.13314 3.899072 0.20034 22.36068 0 11.18034 0.005267 0.115422
3.13314 -6.161493 0.20034 11.18034 0 22.36068 0.277946 0.115419
3.96647 -6.161493 0.20034 -22.36068 0 11.18034 0.277946 0.138006
15.63313 -6.161493 0.20034 0 0 25 0.277947 0.527854
15.63313 3.899072 0.20034 0 0 25 0.005268 0.527854
14.7998 3.899072 0.20034 17.67767 0 17.67767 0.005268 0.505267
14.7998 -6.161493 0.20034 17.67767 0 17.67767 0.277947 0.505267
13.13313 3.899072 0.3944 11.18034 0 22.36068 0.005268 0.444315
12.2998 3.899072 0.3944 -22.36068 0 11.18034 0.005268 0.421729
12.2998 -6.161493 0.3944 -11.18034 0 22.36068 0.277947 0.421729
13.13313 -6.161493 0.3944 22.36068 0 11.18034 0.277947 0.444315
11.46647 3.899072 0.3944 11.18034 0 22.36068 0.005268 0.388623
10.63313 3.899072 0.3944 -22.36068 0 11.18034 0.005268 0.366036
10.63313 -6.161493 0.3944 -11.18034 0 22.36068 0.277947 0.366036
11.46647 -6.161493 0.3944 22.36068 0 11.18034 0.277947 0.388623
10.63313 3.899072 0.20034 -11.18034 0 22.36068 0.005268 0.360777
9.799806 3.899072 0.20034 22.36068 0 11.18034 0.005268 0.338190
9.799806 -6.161493 0.20034 11.18034 0 22.36068 0.277947 0.338190
10.63313 -6.161493 0.20034 -22.36068 0 11.18034 0.277947 0.360776
8.133141 3.899072 0.3944 11.18034 0 22.36068 0.005267 0.277239
7.299805 3.899072 0.3944 -22.36068 0 11.18034 0.005267 0.254652
7.299805 -6.161493 0.3944 -11.18034 0 22.36068 0.277947 0.254651
8.133141 -6.161493 0.3944 22.36068 0 11.18034 0.277947 0.277237
6.46647 3.899072 0.3944 11.18034 0 22.36068 0.005267 0.221546
5.63314 3.899072 0.3944 -22.36068 0 11.18034 0.005267 0.198960
5.63314 -6.161493 0.3944 -11.18034 0 22.36068 0.277946 0.198958
6.46647 -6.161493 0.3944 22.36068 0 11.18034 0.277946 0.221545
5.63314 3.899072 0.20034 -11.18034 0 22.36068 0.005267 0.193700
4.799805 3.899072 0.20034 22.36068 0 11.18034 0.005266 0.171114
4.799805 -6.161493 0.20034 11.18034 0 22.36068 0.277946 0.171112
5.63314 -6.161493 0.20034 -22.36068 0 11.18034 0.277946 0.193698
3.13314 3.899072 0.3944 11.18034 0 22.36068 0.005267 0.110162
2.299805 3.899072 0.3944 -22.36068 0 11.18034 0.005266 0.087575
2.299805 -6.161493 0.3944 -11.18034 0 22.36068 0.277946 0.087573
3.13314 -6.161493 0.3944 22.36068 0 11.18034 0.277946 0.110160
1.46647 3.899072 0.3944 11.18034 0 22.36068 0.005266 0.054470
0.6331348 3.899072 0.3944 -22.36068 0 11.18034 0.005266 0.031883
0.6331348 -6.161493 0.3944 -11.18034 0 22.36068 0.277945 0.031881
1.46647 -6.161493 0.3944 22.36068 0 11.18034 0.277945 0.054467
0.6331348 3.899072 0.20034 -11.18034 0 22.36068 0.005266 0.026623
-0.180015 3.899072 0.20034 0 0 25 0.005266 0.004584
-0.180015 -6.161493 0.20034 0 0 25 0.277945 0.004581
0.6331348 -6.161493 0.20034 -22.36068 0 11.18034 0.277945 0.026621
-2.915134 3.899072 -0.394395 11.18034 1.109501e-05 -22.36068 0.277945 0.500006
-2.915134 -6.161493 -0.3944 22.36068 5.547505e-06 -11.18034 0.005266 0.500007
-3.748469 -6.161493 -0.3944 -11.18034 1.109501e-05 -22.36068 0.005266 0.477420
-3.748469 3.899072 -0.394395 -22.36068 5.547505e-06 -11.18034 0.277945 0.477420
-12.91513 3.899072 -0.394395 11.18034 1.109501e-05 -22.36068 0.277945 0.165852
-12.91513 -6.161493 -0.3944 22.36068 5.547505e-06 -11.18034 0.005265 0.165852
-13.74847 -6.161493 -0.3944 -11.18034 1.109501e-05 -22.36068 0.005265 0.143265
-13.74847 3.899072 -0.394395 -22.36068 5.547505e-06 -11.18034 0.277945 0.143265
-7.915134 3.899072 -0.394395 11.18034 1.109501e-05 -22.36068 0.277945 0.332929
-7.915134 -6.161493 -0.3944 22.36068 5.547505e-06 -11.18034 0.005266 0.332929
-8.748469 -6.161493 -0.3944 -11.18034 1.109501e-05 -22.36068 0.005266 0.310343
-8.748469 3.899072 -0.394395 -22.36068 5.547505e-06 -11.18034 0.277945 0.310343
-5.415134 3.899072 -0.20034 -11.18034 0 -22.36068 0.277945 0.416468
-5.415134 -6.161493 -0.20034 -22.36068 0 -11.18034 0.005266 0.416467
-6.248469 -6.161493 -0.20034 11.18034 0 -22.36068 0.005266 0.393881
-6.248469 3.899072 -0.20034 22.36068 0 -11.18034 0.277945 0.393881
-3.748469 3.899072 -0.20034 -11.18034 0 -22.36068 0.277945 0.472160
-3.748469 -6.161493 -0.20034 -22.36068 0 -11.18034 0.005266 0.472160
-4.5818 -6.161493 -0.20034 11.18034 0 -22.36068 0.005266 0.449573
-4.5818 3.899072 -0.20034 22.36068 0 -11.18034 0.277945 0.449573
-10.41513 3.899072 -0.20034 -11.18034 0 -22.36068 0.277945 0.249390
-10.41513 -6.161493 -0.20034 -22.36068 0 -11.18034 0.005266 0.249391
-11.24847 -6.161493 -0.20034 11.18034 0 -22.36068 0.005266 0.226804
-11.24847 3.899072 -0.20034 22.36068 0 -11.18034 0.277945 0.226804
-8.748469 3.899072 -0.20034 -11.18034 0 -22.36068 0.277945 0.305083
-8.748469 -6.161493 -0.20034 -22.36068 0 -11.18034 0.005266 0.305083
-9.5818 -6.161493 -0.20034 11.18034 0 -22.36068 0.005266 0.282497
-9.5818 3.899072 -0.20034 22.36068 0 -11.18034 0.277945 0.282497
-15.41513 3.899072 -0.20034 -11.18034 0 -22.36068 0.277945 0.082313
-15.41513 -6.161493 -0.20034 -22.36068 0 -11.18034 0.005265 0.082314
-16.24847 -6.161493 -0.20034 11.18034 0 -22.36068 0.005266 0.059727
-16.24847 3.899072 -0.20034 22.36068 0 -11.18034 0.277945 0.059727
-13.74847 3.899072 -0.20034 -11.18034 0 -22.36068 0.277945 0.138006
-13.74847 -6.161493 -0.20034 -22.36068 0 -11.18034 0.005265 0.138006
-14.5818 -6.161493 -0.20034 11.18034 0 -22.36068 0.005265 0.115419
-14.5818 3.899072 -0.20034 22.36068 0 -11.18034 0.277945 0.115419
-2.081805 -6.161493 -0.20034 0 0 -25 0.005266 0.527853
-2.915134 -6.161493 -0.20034 17.67767 0 -17.67767 0.005266 0.505266
-2.915134 3.899072 -0.20034 17.67767 0 -17.67767 0.277945 0.505266
-2.081805 3.899072 -0.20034 0 0 -25 0.277945 0.527853
-4.5818 3.899072 -0.394395 11.18034 1.109501e-05 -22.36068 0.277945 0.444314
-4.5818 -6.161493 -0.3944 22.36068 5.547505e-06 -11.18034 0.005266 0.444314
-5.415134 -6.161493 -0.3944 -11.18034 1.109501e-05 -22.36068 0.005266 0.421727
-5.415134 3.899072 -0.394395 -22.36068 5.547505e-06 -11.18034 0.277945 0.421727
-6.248469 3.899072 -0.394395 11.18034 1.109501e-05 -22.36068 0.277945 0.388621
-6.248469 -6.161493 -0.3944 22.36068 5.547504e-06 -11.18034 0.005266 0.388621
-7.0818 -6.161493 -0.3944 -11.18034 1.109501e-05 -22.36068 0.005266 0.366035
-7.0818 3.899072 -0.394395 -22.36068 5.547504e-06 -11.18034 0.277945 0.366035
-7.0818 3.899072 -0.20034 -11.18034 0 -22.36068 0.277945 0.360775
-7.0818 -6.161493 -0.20034 -22.36068 0 -11.18034 0.005266 0.360775
-7.915134 -6.161493 -0.20034 11.18034 0 -22.36068 0.005266 0.338189
-7.915134 3.899072 -0.20034 22.36068 0 -11.18034 0.277945 0.338189
-9.5818 3.899072 -0.394395 11.18034 1.109501e-05 -22.36068 0.277945 0.277237
-9.5818 -6.161493 -0.3944 22.36068 5.547505e-06 -11.18034 0.005266 0.277237
-10.41513 -6.161493 -0.3944 -11.18034 1.109501e-05 -22.36068 0.005266 0.254650
-10.41513 3.899072 -0.394395 -22.36068 5.547505e-06 -11.18034 0.277945 0.254650
-11.24847 3.899072 -0.394395 11.18034 1.109501e-05 -22.36068 0.277945 0.221544
-11.24847 -6.161493 -0.3944 22.36068 5.547504e-06 -11.18034 0.005266 0.221545
-12.0818 -6.161493 -0.3944 -11.18034 1.109501e-05 -22.36068 0.005266 0.198958
-12.0818 3.899072 -0.394395 -22.36068 5.547504e-06 -11.18034 0.277945 0.198958
-12.0818 3.899072 -0.20034 -11.18034 0 -22.36068 0.277945 0.193698
-12.0818 -6.161493 -0.20034 -22.36068 0 -11.18034 0.005266 0.193698
-12.91513 -6.161493 -0.20034 11.18034 0 -22.36068 0.005266 0.171111
-12.91513 3.899072 -0.20034 22.36068 0 -11.18034 0.277945 0.171111
-14.5818 3.899072 -0.394395 11.18034 1.109501e-05 -22.36068 0.277945 0.110160
-14.5818 -6.161493 -0.3944 22.36068 5.547505e-06 -11.18034 0.005265 0.110160
-15.41513 -6.161493 -0.3944 -11.18034 1.109501e-05 -22.36068 0.005265 0.087573
-15.41513 3.899072 -0.394395 -22.36068 5.547505e-06 -11.18034 0.277945 0.087573
-16.24847 3.899072 -0.394395 11.18034 1.109501e-05 -22.36068 0.277945 0.054467
-16.24847 -6.161493 -0.3944 22.36068 5.547504e-06 -11.18034 0.005266 0.054467
-17.0818 -6.161493 -0.3944 -11.18034 1.109501e-05 -22.36068 0.005266 0.031881
-17.0818 3.899072 -0.394395 -22.36068 5.547504e-06 -11.18034 0.277945 0.031880
-17.0818 3.899072 -0.20034 -11.18034 0 -22.36068 0.277945 0.026621
-17.0818 -6.161493 -0.20034 -22.36068 0 -11.18034 0.005266 0.026621
-17.89495 -6.161493 -0.20034 0 0 -25 0.005266 0.004581
-17.89495 3.899072 -0.20034 0 0 -25 0.277945 0.004581
-2.081805 3.899072 -0.394395 0 0 -25 0.283338 0.521797
-17.89495 3.899072 -0.394395 0 0 -25 0.283337 0.006543
-17.89495 4.015282 -0.394395 0 -11.18034 -22.36068 0.287124 0.006543
-2.081805 4.015282 -0.394395 0 -22.36068 -11.18034 0.287124 0.521797
-2.081805 4.015282 -0.618865 0 -11.18034 -22.36068 0.294438 0.521797
-17.89495 4.015282 -0.618865 0 -22.36068 -11.18034 0.294438 0.006543
-17.89495 4.182137 -0.618865 0 17.67767 -17.67767 0.299875 0.006543
-2.081805 4.182137 -0.618865 0 17.67767 -17.67767 0.299875 0.521797
-2.081805 3.899072 0.3944 0 0 25 0.356742 0.521797
-2.081805 4.015282 0.3944 0 -22.36068 11.18034 0.352956 0.521797
-17.89495 4.015282 0.3944 0 -11.18034 22.36068 0.352956 0.006544
-17.89495 3.899072 0.3944 0 0 25 0.356742 0.006544
-2.081805 4.015282 0.618865 0 -11.18034 22.36068 0.345642 0.521797
-2.081805 4.182137 0.618865 0 22.36068 11.18034 0.340205 0.521797
-17.89495 4.182137 0.618865 0 11.18034 22.36068 0.340205 0.006543
-17.89495 4.015282 0.618865 0 -22.36068 11.18034 0.345642 0.006543
-2.081805 3.899072 -0.394395 0 -25 0 0.469507 0.924521
-2.081805 3.899072 0.3944 0 -25 0 0.469507 0.947478
-17.89495 3.899072 0.3944 0 -25 0 0.009273 0.947478
-17.89495 3.899072 -0.394395 0 -25 0 0.009273 0.924521
-2.915134 3.899072 0.3944 11.18034 0 22.36068 0.005268 0.500008
-3.748469 3.899072 0.3944 -22.36068 0 11.18034 0.005268 0.477421
-3.748469 -6.161493 0.3944 -11.18034 0 22.36068 0.277947 0.477421
-2.915134 -6.161493 0.3944 22.36068 0 11.18034 0.277947 0.500008
-12.91513 3.899072 0.3944 11.18034 0 22.36068 0.005266 0.165854
-13.74847 3.899072 0.3944 -22.36068 0 11.18034 0.005267 0.143267
-13.74847 -6.161493 0.3944 -11.18034 0 22.36068 0.277946 0.143266
-12.91513 -6.161493 0.3944 22.36068 0 11.18034 0.277946 0.165852
-7.915134 3.899072 0.3944 11.18034 0 22.36068 0.005268 0.332930
-8.748469 3.899072 0.3944 -22.36068 0 11.18034 0.005268 0.310345
-8.748469 -6.161493 0.3944 -11.18034 0 22.36068 0.277947 0.310344
-7.915134 -6.161493 0.3944 22.36068 0 11.18034 0.277947 0.332930
-5.415134 3.899072 0.20034 -11.18034 0 22.36068 0.005268 0.416469
-6.248469 3.899072 0.20034 22.36068 0 11.18034 0.005268 0.393883
-6.248469 -6.161493 0.20034 11.18034 0 22.36068 0.277947 0.393882
-5.415134 -6.161493 0.20034 -22.36068 0 11.18034 0.277947 0.416469
-3.748469 3.899072 0.20034 -11.18034 0 22.36068 0.005268 0.472161
-4.5818 3.899072 0.20034 22.36068 0 11.18034 0.005267 0.449575
-4.5818 -6.161493 0.20034 11.18034 0 22.36068 0.277947 0.449575
-3.748469 -6.161493 0.20034 -22.36068 0 11.18034 0.277947 0.472161
-10.41513 3.899072 0.20034 -11.18034 0 22.36068 0.005267 0.249393
-11.24847 3.899072 0.20034 22.36068 0 11.18034 0.005267 0.226806
-11.24847 -6.161493 0.20034 11.18034 0 22.36068 0.277946 0.226805
-10.41513 -6.161493 0.20034 -22.36068 0 11.18034 0.277947 0.249391
-8.748469 3.899072 0.20034 -11.18034 0 22.36068 0.005268 0.305085
-9.5818 3.899072 0.20034 22.36068 0 11.18034 0.005268 0.282499
-9.5818 -6.161493 0.20034 11.18034 0 22.36068 0.277947 0.282497
-8.748469 -6.161493 0.20034 -22.36068 0 11.18034 0.277947 0.305083
-15.41513 3.899072 0.20034 -11.18034 0 22.36068 0.005266 0.082316
-16.24847 3.899072 0.20034 22.36068 0 11.18034 0.005266 0.059729
-16.24847 -6.161493 0.20034 11.18034 0 22.36068 0.277945 0.059727
-15.41513 -6.161493 0.20034 -22.36068 0 11.18034 0.277946 0.082314
-13.74847 3.899072 0.20034 -11.18034 0 22.36068 0.005267 0.138008
-14.5818 3.899072 0.20034 22.36068 0 11.18034 0.005267 0.115422
-14.5818 -6.161493 0.20034 11.18034 0 22.36068 0.277946 0.115419
-13.74847 -6.161493 0.20034 -22.36068 0 11.18034 0.277946 0.138006
-2.081805 -6.161493 0.20034 0 0 25 0.277947 0.527854
-2.081805 3.899072 0.20034 0 0 25 0.005268 0.527854
-2.915134 3.899072 0.20034 17.67767 0 17.67767 0.005268 0.505267
-2.915134 -6.161493 0.20034 17.67767 0 17.67767 0.277947 0.505267
-4.5818 3.899072 0.3944 11.18034 0 22.36068 0.005268 0.444315
-5.415134 3.899072 0.3944 -22.36068 0 11.18034 0.005268 0.421729
-5.415134 -6.161493 0.3944 -11.18034 0 22.36068 0.277947 0.421729
-4.5818 -6.161493 0.3944 22.36068 0 11.18034 0.277947 0.444315
-6.248469 3.899072 0.3944 11.18034 0 22.36068 0.005268 0.388623
-7.0818 3.899072 0.3944 -22.36068 0 11.18034 0.005268 0.366036
-7.0818 -6.161493 0.3944 -11.18034 0 22.36068 0.277947 0.366036
-6.248469 -6.161493 0.3944 22.36068 0 11.18034 0.277947 0.388623
-7.0818 3.899072 0.20034 -11.18034 0 22.36068 0.005268 0.360777
-7.915134 3.899072 0.20034 22.36068 0 11.18034 0.005268 0.338190
-7.915134 -6.161493 0.20034 11.18034 0 22.36068 0.277947 0.338190
-7.0818 -6.161493 0.20034 -22.36068 0 11.18034 0.277947 0.360776
-9.5818 3.899072 0.3944 11.18034 0 22.36068 0.005267 0.277239
-10.41513 3.899072 0.3944 -22.36068 0 11.18034 0.005267 0.254652
-10.41513 -6.161493 0.3944 -11.18034 0 22.36068 0.277947 0.254651
-9.5818 -6.161493 0.3944 22.36068 0 11.18034 0.277947 0.277237
-11.24847 3.899072 0.3944 11.18034 0 22.36068 0.005267 0.221546
-12.0818 3.899072 0.3944 -22.36068 0 11.18034 0.005267 0.198960
-12.0818 -6.161493 0.3944 -11.18034 0 22.36068 0.277946 0.198958
-11.24847 -6.161493 0.3944 22.36068 0 11.18034 0.277946 0.221545
-12.0818 3.899072 0.20034 -11.18034 0 22.36068 0.005267 0.193700
-12.91513 3.899072 0.20034 22.36068 0 11.18034 0.005266 0.171114
-12.91513 -6.161493 0.20034 11.18034 0 22.36068 0.277946 0.171112
-12.0818 -6.161493 0.20034 -22.36068 0 11.18034 0.277946 0.193698
-14.5818 3.899072 0.3944 11.18034 0 22.36068 0.005267 0.110162
-15.41513 3.899072 0.3944 -22.36068 0 11.18034 0.005266 0.087575
-15.41513 -6.161493 0.3944 -11.18034 0 22.36068 0.277946 0.087573
-14.5818 -6.161493 0.3944 22.36068 0 11.18034 0.277946 0.110160
-16.24847 3.899072 0.3944 11.18034 0 22.36068 0.005266 0.054470
-17.0818 3.899072 0.3944 -22.36068 0 11.18034 0.005266 0.031883
-17.0818 -6.161493 0.3944 -11.18034 0 22.36068 0.277945 0.031881
-16.24847 -6.161493 0.3944 22.36068 0 11.18034 0.277945 0.054467
-17.0818 3.899072 0.20034 -11.18034 0 22.36068 0.005266 0.026623
-17.89495 3.899072 0.20034 0 0 25 0.005266 0.004584
-17.89495 -6.161493 0.20034 0 0 25 0.277945 0.004581
-17.0818 -6.161493 0.20034 -22.36068 0 11.18034 0.277945 0.026621
3 0 1 2 
3 0 2 3 
3 4 5 6 
3 4 6 7 
3 8 9 10 
3 8 10 11 
3 3 2 12 
3 3 12 13 
3 9 8 1 
3 9 1 0 
3 14 15 16 
3 14 16 17 
3 18 19 20 
3 18 20 21 
3 22 23 21 
3 22 21 20 
3 15 14 24 
3 15 24 25 
3 26 27 28 
3 26 28 29 
3 30 31 29 
3 30 29 28 
3 32 33 31 
3 32 31 30 
3 34 35 33 
3 34 33 32 
3 36 37 38 
3 36 38 39 
3 40 41 42 
3 40 42 43 
3 44 45 46 
3 44 46 47 
3 48 49 50 
3 48 50 51 
3 47 46 37 
3 47 37 36 
3 43 42 49 
3 43 49 48 
3 51 50 41 
3 51 41 40 
3 39 38 45 
3 39 45 44 
3 52 53 54 
3 52 54 55 
3 56 57 58 
3 56 58 59 
3 60 61 62 
3 60 62 63 
3 55 54 64 
3 55 64 65 
3 61 60 53 
3 61 53 52 
3 66 67 68 
3 66 68 69 
3 69 68 70 
3 69 70 71 
3 72 73 71 
3 72 71 70 
3 74 75 67 
3 74 67 66 
3 76 77 78 
3 76 78 79 
3 80 81 79 
3 80 79 78 
3 82 83 81 
3 82 81 80 
3 84 85 83 
3 84 83 82 
3 86 87 88 
3 86 88 89 
3 90 91 92 
3 90 92 93 
3 94 95 96 
3 94 96 97 
3 98 99 100 
3 98 100 101 
3 97 96 87 
3 97 87 86 
3 93 92 99 
3 93 99 98 
3 101 100 91 
3 101 91 90 
3 89 88 95 
3 89 95 94 
3 102 103 104 
3 102 104 105 
3 106 107 108 
3 106 108 109 
3 110 111 112 
3 110 112 113 
3 114 115 116 
3 114 116 117 
3 118 119 120 
3 118 120 121 
3 122 123 124 
3 122 124 125 
3 126 127 128 
3 126 128 129 
3 130 131 132 
3 130 132 133 
3 134 135 136 
3 134 136 137 
3 138 139 140 
3 138 140 141 
3 142 143 144 
3 142 144 145 
3 146 147 148 
3 146 148 149 
3 150 151 152 
3 150 152 153 
3 154 155 156 
3 154 156 157 
3 158 159 160 
3 158 160 161 
3 162 163 164 
3 162 164 165 
3 166 167 168 
3 166 168 169 
3 170 171 172 
3 170 172 173 
3 174 175 176 
3 174 176 177 
3 140 139 103 
3 140 103 102 
3 119 118 105 
3 119 105 104 
3 165 164 107 
3 165 107 106 
3 135 134 109 
3 135 109 108 
3 153 152 111 
3 153 111 110 
3 127 126 113 
3 127 113 112 
3 121 120 143 
3 121 143 142 
3 115 114 145 
3 115 145 144 
3 117 116 147 
3 117 147 146 
3 151 150 149 
3 151 149 148 
3 129 128 155 
3 129 155 154 
3 123 122 157 
3 123 157 156 
3 125 124 159 
3 125 159 158 
3 163 162 161 
3 163 161 160 
3 137 136 167 
3 137 167 166 
3 131 130 169 
3 131 169 168 
3 133 132 171 
3 133 171 170 
3 175 174 173 
3 175 173 172 
3 178 179 180 
3 178 180 181 
3 182 183 184 
3 182 184 185 
3 181 180 183 
3 181 183 182 
3 186 187 188 
3 186 188 189 
3 190 191 192 
3 190 192 193 
3 187 190 193 
3 187 193 188 
3 184 192 191 
3 184 191 185 
3 194 195 196 
3 194 196 197 
3 198 199 200 
3 198 200 201 
3 202 203 204 
3 202 204 205 
3 206 207 208 
3 206 208 209 
3 210 211 212 
3 210 212 213 
3 214 215 216 
3 214 216 217 
3 218 219 220 
3 218 220 221 
3 222 223 224 
3 222 224 225 
3 226 227 228 
3 226 228 229 
3 230 231 232 
3 230 232 233 
3 234 235 236 
3 234 236 237 
3 238 239 240 
3 238 240 241 
3 242 243 244 
3 242 244 245 
3 246 247 248 
3 246 248 249 
3 250 251 252 
3 250 252 253 
3 254 255 256 
3 254 256 257 
3 258 259 260 
3 258 260 261 
3 262 263 264 
3 262 264 265 
3 266 267 268 
3 266 268 269 
3 270 271 272 
3 270 272 273 
3 236 198 201 
3 236 201 237 
3 217 200 199 
3 217 199 214 
3 259 202 205 
3 259 205 260 
3 233 204 203 
3 233 203 230 
3 247 206 209 
3 247 209 248 
3 225 208 207 
3 225 207 222 
3 215 238 241 
3 215 241 216 
3 213 240 239 
3 213 239 210 
3 211 242 245 
3 211 245 212 
3 249 244 243 
3 249 243 246 
3 223 250 253 
3 223 253 224 
3 221 252 251 
3 221 251 218 
3 219 254 257 
3 219 257 220 
3 261 256 255 
3 261 255 258 
3 231 262 265 
3 231 265 232 
3 229 264 263 
3 229 263 226 
3 227 266 269 
3 227 269 228 
3 273 268 267 
3 273 267 270 
3 274 275 276 
3 274 276 277 
3 278 279 280 
3 278 280 281 
3 282 283 284 
3 282 284 285 
3 286 287 288 
3 286 288 289 
3 290 291 292 
3 290 292 293 
3 294 295 296 
3 294 296 297 
3 298 299 300 
3 298 300 301 
3 302 303 304 
3 302 304 305 
3 306 307 308 
3 306 308 309 
3 310 311 312 
3 310 312 313 
3 314 315 316 
3 314 316 317 
3 318 319 320 
3 318 320 321 
3 322 323 324 
3 322 324 325 
3 326 327 328 
3 326 328 329 
3 330 331 332 
3 330 332 333 
3 334 335 336 
3 334 336 337 
3 338 339 340 
3 338 340 341 
3 342 343 344 
3 342 344 345 
3 346 347 348 
3 346 348 349 
3 312 311 275 
3 312 275 274 
3 291 290 277 
3 291 277 276 
3 337 336 279 
3 337 279 278 
3 307 306 281 
3 307 281 280 
3 325 324 283 
3 325 283 282 
3 299 298 285 
3 299 285 284 
3 293 292 315 
3 293 315 314 
3 287 286 317 
3 287 317 316 
3 289 288 319 
3 289 319 318 
3 323 322 321 
3 323 321 320 
3 301 300 327 
3 301 327 326 
3 295 294 329 
3 295 329 328 
3 297 296 331 
3 297 331 330 
3 335 334 333 
3 335 333 332 
3 309 308 339 
3 309 339 338 
3 303 302 341 
3 303 341 340 
3 305 304 343 
3 305 343 342 
3 347 346 345 
3 347 345 344 
3 350 351 352 
3 350 352 353 
3 354 355 356 
3 354 356 357 
3 353 352 355 
3 353 355 354 
3 358 359 360 
3 358 360 361 
3 362 363 364 
3 362 364 365 
3 359 362 365 
3 359 365 360 
3 356 364 363 
3 356 363 357 
3 366 367 368 
3 366 368 369 
3 370 371 372 
3 370 372 373 
3 374 375 376 
3 374 376 377 
3 378 379 380 
3 378 380 381 
3 382 383 384 
3 382 384 385 
3 386 387 388 
3 386 388 389 
3 390 391 392 
3 390 392 393 
3 394 395 396 
3 394 396 397 
3 398 399 400 
3 398 400 401 
3 402 403 404 
3 402 404 405 
3 406 407 408 
3 406 408 409 
3 410 411 412 
3 410 412 413 
3 414 415 416 
3 414 416 417 
3 418 419 420 
3 418 420 421 
3 422 423 424 
3 422 424 425 
3 426 427 428 
3 426 428 429 
3 430 431 432 
3 430 432 433 
3 434 435 436 
3 434 436 437 
3 438 439 440 
3 438 440 441 
3 442 443 444 
3 442 444 445 
3 408 370 373 
3 408 373 409 
3 389 372 371 
3 389 371 386 
3 431 374 377 
3 431 377 432 
3 405 376 375 
3 405 375 402 
3 419 378 381 
3 419 381 420 
3 397 380 379 
3 397 379 394 
3 387 410 413 
3 387 413 388 
3 385 412 411 
3 385 411 382 
3 383 414 417 
3 383 417 384 
3 421 416 415 
3 421 415 418 
3 395 422 425 
3 395 425 396 
3 393 424 423 
3 393 423 390 
3 391 426 429 
3 391 429 392 
3 433 428 427 
3 433 427 430 
3 403 434 437 
3 403 437 404 
3 401 436 435 
3 401 435 398 
3 399 438 441 
3 399 441 400 
3 445 440 439 
3 445 439 442 
