ply
format ascii 1.0
comment VCGLIB generated
element vertex 24
property float x
property float y
property float z
property float nx
property float ny
property float nz
property float texture_u
property float texture_v
element face 12
property list uchar int vertex_indices
end_header
-0.1271838 2.71417 1.309229 4.371139e-08 -8.742277e-08 1 0.875754 1.000000
-0.1271838 -2.714169 1.309229 4.371139e-08 -8.742277e-08 1 0.875754 0.000000
0.1271858 -2.714169 1.309229 4.371139e-08 -8.742277e-08 1 0.917169 0.000000
0.1271858 2.71417 1.309229 4.371139e-08 -8.742277e-08 1 0.917170 1.000000
0.1271858 2.71417 1.309229 0.9999999 0 -4.371138e-08 -0.000225 0.972096
0.1271858 -2.714169 1.309229 0.9999999 0 -4.371138e-08 -0.000225 -0.027904
0.1271857 -2.714169 -1.309229 0.9999999 0 -4.371138e-08 0.531950 -0.027903
0.1271857 2.71417 -1.309229 0.9999999 0 -4.371138e-08 0.531950 0.972096
0.1271857 2.71417 -1.309229 -4.371139e-08 8.742277e-08 -1 0.958585 0.000000
0.1271857 -2.714169 -1.309229 -4.371139e-08 8.742277e-08 -1 0.958585 1.000000
-0.1271839 -2.714169 -1.309229 -4.371139e-08 8.742277e-08 -1 0.917170 1.000000
-0.1271839 2.71417 -1.309229 -4.371139e-08 8.742277e-08 -1 0.917170 0.000000
-0.1271838 -2.714169 1.309229 -0.9999999 0 4.371138e-08 0.531491 -0.027904
-0.1271838 2.71417 1.309229 -0.9999999 0 4.371138e-08 0.531491 0.972096
-0.1271839 2.71417 -1.309229 -0.9999999 0 4.371138e-08 -0.000683 0.972096
-0.1271839 -2.714169 -1.309229 -0.9999999 0 4.371138e-08 -0.000684 -0.027904
-0.1271839 2.71417 -1.309229 3.821371e-15 0.9999999 8.742278e-08 1.000000 0.495443
-0.1271838 2.71417 1.309229 3.821371e-15 0.9999999 8.742278e-08 1.000000 0.990886
0.1271858 2.71417 1.309229 3.821371e-15 0.9999999 8.742278e-08 0.958585 0.990886
0.1271857 2.71417 -1.309229 3.821371e-15 0.9999999 8.742278e-08 0.958585 0.495443
0.1271857 -2.714169 -1.309229 -3.821371e-15 -0.9999999 -8.742278e-08 1.000000 0.000000
0.1271858 -2.714169 1.309229 -3.821371e-15 -0.9999999 -8.742278e-08 1.000000 0.495443
-0.1271838 -2.714169 1.309229 -3.821371e-15 -0.9999999 -8.742278e-08 0.958585 0.495443
-0.1271839 -2.714169 -1.309229 -3.821371e-15 -0.9999999 -8.742278e-08 0.958585 0.000000
3 0 1 2 
3 0 2 3 
3 4 5 6 
3 4 6 7 
3 8 9 10 
3 8 10 11 
3 12 13 14 
3 12 14 15 
3 16 17 18 
3 16 18 19 
3 20 21 22 
3 20 22 23 
